<?xml version="1.0" standalone="no"?>
<!DOCTYPE svg PUBLIC "-//W3C//DTD SVG 20010904//EN"
 "http://www.w3.org/TR/2001/REC-SVG-20010904/DTD/svg10.dtd">
<svg version="1.0" xmlns="http://www.w3.org/2000/svg"
 width="192.000000pt" height="192.000000pt" viewBox="0 0 192.000000 192.000000"
 preserveAspectRatio="xMidYMid meet">
<metadata>
Created by potrace 1.16, written by Peter Selinger 2001-2019
</metadata>
<g transform="translate(0.000000,192.000000) scale(0.100000,-0.100000)"
fill="#000000" stroke="none">
<path d="M1000 1840 l-840 0 0 -40 0 -40 -40 0 -40 0 0 -280 0 -280 40 0 40 0
0 -80 0 -80 80 0 80 0 0 -40 0 -40 160 0 160 0 0 -40 0 -40 160 0 160 0 0 -40
0 -40 120 0 120 0 0 -40 0 -40 120 0 120 0 0 -40 0 -40 40 0 40 0 0 -80 0 -80
-40 0 -40 0 0 -40 0 -40 -520 0 -520 0 0 40 0 40 -80 0 -80 0 0 40 0 40 -80 0
-80 0 0 -160 0 -160 80 0 80 0 0 -40 0 -40 80 0 80 0 0 -40 0 -40 560 0 560 0
0 40 0 40 80 0 80 0 0 40 0 40 40 0 40 0 0 80 0 80 40 0 40 0 0 160 0 160 -40
0 -40 0 0 80 0 80 -40 0 -40 0 0 40 0 40 -80 0 -80 0 0 40 0 40 -120 0 -120 0
0 40 0 40 -120 0 -120 0 0 40 0 40 -160 0 -160 0 0 40 0 40 -120 0 -120 0 0
40 0 40 -40 0 -40 0 0 40 0 40 40 0 40 0 0 40 0 40 680 0 680 0 0 160 0 160
-840 0z"/>
</g>
</svg>
