# Blender 4.5.0 Release Candidate
# www.blender.org
o Cylinder.002
v -0.016318 0.952828 -0.000000 0.0000 0.0000 1.0000
v -0.016318 0.000000 0.000000 0.0000 0.0000 1.0000
v 0.008159 0.952828 0.014132 0.0000 0.0000 1.0000
v 0.008159 0.000000 0.014131 0.0000 0.0000 1.0000
v 0.008159 0.952828 -0.014131 0.0000 0.0000 1.0000
v 0.008159 -0.000000 -0.014131 0.0000 0.0000 1.0000
v 0.000000 1.000000 -0.000000 0.0000 0.0000 1.0000
v 0.024894 0.930223 0.043117 0.0000 0.0000 1.0000
v -0.049787 0.930223 -0.000000 0.0000 0.0000 1.0000
v 0.024894 0.930223 -0.043117 0.0000 0.0000 1.0000
v 0.000000 0.016318 -0.952828 0.0000 1.0000 0.0000
v 0.000000 0.016318 -0.000000 0.0000 1.0000 0.0000
v 0.014131 -0.008159 -0.952828 0.0000 1.0000 0.0000
v 0.014131 -0.008159 0.000000 0.0000 1.0000 0.0000
v -0.014131 -0.008159 -0.952828 0.0000 1.0000 0.0000
v -0.014131 -0.008159 0.000000 0.0000 1.0000 0.0000
v 0.000000 -0.000000 -1.000000 0.0000 1.0000 0.0000
v 0.043117 -0.024894 -0.930223 0.0000 1.0000 0.0000
v 0.000000 0.049787 -0.930223 0.0000 1.0000 0.0000
v -0.043117 -0.024894 -0.930223 0.0000 1.0000 0.0000
v 0.952828 0.016318 -0.000000 1.0000 0.0000 0.0000
v 0.000000 0.016318 -0.000000 1.0000 0.0000 0.0000
v 0.952828 -0.008159 0.014132 1.0000 0.0000 0.0000
v 0.000000 -0.008159 0.014131 1.0000 0.0000 0.0000
v 0.952828 -0.008159 -0.014131 1.0000 0.0000 0.0000
v 0.000000 -0.008159 -0.014131 1.0000 0.0000 0.0000
v 1.000000 0.000000 0.000000 1.0000 0.0000 0.0000
v 0.930223 -0.024894 0.043117 1.0000 0.0000 0.0000
v 0.930223 0.049787 -0.000000 1.0000 0.0000 0.0000
v 0.930223 -0.024894 -0.043117 1.0000 0.0000 0.0000
v -0.032427 -0.032427 0.032427 1.0000 1.0000 1.0000
v -0.032427 0.032427 0.032427 1.0000 1.0000 1.0000
v -0.032427 -0.032427 -0.032427 1.0000 1.0000 1.0000
v -0.032427 0.032427 -0.032427 1.0000 1.0000 1.0000
v 0.032427 -0.032427 0.032427 1.0000 1.0000 1.0000
v 0.032427 0.032427 0.032427 1.0000 1.0000 1.0000
v 0.032427 -0.032427 -0.032427 1.0000 1.0000 1.0000
v 0.032427 0.032427 -0.032427 1.0000 1.0000 1.0000
s 1
f 2 3 1
f 4 5 3
f 6 1 5
f 10 7 8
f 8 7 9
f 9 7 10
f 12 13 11
f 14 15 13
f 16 11 15
f 20 17 18
f 18 17 19
f 19 17 20
f 22 23 21
f 24 25 23
f 26 21 25
f 30 27 28
f 28 27 29
f 29 27 30
f 32 33 31
f 34 37 33
f 38 35 37
f 36 31 35
f 37 31 33
f 34 36 38
f 2 4 3
f 4 6 5
f 6 2 1
f 12 14 13
f 14 16 15
f 16 12 11
f 22 24 23
f 24 26 25
f 26 22 21
f 32 34 33
f 34 38 37
f 38 36 35
f 36 32 31
f 37 35 31
f 34 32 36
f 30 28 29
f 20 18 19
f 10 8 9
