# Blender 4.5.2 LTS
# www.blender.org
o Vert
v 0.053166 -0.129215 0.075085
v -0.074194 -0.115906 0.075085
v -0.187279 0.274875 -0.089106
v -0.085329 0.389991 -0.089106
v 0.077574 -0.036248 0.069092
v -0.016034 0.028696 0.069092
v 0.086445 0.386645 -0.089106
v 0.202276 0.279586 -0.089106
v 0.259821 0.113668 0.075085
v 0.142228 0.164724 0.075085
v 0.197175 0.141237 -0.085050
v -0.011627 -0.127938 -0.089106
v 0.259514 0.304804 0.075085
v 0.139930 0.253938 0.075085
v 0.028193 -0.001211 -0.081994
v -0.011627 -0.182676 -0.089106
v 0.107641 0.443459 0.075085
v 0.066140 0.329172 0.075085
v -0.198154 0.176506 -0.047753
v -0.081600 -0.164466 -0.070412
v -0.108001 0.441218 0.075085
v -0.058941 0.333499 0.075085
v 0.058346 -0.172694 -0.070412
v -0.152217 0.178790 -0.047087
v -0.239328 0.306426 0.068762
v -0.123867 0.248311 0.068762
v -0.244092 0.191698 -0.047087
v -0.123867 0.248311 -0.068762
v -0.244092 0.191698 0.047087
v -0.152217 0.178790 0.047087
v -0.239328 0.306426 -0.068762
v -0.058941 0.333499 -0.075085
v 0.058346 -0.172694 0.070411
v -0.081600 -0.164466 0.070411
v -0.108001 0.441218 -0.075085
v 0.066140 0.329172 -0.075085
v 0.107641 0.443459 -0.075085
v -0.198154 0.176506 0.047753
v -0.011627 -0.182676 0.089106
v 0.139930 0.253938 -0.075085
v 0.028193 -0.001211 0.081994
v -0.011627 -0.127938 0.089106
v 0.259514 0.304804 -0.075085
v 0.142228 0.164724 -0.075085
v 0.197175 0.141237 0.085050
v 0.259821 0.113668 -0.075085
v 0.202276 0.279586 0.089106
v -0.016034 0.028696 -0.069092
v 0.086445 0.386645 0.089106
v 0.077574 -0.036248 -0.069092
v -0.085329 0.389991 0.089106
v -0.074194 -0.115906 -0.075085
v -0.187279 0.274875 0.089106
v 0.053166 -0.129215 -0.075085
v -0.245175 0.180616 0.000000
v -0.151134 0.172396 0.000000
v 0.077479 -0.182676 -0.000000
v -0.100733 -0.182676 -0.000000
v -0.098644 -0.108289 -0.000000
v 0.075390 -0.149686 -0.000000
v 0.299445 0.089297 0.000000
v 0.120287 0.254381 0.000000
v 0.299445 0.322010 0.000000
v 0.061604 0.316370 0.000000
v 0.125583 0.481562 0.000000
v -0.055552 0.318650 0.000000
v -0.130316 0.481562 0.000000
v -0.114526 0.245102 0.000000
v -0.269918 0.307386 0.000000
v -0.011627 -0.229391 -0.000000
v -0.198154 0.161184 0.000000
v -0.033848 0.052399 0.000000
v 0.105602 -0.058432 0.000000
v 0.120287 0.178803 0.000000
v -0.062990 -0.475165 0.061151
v -0.062990 -0.352863 0.061151
v -0.062990 -0.475165 -0.061151
v -0.062990 -0.352863 -0.061151
v 0.059312 -0.475165 0.061151
v 0.059312 -0.352863 0.061151
v 0.059312 -0.475165 -0.061151
v 0.059312 -0.352863 -0.061151
v -0.076390 -0.488565 -0.000000
v -0.076390 -0.414014 0.074551
v -0.076390 -0.339463 -0.000000
v -0.076390 -0.414014 -0.074551
v -0.001839 -0.488565 -0.074551
v -0.001839 -0.339463 -0.074551
v 0.072712 -0.414014 -0.074551
v 0.072712 -0.488565 -0.000000
v 0.072712 -0.339463 -0.000000
v 0.072712 -0.414014 0.074551
v -0.001839 -0.488565 0.074551
v -0.001839 -0.339463 0.074551
v -0.104512 -0.414014 -0.000000
v -0.001839 -0.414014 -0.102673
v 0.100834 -0.414014 -0.000000
v -0.001839 -0.414014 0.102673
v -0.001839 -0.516687 -0.000000
v -0.001839 -0.311341 -0.000000
vn 0.6151 -0.0699 0.7853
vn -0.6573 0.1559 0.7374
vn -0.1247 -0.1229 -0.9845
vn -0.0396 0.0669 -0.9970
vn 0.4709 -0.2841 0.8352
vn -0.5694 0.4035 0.7162
vn 0.0208 0.0477 -0.9986
vn 0.0546 0.0204 -0.9983
vn 0.5630 -0.2731 0.7800
vn -0.5002 0.2195 0.8376
vn 0.0159 -0.0403 -0.9991
vn -0.0245 0.0249 -0.9994
vn 0.5960 0.2636 0.7585
vn -0.5673 -0.2319 0.7901
vn -0.0331 0.0409 -0.9986
vn -0.0333 -0.5299 -0.8474
vn 0.2296 0.6144 0.7549
vn -0.2599 -0.5895 0.7648
vn -0.0911 -0.7701 -0.6313
vn -0.6722 -0.3520 -0.6513
vn -0.2545 0.5940 0.7631
vn 0.2502 -0.5633 0.7875
vn 0.6693 -0.4061 -0.6222
vn 0.4542 -0.7263 -0.5160
vn -0.6752 0.2266 0.7019
vn 0.5643 -0.4664 0.6812
vn -0.6526 -0.5221 -0.5490
vn 0.5643 -0.4664 -0.6812
vn -0.6526 -0.5221 0.5490
vn 0.4542 -0.7263 0.5160
vn -0.6752 0.2266 -0.7019
vn 0.2502 -0.5633 -0.7875
vn 0.6693 -0.4061 0.6222
vn -0.6722 -0.3520 0.6513
vn -0.2545 0.5940 -0.7631
vn -0.2599 -0.5895 -0.7648
vn 0.2296 0.6144 -0.7549
vn -0.0911 -0.7701 0.6313
vn -0.0333 -0.5299 0.8474
vn -0.5673 -0.2319 -0.7901
vn -0.0331 0.0409 0.9986
vn -0.0245 0.0249 0.9994
vn 0.5960 0.2636 -0.7585
vn -0.5002 0.2195 -0.8376
vn 0.0159 -0.0403 0.9991
vn 0.5630 -0.2731 -0.7800
vn 0.0546 0.0204 0.9983
vn -0.5694 0.4035 -0.7162
vn 0.0208 0.0477 0.9986
vn 0.4709 -0.2841 -0.8352
vn -0.0396 0.0669 0.9970
vn -0.6573 0.1559 -0.7374
vn -0.1247 -0.1229 0.9845
vn 0.6151 -0.0699 -0.7853
vn -0.7327 -0.6806 -0.0000
vn 0.5729 -0.8196 -0.0000
vn 0.8730 -0.4878 -0.0000
vn -0.8509 -0.5254 -0.0000
vn -0.9738 0.2273 -0.0000
vn 0.9955 -0.0952 -0.0000
vn 0.8911 -0.4538 -0.0000
vn -0.9169 -0.3991 -0.0000
vn 0.9156 0.4021 -0.0000
vn -0.4122 -0.9111 -0.0000
vn 0.3651 0.9310 -0.0000
vn 0.4404 -0.8978 -0.0000
vn -0.4167 0.9090 -0.0000
vn 0.8465 -0.5323 -0.0000
vn -0.9630 0.2696 -0.0000
vn -0.0210 -0.9998 -0.0000
vn -0.0745 -0.9972 -0.0000
vn -0.7960 0.6053 -0.0000
vn 0.8396 -0.5432 -0.0000
vn -0.9185 0.3953 -0.0000
vn -0.5774 -0.5774 0.5774
vn -0.5774 0.5774 0.5774
vn -0.5774 -0.5774 -0.5774
vn -0.5774 0.5774 -0.5774
vn 0.5774 -0.5774 0.5774
vn 0.5774 0.5774 0.5774
vn 0.5774 -0.5774 -0.5774
vn 0.5774 0.5774 -0.5774
vn -0.7071 -0.7071 -0.0000
vn -0.7071 -0.0000 0.7071
vn -0.7071 0.7071 -0.0000
vn -0.7071 -0.0000 -0.7071
vn -0.0000 -0.7071 -0.7071
vn -0.0000 0.7071 -0.7071
vn 0.7071 -0.0000 -0.7071
vn 0.7071 -0.7071 -0.0000
vn 0.7071 0.7071 -0.0000
vn 0.7071 -0.0000 0.7071
vn -0.0000 -0.7071 0.7071
vn -0.0000 0.7071 0.7071
vn -1.0000 -0.0000 -0.0000
vn -0.0000 -0.0000 -1.0000
vn 1.0000 -0.0000 -0.0000
vn -0.0000 -0.0000 1.0000
vn -0.0000 -1.0000 -0.0000
vn -0.0000 1.0000 -0.0000
s 1
f 56//56 38//38 71//71
f 15//15 52//52 48//48
f 41//41 2//2 42//42
f 48//48 59//59 72//72
f 32//32 64//64 66//66
f 73//73 1//1 60//60
f 20//20 59//59 52//52
f 55//55 19//19 71//71
f 9//9 73//73 61//61
f 14//14 45//45 47//47
f 46//46 8//8 43//43
f 50//50 11//11 46//46
f 63//63 9//9 61//61
f 18//18 47//47 49//49
f 27//27 3//3 19//19
f 37//37 4//4 35//35
f 65//65 13//13 63//63
f 60//60 23//23 54//54
f 69//69 27//27 55//55
f 21//21 65//65 67//67
f 10//10 41//41 45//45
f 53//53 22//22 51//51
f 67//67 31//31 69//69
f 15//15 44//44 11//11
f 25//25 67//67 69//69
f 30//30 53//53 38//38
f 65//65 43//43 37//37
f 63//63 46//46 43//43
f 29//29 69//69 55//55
f 42//42 34//34 39//39
f 40//40 74//74 62//62
f 24//24 68//68 56//56
f 60//60 33//33 57//57
f 22//22 49//49 51//51
f 51//51 17//17 21//21
f 48//48 74//74 44//44
f 1//1 39//39 33//33
f 8//8 36//36 7//7
f 29//29 53//53 25//25
f 3//3 32//32 28//28
f 25//25 51//51 21//21
f 45//45 5//5 9//9
f 12//12 20//20 52//52
f 54//54 16//16 12//12
f 17//17 47//47 13//13
f 37//37 8//8 7//7
f 47//47 9//9 13//13
f 23//23 70//70 16//16
f 70//70 20//20 16//16
f 5//5 42//42 1//1
f 19//19 56//56 71//71
f 55//55 38//38 29//29
f 73//73 54//54 50//50
f 33//33 70//70 57//57
f 28//28 66//66 68//68
f 59//59 34//34 2//2
f 11//11 40//40 8//8
f 30//30 68//68 26//26
f 65//65 35//35 67//67
f 26//26 66//66 22//22
f 3//3 24//24 19//19
f 22//22 64//64 18//18
f 7//7 32//32 4//4
f 18//18 62//62 14//14
f 31//31 4//4 3//3
f 14//14 74//74 10//10
f 50//50 12//12 15//15
f 74//74 6//6 10//10
f 36//36 62//62 64//64
f 6//6 59//59 2//2
f 34//34 70//70 39//39
f 73//73 46//46 61//61
f 75//75 95//95 83//83
f 76//76 95//95 84//84
f 95//95 78//78 86//86
f 95//95 77//77 83//83
f 77//77 96//96 87//87
f 78//78 96//96 86//86
f 96//96 82//82 89//89
f 96//96 81//81 87//87
f 81//81 97//97 90//90
f 82//82 97//97 89//89
f 97//97 80//80 92//92
f 97//97 79//79 90//90
f 79//79 98//98 93//93
f 80//80 98//98 92//92
f 98//98 76//76 84//84
f 98//98 75//75 93//93
f 77//77 99//99 83//83
f 81//81 99//99 87//87
f 99//99 79//79 93//93
f 99//99 75//75 83//83
f 82//82 100//100 91//91
f 78//78 100//100 88//88
f 100//100 76//76 94//94
f 100//100 80//80 91//91
f 56//56 30//30 38//38
f 15//15 12//12 52//52
f 41//41 6//6 2//2
f 48//48 52//52 59//59
f 32//32 36//36 64//64
f 73//73 5//5 1//1
f 20//20 58//58 59//59
f 55//55 27//27 19//19
f 9//9 5//5 73//73
f 14//14 10//10 45//45
f 46//46 11//11 8//8
f 50//50 15//15 11//11
f 63//63 13//13 9//9
f 18//18 14//14 47//47
f 27//27 31//31 3//3
f 37//37 7//7 4//4
f 65//65 17//17 13//13
f 60//60 57//57 23//23
f 69//69 31//31 27//27
f 21//21 17//17 65//65
f 10//10 6//6 41//41
f 53//53 26//26 22//22
f 67//67 35//35 31//31
f 15//15 48//48 44//44
f 25//25 21//21 67//67
f 30//30 26//26 53//53
f 65//65 63//63 43//43
f 63//63 61//61 46//46
f 29//29 25//25 69//69
f 42//42 2//2 34//34
f 40//40 44//44 74//74
f 24//24 28//28 68//68
f 60//60 1//1 33//33
f 22//22 18//18 49//49
f 51//51 49//49 17//17
f 48//48 72//72 74//74
f 1//1 42//42 39//39
f 8//8 40//40 36//36
f 29//29 38//38 53//53
f 3//3 4//4 32//32
f 25//25 53//53 51//51
f 45//45 41//41 5//5
f 12//12 16//16 20//20
f 54//54 23//23 16//16
f 17//17 49//49 47//47
f 37//37 43//43 8//8
f 47//47 45//45 9//9
f 23//23 57//57 70//70
f 70//70 58//58 20//20
f 5//5 41//41 42//42
f 19//19 24//24 56//56
f 55//55 71//71 38//38
f 73//73 60//60 54//54
f 33//33 39//39 70//70
f 28//28 32//32 66//66
f 59//59 58//58 34//34
f 11//11 44//44 40//40
f 30//30 56//56 68//68
f 65//65 37//37 35//35
f 26//26 68//68 66//66
f 3//3 28//28 24//24
f 22//22 66//66 64//64
f 7//7 36//36 32//32
f 18//18 64//64 62//62
f 31//31 35//35 4//4
f 14//14 62//62 74//74
f 50//50 54//54 12//12
f 74//74 72//72 6//6
f 36//36 40//40 62//62
f 6//6 72//72 59//59
f 34//34 58//58 70//70
f 73//73 50//50 46//46
f 75//75 84//84 95//95
f 76//76 85//85 95//95
f 95//95 85//85 78//78
f 95//95 86//86 77//77
f 77//77 86//86 96//96
f 78//78 88//88 96//96
f 96//96 88//88 82//82
f 96//96 89//89 81//81
f 81//81 89//89 97//97
f 82//82 91//91 97//97
f 97//97 91//91 80//80
f 97//97 92//92 79//79
f 79//79 92//92 98//98
f 80//80 94//94 98//98
f 98//98 94//94 76//76
f 98//98 84//84 75//75
f 77//77 87//87 99//99
f 81//81 90//90 99//99
f 99//99 90//90 79//79
f 99//99 93//93 75//75
f 82//82 88//88 100//100
f 78//78 85//85 100//100
f 100//100 85//85 76//76
f 100//100 94//94 80//80
