# Blender 4.5.0 Release Candidate
# www.blender.org
o Cube
v 1.000000 1.000000 -1.000000
v 1.000000 -1.000000 -1.000000
v 1.000000 1.000000 1.000000
v 1.000000 -1.000000 1.000000
v -1.000000 1.000000 -1.000000
v -1.000000 -1.000000 -1.000000
v -1.000000 1.000000 1.000000
v -1.000000 -1.000000 1.000000
vn -0.0000 -1.0000 -0.0000
vn -0.0000 -0.0000 -1.0000
vn 1.0000 -0.0000 -0.0000
vn -0.0000 1.0000 -0.0000
vn -1.0000 -0.0000 -0.0000
vn -0.0000 -0.0000 1.0000
vt 0.666750 0.000500
vt 0.833250 0.999500
vt 0.666750 0.999500
vt 0.666584 0.000500
vt 0.500083 0.999500
vt 0.500083 0.000500
vt 0.333250 0.000500
vt 0.166750 0.999500
vt 0.166750 0.000500
vt 0.833416 0.000500
vt 0.999917 0.999500
vt 0.833416 0.999500
vt 0.166584 0.000500
vt 0.000083 0.999500
vt 0.000083 0.000500
vt 0.499917 0.000500
vt 0.333416 0.999500
vt 0.333416 0.000500
vt 0.833250 0.000500
vt 0.666584 0.999500
vt 0.333250 0.999500
vt 0.999917 0.000500
vt 0.166584 0.999500
vt 0.499917 0.999500
s 1
f 3/1/1 5/2/1 1/3/1
f 8/4/2 3/5/2 4/6/2
f 6/7/3 7/8/3 8/9/3
f 8/10/4 2/11/4 6/12/4
f 4/13/5 1/14/5 2/15/5
f 2/16/6 5/17/6 6/18/6
f 3/1/1 7/19/1 5/2/1
f 8/4/2 7/20/2 3/5/2
f 6/7/3 5/21/3 7/8/3
f 8/10/4 4/22/4 2/11/4
f 4/13/5 3/23/5 1/14/5
f 2/16/6 1/24/6 5/17/6
