# Blender 4.5.2 LTS
# www.blender.org
o ComputerMonitor
v 0.163511 0.336140 0.160068 0.0000 0.0000 0.0000
v 0.163511 0.084881 0.160068 0.0000 0.0000 0.0000
v -0.163511 0.084881 0.160068 0.0000 0.0000 0.0000
v -0.163511 0.336140 0.160068 0.0000 0.0000 0.0000
v -0.156250 0.093323 0.146225 0.0000 0.0000 0.0000
v -0.156250 0.327698 0.146225 0.0000 0.0000 0.0000
v 0.156250 0.093323 0.146225 0.0000 0.0000 0.0000
v 0.156250 0.327698 0.146225 0.0000 0.0000 0.0000
v 0.170659 0.323896 0.031700 0.0000 0.0000 0.0000
v 0.170659 0.089872 0.031700 0.0000 0.0000 0.0000
v -0.170659 0.089872 0.031700 0.0000 0.0000 0.0000
v -0.170659 0.323896 0.031700 0.0000 0.0000 0.0000
v 0.148439 0.295246 -0.210146 0.0000 0.0000 0.0000
v 0.148439 0.104241 -0.210146 0.0000 0.0000 0.0000
v -0.148439 0.295246 -0.210146 0.0000 0.0000 0.0000
v -0.148439 0.104241 -0.210146 0.0000 0.0000 0.0000
v -0.115473 0.045182 -0.171563 0.0000 0.0000 0.0000
v -0.115473 0.112054 -0.171563 0.0000 0.0000 0.0000
v 0.115473 0.045182 -0.171563 0.0000 0.0000 0.0000
v 0.115473 0.112054 -0.171563 0.0000 0.0000 0.0000
v -0.151667 0.045182 0.150359 0.0000 0.0000 0.0000
v 0.151667 0.045182 0.150359 0.0000 0.0000 0.0000
v 0.151667 0.068618 0.150359 0.0000 0.0000 0.0000
v 0.151667 0.045182 0.035913 0.0000 0.0000 0.0000
v 0.151667 0.112054 0.035913 0.0000 0.0000 0.0000
v -0.151667 0.045182 0.035913 0.0000 0.0000 0.0000
v -0.151667 0.068618 0.035913 0.0000 0.0000 0.0000
v 0.202881 0.367857 0.160068 0.0000 0.0000 0.0000
v 0.195240 0.375588 0.160068 0.0000 0.0000 0.0000
v 0.202881 0.060492 0.160068 0.0000 0.0000 0.0000
v 0.195209 0.052993 0.160068 0.0000 0.0000 0.0000
v -0.202881 0.060492 0.160068 0.0000 0.0000 0.0000
v -0.195209 0.052993 0.160068 0.0000 0.0000 0.0000
v -0.195240 0.375588 0.160068 0.0000 0.0000 0.0000
v -0.202881 0.367857 0.160068 0.0000 0.0000 0.0000
v 0.186231 0.355187 0.031700 0.0000 0.0000 0.0000
v 0.178581 0.362941 0.031700 0.0000 0.0000 0.0000
v 0.195233 0.375588 0.071693 0.0000 0.0000 0.0000
v 0.202881 0.367847 0.071693 0.0000 0.0000 0.0000
v 0.202881 0.060493 0.071693 0.0000 0.0000 0.0000
v 0.195201 0.052993 0.071693 0.0000 0.0000 0.0000
v 0.186040 0.065916 0.031700 0.0000 0.0000 0.0000
v 0.178345 0.058414 0.031700 0.0000 0.0000 0.0000
v -0.202881 0.367847 0.071693 0.0000 0.0000 0.0000
v -0.195233 0.375588 0.071693 0.0000 0.0000 0.0000
v -0.186231 0.355187 0.031700 0.0000 0.0000 0.0000
v -0.178581 0.362941 0.031700 0.0000 0.0000 0.0000
v -0.186040 0.065916 0.031700 0.0000 0.0000 0.0000
v -0.178345 0.058414 0.031700 0.0000 0.0000 0.0000
v -0.195201 0.052993 0.071693 0.0000 0.0000 0.0000
v -0.202881 0.060493 0.071693 0.0000 0.0000 0.0000
v -0.151667 0.068618 0.150359 0.0000 0.0000 0.0000
v 0.151667 0.068618 0.035913 0.0000 0.0000 0.0000
v -0.151667 0.112054 0.035913 0.0000 0.0000 0.0000
v 0.156250 0.000000 -0.000000 0.0000 0.0000 0.0000
v 0.156250 0.015625 -0.000000 0.0000 0.0000 0.0000
v 0.135316 0.000000 0.078125 0.0000 0.0000 0.0000
v 0.135316 0.015625 0.078125 0.0000 0.0000 0.0000
v 0.078125 0.000000 0.135316 0.0000 0.0000 0.0000
v 0.078125 0.015625 0.135316 0.0000 0.0000 0.0000
v -0.000000 0.000000 0.156250 0.0000 0.0000 0.0000
v -0.000000 0.015625 0.156250 0.0000 0.0000 0.0000
v -0.078125 0.000000 0.135316 0.0000 0.0000 0.0000
v -0.078125 0.015625 0.135316 0.0000 0.0000 0.0000
v -0.135316 0.000000 0.078125 0.0000 0.0000 0.0000
v -0.135316 0.015625 0.078125 0.0000 0.0000 0.0000
v -0.156250 0.000000 -0.000000 0.0000 0.0000 0.0000
v -0.156250 0.015625 -0.000000 0.0000 0.0000 0.0000
v -0.135316 0.000000 -0.078125 0.0000 0.0000 0.0000
v -0.135316 0.015625 -0.078125 0.0000 0.0000 0.0000
v -0.078125 0.000000 -0.135317 0.0000 0.0000 0.0000
v -0.078125 0.015625 -0.135317 0.0000 0.0000 0.0000
v 0.000000 0.000000 -0.156250 0.0000 0.0000 0.0000
v 0.000000 0.015625 -0.156250 0.0000 0.0000 0.0000
v 0.078125 0.000000 -0.135317 0.0000 0.0000 0.0000
v 0.078125 0.015625 -0.135317 0.0000 0.0000 0.0000
v 0.135316 0.000000 -0.078125 0.0000 0.0000 0.0000
v 0.135316 0.015625 -0.078125 0.0000 0.0000 0.0000
v 0.106151 0.015625 -0.000000 0.0000 0.0000 0.0000
v 0.091930 0.015625 0.053076 0.0000 0.0000 0.0000
v 0.053076 0.015625 0.091930 0.0000 0.0000 0.0000
v -0.000000 0.015625 0.106151 0.0000 0.0000 0.0000
v -0.053076 0.015625 0.091930 0.0000 0.0000 0.0000
v -0.091930 0.015625 0.053076 0.0000 0.0000 0.0000
v -0.106151 0.015625 -0.000000 0.0000 0.0000 0.0000
v -0.091930 0.015625 -0.053076 0.0000 0.0000 0.0000
v -0.053076 0.015625 -0.091930 0.0000 0.0000 0.0000
v 0.000000 0.015625 -0.106152 0.0000 0.0000 0.0000
v 0.053076 0.015625 -0.091930 0.0000 0.0000 0.0000
v 0.091930 0.015625 -0.053076 0.0000 0.0000 0.0000
v 0.080800 0.057372 0.046650 0.0000 0.0000 0.0000
v 0.093299 0.057372 -0.000000 0.0000 0.0000 0.0000
v 0.046650 0.057372 0.080800 0.0000 0.0000 0.0000
v -0.000000 0.057372 0.093299 0.0000 0.0000 0.0000
v -0.046650 0.057372 0.080800 0.0000 0.0000 0.0000
v -0.080800 0.057372 0.046650 0.0000 0.0000 0.0000
v -0.093299 0.057372 -0.000000 0.0000 0.0000 0.0000
v -0.080800 0.057372 -0.046650 0.0000 0.0000 0.0000
v -0.046650 0.057372 -0.080800 0.0000 0.0000 0.0000
v 0.000000 0.057372 -0.093300 0.0000 0.0000 0.0000
v 0.046650 0.057372 -0.080800 0.0000 0.0000 0.0000
v 0.080800 0.057372 -0.046650 0.0000 0.0000 0.0000
v -0.156250 0.093323 0.146225 0.0000 1.0000 1.0000
v -0.156250 0.327698 0.146225 0.0000 0.0000 1.0000
v 0.156250 0.093323 0.146225 1.0000 1.0000 1.0000
v 0.156250 0.327698 0.146225 1.0000 0.0000 1.0000
vn -0.0000 -0.8538 0.5207
vn -0.8856 -0.0000 0.4645
vn 0.8856 -0.0000 0.4645
vn -0.0000 -0.0000 1.0000
vn -0.0000 0.8538 0.5207
vn -0.0000 0.9931 -0.1176
vn -0.0000 -0.0000 -1.0000
vn -0.9958 -0.0000 -0.0915
vn -0.0000 -0.9982 -0.0593
vn 0.9958 -0.0000 -0.0915
vn 1.0000 -0.0000 -0.0000
vn -0.9851 -0.0000 -0.1719
vn -0.0000 -1.0000 -0.0000
vn -1.0000 -0.0000 -0.0000
vn 0.9851 -0.0000 -0.1719
vn 0.3911 0.8181 -0.4216
vn 0.8385 0.3108 -0.4476
vn 0.2961 0.8683 -0.3979
vn 0.4207 -0.8584 -0.2935
vn 0.8395 -0.3645 -0.4030
vn 0.8459 -0.3490 -0.4033
vn -0.3911 0.8181 -0.4216
vn -0.8385 0.3108 -0.4476
vn -0.8158 0.3591 -0.4533
vn -0.4207 -0.8584 -0.2935
vn -0.8395 -0.3645 -0.4030
vn -0.2892 -0.9248 -0.2473
vn -0.9250 0.3800 -0.0000
vn -0.3855 0.9227 -0.0000
vn -0.9250 0.3799 -0.0000
vn 0.9250 0.3800 -0.0000
vn 0.3855 0.9227 -0.0000
vn 0.3854 0.9228 -0.0000
vn 0.3774 -0.9260 -0.0000
vn 0.9216 -0.3881 -0.0000
vn 0.9217 -0.3880 -0.0000
vn -0.9216 -0.3881 -0.0000
vn -0.3774 -0.9260 -0.0000
vn -0.9217 -0.3880 -0.0000
vn 0.9250 0.3799 -0.0000
vn -0.3854 0.9227 -0.0000
vn 0.3772 -0.9261 -0.0000
vn -0.2961 0.8683 -0.3979
vn 0.8158 0.3591 -0.4533
vn 0.2892 -0.9248 -0.2473
vn -0.8459 -0.3490 -0.4033
vn 0.8660 -0.0000 0.5000
vn 0.5000 -0.0000 0.8660
vn -0.5000 -0.0000 0.8660
vn -0.8660 -0.0000 0.5000
vn -0.8660 -0.0000 -0.5000
vn -0.5000 -0.0000 -0.8660
vn 0.5000 -0.0000 -0.8660
vn -0.0000 1.0000 -0.0000
vn 0.8660 -0.0000 -0.5000
vn -0.0000 0.2942 0.9557
vn -0.4779 0.2942 0.8277
vn 0.4779 0.2942 -0.8277
vn 0.8277 0.2942 -0.4779
vn 0.8277 0.2942 0.4779
vn 0.9557 0.2942 -0.0000
vn -0.8277 0.2942 -0.4779
vn -0.4779 0.2942 -0.8277
vn -0.8277 0.2942 0.4779
vn 0.4779 0.2942 0.8277
vn -0.0000 0.2942 -0.9557
vn -0.9557 0.2942 -0.0000
vn -0.3772 -0.9261 -0.0000
vt 0.187500 0.144531
vt 0.027344 0.136719
vt 0.183594 0.136719
vt 0.031250 0.121094
vt 0.152344 0.128906
vt 0.035156 0.128906
vt 0.156250 0.113281
vt 0.035156 0.105469
vt 0.152344 0.105469
vt 0.500000 0.253906
vt 0.343750 0.136719
vt 0.500000 0.136719
vt 0.187500 0.019531
vt 0.027344 0.027344
vt 0.023438 0.019531
vt 0.335938 0.125000
vt 0.496094 0.003906
vt 0.507812 0.125000
vt 0.230469 0.125000
vt 0.324219 0.273438
vt 0.230469 0.273438
vt 0.218750 0.003906
vt 0.324219 0.125000
vt 0.507812 0.273438
vt 0.347656 0.394531
vt 0.335938 0.273438
vt 0.218750 0.394531
vt 0.335938 0.394531
vt 0.003906 0.320312
vt 0.039062 0.199219
vt 0.039062 0.320312
vt 0.144531 0.171875
vt 0.203125 0.183594
vt 0.144531 0.183594
vt 0.214844 0.183594
vt 0.203125 0.335938
vt 0.519531 0.046875
vt 0.625000 0.082031
vt 0.519531 0.082031
vt 0.144531 0.335938
vt 0.203125 0.347656
vt 0.519531 0.003906
vt 0.625000 0.039062
vt 0.519531 0.039062
vt 0.359375 0.476562
vt 0.363281 0.500000
vt 0.359375 0.500000
vt 0.519531 0.476562
vt 0.515625 0.500000
vt 0.515625 0.476562
vt 0.164062 0.476562
vt 0.160156 0.500000
vt 0.160156 0.476562
vt 0.003906 0.476562
vt 0.007812 0.500000
vt 0.003906 0.500000
vt 0.160156 0.433594
vt 0.363281 0.433594
vt 0.359375 0.433594
vt 0.519531 0.433594
vt 0.515625 0.433594
vt 0.007812 0.476562
vt 0.003906 0.433594
vt 0.007812 0.433594
vt 0.363281 0.476562
vt 0.007813 0.164062
vt 0.023438 0.144531
vt 0.207031 0.007812
vt 0.203125 0.164062
vt 0.164062 0.433594
vt 0.359375 0.476562
vt 0.714844 0.433594
vt 0.203125 0.003906
vt 0.003906 0.160156
vt 0.007812 0.003906
vt 0.171875 0.500000
vt 0.351562 0.500000
vt 0.179688 0.406250
vt 0.003906 0.425781
vt 0.007812 0.406250
vt 0.367188 0.500000
vt 0.687500 0.406250
vt 0.679688 0.421875
vt 0.683594 0.273438
vt 0.527344 0.500000
vt 0.714844 0.476562
vt 0.707031 0.500000
vt 0.179688 0.382812
vt 0.003906 0.398438
vt 0.007812 0.382812
vt 0.156250 0.500000
vt 0.695312 0.289062
vt 0.703125 0.277344
vt 0.699219 0.425781
vt 0.152344 0.074219
vt 0.113281 0.066406
vt 0.152344 0.066406
vt 0.113281 0.074219
vt 0.074219 0.066406
vt 0.074219 0.074219
vt 0.035156 0.066406
vt 0.152344 0.058594
vt 0.113281 0.050781
vt 0.152344 0.050781
vt 0.113281 0.058594
vt 0.074219 0.050781
vt 0.074219 0.058594
vt 0.035156 0.050781
vt 0.152344 0.042969
vt 0.113281 0.035156
vt 0.152344 0.035156
vt 0.113281 0.042969
vt 0.074219 0.035156
vt 0.074219 0.042969
vt 0.035156 0.035156
vt 0.152344 0.089844
vt 0.113281 0.082031
vt 0.152344 0.082031
vt 0.521550 0.219117
vt 0.589844 0.100829
vt 0.658138 0.219117
vt 0.113281 0.089844
vt 0.074219 0.082031
vt 0.074219 0.089844
vt 0.035156 0.082031
vt 0.668703 0.347656
vt 0.550414 0.415950
vt 0.550414 0.279362
vt 0.382812 0.402344
vt 0.355469 0.425781
vt 0.355469 0.402344
vt 0.519531 0.402344
vt 0.492188 0.425781
vt 0.492188 0.402344
vt 0.437500 0.402344
vt 0.464844 0.425781
vt 0.437500 0.425781
vt 0.273438 0.402344
vt 0.246094 0.425781
vt 0.246094 0.402344
vt 0.328125 0.402344
vt 0.328125 0.425781
vt 0.464844 0.402344
vt 0.410156 0.425781
vt 0.410156 0.402344
vt 0.218750 0.425781
vt 0.218750 0.402344
vt 0.300781 0.425781
vt 0.300781 0.402344
vt 0.382812 0.425781
vt 0.191406 0.425781
vt 0.191406 0.402344
vt 0.273438 0.425781
vt 0.156250 0.121094
vt 0.031250 0.113281
vt 0.343750 0.253906
vt 0.183594 0.027344
vt 0.347656 0.003906
vt 0.335938 0.003906
vt 0.496094 0.394531
vt 0.003906 0.199219
vt 0.203125 0.171875
vt 0.214844 0.335938
vt 0.625000 0.046875
vt 0.144531 0.347656
vt 0.625000 0.003906
vt 0.519531 0.500000
vt 0.164062 0.500000
vt 0.207031 0.160156
vt 0.359375 0.433594
vt 0.003906 0.007812
vt 0.183594 0.425781
vt 0.511719 0.500000
vt 0.687500 0.289062
vt 0.683594 0.425781
vt 0.679688 0.277344
vt 0.183594 0.398438
vt 0.011719 0.500000
vt 0.695312 0.406250
vt 0.699219 0.273438
vt 0.703125 0.421875
vt 0.035156 0.074219
vt 0.035156 0.058594
vt 0.035156 0.042969
vt 0.629273 0.247981
vt 0.589844 0.258546
vt 0.550414 0.247981
vt 0.510985 0.179688
vt 0.521550 0.140258
vt 0.550414 0.111394
vt 0.629273 0.111394
vt 0.658138 0.140258
vt 0.668703 0.179688
vt 0.035156 0.089844
vt 0.589844 0.268797
vt 0.629273 0.279362
vt 0.658138 0.308227
vt 0.658138 0.387086
vt 0.629273 0.415950
vt 0.589844 0.426515
vt 0.521550 0.387086
vt 0.510985 0.347656
vt 0.521550 0.308227
vt 0.519531 0.425781
s 1
f 1/1/1 6/2/1 8/3/1
f 2/4/2 8/5/2 7/6/2
f 4/7/3 5/8/3 6/9/3
s 0
f 106/10/4 103/11/4 105/12/4
s 1
f 2/13/5 5/14/5 3/15/5
f 9/16/6 15/17/6 12/18/6
f 16/19/7 13/20/7 14/21/7
f 11/22/8 15/23/8 16/19/8
f 11/24/9 14/25/9 10/26/9
f 10/27/10 13/20/10 9/28/10
f 18/29/7 19/30/7 17/31/7
f 53/32/11 22/33/11 24/34/11
f 23/35/4 21/36/4 22/33/4
f 54/37/12 17/38/12 26/39/12
f 22/33/13 26/40/13 24/34/13
f 24/34/13 17/31/13 19/30/13
f 52/41/14 26/40/14 21/36/14
f 20/42/15 24/43/15 19/44/15
f 38/45/16 36/46/17 37/47/18
f 41/48/19 42/49/20 40/50/21
f 45/51/22 46/52/23 44/53/24
f 50/54/25 48/55/26 49/56/27
f 35/57/28 45/51/29 44/53/30
f 28/58/31 38/45/32 29/59/33
f 31/60/34 40/50/35 30/61/36
f 51/62/37 33/63/38 32/64/39
f 30/61/36 39/65/40 28/58/31
f 1/1/4 34/66/4 4/67/4
f 2/13/4 30/68/4 29/69/4
f 34/70/41 38/71/32 45/51/29
f 33/72/38 41/48/42 31/60/34
f 3/15/4 31/73/4 2/13/4
f 32/64/39 44/53/30 51/62/37
f 4/67/4 35/74/4 33/75/4
f 47/76/43 38/71/16 37/77/18
f 12/78/7 37/79/7 9/80/7
f 40/50/21 36/81/17 39/65/44
f 9/82/7 36/83/7 43/84/7
f 43/85/45 50/86/25 49/87/27
f 10/88/7 49/89/7 11/90/7
f 46/91/23 51/62/46 44/53/24
f 11/92/7 48/93/7 47/94/7
f 56/95/11 57/96/47 55/97/11
f 58/98/47 59/99/48 57/96/47
f 60/100/48 61/101/4 59/99/48
f 62/102/4 63/103/49 61/104/4
f 64/105/49 65/106/50 63/103/49
f 66/107/50 67/108/14 65/106/50
f 68/109/14 69/110/51 67/111/14
f 70/112/51 71/113/52 69/110/51
f 72/114/52 73/115/7 71/113/52
f 74/116/7 75/117/53 73/118/7
s 0
f 76/119/54 68/120/54 60/121/54
s 1
f 76/122/53 77/123/55 75/117/53
f 78/124/55 55/125/11 77/123/55
s 0
f 61/126/13 69/127/13 77/128/13
s 1
f 82/129/56 95/130/57 83/131/57
f 89/132/58 102/133/59 90/134/59
f 80/135/60 92/136/61 91/137/60
f 86/138/62 99/139/63 87/140/63
f 84/141/64 95/130/57 96/142/64
f 79/143/61 102/133/59 92/136/61
f 80/135/60 93/144/65 81/145/65
f 87/140/63 100/146/66 88/147/66
f 84/141/64 97/148/67 85/149/67
f 82/129/56 93/144/65 94/150/56
f 88/147/66 101/151/58 89/152/58
f 85/149/67 98/153/62 86/138/62
f 1/1/1 4/67/1 6/2/1
f 2/4/2 1/154/2 8/5/2
f 4/7/3 3/155/3 5/8/3
s 0
f 106/10/4 104/156/4 103/11/4
s 1
f 2/13/5 7/157/5 5/14/5
f 9/16/6 13/158/6 15/17/6
f 16/19/7 15/23/7 13/20/7
f 11/22/8 12/159/8 15/23/8
f 11/24/9 16/160/9 14/25/9
f 10/27/10 14/21/10 13/20/10
f 18/29/7 20/161/7 19/30/7
f 53/32/11 23/162/11 22/33/11
f 23/35/4 52/163/4 21/36/4
f 54/37/12 18/164/12 17/38/12
f 22/33/13 21/36/13 26/40/13
f 24/34/13 26/40/13 17/31/13
f 52/41/14 27/165/14 26/40/14
f 20/42/15 25/166/15 24/43/15
f 38/45/16 39/65/44 36/46/17
f 41/48/19 43/167/45 42/49/20
f 45/51/22 47/168/43 46/52/23
f 50/54/25 51/62/46 48/55/26
f 35/57/28 34/70/41 45/51/29
f 28/58/31 39/65/40 38/45/32
f 31/60/34 41/48/42 40/50/35
f 51/62/37 50/54/68 33/63/38
f 30/61/36 40/50/35 39/65/40
f 1/1/4 29/69/4 34/66/4
f 29/69/4 1/1/4 2/13/4
f 2/13/4 31/73/4 30/68/4
f 30/68/4 28/169/4 29/69/4
f 34/70/41 29/170/33 38/71/32
f 33/72/38 50/86/68 41/48/42
f 3/15/4 33/75/4 31/73/4
f 32/64/39 35/57/28 44/53/30
f 33/75/4 3/15/4 4/67/4
f 4/67/4 34/66/4 35/74/4
f 35/74/4 32/171/4 33/75/4
f 47/76/43 45/51/22 38/71/16
f 12/78/7 47/172/7 37/79/7
f 40/50/21 42/173/20 36/81/17
f 43/84/7 10/174/7 9/82/7
f 9/82/7 37/175/7 36/83/7
f 36/83/7 42/176/7 43/84/7
f 43/85/45 41/48/19 50/86/25
f 10/88/7 43/177/7 49/89/7
f 46/91/23 48/178/26 51/62/46
f 47/94/7 12/179/7 11/92/7
f 11/92/7 49/180/7 48/93/7
f 48/93/7 46/181/7 47/94/7
f 56/95/11 58/98/47 57/96/47
f 58/98/47 60/100/48 59/99/48
f 60/100/48 62/182/4 61/101/4
f 62/102/4 64/105/49 63/103/49
f 64/105/49 66/107/50 65/106/50
f 66/107/50 68/183/14 67/108/14
f 68/109/14 70/112/51 69/110/51
f 70/112/51 72/114/52 71/113/52
f 72/114/52 74/184/7 73/115/7
f 74/116/7 76/122/53 75/117/53
s 0
f 60/121/54 58/185/54 56/186/54
f 56/186/54 78/187/54 76/119/54
f 76/119/54 74/188/54 72/189/54
f 72/189/54 70/190/54 68/120/54
f 68/120/54 66/191/54 64/192/54
f 64/192/54 62/193/54 60/121/54
f 60/121/54 56/186/54 76/119/54
f 76/119/54 72/189/54 68/120/54
f 68/120/54 64/192/54 60/121/54
s 1
f 76/122/53 78/124/55 77/123/55
f 78/124/55 56/194/11 55/125/11
s 0
f 77/128/13 55/195/13 57/196/13
f 57/196/13 59/197/13 61/126/13
f 61/126/13 63/198/13 65/199/13
f 65/199/13 67/200/13 69/127/13
f 69/127/13 71/201/13 73/202/13
f 73/202/13 75/203/13 77/128/13
f 77/128/13 57/196/13 61/126/13
f 61/126/13 65/199/13 69/127/13
f 69/127/13 73/202/13 77/128/13
s 1
f 82/129/56 94/150/56 95/130/57
f 89/132/58 101/204/58 102/133/59
f 80/135/60 79/143/61 92/136/61
f 86/138/62 98/153/62 99/139/63
f 84/141/64 83/131/57 95/130/57
f 79/143/61 90/134/59 102/133/59
f 80/135/60 91/137/60 93/144/65
f 87/140/63 99/139/63 100/146/66
f 84/141/64 96/142/64 97/148/67
f 82/129/56 81/145/65 93/144/65
f 88/147/66 100/146/66 101/151/58
f 85/149/67 97/148/67 98/153/62
