# Blender 4.5.2 LTS
# www.blender.org
o Cylinder.002
v -0.032427 -0.032427 0.032427 1.0000 1.0000 1.0000
v -0.032427 0.032427 0.032427 1.0000 1.0000 1.0000
v -0.032427 -0.032427 -0.032427 1.0000 1.0000 1.0000
v -0.032427 0.032427 -0.032427 1.0000 1.0000 1.0000
v 0.032427 -0.032427 0.032427 1.0000 1.0000 1.0000
v 0.032427 0.032427 0.032427 1.0000 1.0000 1.0000
v 0.032427 -0.032427 -0.032427 1.0000 1.0000 1.0000
v 0.032427 0.032427 -0.032427 1.0000 1.0000 1.0000
v 1.019000 0.000000 0.000000 0.0000 0.0000 1.0000
v 0.990500 0.016454 0.000000 0.0000 0.0000 1.0000
v 0.990500 -0.016454 0.000000 0.0000 0.0000 1.0000
v 0.941433 0.000000 -0.389954 0.0000 0.0000 1.0000
v 0.915103 0.016454 -0.379048 0.0000 0.0000 1.0000
v 0.915103 -0.016454 -0.379048 0.0000 0.0000 1.0000
v 0.720542 0.000000 -0.720542 0.0000 0.0000 1.0000
v 0.700389 0.016454 -0.700389 0.0000 0.0000 1.0000
v 0.700389 -0.016454 -0.700389 0.0000 0.0000 1.0000
v 0.389955 0.000000 -0.941433 0.0000 0.0000 1.0000
v 0.379048 0.016454 -0.915103 0.0000 0.0000 1.0000
v 0.379048 -0.016454 -0.915103 0.0000 0.0000 1.0000
v 0.000000 0.000000 -1.019000 0.0000 0.0000 1.0000
v 0.000000 0.016454 -0.990500 0.0000 0.0000 1.0000
v 0.000000 -0.016454 -0.990500 0.0000 0.0000 1.0000
v -0.389955 0.000000 -0.941433 0.0000 0.0000 1.0000
v -0.379048 0.016454 -0.915103 0.0000 0.0000 1.0000
v -0.379048 -0.016454 -0.915103 0.0000 0.0000 1.0000
v -0.720542 0.000000 -0.720542 0.0000 0.0000 1.0000
v -0.700389 0.016454 -0.700389 0.0000 0.0000 1.0000
v -0.700389 -0.016454 -0.700389 0.0000 0.0000 1.0000
v -0.941433 0.000000 -0.389954 0.0000 0.0000 1.0000
v -0.915103 0.016454 -0.379048 0.0000 0.0000 1.0000
v -0.915103 -0.016454 -0.379048 0.0000 0.0000 1.0000
v -1.019000 0.000000 -0.000000 0.0000 0.0000 1.0000
v -0.990500 0.016454 -0.000000 0.0000 0.0000 1.0000
v -0.990500 -0.016454 -0.000000 0.0000 0.0000 1.0000
v -0.941433 0.000000 0.389954 0.0000 0.0000 1.0000
v -0.915103 0.016454 0.379048 0.0000 0.0000 1.0000
v -0.915103 -0.016454 0.379048 0.0000 0.0000 1.0000
v -0.720542 0.000000 0.720542 0.0000 0.0000 1.0000
v -0.700389 0.016454 0.700389 0.0000 0.0000 1.0000
v -0.700389 -0.016454 0.700389 0.0000 0.0000 1.0000
v -0.389955 0.000000 0.941433 0.0000 0.0000 1.0000
v -0.379048 0.016454 0.915103 0.0000 0.0000 1.0000
v -0.379048 -0.016454 0.915103 0.0000 0.0000 1.0000
v 0.000000 0.000000 1.019000 0.0000 0.0000 1.0000
v 0.000000 0.016454 0.990500 0.0000 0.0000 1.0000
v 0.000000 -0.016454 0.990500 0.0000 0.0000 1.0000
v 0.389955 0.000000 0.941433 0.0000 0.0000 1.0000
v 0.379048 0.016454 0.915103 0.0000 0.0000 1.0000
v 0.379048 -0.016454 0.915103 0.0000 0.0000 1.0000
v 0.720541 0.000000 0.720542 0.0000 0.0000 1.0000
v 0.700389 0.016454 0.700390 0.0000 0.0000 1.0000
v 0.700389 -0.016454 0.700390 0.0000 0.0000 1.0000
v 0.941433 0.000000 0.389955 0.0000 0.0000 1.0000
v 0.915102 0.016454 0.379048 0.0000 0.0000 1.0000
v 0.915102 -0.016454 0.379048 0.0000 0.0000 1.0000
v 1.019000 0.000000 0.000000 0.0000 1.0000 0.0000
v 0.990500 -0.000000 0.016454 0.0000 1.0000 0.0000
v 0.990500 0.000000 -0.016454 0.0000 1.0000 0.0000
v 0.941433 0.389954 0.000000 0.0000 1.0000 0.0000
v 0.915103 0.379048 0.016454 0.0000 1.0000 0.0000
v 0.915103 0.379048 -0.016454 0.0000 1.0000 0.0000
v 0.720542 0.720542 0.000000 0.0000 1.0000 0.0000
v 0.700389 0.700389 0.016455 0.0000 1.0000 0.0000
v 0.700389 0.700389 -0.016454 0.0000 1.0000 0.0000
v 0.389955 0.941433 0.000000 0.0000 1.0000 0.0000
v 0.379048 0.915103 0.016455 0.0000 1.0000 0.0000
v 0.379048 0.915103 -0.016454 0.0000 1.0000 0.0000
v 0.000000 1.019000 0.000000 0.0000 1.0000 0.0000
v 0.000000 0.990500 0.016455 0.0000 1.0000 0.0000
v 0.000000 0.990500 -0.016454 0.0000 1.0000 0.0000
v -0.389955 0.941433 0.000000 0.0000 1.0000 0.0000
v -0.379048 0.915103 0.016455 0.0000 1.0000 0.0000
v -0.379048 0.915103 -0.016454 0.0000 1.0000 0.0000
v -0.720542 0.720542 0.000000 0.0000 1.0000 0.0000
v -0.700389 0.700389 0.016455 0.0000 1.0000 0.0000
v -0.700389 0.700389 -0.016454 0.0000 1.0000 0.0000
v -0.941433 0.389954 0.000000 0.0000 1.0000 0.0000
v -0.915103 0.379048 0.016454 0.0000 1.0000 0.0000
v -0.915103 0.379048 -0.016454 0.0000 1.0000 0.0000
v -1.019000 0.000000 0.000000 0.0000 1.0000 0.0000
v -0.990500 0.000000 0.016454 0.0000 1.0000 0.0000
v -0.990500 0.000000 -0.016454 0.0000 1.0000 0.0000
v -0.941433 -0.389954 -0.000000 0.0000 1.0000 0.0000
v -0.915103 -0.379048 0.016454 0.0000 1.0000 0.0000
v -0.915103 -0.379048 -0.016454 0.0000 1.0000 0.0000
v -0.720542 -0.720542 -0.000000 0.0000 1.0000 0.0000
v -0.700389 -0.700389 0.016454 0.0000 1.0000 0.0000
v -0.700389 -0.700389 -0.016455 0.0000 1.0000 0.0000
v -0.389955 -0.941433 -0.000000 0.0000 1.0000 0.0000
v -0.379048 -0.915103 0.016454 0.0000 1.0000 0.0000
v -0.379048 -0.915103 -0.016455 0.0000 1.0000 0.0000
v 0.000000 -1.019000 -0.000000 0.0000 1.0000 0.0000
v 0.000000 -0.990500 0.016454 0.0000 1.0000 0.0000
v 0.000000 -0.990500 -0.016455 0.0000 1.0000 0.0000
v 0.389955 -0.941433 -0.000000 0.0000 1.0000 0.0000
v 0.379048 -0.915103 0.016454 0.0000 1.0000 0.0000
v 0.379048 -0.915103 -0.016455 0.0000 1.0000 0.0000
v 0.720541 -0.720542 -0.000000 0.0000 1.0000 0.0000
v 0.700389 -0.700390 0.016454 0.0000 1.0000 0.0000
v 0.700389 -0.700390 -0.016455 0.0000 1.0000 0.0000
v 0.941433 -0.389955 -0.000000 0.0000 1.0000 0.0000
v 0.915102 -0.379048 0.016454 0.0000 1.0000 0.0000
v 0.915102 -0.379048 -0.016454 0.0000 1.0000 0.0000
v -0.000000 0.000000 -1.019000 1.0000 0.0000 0.0000
v 0.016454 -0.000000 -0.990500 1.0000 0.0000 0.0000
v -0.016455 0.000000 -0.990500 1.0000 0.0000 0.0000
v -0.000000 0.389954 -0.941433 1.0000 0.0000 0.0000
v 0.016454 0.379048 -0.915103 1.0000 0.0000 0.0000
v -0.016455 0.379048 -0.915103 1.0000 0.0000 0.0000
v 0.000000 0.720542 -0.720542 1.0000 0.0000 0.0000
v 0.016454 0.700389 -0.700389 1.0000 0.0000 0.0000
v -0.016454 0.700389 -0.700389 1.0000 0.0000 0.0000
v 0.000000 0.941433 -0.389955 1.0000 0.0000 0.0000
v 0.016455 0.915103 -0.379048 1.0000 0.0000 0.0000
v -0.016454 0.915103 -0.379048 1.0000 0.0000 0.0000
v 0.000000 1.019000 -0.000000 1.0000 0.0000 0.0000
v 0.016455 0.990500 -0.000000 1.0000 0.0000 0.0000
v -0.016454 0.990500 -0.000000 1.0000 0.0000 0.0000
v 0.000000 0.941433 0.389955 1.0000 0.0000 0.0000
v 0.016455 0.915103 0.379048 1.0000 0.0000 0.0000
v -0.016454 0.915103 0.379048 1.0000 0.0000 0.0000
v 0.000000 0.720542 0.720542 1.0000 0.0000 0.0000
v 0.016455 0.700389 0.700389 1.0000 0.0000 0.0000
v -0.016454 0.700389 0.700389 1.0000 0.0000 0.0000
v 0.000000 0.389954 0.941433 1.0000 0.0000 0.0000
v 0.016455 0.379048 0.915103 1.0000 0.0000 0.0000
v -0.016454 0.379048 0.915103 1.0000 0.0000 0.0000
v 0.000000 0.000000 1.019000 1.0000 0.0000 0.0000
v 0.016455 0.000000 0.990500 1.0000 0.0000 0.0000
v -0.016454 0.000000 0.990500 1.0000 0.0000 0.0000
v 0.000000 -0.389954 0.941433 1.0000 0.0000 0.0000
v 0.016455 -0.379048 0.915103 1.0000 0.0000 0.0000
v -0.016454 -0.379048 0.915103 1.0000 0.0000 0.0000
v 0.000000 -0.720542 0.720542 1.0000 0.0000 0.0000
v 0.016454 -0.700389 0.700389 1.0000 0.0000 0.0000
v -0.016454 -0.700389 0.700389 1.0000 0.0000 0.0000
v -0.000000 -0.941433 0.389955 1.0000 0.0000 0.0000
v 0.016454 -0.915103 0.379048 1.0000 0.0000 0.0000
v -0.016455 -0.915103 0.379048 1.0000 0.0000 0.0000
v -0.000000 -1.019000 -0.000000 1.0000 0.0000 0.0000
v 0.016454 -0.990500 -0.000000 1.0000 0.0000 0.0000
v -0.016455 -0.990500 -0.000000 1.0000 0.0000 0.0000
v -0.000000 -0.941433 -0.389955 1.0000 0.0000 0.0000
v 0.016454 -0.915103 -0.379048 1.0000 0.0000 0.0000
v -0.016455 -0.915103 -0.379048 1.0000 0.0000 0.0000
v -0.000000 -0.720542 -0.720541 1.0000 0.0000 0.0000
v 0.016454 -0.700390 -0.700389 1.0000 0.0000 0.0000
v -0.016455 -0.700390 -0.700389 1.0000 0.0000 0.0000
v -0.000000 -0.389955 -0.941433 1.0000 0.0000 0.0000
v 0.016454 -0.379048 -0.915102 1.0000 0.0000 0.0000
v -0.016455 -0.379048 -0.915102 1.0000 0.0000 0.0000
s 1
f 2 3 1
f 4 7 3
f 8 5 7
f 6 1 5
f 7 1 3
f 4 6 8
f 2 4 3
f 4 8 7
f 8 6 5
f 6 2 1
f 7 5 1
f 4 2 6
f 12 10 9
f 13 11 10
f 14 9 11
f 12 16 13
f 16 14 13
f 17 12 14
f 18 16 15
f 19 17 16
f 17 18 15
f 21 19 18
f 22 20 19
f 20 21 18
f 24 22 21
f 22 26 23
f 26 21 23
f 24 28 25
f 28 26 25
f 26 27 24
f 27 31 28
f 31 29 28
f 29 30 27
f 33 31 30
f 34 32 31
f 35 30 32
f 36 34 33
f 37 35 34
f 38 33 35
f 39 37 36
f 40 38 37
f 41 36 38
f 39 43 40
f 43 41 40
f 41 42 39
f 45 43 42
f 43 47 44
f 44 45 42
f 45 49 46
f 49 47 46
f 47 48 45
f 48 52 49
f 52 50 49
f 53 48 50
f 54 52 51
f 55 53 52
f 53 54 51
f 9 55 54
f 10 56 55
f 11 54 56
f 60 58 57
f 61 59 58
f 62 57 59
f 60 64 61
f 64 62 61
f 65 60 62
f 66 64 63
f 64 68 65
f 68 63 65
f 69 67 66
f 70 68 67
f 71 66 68
f 72 70 69
f 73 71 70
f 74 69 71
f 72 76 73
f 76 74 73
f 77 72 74
f 78 76 75
f 79 77 76
f 80 75 77
f 81 79 78
f 82 80 79
f 80 81 78
f 84 82 81
f 85 83 82
f 83 84 81
f 87 85 84
f 88 86 85
f 86 87 84
f 90 88 87
f 91 89 88
f 89 90 87
f 93 91 90
f 94 92 91
f 95 90 92
f 96 94 93
f 97 95 94
f 98 93 95
f 99 97 96
f 100 98 97
f 98 99 96
f 102 100 99
f 103 101 100
f 101 102 99
f 57 103 102
f 58 104 103
f 104 57 102
f 108 106 105
f 109 107 106
f 110 105 107
f 111 109 108
f 112 110 109
f 113 108 110
f 114 112 111
f 115 113 112
f 116 111 113
f 117 115 114
f 118 116 115
f 119 114 116
f 120 118 117
f 121 119 118
f 122 117 119
f 120 124 121
f 124 122 121
f 125 120 122
f 123 127 124
f 127 125 124
f 128 123 125
f 129 127 126
f 127 131 128
f 131 126 128
f 132 130 129
f 133 131 130
f 134 129 131
f 135 133 132
f 136 134 133
f 137 132 134
f 135 139 136
f 139 137 136
f 137 138 135
f 141 139 138
f 142 140 139
f 143 138 140
f 144 142 141
f 142 146 143
f 146 141 143
f 147 145 144
f 148 146 145
f 146 147 144
f 150 148 147
f 151 149 148
f 149 150 147
f 150 106 151
f 106 152 151
f 107 150 152
f 12 13 10
f 13 14 11
f 14 12 9
f 12 15 16
f 16 17 14
f 17 15 12
f 18 19 16
f 19 20 17
f 17 20 18
f 21 22 19
f 22 23 20
f 20 23 21
f 24 25 22
f 22 25 26
f 26 24 21
f 24 27 28
f 28 29 26
f 26 29 27
f 27 30 31
f 31 32 29
f 29 32 30
f 33 34 31
f 34 35 32
f 35 33 30
f 36 37 34
f 37 38 35
f 38 36 33
f 39 40 37
f 40 41 38
f 41 39 36
f 39 42 43
f 43 44 41
f 41 44 42
f 45 46 43
f 43 46 47
f 44 47 45
f 45 48 49
f 49 50 47
f 47 50 48
f 48 51 52
f 52 53 50
f 53 51 48
f 54 55 52
f 55 56 53
f 53 56 54
f 9 10 55
f 10 11 56
f 11 9 54
f 60 61 58
f 61 62 59
f 62 60 57
f 60 63 64
f 64 65 62
f 65 63 60
f 66 67 64
f 64 67 68
f 68 66 63
f 69 70 67
f 70 71 68
f 71 69 66
f 72 73 70
f 73 74 71
f 74 72 69
f 72 75 76
f 76 77 74
f 77 75 72
f 78 79 76
f 79 80 77
f 80 78 75
f 81 82 79
f 82 83 80
f 80 83 81
f 84 85 82
f 85 86 83
f 83 86 84
f 87 88 85
f 88 89 86
f 86 89 87
f 90 91 88
f 91 92 89
f 89 92 90
f 93 94 91
f 94 95 92
f 95 93 90
f 96 97 94
f 97 98 95
f 98 96 93
f 99 100 97
f 100 101 98
f 98 101 99
f 102 103 100
f 103 104 101
f 101 104 102
f 57 58 103
f 58 59 104
f 104 59 57
f 108 109 106
f 109 110 107
f 110 108 105
f 111 112 109
f 112 113 110
f 113 111 108
f 114 115 112
f 115 116 113
f 116 114 111
f 117 118 115
f 118 119 116
f 119 117 114
f 120 121 118
f 121 122 119
f 122 120 117
f 120 123 124
f 124 125 122
f 125 123 120
f 123 126 127
f 127 128 125
f 128 126 123
f 129 130 127
f 127 130 131
f 131 129 126
f 132 133 130
f 133 134 131
f 134 132 129
f 135 136 133
f 136 137 134
f 137 135 132
f 135 138 139
f 139 140 137
f 137 140 138
f 141 142 139
f 142 143 140
f 143 141 138
f 144 145 142
f 142 145 146
f 146 144 141
f 147 148 145
f 148 149 146
f 146 149 147
f 150 151 148
f 151 152 149
f 149 152 150
f 150 105 106
f 106 107 152
f 107 105 150
