# Blender 4.5.0 Release Candidate
# www.blender.org
o CRTMonitor
v 0.026695 0.091842 0.287901
v 0.026695 0.552503 0.287901
v -0.404675 0.091842 0.346491
v -0.404675 0.515063 0.346491
v -0.050995 0.091842 -0.284096
v -0.050995 0.552503 -0.284096
v -0.482365 0.091842 -0.225507
v -0.482365 0.515063 -0.225507
v 0.306586 0.161647 0.247735
v 0.306586 0.544972 0.247735
v 0.229398 0.161647 -0.320567
v 0.229398 0.544972 -0.320567
v -0.410577 0.140093 0.290523
v -0.410577 0.225103 0.290523
v -0.428338 0.140093 0.292935
v -0.428338 0.225103 0.292935
v -0.427383 0.140093 0.166785
v -0.427383 0.225103 0.166785
v -0.445145 0.140093 0.169198
v -0.445145 0.225103 0.169198
v -0.059546 0.285315 0.320960
v -0.059546 0.484563 0.320960
v -0.340386 0.285315 0.359104
v -0.340386 0.484563 0.359104
v -0.062641 0.285315 0.298169
v -0.062641 0.484563 0.298169
v -0.343482 0.285315 0.336313
v -0.343482 0.484563 0.336313
v 0.075963 0.064013 0.347984
v 0.022754 0.064013 0.307501
v 0.022754 0.626690 0.307501
v 0.075963 0.626690 0.347984
v -0.060087 0.064013 -0.302430
v -0.019604 0.064013 -0.355638
v -0.019604 0.626690 -0.355638
v -0.060087 0.626690 -0.302430
v 0.306254 0.161647 0.137555
v 0.293714 0.161647 -0.039893
v 0.258470 0.161647 -0.214256
v 0.258470 0.544972 -0.214256
v 0.293714 0.544972 -0.039893
v 0.306254 0.544972 0.137555
v 0.305276 0.064013 0.316838
v 0.305276 0.626690 0.316838
v 0.209708 0.626690 -0.386784
v 0.209708 0.064013 -0.386784
v 0.258470 0.064013 -0.214256
v 0.306254 0.626690 0.137555
v 0.306254 0.064013 0.137555
v 0.293714 0.064013 -0.039893
v 0.258470 0.626690 -0.214256
v 0.293714 0.626690 -0.039893
v 0.293160 0.161647 0.250979
v 0.293160 0.544972 0.250979
v 0.215972 0.544972 -0.317323
v 0.215972 0.161647 -0.317323
v -0.232856 0.000000 0.031627
v -0.142290 0.000000 0.187017
v 0.031627 0.000000 0.232856
v 0.187017 0.000000 0.142290
v 0.232856 0.000000 -0.031627
v 0.142290 0.000000 -0.187017
v -0.031627 0.000000 -0.232856
v -0.187017 0.000000 -0.142290
v -0.178973 0.038109 0.024308
v -0.109365 0.038109 0.143742
v 0.024308 0.038109 0.178973
v 0.143742 0.038109 0.109365
v 0.178973 0.038109 -0.024308
v 0.109365 0.038109 -0.143742
v -0.024308 0.038109 -0.178973
v -0.143742 0.038109 -0.109365
v -0.142290 0.023572 0.187017
v -0.232856 0.023572 0.031627
v 0.031627 0.023572 0.232856
v 0.187017 0.023572 0.142290
v 0.232856 0.023572 -0.031627
v 0.142290 0.023572 -0.187017
v -0.031627 0.023572 -0.232856
v -0.187017 0.023572 -0.142290
v -0.103767 0.067013 0.136384
v -0.169813 0.067013 0.023064
v 0.023064 0.067013 0.169813
v 0.136384 0.067013 0.103767
v 0.169812 0.067013 -0.023064
v 0.103767 0.067013 -0.136384
v -0.023064 0.067013 -0.169813
v -0.136384 0.067013 -0.103767
v -0.106333 0.100621 0.139757
v -0.174012 0.100621 0.023635
v 0.023635 0.100621 0.174012
v -0.023635 0.100621 -0.174012
v -0.139757 0.100621 -0.106333
vn 0.1346 -0.0000 0.9909
vn -0.9909 -0.0000 0.1346
vn -0.1346 -0.0000 -0.9909
vn -0.8640 -0.0000 0.5035
vn -0.9670 -0.0000 -0.2548
vn -0.0000 -1.0000 -0.0000
vn -0.0849 0.9963 0.0115
vn -0.0000 1.0000 -0.0000
vn 0.2348 -0.0000 0.9720
vn -0.2549 -0.0000 0.9670
vn -0.5036 -0.0000 -0.8640
vn -0.5035 -0.0000 -0.8640
vn 0.9909 -0.0000 -0.1346
vn -0.9670 -0.0000 -0.2549
vn -0.2348 -0.0000 -0.9720
vn 0.9999 -0.0030 0.0114
vn 0.9999 0.0063 0.0115
vn 0.9999 -0.0058 0.0108
vn 0.9607 -0.0030 -0.2777
vn 0.9606 0.0064 -0.2778
vn 0.9607 0.0040 -0.2776
vn 0.9725 -0.0022 -0.2330
vn 0.9608 -0.0058 -0.2771
vn 0.9999 0.0040 0.0113
vn 0.9994 0.0023 -0.0351
vn 0.9994 -0.0022 -0.0348
vn 0.9993 -0.0000 -0.0368
vn 0.9729 -0.0000 -0.2311
vn 0.9725 0.0023 -0.2328
vn -0.7958 -0.0000 -0.6055
vn 0.6055 -0.0000 -0.7958
vn 0.7958 -0.0000 0.6055
vn -0.6055 -0.0000 0.7958
vn -0.5767 0.3046 0.7580
vn -0.9862 0.0971 0.1340
vn -0.9438 0.3046 0.1282
vn -0.2559 0.9661 0.0348
vn -0.1564 0.9661 0.2055
vn 0.0348 0.9661 0.2559
vn 0.2055 0.9661 0.1564
vn 0.2559 0.9661 -0.0348
vn 0.1564 0.9661 -0.2055
vn -0.0348 0.9661 -0.2559
vn -0.2055 0.9661 -0.1564
vn -0.7921 0.0971 -0.6026
vn -0.5002 -0.1157 -0.8582
vn -0.2645 0.1678 -0.9497
vn -0.7580 0.3046 -0.5767
vn -0.1282 0.3046 -0.9438
vn 0.5767 0.3046 -0.7580
vn 0.9438 0.3046 -0.1282
vn 0.7580 0.3046 0.5767
vn 0.1282 0.3046 0.9438
vn -0.6026 0.0971 0.7921
vn -0.0016 0.1678 0.9858
vn -0.9831 -0.1251 0.1335
vn -0.7896 -0.1251 -0.6007
vn -0.6008 -0.1251 0.7896
vn -0.2531 -0.1157 0.9605
vt 0.781908 0.976572
vt 0.578251 0.766643
vt 0.782198 0.766643
vt 0.565630 0.831966
vt 0.287273 0.628012
vt 0.565630 0.628012
vt 0.765740 0.266110
vt 0.975574 0.469524
vt 0.765740 0.470149
vt 0.439904 0.475143
vt 0.711063 0.178327
vt 0.711063 0.475144
vt 0.846999 0.760028
vt 0.637144 0.481759
vt 0.846999 0.481759
vt 0.001953 0.721206
vt 0.280658 0.510905
vt 0.280658 0.721206
vt 0.281438 0.321470
vt 0.427883 0.087530
vt 0.427883 0.258683
vt 0.048765 0.041652
vt 0.055399 0.227175
vt 0.048765 0.227133
vt 0.716949 0.001953
vt 0.436967 0.117119
vt 0.437126 0.001953
vt 0.351223 0.596609
vt 0.630186 0.481759
vt 0.630528 0.596609
vt 0.017208 0.919165
vt 0.025852 0.960143
vt 0.017208 0.960131
vt 0.048632 0.294026
vt 0.089599 0.233811
vt 0.089599 0.294026
vt 0.001953 0.919196
vt 0.010593 0.960155
vt 0.001953 0.960181
vt 0.137753 0.275168
vt 0.129112 0.214971
vt 0.137753 0.214971
vt 0.113856 0.214971
vt 0.122497 0.275169
vt 0.113856 0.275169
vt 0.381149 0.838585
vt 0.285132 0.975390
vt 0.285132 0.838718
vt 0.151418 0.184871
vt 0.162510 0.280891
vt 0.151418 0.280891
vt 0.169125 0.184871
vt 0.180216 0.280889
vt 0.169125 0.280889
vt 0.152670 0.178256
vt 0.163758 0.041631
vt 0.163758 0.178256
vt 0.170373 0.178254
vt 0.181461 0.041631
vt 0.181461 0.178254
vt 0.438046 0.141332
vt 0.716790 0.117119
vt 0.717870 0.141332
vt 0.350056 0.621396
vt 0.024743 0.352314
vt 0.258680 0.498760
vt 0.087529 0.498760
vt 0.738249 0.226793
vt 0.724636 0.278784
vt 0.731259 0.002987
vt 0.068674 0.226408
vt 0.062014 0.041639
vt 0.068674 0.041655
vt 0.227131 0.035015
vt 0.001970 0.001953
vt 0.274176 0.001953
vt 0.227131 0.312652
vt 0.001970 0.345699
vt 0.041691 0.312652
vt 0.274620 0.259762
vt 0.274176 0.345699
vt 0.041691 0.035015
vt 0.002415 0.087889
vt 0.274620 0.087889
vt 0.227388 0.087889
vt 0.274823 0.173826
vt 0.227591 0.173826
vt 0.227388 0.259762
vt 0.002415 0.259762
vt 0.041947 0.259762
vt 0.002617 0.173826
vt 0.042150 0.173826
vt 0.041947 0.087889
vt 0.757018 0.278734
vt 0.750394 0.002941
vt 0.764007 0.054931
vt 0.144229 0.208333
vt 0.134231 0.123025
vt 0.146054 0.123060
vt 0.107291 0.208359
vt 0.096736 0.124995
vt 0.108553 0.124995
vt 0.076923 0.041652
vt 0.087108 0.123995
vt 0.075290 0.124011
vt 0.125764 0.208356
vt 0.115170 0.124993
vt 0.126988 0.124993
vt 0.113946 0.041631
vt 0.125764 0.041631
vt 0.132406 0.041641
vt 0.144229 0.041676
vt 0.095473 0.041631
vt 0.107291 0.041631
vt 0.088741 0.208366
vt 0.076923 0.208382
vt 0.419544 0.968849
vt 0.405688 0.904121
vt 0.420494 0.904121
vt 0.964963 0.074762
vt 0.989717 0.152971
vt 0.964963 0.142754
vt 0.916885 0.190832
vt 0.927165 0.215523
vt 0.838703 0.215522
vt 0.848894 0.190831
vt 0.776152 0.152968
vt 0.800816 0.142752
vt 0.776152 0.064505
vt 0.800816 0.074759
vt 0.838704 0.001953
vt 0.848894 0.026681
vt 0.927165 0.001955
vt 0.916885 0.026683
vt 0.989717 0.064508
vt 0.480280 0.842114
vt 0.497129 0.904515
vt 0.480280 0.904705
vt 0.404786 0.842705
vt 0.419544 0.839392
vt 0.465453 0.905241
vt 0.482897 0.964385
vt 0.468211 0.968141
vt 0.203936 0.107491
vt 0.188117 0.045771
vt 0.202951 0.042442
vt 0.458838 0.904730
vt 0.444003 0.842248
vt 0.458838 0.839302
vt 0.465453 0.839274
vt 0.202951 0.172541
vt 0.189052 0.107491
vt 0.456336 0.968549
vt 0.444003 0.904326
vt 0.404786 0.965536
vt 0.388741 0.904121
vt 0.387818 0.841187
vt 0.427110 0.840472
vt 0.850038 0.975960
vt 0.788731 0.827951
vt 0.936740 0.766643
vt 0.559919 0.976572
vt 0.287273 0.831965
vt 0.975574 0.247436
vt 0.439904 0.178327
vt 0.637144 0.760028
vt 0.001953 0.510905
vt 0.415784 0.344260
vt 0.304228 0.344260
vt 0.281438 0.024743
vt 0.304228 0.001953
vt 0.415784 0.001953
vt 0.433405 0.173106
vt 0.055399 0.041693
vt 0.350881 0.481759
vt 0.025852 0.919177
vt 0.048632 0.233811
vt 0.010593 0.919171
vt 0.129112 0.275168
vt 0.122497 0.214971
vt 0.381149 0.975258
vt 0.162510 0.184871
vt 0.180216 0.184871
vt 0.152670 0.041631
vt 0.170373 0.041631
vt 0.629362 0.621396
vt 0.001953 0.486661
vt 0.001953 0.375104
vt 0.321466 0.352314
vt 0.344256 0.375104
vt 0.344256 0.486661
vt 0.173104 0.504283
vt 0.738249 0.055640
vt 0.743771 0.141217
vt 0.731259 0.279462
vt 0.724636 0.002309
vt 0.062014 0.226392
vt 0.769530 0.140506
vt 0.764007 0.226082
vt 0.750394 0.279412
vt 0.757018 0.002263
vt 0.132406 0.208298
vt 0.095473 0.208359
vt 0.088741 0.041635
vt 0.113946 0.208356
vt 0.497129 0.840377
vt 0.188117 0.169211
vt 0.441630 0.964879
vt 0.387818 0.967055
vt 0.427110 0.904085
vt 0.998047 0.827951
vt 0.998047 0.914652
vt 0.936740 0.975960
vt 0.788731 0.914652
vt 0.850038 0.766643
s 1
f 1/1/1 4/2/1 3/3/1
f 4/4/2 7/5/2 3/6/2
f 8/7/3 5/8/3 7/9/3
f 31/10/4 33/11/5 30/12/4
f 7/13/6 1/14/6 3/15/6
f 4/16/7 6/17/7 8/18/7
f 36/19/8 48/20/8 51/21/8
f 12/22/9 56/23/9 11/24/9
f 44/25/1 29/26/10 43/27/1
f 35/28/11 46/29/3 34/30/12
f 14/31/1 15/32/1 13/33/1
f 16/34/2 19/35/2 15/36/2
f 20/37/3 17/38/3 19/39/3
f 19/40/6 13/41/6 15/42/6
f 16/43/8 18/44/8 20/45/8
f 22/46/1 23/47/1 21/48/1
f 24/49/2 27/50/2 23/51/2
f 26/52/13 21/53/13 25/54/13
f 27/55/6 21/56/6 23/57/6
f 24/58/8 26/59/8 28/60/8
f 30/61/4 32/62/10 31/63/4
f 34/30/12 36/64/14 35/28/11
f 30/65/6 47/66/6 49/67/6
f 39/68/8 56/69/8 9/70/8
f 9/71/15 54/72/15 10/73/15
f 9/74/16 44/75/17 43/76/18
f 11/77/19 45/78/20 12/79/21
f 11/77/19 47/80/22 46/81/23
f 10/82/24 48/83/25 44/75/17
f 9/74/16 49/84/26 37/85/27
f 37/85/27 50/86/13 38/87/13
f 38/87/13 47/80/22 39/88/28
f 12/79/21 51/89/29 40/90/28
f 40/90/28 52/91/13 41/92/13
f 41/92/13 48/83/25 42/93/27
f 10/94/6 55/95/6 40/96/6
f 64/97/30 79/98/3 63/99/3
f 62/100/31 77/101/13 61/102/13
f 60/103/32 75/104/1 59/105/1
f 58/106/33 74/107/2 57/108/2
f 57/108/2 80/109/30 64/110/30
f 63/99/3 78/111/31 62/112/31
f 61/102/13 76/113/32 60/114/32
f 59/105/1 73/115/33 58/116/33
f 66/117/34 82/118/35 65/119/36
f 65/120/37 73/121/38 66/122/38
f 67/123/39 73/121/38 75/124/39
f 67/123/39 76/125/40 68/126/40
f 68/126/40 77/127/41 69/128/41
f 69/128/41 78/129/42 70/130/42
f 70/130/42 79/131/43 71/132/43
f 71/132/43 80/133/44 72/134/44
f 65/120/37 80/133/44 74/135/37
f 88/136/45 92/137/46 87/138/47
f 65/119/36 88/139/45 72/140/48
f 71/141/49 86/142/50 70/143/50
f 69/144/51 84/145/52 68/146/52
f 67/147/53 81/148/54 66/149/34
f 72/150/48 87/138/47 71/141/49
f 70/151/50 85/152/51 69/144/51
f 68/153/52 83/154/55 67/147/53
f 81/155/54 90/156/56 82/118/35
f 88/139/45 90/156/56 93/157/57
f 83/154/55 89/158/58 81/148/54
f 63/159/6 61/160/6 59/161/6
f 1/1/1 2/162/1 4/2/1
f 4/4/2 8/163/2 7/5/2
f 8/7/3 6/164/3 5/8/3
f 31/10/4 36/165/14 33/11/5
f 7/13/6 5/166/6 1/14/6
f 4/16/7 2/167/7 6/17/7
f 45/168/8 35/169/8 36/19/8
f 36/19/8 31/170/8 32/171/8
f 32/171/8 44/172/8 48/20/8
f 48/20/8 52/173/8 51/21/8
f 51/21/8 45/168/8 36/19/8
f 36/19/8 32/171/8 48/20/8
f 12/22/9 55/174/9 56/23/9
f 44/25/1 32/62/10 29/26/10
f 35/28/11 45/175/3 46/29/3
f 14/31/1 16/176/1 15/32/1
f 16/34/2 20/177/2 19/35/2
f 20/37/3 18/178/3 17/38/3
f 19/40/6 17/179/6 13/41/6
f 16/43/8 14/180/8 18/44/8
f 22/46/1 24/181/1 23/47/1
f 24/49/2 28/182/2 27/50/2
f 26/52/13 22/183/13 21/53/13
f 27/55/6 25/184/6 21/56/6
f 24/58/8 22/185/8 26/59/8
f 30/61/4 29/26/10 32/62/10
f 34/30/12 33/186/5 36/64/14
f 43/187/6 29/188/6 30/65/6
f 30/65/6 33/189/6 34/190/6
f 34/190/6 46/191/6 47/66/6
f 47/66/6 50/192/6 49/67/6
f 49/67/6 43/187/6 30/65/6
f 30/65/6 34/190/6 47/66/6
f 37/193/8 38/194/8 39/68/8
f 39/68/8 11/195/8 56/69/8
f 56/69/8 53/196/8 9/70/8
f 9/70/8 37/193/8 39/68/8
f 9/71/15 53/197/15 54/72/15
f 9/74/16 10/82/24 44/75/17
f 11/77/19 46/81/23 45/78/20
f 11/77/19 39/88/28 47/80/22
f 10/82/24 42/93/27 48/83/25
f 9/74/16 43/76/18 49/84/26
f 37/85/27 49/84/26 50/86/13
f 38/87/13 50/86/13 47/80/22
f 12/79/21 45/78/20 51/89/29
f 40/90/28 51/89/29 52/91/13
f 41/92/13 52/91/13 48/83/25
f 41/198/6 42/199/6 10/94/6
f 10/94/6 54/200/6 55/95/6
f 55/95/6 12/201/6 40/96/6
f 40/96/6 41/198/6 10/94/6
f 64/97/30 80/202/30 79/98/3
f 62/100/31 78/203/31 77/101/13
f 60/103/32 76/204/32 75/104/1
f 58/106/33 73/205/33 74/107/2
f 57/108/2 74/107/2 80/109/30
f 63/99/3 79/98/3 78/111/31
f 61/102/13 77/101/13 76/113/32
f 59/105/1 75/104/1 73/115/33
f 66/117/34 81/155/54 82/118/35
f 65/120/37 74/135/37 73/121/38
f 67/123/39 66/122/38 73/121/38
f 67/123/39 75/124/39 76/125/40
f 68/126/40 76/125/40 77/127/41
f 69/128/41 77/127/41 78/129/42
f 70/130/42 78/129/42 79/131/43
f 71/132/43 79/131/43 80/133/44
f 65/120/37 72/134/44 80/133/44
f 88/136/45 93/206/57 92/137/46
f 65/119/36 82/118/35 88/139/45
f 71/141/49 87/138/47 86/142/50
f 69/144/51 85/152/51 84/145/52
f 67/147/53 83/154/55 81/148/54
f 72/150/48 88/136/45 87/138/47
f 70/151/50 86/207/50 85/152/51
f 68/153/52 84/208/52 83/154/55
f 81/155/54 89/209/58 90/156/56
f 88/139/45 82/118/35 90/156/56
f 83/154/55 91/210/59 89/158/58
f 59/161/6 58/211/6 57/212/6
f 57/212/6 64/213/6 63/159/6
f 63/159/6 62/214/6 61/160/6
f 61/160/6 60/215/6 59/161/6
f 59/161/6 57/212/6 63/159/6
