# Blender 4.5.0 Release Candidate
# www.blender.org
o DeskA
v -0.400000 0.800000 -1.122941
v -0.400000 0.800000 1.122941
v 0.488486 0.800000 -1.122941
v 0.488486 0.800000 1.122941
v 0.488486 0.770000 -1.122941
v -0.400000 0.770000 -1.122941
v -0.400000 0.770000 1.122941
v 0.488486 0.770000 1.122941
v 0.391711 0.030000 1.052507
v -0.391711 0.770000 -1.052507
v 0.391711 0.030000 -1.052507
v 0.391711 0.770000 -1.052507
v 0.391711 0.030000 -1.088892
v -0.391711 0.030000 -1.088892
v -0.391711 0.030000 1.088892
v 0.391711 0.030000 1.088892
v 0.391711 0.770000 1.088892
v -0.391711 0.770000 1.088892
v -0.391711 0.770000 -1.088892
v 0.391711 0.770000 -1.088892
v -0.243247 0.259699 -1.081172
v -0.243247 0.259699 1.081172
v -0.243247 0.770000 1.081172
v -0.243247 0.770000 -1.081172
v 0.391711 0.770000 1.052507
v -0.391711 0.030000 -1.052507
v -0.391711 0.030000 1.052507
v -0.391711 0.770000 1.052507
v 0.358778 0.000000 1.070120
v 0.344376 0.000000 1.055718
v 0.329974 0.000000 1.070120
v 0.344376 0.000000 1.084522
v 0.358778 0.030000 1.070120
v 0.344376 0.030000 1.055718
v 0.329974 0.030000 1.070120
v 0.344376 0.030000 1.084522
v 0.358778 0.000000 -1.070124
v 0.344376 0.000000 -1.055722
v 0.329974 0.000000 -1.070124
v 0.344376 0.000000 -1.084526
v 0.358778 0.030000 -1.070124
v 0.344376 0.030000 -1.055722
v 0.329974 0.030000 -1.070124
v 0.344376 0.030000 -1.084526
v -0.358778 0.000000 1.070120
v -0.344376 0.000000 1.055718
v -0.329974 0.000000 1.070120
v -0.344376 0.000000 1.084522
v -0.358778 0.030000 1.070120
v -0.344376 0.030000 1.055718
v -0.329974 0.030000 1.070120
v -0.344376 0.030000 1.084522
v -0.358778 0.000000 -1.070124
v -0.344376 0.000000 -1.055722
v -0.329974 0.000000 -1.070124
v -0.344376 0.000000 -1.084526
v -0.358778 0.030000 -1.070124
v -0.344376 0.030000 -1.055722
v -0.329974 0.030000 -1.070124
v -0.344376 0.030000 -1.084526
vn -0.0000 1.0000 -0.0000
vn -0.0000 -1.0000 -0.0000
vn 1.0000 -0.0000 -0.0000
vn -1.0000 -0.0000 -0.0000
vn -0.0000 -0.0000 1.0000
vn -0.0000 -0.0000 -1.0000
vt 1.622942 0.099327
vt -0.622940 0.987813
vt -0.622940 0.099327
vt 1.622942 1.005610
vt -0.622940 1.035610
vt 1.622942 1.035610
vt -0.622940 1.005610
vt 0.099327 1.005610
vt 0.987813 1.035610
vt 0.099327 1.035610
vt 0.987813 1.005610
vt 0.891038 0.265610
vt 0.107616 1.005610
vt 0.891038 1.005610
vt 1.552508 0.265610
vt 1.588892 1.005610
vt 1.588892 0.265610
vt -0.552506 0.891038
vt -0.588891 0.107616
vt -0.588891 0.891038
vt 0.107616 0.265610
vt 1.552508 1.005610
vt 1.581172 0.495309
vt -0.581171 1.005610
vt 1.581172 1.005610
vt 1.552508 0.107616
vt 1.588892 0.891038
vt 1.588892 0.107616
vt -0.552506 0.265610
vt -0.588891 1.005610
vt -0.588891 0.265610
vt -0.552506 1.005610
vt 1.584523 0.265610
vt 1.570121 0.235610
vt 1.584523 0.235610
vt 1.555719 0.265610
vt 1.555719 0.235610
vt 1.570121 0.265610
vt -0.570123 0.235610
vt -0.584525 0.265610
vt -0.584525 0.235610
vt -0.555721 0.265610
vt -0.555721 0.235610
vt -0.570123 0.265610
vt 1.622942 0.987813
vt -0.552506 0.107616
vt -0.581171 0.495309
vt 1.552508 0.891038
s 0
f 2/1/1 3/2/1 1/3/1
f 5/2/2 7/1/2 6/3/2
f 8/4/3 3/5/3 4/6/3
f 6/7/4 2/6/4 1/5/4
f 7/8/5 4/9/5 2/10/5
f 5/11/6 1/10/6 3/9/6
s 1
f 9/12/6 28/13/6 25/14/6
f 9/15/3 17/16/3 16/17/3
s 0
f 11/18/2 14/19/2 13/20/2
s 1
f 20/14/6 14/21/6 19/13/6
f 28/22/4 15/17/4 18/16/4
f 18/13/5 16/12/5 17/14/5
f 26/21/5 12/14/5 10/13/5
f 22/23/3 24/24/3 23/25/3
s 0
f 27/26/2 16/27/2 15/28/2
s 1
f 26/29/4 19/30/4 14/31/4
f 12/32/3 13/31/3 20/30/3
f 36/33/5 31/34/4 32/35/5
f 34/36/6 29/34/3 30/37/6
f 33/38/3 32/35/5 29/34/3
f 35/38/4 30/37/6 31/34/4
f 39/39/4 44/40/6 40/41/6
f 37/39/3 42/42/5 38/43/5
f 40/41/6 41/44/3 37/39/3
f 38/43/5 43/44/4 39/39/4
f 47/34/3 52/33/5 48/35/5
f 45/34/4 50/36/6 46/37/6
f 48/35/5 49/38/4 45/34/4
f 46/37/6 51/38/3 47/34/3
f 60/40/6 55/39/3 56/41/6
f 58/42/5 53/39/4 54/43/5
f 57/44/4 56/41/6 53/39/4
f 59/44/3 54/43/5 55/39/3
s 0
f 2/1/1 4/45/1 3/2/1
f 5/2/2 8/45/2 7/1/2
f 8/4/3 5/7/3 3/5/3
f 6/7/4 7/4/4 2/6/4
f 7/8/5 8/11/5 4/9/5
f 5/11/6 6/8/6 1/10/6
s 1
f 9/12/6 27/21/6 28/13/6
f 9/15/3 25/22/3 17/16/3
s 0
f 11/18/2 26/46/2 14/19/2
s 1
f 20/14/6 13/12/6 14/21/6
f 28/22/4 27/15/4 15/17/4
f 18/13/5 15/21/5 16/12/5
f 26/21/5 11/12/5 12/14/5
f 22/23/3 21/47/3 24/24/3
s 0
f 27/26/2 9/48/2 16/27/2
s 1
f 26/29/4 10/32/4 19/30/4
f 12/32/3 11/29/3 13/31/3
f 36/33/5 35/38/4 31/34/4
f 34/36/6 33/38/3 29/34/3
f 33/38/3 36/33/5 32/35/5
f 35/38/4 34/36/6 30/37/6
f 39/39/4 43/44/4 44/40/6
f 37/39/3 41/44/3 42/42/5
f 40/41/6 44/40/6 41/44/3
f 38/43/5 42/42/5 43/44/4
f 47/34/3 51/38/3 52/33/5
f 45/34/4 49/38/4 50/36/6
f 48/35/5 52/33/5 49/38/4
f 46/37/6 50/36/6 51/38/3
f 60/40/6 59/44/3 55/39/3
f 58/42/5 57/44/4 53/39/4
f 57/44/4 60/40/6 56/41/6
f 59/44/3 58/42/5 54/43/5
