# Blender 4.5.0 Release Candidate
# www.blender.org
o Icosphere
v 0.000000 -0.975190 -0.000000
v 0.731064 -0.444015 0.531143
v -0.279189 -0.443938 0.859270
v -0.904344 -0.444368 -0.000000
v -0.278139 -0.442210 -0.856039
v 0.724182 -0.439689 -0.526143
v 0.275479 0.437832 0.847853
v -0.731206 0.444105 0.531246
v -0.721731 0.438148 -0.524362
v 0.275941 0.438592 -0.849273
v 0.898301 0.441294 0.000000
v 0.000000 0.977504 -0.000000
v -0.231127 -0.640950 0.711347
v -0.161976 -0.833092 0.498521
v -0.077007 -0.943564 0.237008
v 0.204524 -0.957119 0.148593
v 0.423538 -0.832013 0.307715
v 0.609477 -0.645838 0.442806
v 0.531701 -0.493203 0.681398
v 0.262549 -0.515810 0.808028
v -0.029692 -0.494799 0.866479
v 0.810053 -0.491755 -0.294299
v 0.852875 -0.517858 -0.000000
v 0.815229 -0.495008 0.296114
v 0.203416 -0.951962 -0.147789
v 0.425296 -0.835589 -0.308992
v 0.614697 -0.651681 -0.446598
v -0.752848 -0.645374 -0.000000
v -0.523732 -0.832353 -0.000000
v -0.255013 -0.965426 0.000000
v -0.479619 -0.488901 0.710275
v -0.675430 -0.506548 0.490727
v -0.830664 -0.493195 0.238738
v -0.234038 -0.649481 -0.720307
v -0.162532 -0.836049 -0.500229
v -0.078790 -0.965294 -0.242496
v -0.825157 -0.489785 -0.237087
v -0.686927 -0.515478 -0.499080
v -0.486410 -0.495979 -0.720088
v -0.029536 -0.490774 -0.859694
v 0.262499 -0.515708 -0.807873
v 0.535757 -0.497172 -0.686719
v 0.962388 0.248205 0.148541
v 0.957071 -0.000000 0.310966
v 0.861571 -0.246968 0.443301
v 0.861945 -0.247075 -0.443491
v 0.942729 0.000000 -0.306306
v 0.955239 0.246360 -0.147396
v 0.155267 0.246805 0.955753
v 0.000000 -0.000000 1.003361
v -0.156331 -0.248557 0.962544
v 0.690354 -0.247874 0.684922
v 0.590622 0.000000 0.812920
v 0.437242 0.247411 0.866602
v -0.861129 0.246842 0.443076
v -0.952562 -0.000000 0.309501
v -0.954464 -0.246160 0.147272
v -0.434133 -0.245671 0.860525
v -0.586949 0.000000 0.807865
v -0.682884 0.245177 0.677426
v -0.684269 0.245677 -0.678816
v -0.593677 -0.000000 -0.817126
v -0.435080 -0.246202 -0.862377
v -0.960406 -0.247693 -0.148223
v -0.950534 0.000000 -0.308842
v -0.860207 0.246579 -0.442608
v 0.433631 0.245391 -0.859544
v 0.584410 -0.000000 -0.804371
v 0.689396 -0.247528 -0.683960
v -0.154413 -0.245400 -0.950305
v -0.000000 0.000000 -0.997370
v 0.156548 0.248914 -0.963929
v 0.832779 0.494505 0.239371
v 0.693658 0.520707 0.503970
v 0.484177 0.493652 0.716862
v 0.029606 0.492580 0.862738
v -0.262921 0.516565 0.809171
v -0.531569 0.493074 0.681225
v -0.813442 0.493885 0.295488
v -0.849081 0.515473 -0.000000
v -0.814520 0.494562 -0.295866
v -0.528024 0.489606 -0.676575
v -0.261975 0.514642 -0.806260
v 0.029676 0.494386 -0.865781
v 0.483048 0.492475 -0.715230
v 0.686168 0.514888 -0.498528
v 0.838521 0.498060 -0.241092
v 0.076932 0.942651 0.236777
v 0.162721 0.837059 0.500813
v 0.231831 0.643013 0.713514
v 0.757695 0.649763 -0.000000
v 0.528273 0.839825 0.000000
v 0.251365 0.951689 0.000000
v -0.201654 0.943761 0.146508
v -0.422077 0.829042 0.306653
v -0.608029 0.644217 0.441754
v -0.201523 0.943154 -0.146414
v -0.427497 0.840065 -0.310591
v -0.602261 0.637760 -0.437563
v 0.077907 0.954534 -0.239778
v 0.163820 0.842910 -0.504195
v 0.236481 0.656641 -0.727826
v 0.362452 0.880247 -0.263336
v 0.635749 0.707978 -0.261829
v 0.450359 0.716025 -0.529357
v -0.137627 0.874975 -0.423564
v -0.053064 0.714275 -0.691355
v -0.358929 0.704832 -0.583003
v -0.448988 0.882184 0.000000
v -0.670539 0.710535 -0.162393
v -0.678751 0.719625 0.164296
v -0.138370 0.879760 0.425852
v -0.359969 0.707006 0.584730
v -0.052884 0.712029 0.689280
v 0.362426 0.880185 0.263318
v 0.447996 0.712137 0.526635
v 0.633597 0.705457 0.260917
v 0.872246 0.274885 -0.430582
v 0.804556 -0.000050 -0.584540
v 0.669844 0.271121 -0.687204
v -0.137265 0.269751 -0.944982
v -0.307278 -0.000051 -0.945706
v -0.452094 0.274586 -0.860116
v -0.942383 0.270110 -0.161670
v -1.001186 0.000011 0.000000
v -0.947237 0.271526 0.162462
v -0.449799 0.273143 0.855660
v -0.307162 -0.000055 0.945347
v -0.138422 0.271942 0.952505
v 0.662723 0.268206 0.680017
v 0.802878 -0.000070 0.583321
v 0.857203 0.270034 0.423006
v 0.307891 0.000033 -0.947590
v 0.450761 -0.273749 -0.857528
v 0.137910 -0.270973 -0.949177
v -0.811343 -0.000026 -0.589472
v -0.669073 -0.270806 -0.686429
v -0.860162 -0.270990 -0.424497
v -0.815147 -0.000068 0.592236
v -0.864134 -0.272270 0.426498
v -0.664167 -0.268799 0.681477
v 0.308837 0.000005 0.950502
v 0.137709 -0.270591 0.947865
v 0.447125 -0.271463 0.850472
v 1.010162 -0.000092 0.000000
v 0.941291 -0.269791 0.161491
v 0.951865 -0.272876 -0.163216
v 0.367342 -0.722422 -0.596979
v 0.136978 -0.870799 -0.421570
v 0.052748 -0.710329 -0.687713
v -0.446665 -0.709945 -0.525099
v -0.363216 -0.882123 -0.263890
v -0.636094 -0.708381 -0.261973
v -0.647014 -0.721169 0.266598
v -0.361324 -0.877471 0.262518
v -0.445676 -0.708317 0.523960
v 0.673541 -0.713857 -0.163088
v 0.668844 -0.708656 0.162000
v 0.447812 -0.879842 0.000001
v 0.053210 -0.716083 0.693026
v 0.137319 -0.872980 0.422612
v 0.359540 -0.706105 0.584017
v -0.202899 0.949614 0.000000
v -0.667759 0.707452 -0.000000
v -0.938306 0.268921 0.000000
v -0.954195 -0.246115 0.000000
vn 0.0172 -0.9995 0.0283
vn 0.7178 -0.4587 0.5238
vn -0.2990 -0.4696 0.8307
vn -0.8897 -0.4566 -0.0041
vn -0.2607 -0.4373 -0.8607
vn 0.7346 -0.4448 -0.5123
vn 0.2687 0.4636 0.8443
vn -0.7174 0.4502 0.5317
vn -0.7047 0.4672 -0.5339
vn 0.2959 0.4348 -0.8505
vn 0.8952 0.4456 0.0034
vn -0.0123 0.9998 0.0177
vn -0.2470 -0.6794 0.6910
vn -0.1638 -0.8577 0.4873
vn -0.0707 -0.9632 0.2593
vn 0.1942 -0.9677 0.1606
vn 0.4205 -0.8496 0.3183
vn 0.5824 -0.6889 0.4315
vn 0.5028 -0.5222 0.6888
vn 0.2707 -0.5287 0.8045
vn -0.0091 -0.5139 0.8578
vn 0.8144 -0.5053 -0.2852
vn 0.8479 -0.5301 0.0029
vn 0.8163 -0.5102 0.2708
vn 0.2119 -0.9645 -0.1576
vn 0.4053 -0.8660 -0.2928
vn 0.6165 -0.6650 -0.4214
vn -0.7356 -0.6770 -0.0239
vn -0.5300 -0.8479 -0.0112
vn -0.2540 -0.9669 0.0254
vn -0.5176 -0.5119 0.6856
vn -0.6771 -0.5180 0.5227
vn -0.8202 -0.5025 0.2734
vn -0.2193 -0.6767 -0.7029
vn -0.1521 -0.8500 -0.5043
vn -0.0554 -0.9659 -0.2530
vn -0.8135 -0.5181 -0.2641
vn -0.6929 -0.5321 -0.4865
vn -0.5027 -0.5051 -0.7015
vn -0.0070 -0.5024 -0.8646
vn 0.2369 -0.5249 -0.8175
vn 0.5268 -0.4987 -0.6883
vn 0.9527 0.2580 0.1606
vn 0.9443 -0.0049 0.3290
vn 0.8711 -0.2332 0.4321
vn 0.8678 -0.2349 -0.4379
vn 0.9475 -0.0036 -0.3196
vn 0.9596 0.2339 -0.1567
vn 0.1524 0.2544 0.9550
vn 0.0008 0.0021 1.0000
vn -0.1519 -0.2328 0.9606
vn 0.6859 -0.2349 0.6887
vn 0.5977 0.0132 0.8016
vn 0.4476 0.2555 0.8570
vn -0.8660 0.2449 0.4360
vn -0.9540 0.0002 0.2998
vn -0.9587 -0.2387 0.1546
vn -0.4666 -0.2388 0.8516
vn -0.5837 -0.0126 0.8119
vn -0.6801 0.2422 0.6919
vn -0.6915 0.2677 -0.6710
vn -0.5872 -0.0106 -0.8094
vn -0.4328 -0.2402 -0.8689
vn -0.9569 -0.2442 -0.1571
vn -0.9513 0.0073 -0.3082
vn -0.8637 0.2502 -0.4375
vn 0.4534 0.2408 -0.8582
vn 0.5893 0.0171 -0.8078
vn 0.6946 -0.2274 -0.6825
vn -0.1452 -0.2373 -0.9605
vn -0.0125 -0.0089 -0.9999
vn 0.1515 0.2421 -0.9583
vn 0.8194 0.5135 0.2547
vn 0.6894 0.5227 0.5015
vn 0.4862 0.5020 0.7152
vn 0.0283 0.5125 0.8582
vn -0.2602 0.5408 0.7999
vn -0.5144 0.5180 0.6834
vn -0.8184 0.5030 0.2779
vn -0.8536 0.5209 -0.0079
vn -0.8073 0.5140 -0.2899
vn -0.5245 0.5317 -0.6650
vn -0.2675 0.5385 -0.7990
vn -0.0001 0.4975 -0.8675
vn 0.5049 0.4868 -0.7128
vn 0.6742 0.5381 -0.5060
vn 0.8174 0.5195 -0.2489
vn 0.0682 0.9695 0.2353
vn 0.1587 0.8570 0.4903
vn 0.2287 0.6653 0.7106
vn 0.7336 0.6795 0.0098
vn 0.5215 0.8532 0.0033
vn 0.2409 0.9705 0.0111
vn -0.1984 0.9666 0.1624
vn -0.4051 0.8575 0.3170
vn -0.5780 0.6850 0.4435
vn -0.1975 0.9679 -0.1557
vn -0.4178 0.8497 -0.3216
vn -0.5931 0.6665 -0.4517
vn 0.0602 0.9711 -0.2308
vn 0.1478 0.8650 -0.4795
vn 0.2341 0.6562 -0.7174
vn 0.3708 0.8928 -0.2559
vn 0.6216 0.7346 -0.2719
vn 0.4704 0.7262 -0.5014
vn -0.1545 0.8935 -0.4217
vn -0.0936 0.7330 -0.6737
vn -0.3665 0.7242 -0.5841
vn -0.4353 0.9003 0.0068
vn -0.6678 0.7279 -0.1553
vn -0.6623 0.7357 0.1420
vn -0.1473 0.8989 0.4126
vn -0.3573 0.7361 0.5748
vn -0.0590 0.7304 0.6805
vn 0.3590 0.8947 0.2657
vn 0.4418 0.7361 0.5128
vn 0.6214 0.7365 0.2672
vn 0.8609 0.2594 -0.4376
vn 0.8074 0.0052 -0.5900
vn 0.6651 0.2705 -0.6960
vn -0.1506 0.2704 -0.9509
vn -0.2863 -0.0014 -0.9581
vn -0.4336 0.2918 -0.8526
vn -0.9507 0.2768 -0.1396
vn -0.9999 0.0169 -0.0013
vn -0.9505 0.2805 0.1338
vn -0.4475 0.2710 0.8522
vn -0.3179 0.0067 0.9481
vn -0.1441 0.2760 0.9503
vn 0.6878 0.2664 0.6752
vn 0.8069 0.0315 0.5898
vn 0.8495 0.2671 0.4550
vn 0.3149 -0.0077 -0.9491
vn 0.4342 -0.2638 -0.8613
vn 0.1307 -0.2767 -0.9520
vn -0.8139 -0.0078 -0.5809
vn -0.6798 -0.2849 -0.6758
vn -0.8546 -0.2869 -0.4328
vn -0.8011 -0.0083 0.5985
vn -0.8457 -0.3019 0.4400
vn -0.6653 -0.3056 0.6812
vn 0.3047 -0.0154 0.9523
vn 0.1589 -0.2778 0.9474
vn 0.4291 -0.2823 0.8580
vn 0.9998 -0.0129 -0.0141
vn 0.9453 -0.2850 0.1589
vn 0.9469 -0.2785 -0.1606
vn 0.3324 -0.7432 -0.5807
vn 0.1397 -0.8918 -0.4304
vn 0.0514 -0.7330 -0.6783
vn -0.4536 -0.7342 -0.5051
vn -0.3897 -0.8785 -0.2764
vn -0.6342 -0.7269 -0.2635
vn -0.6302 -0.7247 0.2786
vn -0.3498 -0.8942 0.2795
vn -0.4467 -0.7164 0.5360
vn 0.6649 -0.7326 -0.1457
vn 0.6555 -0.7381 0.1598
vn 0.4546 -0.8907 0.0050
vn 0.0575 -0.7394 0.6708
vn 0.1390 -0.8937 0.4265
vn 0.3532 -0.7384 0.5745
vn -0.2007 0.9797 -0.0021
vn -0.6767 0.7353 -0.0371
vn -0.9586 0.2845 -0.0155
vn -0.9762 -0.2157 0.0207
vt 0.300001 0.000000
vt 0.400001 0.080807
vt 0.200001 0.080807
vt 0.400001 0.352414
vt 0.400001 0.271606
vt 0.444543 0.332487
vt 0.100000 0.000000
vt 0.000000 0.080808
vt 0.900000 0.000000
vt 1.000000 0.080808
vt 0.799999 0.080807
vt 0.699999 0.000000
vt 0.599999 0.080807
vt 0.424369 0.419191
vt 0.200001 0.352414
vt 0.244544 0.332487
vt 0.224368 0.419191
vt 0.000000 0.352416
vt 0.044542 0.332488
vt 0.024367 0.419191
vt 0.799999 0.352414
vt 0.844543 0.332487
vt 0.824367 0.419191
vt 0.599999 0.352414
vt 0.644542 0.332487
vt 0.624367 0.419191
vt 0.375633 0.419191
vt 0.175633 0.419191
vt 0.024367 0.419191
vt 0.000000 0.419191
vt 0.775632 0.419191
vt 0.575631 0.419191
vt 0.299999 0.647586
vt 0.344542 0.667513
vt 0.299999 0.728394
vt 0.099999 0.647586
vt 0.144542 0.667513
vt 0.099999 0.728394
vt 0.900001 0.647586
vt 0.944543 0.667513
vt 0.900001 0.728394
vt 0.700001 0.647586
vt 0.744544 0.667513
vt 0.700001 0.728394
vt 0.500000 0.647584
vt 0.544542 0.667512
vt 0.500000 0.728392
vt 0.500000 0.919192
vt 0.700001 0.919193
vt 0.600000 1.000000
vt 0.500000 0.823792
vt 0.600000 0.852418
vt 0.562184 0.757519
vt 0.700001 0.823794
vt 0.637817 0.757519
vt 0.600000 0.676210
vt 0.655457 0.667513
vt 0.900001 0.919193
vt 0.800001 1.000000
vt 0.800001 0.852418
vt 0.762185 0.757520
vt 0.900001 0.823794
vt 0.837817 0.757520
vt 0.800001 0.676211
vt 0.855458 0.667513
vt 0.000000 0.919193
vt 0.099999 0.919193
vt 0.000000 1.000000
vt 1.000000 0.852418
vt 0.962184 0.757519
vt 0.000000 0.852418
vt 0.099999 0.823794
vt 0.099999 0.919193
vt 0.000000 0.757519
vt 0.037816 0.757519
vt 0.037816 0.757519
vt 1.000000 0.676210
vt 0.000000 0.676210
vt 0.055457 0.667513
vt 0.299999 0.919193
vt 0.199999 1.000000
vt 0.199999 0.852418
vt 0.162183 0.757520
vt 0.299999 0.823794
vt 0.237815 0.757520
vt 0.199999 0.676211
vt 0.255456 0.667513
vt 0.400000 1.000000
vt 0.400000 0.852418
vt 0.362183 0.757519
vt 0.437816 0.757519
vt 0.400000 0.676210
vt 0.455458 0.667512
vt 0.524367 0.580809
vt 0.549999 0.500000
vt 0.572965 0.589140
vt 0.599999 0.500000
vt 0.627034 0.589141
vt 0.650000 0.500000
vt 0.675633 0.580809
vt 0.724368 0.580809
vt 0.750000 0.500000
vt 0.772966 0.589140
vt 0.800000 0.500000
vt 0.827035 0.589140
vt 0.850000 0.500000
vt 0.875633 0.580809
vt 0.924369 0.580809
vt 0.950001 0.500000
vt 0.972966 0.589140
vt 0.975633 0.419191
vt 1.000000 0.500000
vt 0.000000 0.500000
vt 0.027034 0.589140
vt 0.000000 0.589140
vt 0.027034 0.589140
vt 0.049999 0.500000
vt 0.075631 0.580809
vt 0.124367 0.580809
vt 0.150000 0.500000
vt 0.172965 0.589140
vt 0.200000 0.500000
vt 0.227034 0.589140
vt 0.250000 0.500000
vt 0.275632 0.580809
vt 0.324367 0.580809
vt 0.350000 0.500000
vt 0.372966 0.589140
vt 0.400000 0.499999
vt 0.427035 0.589140
vt 0.450001 0.500000
vt 0.475633 0.580809
vt 0.700000 0.500000
vt 0.672965 0.410859
vt 0.727034 0.410859
vt 0.699999 0.323789
vt 0.755456 0.332487
vt 0.900000 0.500000
vt 0.872966 0.410859
vt 0.927034 0.410860
vt 0.900000 0.323790
vt 0.955458 0.332488
vt 1.000000 0.352416
vt 0.100000 0.500000
vt 0.072966 0.410860
vt 0.127034 0.410859
vt 0.100000 0.323790
vt 0.155457 0.332487
vt 0.300000 0.500000
vt 0.272966 0.410859
vt 0.327035 0.410859
vt 0.300001 0.323789
vt 0.355458 0.332487
vt 0.500000 0.500000
vt 0.472966 0.410860
vt 0.527034 0.410860
vt 0.500000 0.323790
vt 0.555457 0.332487
vt 0.599999 0.271606
vt 0.599999 0.176206
vt 0.662183 0.242481
vt 0.700000 0.147582
vt 0.737815 0.242481
vt 0.799999 0.176206
vt 0.799999 0.271606
vt 0.862184 0.242481
vt 0.900000 0.147582
vt 0.937817 0.242482
vt 1.000000 0.176208
vt 1.000000 0.271608
vt 0.000000 0.271608
vt 0.000000 0.176208
vt 0.062184 0.242482
vt 0.100000 0.147583
vt 0.137816 0.242481
vt 0.200001 0.176206
vt 0.200001 0.271606
vt 0.537816 0.242481
vt 0.462184 0.242481
vt 0.500000 0.147583
vt 0.400001 0.176206
vt 0.500000 0.000000
vt 0.262185 0.242481
vt 0.300001 0.147582
vt 0.337817 0.242481
vt 1.000000 0.919193
vt 1.000000 1.000000
vt 1.000000 0.757519
vt 1.000000 0.589140
vt 1.000000 0.419191
s 1
f 1/1/1 16/2/16 15/3/15
f 2/4/2 18/5/18 24/6/24
f 1/7/1 15/3/15 30/8/30
f 1/9/1 30/10/30 36/11/36
f 1/12/1 36/11/36 25/13/25
f 2/4/2 24/6/24 45/14/45
f 3/15/3 21/16/21 51/17/51
f 4/18/4 33/19/33 57/20/57
f 5/21/5 39/22/39 63/23/63
f 6/24/6 42/25/42 69/26/69
f 2/4/2 45/14/45 52/27/52
f 3/15/3 51/17/51 58/28/58
f 4/18/4 57/29/57 166/30/166
f 5/21/5 63/23/63 70/31/70
f 6/24/6 69/26/69 46/32/46
f 7/33/7 75/34/75 90/35/90
f 8/36/8 78/37/78 96/38/96
f 9/39/9 81/40/81 99/41/99
f 10/42/10 84/43/84 102/44/102
f 11/45/11 87/46/87 91/47/91
f 93/48/93 100/49/100 12/50/12
f 92/51/92 103/52/103 93/48/93
f 91/47/91 104/53/104 92/51/92
f 93/48/93 103/52/103 100/49/100
f 103/52/103 101/54/101 100/49/100
f 92/51/92 104/53/104 103/52/103
f 104/53/104 105/55/105 103/52/103
f 103/52/103 105/55/105 101/54/101
f 105/55/105 102/44/102 101/54/101
f 91/47/91 87/46/87 104/53/104
f 87/46/87 86/56/86 104/53/104
f 104/53/104 86/56/86 105/55/105
f 86/56/86 85/57/85 105/55/105
f 105/55/105 85/57/85 102/44/102
f 85/57/85 10/42/10 102/44/102
f 100/49/100 97/58/97 12/59/12
f 101/54/101 106/60/106 100/49/100
f 102/44/102 107/61/107 101/54/101
f 100/49/100 106/60/106 97/58/97
f 106/60/106 98/62/98 97/58/97
f 101/54/101 107/61/107 106/60/106
f 107/61/107 108/63/108 106/60/106
f 106/60/106 108/63/108 98/62/98
f 108/63/108 99/41/99 98/62/98
f 102/44/102 84/43/84 107/61/107
f 84/43/84 83/64/83 107/61/107
f 107/61/107 83/64/83 108/63/108
f 83/64/83 82/65/82 108/63/108
f 108/63/108 82/65/82 99/41/99
f 82/65/82 9/39/9 99/41/99
f 163/66/163 94/67/94 12/68/12
f 98/62/98 109/69/109 97/58/97
f 99/41/99 110/70/110 98/62/98
f 109/71/109 94/67/94 163/66/163
f 109/71/109 95/72/95 94/73/94
f 98/62/98 110/70/110 109/69/109
f 164/74/164 111/75/111 109/71/109
f 109/71/109 111/76/111 95/72/95
f 111/76/111 96/38/96 95/72/95
f 99/41/99 81/40/81 110/70/110
f 81/40/81 80/77/80 110/70/110
f 80/78/80 111/75/111 164/74/164
f 80/78/80 79/79/79 111/76/111
f 111/76/111 79/79/79 96/38/96
f 79/79/79 8/36/8 96/38/96
f 94/73/94 88/80/88 12/81/12
f 95/72/95 112/82/112 94/73/94
f 96/38/96 113/83/113 95/72/95
f 94/73/94 112/82/112 88/80/88
f 112/82/112 89/84/89 88/80/88
f 95/72/95 113/83/113 112/82/112
f 113/83/113 114/85/114 112/82/112
f 112/82/112 114/85/114 89/84/89
f 114/85/114 90/35/90 89/84/89
f 96/38/96 78/37/78 113/83/113
f 78/37/78 77/86/77 113/83/113
f 113/83/113 77/86/77 114/85/114
f 77/86/77 76/87/76 114/85/114
f 114/85/114 76/87/76 90/35/90
f 76/87/76 7/33/7 90/35/90
f 88/80/88 93/48/93 12/88/12
f 89/84/89 115/89/115 88/80/88
f 90/35/90 116/90/116 89/84/89
f 88/80/88 115/89/115 93/48/93
f 115/89/115 92/51/92 93/48/93
f 89/84/89 116/90/116 115/89/115
f 116/90/116 117/91/117 115/89/115
f 115/89/115 117/91/117 92/51/92
f 117/91/117 91/47/91 92/51/92
f 90/35/90 75/34/75 116/90/116
f 75/34/75 74/92/74 116/90/116
f 116/90/116 74/92/74 117/91/117
f 74/92/74 73/93/73 117/91/117
f 117/91/117 73/93/73 91/47/91
f 73/93/73 11/45/11 91/47/91
f 48/94/48 87/46/87 11/45/11
f 47/95/47 118/96/118 48/94/48
f 46/32/46 119/97/119 47/95/47
f 48/94/48 118/96/118 87/46/87
f 118/96/118 86/56/86 87/46/87
f 47/95/47 119/97/119 118/96/118
f 119/97/119 120/98/120 118/96/118
f 118/96/118 120/98/120 86/56/86
f 120/98/120 85/57/85 86/56/86
f 46/32/46 69/26/69 119/97/119
f 69/26/69 68/99/68 119/97/119
f 119/97/119 68/99/68 120/98/120
f 68/99/68 67/100/67 120/98/120
f 120/98/120 67/100/67 85/57/85
f 67/100/67 10/42/10 85/57/85
f 72/101/72 84/43/84 10/42/10
f 71/102/71 121/103/121 72/101/72
f 70/31/70 122/104/122 71/102/71
f 72/101/72 121/103/121 84/43/84
f 121/103/121 83/64/83 84/43/84
f 71/102/71 122/104/122 121/103/121
f 122/104/122 123/105/123 121/103/121
f 121/103/121 123/105/123 83/64/83
f 123/105/123 82/65/82 83/64/83
f 70/31/70 63/23/63 122/104/122
f 63/23/63 62/106/62 122/104/122
f 122/104/122 62/106/62 123/105/123
f 62/106/62 61/107/61 123/105/123
f 123/105/123 61/107/61 82/65/82
f 61/107/61 9/39/9 82/65/82
f 66/108/66 81/40/81 9/39/9
f 65/109/65 124/110/124 66/108/66
f 64/111/64 125/112/125 65/109/65
f 66/108/66 124/110/124 81/40/81
f 124/110/124 80/77/80 81/40/81
f 65/109/65 125/112/125 124/110/124
f 125/113/125 126/114/126 165/115/165
f 165/115/165 126/114/126 80/78/80
f 126/116/126 79/79/79 80/78/80
f 166/30/166 57/29/57 125/113/125
f 57/20/57 56/117/56 125/113/125
f 125/113/125 56/117/56 126/116/126
f 56/117/56 55/118/55 126/116/126
f 126/116/126 55/118/55 79/79/79
f 55/118/55 8/36/8 79/79/79
f 60/119/60 78/37/78 8/36/8
f 59/120/59 127/121/127 60/119/60
f 58/28/58 128/122/128 59/120/59
f 60/119/60 127/121/127 78/37/78
f 127/121/127 77/86/77 78/37/78
f 59/120/59 128/122/128 127/121/127
f 128/122/128 129/123/129 127/121/127
f 127/121/127 129/123/129 77/86/77
f 129/123/129 76/87/76 77/86/77
f 58/28/58 51/17/51 128/122/128
f 51/17/51 50/124/50 128/122/128
f 128/122/128 50/124/50 129/123/129
f 50/124/50 49/125/49 129/123/129
f 129/123/129 49/125/49 76/87/76
f 49/125/49 7/33/7 76/87/76
f 54/126/54 75/34/75 7/33/7
f 53/127/53 130/128/130 54/126/54
f 52/27/52 131/129/131 53/127/53
f 54/126/54 130/128/130 75/34/75
f 130/128/130 74/92/74 75/34/75
f 53/127/53 131/129/131 130/128/130
f 131/129/131 132/130/132 130/128/130
f 130/128/130 132/130/132 74/92/74
f 132/130/132 73/93/73 74/92/74
f 52/27/52 45/14/45 131/129/131
f 45/14/45 44/131/44 131/129/131
f 131/129/131 44/131/44 132/130/132
f 44/131/44 43/132/43 132/130/132
f 132/130/132 43/132/43 73/93/73
f 43/132/43 11/45/11 73/93/73
f 67/100/67 72/101/72 10/42/10
f 68/99/68 133/133/133 67/100/67
f 69/26/69 134/134/134 68/99/68
f 67/100/67 133/133/133 72/101/72
f 133/133/133 71/102/71 72/101/72
f 68/99/68 134/134/134 133/133/133
f 134/134/134 135/135/135 133/133/133
f 133/133/133 135/135/135 71/102/71
f 135/135/135 70/31/70 71/102/71
f 69/26/69 42/25/42 134/134/134
f 42/25/42 41/136/41 134/134/134
f 134/134/134 41/136/41 135/135/135
f 41/136/41 40/137/40 135/135/135
f 135/135/135 40/137/40 70/31/70
f 40/137/40 5/21/5 70/31/70
f 61/107/61 66/108/66 9/39/9
f 62/106/62 136/138/136 61/107/61
f 63/23/63 137/139/137 62/106/62
f 61/107/61 136/138/136 66/108/66
f 136/138/136 65/109/65 66/108/66
f 62/106/62 137/139/137 136/138/136
f 137/139/137 138/140/138 136/138/136
f 136/138/136 138/140/138 65/109/65
f 138/140/138 64/111/64 65/109/65
f 63/23/63 39/22/39 137/139/137
f 39/22/39 38/141/38 137/139/137
f 137/139/137 38/141/38 138/140/138
f 38/141/38 37/142/37 138/140/138
f 138/140/138 37/142/37 64/111/64
f 37/142/37 4/143/4 64/111/64
f 55/118/55 60/119/60 8/36/8
f 56/117/56 139/144/139 55/118/55
f 57/20/57 140/145/140 56/117/56
f 55/118/55 139/144/139 60/119/60
f 139/144/139 59/120/59 60/119/60
f 56/117/56 140/145/140 139/144/139
f 140/145/140 141/146/141 139/144/139
f 139/144/139 141/146/141 59/120/59
f 141/146/141 58/28/58 59/120/59
f 57/20/57 33/19/33 140/145/140
f 33/19/33 32/147/32 140/145/140
f 140/145/140 32/147/32 141/146/141
f 32/147/32 31/148/31 141/146/141
f 141/146/141 31/148/31 58/28/58
f 31/148/31 3/15/3 58/28/58
f 49/125/49 54/126/54 7/33/7
f 50/124/50 142/149/142 49/125/49
f 51/17/51 143/150/143 50/124/50
f 49/125/49 142/149/142 54/126/54
f 142/149/142 53/127/53 54/126/54
f 50/124/50 143/150/143 142/149/142
f 143/150/143 144/151/144 142/149/142
f 142/149/142 144/151/144 53/127/53
f 144/151/144 52/27/52 53/127/53
f 51/17/51 21/16/21 143/150/143
f 21/16/21 20/152/20 143/150/143
f 143/150/143 20/152/20 144/151/144
f 20/152/20 19/153/19 144/151/144
f 144/151/144 19/153/19 52/27/52
f 19/153/19 2/4/2 52/27/52
f 43/132/43 48/94/48 11/45/11
f 44/131/44 145/154/145 43/132/43
f 45/14/45 146/155/146 44/131/44
f 43/132/43 145/154/145 48/94/48
f 145/154/145 47/95/47 48/94/48
f 44/131/44 146/155/146 145/154/145
f 146/155/146 147/156/147 145/154/145
f 145/154/145 147/156/147 47/95/47
f 147/156/147 46/32/46 47/95/47
f 45/14/45 24/6/24 146/155/146
f 24/6/24 23/157/23 146/155/146
f 146/155/146 23/157/23 147/156/147
f 23/157/23 22/158/22 147/156/147
f 147/156/147 22/158/22 46/32/46
f 22/158/22 6/24/6 46/32/46
f 27/159/27 42/25/42 6/24/6
f 26/160/26 148/161/148 27/159/27
f 25/13/25 149/162/149 26/160/26
f 27/159/27 148/161/148 42/25/42
f 148/161/148 41/136/41 42/25/42
f 26/160/26 149/162/149 148/161/148
f 149/162/149 150/163/150 148/161/148
f 148/161/148 150/163/150 41/136/41
f 150/163/150 40/137/40 41/136/41
f 25/13/25 36/11/36 149/162/149
f 36/11/36 35/164/35 149/162/149
f 149/162/149 35/164/35 150/163/150
f 35/164/35 34/165/34 150/163/150
f 150/163/150 34/165/34 40/137/40
f 34/165/34 5/21/5 40/137/40
f 34/165/34 39/22/39 5/21/5
f 35/164/35 151/166/151 34/165/34
f 36/11/36 152/167/152 35/164/35
f 34/165/34 151/166/151 39/22/39
f 151/166/151 38/141/38 39/22/39
f 35/164/35 152/167/152 151/166/151
f 152/167/152 153/168/153 151/166/151
f 151/166/151 153/168/153 38/141/38
f 153/168/153 37/142/37 38/141/38
f 36/11/36 30/10/30 152/167/152
f 30/10/30 29/169/29 152/167/152
f 152/167/152 29/169/29 153/168/153
f 29/169/29 28/170/28 153/168/153
f 153/168/153 28/170/28 37/142/37
f 28/170/28 4/143/4 37/142/37
f 28/171/28 33/19/33 4/18/4
f 29/172/29 154/173/154 28/171/28
f 30/8/30 155/174/155 29/172/29
f 28/171/28 154/173/154 33/19/33
f 154/173/154 32/147/32 33/19/33
f 29/172/29 155/174/155 154/173/154
f 155/174/155 156/175/156 154/173/154
f 154/173/154 156/175/156 32/147/32
f 156/175/156 31/148/31 32/147/32
f 30/8/30 15/3/15 155/174/155
f 15/3/15 14/176/14 155/174/155
f 155/174/155 14/176/14 156/175/156
f 14/176/14 13/177/13 156/175/156
f 156/175/156 13/177/13 31/148/31
f 13/177/13 3/15/3 31/148/31
f 22/158/22 27/159/27 6/24/6
f 23/157/23 157/178/157 22/158/22
f 24/6/24 158/179/158 23/157/23
f 22/158/22 157/178/157 27/159/27
f 157/178/157 26/160/26 27/159/27
f 23/157/23 158/179/158 157/178/157
f 158/179/158 159/180/159 157/178/157
f 157/178/157 159/180/159 26/160/26
f 159/180/159 25/13/25 26/160/26
f 24/6/24 18/5/18 158/179/158
f 18/5/18 17/181/17 158/179/158
f 158/179/158 17/181/17 159/180/159
f 17/181/17 16/2/16 159/180/159
f 159/180/159 16/2/16 25/13/25
f 16/2/16 1/182/1 25/13/25
f 13/177/13 21/16/21 3/15/3
f 14/176/14 160/183/160 13/177/13
f 15/3/15 161/184/161 14/176/14
f 13/177/13 160/183/160 21/16/21
f 160/183/160 20/152/20 21/16/21
f 14/176/14 161/184/161 160/183/160
f 161/184/161 162/185/162 160/183/160
f 160/183/160 162/185/162 20/152/20
f 162/185/162 19/153/19 20/152/20
f 15/3/15 16/2/16 161/184/161
f 16/2/16 17/181/17 161/184/161
f 161/184/161 17/181/17 162/185/162
f 17/181/17 18/5/18 162/185/162
f 162/185/162 18/5/18 19/153/19
f 18/5/18 2/4/2 19/153/19
f 97/58/97 109/69/109 163/186/163
f 97/58/97 163/186/163 12/187/12
f 110/70/110 164/188/164 109/69/109
f 110/70/110 80/77/80 164/188/164
f 124/110/124 125/112/125 165/189/165
f 124/110/124 165/189/165 80/77/80
f 64/111/64 166/190/166 125/112/125
f 64/111/64 4/143/4 166/190/166
