# Blender 4.5.0 Release Candidate
# www.blender.org
o Icosphere.002
v 0.429907 -0.000000 -0.006686
v 0.397182 0.164518 -0.006686
v 0.303990 0.303990 -0.006686
v 0.164518 0.397182 -0.006686
v 0.000000 0.429907 -0.006686
v -0.164518 0.397182 -0.006686
v -0.303990 0.303990 -0.006686
v -0.397182 0.164518 -0.006686
v -0.429907 0.000000 -0.006686
v -0.397182 -0.164518 -0.006686
v -0.303990 -0.303990 -0.006686
v -0.164518 -0.397182 -0.006686
v -0.000000 -0.429907 -0.006686
v 0.164518 -0.397182 -0.006686
v 0.303990 -0.303990 -0.006686
v 0.397182 -0.164518 -0.006686
v 0.521980 -0.000000 -0.006686
v 0.482247 0.199753 -0.006686
v 0.369096 0.369095 -0.006686
v 0.199753 0.482246 -0.006686
v 0.000000 0.521980 -0.006686
v -0.199753 0.482246 -0.006686
v -0.369095 0.369096 -0.006686
v -0.482246 0.199753 -0.006686
v -0.521980 0.000000 -0.006686
v -0.482246 -0.199753 -0.006686
v -0.369096 -0.369095 -0.006686
v -0.199753 -0.482246 -0.006686
v 0.000000 -0.521980 -0.006686
v 0.199753 -0.482246 -0.006686
v 0.369095 -0.369095 -0.006686
v 0.482246 -0.199753 -0.006686
v 0.429907 -0.000000 0.006686
v 0.397182 0.164518 0.006686
v 0.303990 0.303990 0.006686
v 0.164518 0.397182 0.006686
v 0.000000 0.429907 0.006686
v -0.164518 0.397182 0.006686
v -0.303990 0.303990 0.006686
v -0.397182 0.164518 0.006686
v -0.429907 0.000000 0.006686
v -0.397182 -0.164518 0.006686
v -0.303990 -0.303990 0.006686
v -0.164518 -0.397182 0.006686
v -0.000000 -0.429907 0.006686
v 0.164518 -0.397182 0.006686
v 0.303990 -0.303990 0.006686
v 0.397182 -0.164518 0.006686
v 0.521980 0.000000 0.006686
v 0.482247 0.199753 0.006686
v 0.369096 0.369095 0.006686
v 0.199753 0.482246 0.006686
v 0.000000 0.521980 0.006686
v -0.199753 0.482246 0.006686
v -0.369095 0.369096 0.006686
v -0.482246 0.199753 0.006686
v -0.521980 0.000000 0.006686
v -0.482246 -0.199753 0.006686
v -0.369096 -0.369095 0.006686
v -0.199753 -0.482246 0.006686
v 0.000000 -0.521980 0.006686
v 0.199753 -0.482246 0.006686
v 0.369095 -0.369095 0.006686
v 0.482246 -0.199753 0.006686
v 0.009888 0.437670 0.000000
v 0.009888 -0.437671 0.000000
v 0.006992 0.437670 -0.006992
v 0.006992 -0.437671 -0.006992
v 0.000000 0.437670 -0.009888
v -0.000000 -0.437671 -0.009888
v -0.006992 0.437670 -0.006992
v -0.006992 -0.437671 -0.006992
v -0.009888 0.437670 0.000000
v -0.009888 -0.437671 0.000000
v -0.006992 0.437670 0.006992
v -0.006992 -0.437671 0.006992
v 0.000000 0.437670 0.009888
v -0.000000 -0.437671 0.009888
v 0.006992 0.437670 0.006992
v 0.006992 -0.437671 0.006992
v 0.009888 -0.345064 0.000000
v 0.009888 0.345064 0.000000
v 0.006992 0.345064 -0.006992
v 0.006992 -0.345064 -0.006992
v 0.000000 0.345064 -0.009888
v -0.000000 -0.345064 -0.009888
v -0.006992 0.345064 -0.006992
v -0.006992 -0.345064 -0.006992
v -0.009888 0.345064 0.000000
v -0.009888 -0.345064 0.000000
v -0.006992 0.345064 0.006992
v -0.006992 -0.345064 0.006992
v 0.000000 0.345064 0.009888
v 0.000000 -0.345064 0.009888
v 0.006992 0.345064 0.006992
v 0.006992 -0.345064 0.006992
vn -0.0000 -0.0000 -1.0000
vn -0.0000 -0.0000 1.0000
vn -0.3827 -0.9239 -0.0000
vn -0.0000 -1.0000 -0.0000
vn 0.9239 -0.3827 -0.0000
vn 0.7071 -0.7071 -0.0000
vn 0.7071 0.7071 -0.0000
vn 0.9239 0.3827 -0.0000
vn 0.3827 -0.9239 -0.0000
vn 1.0000 -0.0000 -0.0000
vn 0.3827 0.9239 -0.0000
vn -0.0000 1.0000 -0.0000
vn -0.3827 0.9239 -0.0000
vn -0.7071 0.7071 -0.0000
vn -0.9239 0.3827 -0.0000
vn -1.0000 -0.0000 -0.0000
vn -0.9239 -0.3827 -0.0000
vn -0.7071 -0.7071 -0.0000
vn 0.7071 -0.0000 0.7071
vn -0.7071 -0.0000 -0.7071
vn -0.7071 -0.0000 0.7071
vn 0.7071 -0.0000 -0.7071
vt 0.044098 0.209044
vt 0.038060 0.108386
vt 0.075445 0.133366
vt 0.500000 0.200272
vt 0.455902 0.290956
vt 0.455902 0.209044
vt 0.038060 0.391614
vt 0.044098 0.290956
vt 0.075445 0.366634
vt 0.000000 0.200272
vt 0.461940 0.108386
vt 0.424555 0.133366
vt 0.108386 0.461940
vt 0.133366 0.424555
vt 0.391614 0.038060
vt 0.366634 0.075445
vt 0.200272 0.500000
vt 0.209044 0.455902
vt 0.299728 0.000000
vt 0.290956 0.044098
vt 0.290956 0.455902
vt 0.209044 0.044098
vt 0.391614 0.461940
vt 0.366634 0.424555
vt 0.108386 0.038060
vt 0.133366 0.075445
vt 0.461940 0.391614
vt 0.424555 0.366634
vt 0.500000 0.299728
vt 0.209043 0.544098
vt 0.108386 0.538060
vt 0.290956 0.955902
vt 0.200272 1.000000
vt 0.209044 0.955902
vt 0.290956 0.544098
vt 0.391614 0.538060
vt 0.366634 0.575445
vt 0.299728 0.500000
vt 0.108386 0.961940
vt 0.133366 0.924555
vt 0.461940 0.608386
vt 0.424555 0.633366
vt 0.038060 0.891614
vt 0.075445 0.866634
vt 0.500000 0.700272
vt 0.455902 0.709044
vt -0.000000 0.799728
vt 0.044098 0.790956
vt 0.455902 0.790956
vt 0.500000 0.799728
vt 0.044098 0.709044
vt 0.000000 0.700272
vt 0.461940 0.891614
vt 0.424555 0.866634
vt 0.038060 0.608386
vt 0.075445 0.633366
vt 0.391614 0.961940
vt 0.366634 0.924555
vt 0.133366 0.575445
vt 0.299728 1.000000
vt 0.513060 0.429231
vt 0.506530 0.353553
vt 0.513060 0.353553
vt 0.506530 0.162212
vt 0.513059 0.261668
vt 0.506530 0.261668
vt 0.513059 0.773721
vt 0.519589 0.865606
vt 0.513060 0.865606
vt 0.513059 0.291189
vt 0.519589 0.349111
vt 0.513059 0.349111
vt 0.506530 0.070326
vt 0.513059 0.162212
vt 0.513059 0.674264
vt 0.519589 0.773721
vt 0.519589 0.424788
vt 0.513059 0.424788
vt 0.513059 0.582379
vt 0.519589 0.674264
vt 0.519589 0.506701
vt 0.513059 0.506701
vt 0.500000 0.707107
vt 0.506530 0.777433
vt 0.500000 0.777433
vt 0.519589 0.582379
vt 0.513059 0.582379
vt 0.500000 0.615221
vt 0.506530 0.707107
vt 0.513059 0.000000
vt 0.519589 0.057921
vt 0.513059 0.057921
vt 0.500000 0.515765
vt 0.506530 0.615221
vt 0.519589 0.133599
vt 0.513059 0.133599
vt 0.500000 0.423880
vt 0.506530 0.515765
vt 0.519589 0.215512
vt 0.513059 0.215512
vt 0.506530 0.070326
vt 0.500000 -0.000000
vt 0.506530 -0.000000
vt 0.519589 0.291189
vt 0.513059 0.291189
vt 0.500000 0.070326
vt 0.506530 0.702664
vt 0.513059 0.644743
vt 0.513059 0.702664
vt 0.506530 0.261668
vt 0.500000 0.162212
vt 0.513059 0.778342
vt 0.506530 0.778342
vt 0.513060 0.586822
vt 0.506530 0.644743
vt 0.506530 0.586822
vt 0.506530 0.353553
vt 0.500000 0.261668
vt 0.513059 0.860255
vt 0.506530 0.860255
vt 0.506530 0.511144
vt 0.513060 0.511144
vt 0.506530 0.423880
vt 0.500000 0.353553
vt 0.513059 0.935932
vt 0.506530 0.935932
vt 0.506530 0.429231
vt 0.513060 0.353553
vt 0.506530 0.353553
vt 0.506530 -0.000000
vt 0.513059 0.070326
vt 0.526717 0.129618
vt 0.523302 0.166433
vt 0.523302 0.128832
vt 0.516474 0.865606
vt 0.519888 0.910829
vt 0.516474 0.910829
vt 0.519888 0.091231
vt 0.523302 0.128046
vt 0.519888 0.128832
vt 0.523302 0.090445
vt 0.526716 0.128832
vt 0.513059 0.956051
vt 0.516474 0.910829
vt 0.516474 0.956051
vt 0.519888 0.956051
vt 0.525256 0.243993
vt 0.527480 0.249865
vt 0.522112 0.253123
vt 0.519888 0.129618
vt 0.522112 0.261841
vt 0.519888 0.255385
vt 0.525256 0.253536
vt 0.513059 0.865606
vt 0.513059 0.910829
vt 0.523302 0.000000
vt 0.526716 0.045223
vt 0.523302 0.045223
vt 0.519888 0.000000
vt 0.519888 0.045223
vt 0.523302 0.205606
vt 0.526716 0.243993
vt 0.523302 0.243207
vt 0.519888 0.206391
vt 0.519888 0.243993
vt 0.523302 0.045223
vt 0.526716 0.090445
vt 0.523302 0.090445
vt 0.519888 0.045223
vt 0.519888 0.090445
vt 0.523302 0.204820
vt 0.519888 0.168005
vt 0.523302 0.167219
vt 0.526716 0.168005
vt 0.000000 0.299728
vt 0.299728 0.500000
vt 0.200272 0.000000
vt 0.519589 0.291189
vt 0.519589 0.582379
vt 0.519589 0.000000
vt 0.506530 0.423880
vt 0.506530 0.644743
vt 0.513060 0.644743
vt 0.500000 0.423880
vt 0.513059 -0.000000
vt 0.526717 0.167219
vt 0.519888 0.865606
vt 0.526716 0.091231
vt 0.519888 0.250862
vt 0.519888 0.247251
vt 0.522112 0.244405
vt 0.527480 0.246254
vt 0.525256 0.252710
vt 0.519888 0.167219
vt 0.527480 0.256381
vt 0.527480 0.259992
vt 0.525256 0.262254
vt 0.519888 0.258996
vt 0.522112 0.253123
vt 0.526716 0.000000
vt 0.526716 0.206391
vt 0.526716 0.045223
vt 0.519888 0.205606
vt 0.526716 0.205606
s 1
f 16/1/1 31/2/1 15/3/1
f 25/4/1 8/5/1 9/6/1
f 18/7/1 1/8/1 2/9/1
f 1/8/1 32/10/1 16/1/1
f 26/11/1 9/6/1 10/12/1
f 19/13/1 2/9/1 3/14/1
f 27/15/1 10/12/1 11/16/1
f 20/17/1 3/14/1 4/18/1
f 28/19/1 11/16/1 12/20/1
f 5/21/1 20/17/1 4/18/1
f 13/22/1 28/19/1 12/20/1
f 22/23/1 5/21/1 6/24/1
f 30/25/1 13/22/1 14/26/1
f 23/27/1 6/24/1 7/28/1
f 31/2/1 14/26/1 15/3/1
f 24/29/1 7/28/1 8/5/1
f 48/30/2 63/31/2 64/17/2
f 40/32/2 57/33/2 41/34/2
f 33/35/2 50/36/2 34/37/2
f 33/35/2 64/17/2 49/38/2
f 41/34/2 58/39/2 42/40/2
f 34/37/2 51/41/2 35/42/2
f 42/40/2 59/43/2 43/44/2
f 35/42/2 52/45/2 36/46/2
f 43/44/2 60/47/2 44/48/2
f 37/49/2 52/45/2 53/50/2
f 45/51/2 60/47/2 61/52/2
f 37/49/2 54/53/2 38/54/2
f 45/51/2 62/55/2 46/56/2
f 38/54/2 55/57/2 39/58/2
f 46/56/2 63/31/2 47/59/2
f 39/58/2 56/60/2 40/32/2
f 4/61/3 37/62/4 5/63/4
f 32/64/5 63/65/6 31/66/6
f 19/67/7 50/68/8 18/69/8
f 5/70/4 38/71/9 6/72/9
f 17/73/10 64/74/5 32/64/5
f 20/75/11 51/76/7 19/67/7
f 6/72/9 39/77/6 7/78/6
f 21/79/12 52/80/11 20/75/11
f 7/78/6 40/81/5 8/82/5
f 22/83/13 53/84/12 21/85/12
f 8/82/5 41/86/10 9/87/10
f 23/88/14 54/89/13 22/83/13
f 9/90/10 42/91/8 10/92/8
f 24/93/15 55/94/14 23/88/14
f 10/92/8 43/95/7 11/96/7
f 25/97/16 56/98/15 24/93/15
f 11/96/7 44/99/11 12/100/11
f 26/101/17 57/102/16 25/103/16
f 12/100/11 45/104/12 13/105/12
f 27/64/18 58/106/17 26/101/17
f 14/107/13 45/108/12 46/109/13
f 28/110/3 59/111/18 27/64/18
f 14/107/13 47/112/14 15/113/14
f 2/114/17 33/115/16 34/116/17
f 29/117/4 60/118/3 28/110/3
f 15/113/14 48/119/15 16/120/15
f 2/114/17 35/121/18 3/122/18
f 30/123/9 61/124/4 29/117/4
f 16/120/15 33/125/16 1/126/16
f 4/61/3 35/121/18 36/127/3
f 31/66/6 62/128/9 30/129/9
f 18/130/8 49/131/10 17/73/10
f 79/132/19 82/133/10 65/134/10
f 85/135/1 71/136/20 69/137/1
f 87/138/20 73/139/16 71/140/20
f 89/141/16 75/142/21 73/139/16
f 75/143/21 93/144/2 77/145/2
f 93/144/2 79/146/19 77/145/2
f 78/147/4 74/148/4 70/149/4
f 82/133/10 67/150/22 65/134/10
f 71/151/12 75/152/12 79/153/12
f 83/154/22 69/137/1 67/155/22
f 78/156/2 96/157/19 94/158/2
f 76/159/21 94/158/2 92/160/21
f 74/161/16 92/162/21 90/163/16
f 72/164/20 90/163/16 88/165/20
f 70/166/1 88/167/20 86/168/1
f 68/169/22 86/168/1 84/170/22
f 66/171/10 84/172/22 81/173/10
f 96/174/19 66/171/10 81/173/10
f 16/1/1 32/10/1 31/2/1
f 25/4/1 24/29/1 8/5/1
f 18/7/1 17/175/1 1/8/1
f 1/8/1 17/175/1 32/10/1
f 26/11/1 25/4/1 9/6/1
f 19/13/1 18/7/1 2/9/1
f 27/15/1 26/11/1 10/12/1
f 20/17/1 19/13/1 3/14/1
f 28/19/1 27/15/1 11/16/1
f 5/21/1 21/176/1 20/17/1
f 13/22/1 29/177/1 28/19/1
f 22/23/1 21/176/1 5/21/1
f 30/25/1 29/177/1 13/22/1
f 23/27/1 22/23/1 6/24/1
f 31/2/1 30/25/1 14/26/1
f 24/29/1 23/27/1 7/28/1
f 48/30/2 47/59/2 63/31/2
f 40/32/2 56/60/2 57/33/2
f 33/35/2 49/38/2 50/36/2
f 33/35/2 48/30/2 64/17/2
f 41/34/2 57/33/2 58/39/2
f 34/37/2 50/36/2 51/41/2
f 42/40/2 58/39/2 59/43/2
f 35/42/2 51/41/2 52/45/2
f 43/44/2 59/43/2 60/47/2
f 37/49/2 36/46/2 52/45/2
f 45/51/2 44/48/2 60/47/2
f 37/49/2 53/50/2 54/53/2
f 45/51/2 61/52/2 62/55/2
f 38/54/2 54/53/2 55/57/2
f 46/56/2 62/55/2 63/31/2
f 39/58/2 55/57/2 56/60/2
f 4/61/3 36/127/3 37/62/4
f 32/64/5 64/74/5 63/65/6
f 19/67/7 51/76/7 50/68/8
f 5/70/4 37/178/4 38/71/9
f 17/73/10 49/131/10 64/74/5
f 20/75/11 52/80/11 51/76/7
f 6/72/9 38/71/9 39/77/6
f 21/79/12 53/179/12 52/80/11
f 7/78/6 39/77/6 40/81/5
f 22/83/13 54/89/13 53/84/12
f 8/82/5 40/81/5 41/86/10
f 23/88/14 55/94/14 54/89/13
f 9/90/10 41/180/10 42/91/8
f 24/93/15 56/98/15 55/94/14
f 10/92/8 42/91/8 43/95/7
f 25/97/16 57/181/16 56/98/15
f 11/96/7 43/95/7 44/99/11
f 26/101/17 58/106/17 57/102/16
f 12/100/11 44/99/11 45/104/12
f 27/64/18 59/111/18 58/106/17
f 14/107/13 13/182/12 45/108/12
f 28/110/3 60/118/3 59/111/18
f 14/107/13 46/109/13 47/112/14
f 2/114/17 1/183/16 33/115/16
f 29/117/4 61/124/4 60/118/3
f 15/113/14 47/112/14 48/119/15
f 2/114/17 34/116/17 35/121/18
f 30/123/9 62/184/9 61/124/4
f 16/120/15 48/119/15 33/125/16
f 4/61/3 3/122/18 35/121/18
f 31/66/6 63/65/6 62/128/9
f 18/130/8 50/185/8 49/131/10
f 79/132/19 95/186/19 82/133/10
f 85/135/1 87/187/20 71/136/20
f 87/138/20 89/141/16 73/139/16
f 89/141/16 91/188/21 75/142/21
f 75/143/21 91/155/21 93/144/2
f 93/144/2 95/136/19 79/146/19
f 70/149/4 68/189/4 66/190/4
f 66/190/4 80/191/4 78/147/4
f 78/147/4 76/192/4 74/148/4
f 74/148/4 72/193/4 70/149/4
f 70/149/4 66/190/4 78/147/4
f 82/133/10 83/194/22 67/150/22
f 79/153/12 65/195/12 67/196/12
f 67/196/12 69/197/12 71/151/12
f 71/151/12 73/198/12 75/152/12
f 75/152/12 77/199/12 79/153/12
f 79/153/12 67/196/12 71/151/12
f 83/154/22 85/135/1 69/137/1
f 78/156/2 80/200/19 96/157/19
f 76/159/21 78/156/2 94/158/2
f 74/161/16 76/201/21 92/162/21
f 72/164/20 74/161/16 90/163/16
f 70/166/1 72/202/20 88/167/20
f 68/169/22 70/166/1 86/168/1
f 66/171/10 68/203/22 84/172/22
f 96/174/19 80/204/19 66/171/10
