# Blender 4.5.0 Release Candidate
# www.blender.org
o Icosphere.005
v 0.000001 0.158066 -0.040825
v 0.000001 0.165124 -0.040825
v 0.020413 0.158066 -0.035355
v 0.020413 0.165124 -0.035355
v 0.035356 0.158066 -0.020412
v 0.035356 0.165124 -0.020412
v 0.040825 0.158066 0.000000
v 0.040825 0.165124 0.000000
v 0.035356 0.158066 0.020412
v 0.035356 0.165124 0.020412
v 0.020413 0.158066 0.035355
v 0.020413 0.165124 0.035355
v 0.000001 0.158066 0.040825
v 0.000001 0.165124 0.040825
v -0.020412 0.158066 0.035355
v -0.020412 0.165124 0.035355
v -0.035354 0.158066 0.020412
v -0.035354 0.165124 0.020412
v -0.040824 0.158066 0.000000
v -0.040824 0.165124 0.000000
v -0.035354 0.158066 -0.020412
v -0.035354 0.165124 -0.020412
v -0.020412 0.158066 -0.035355
v -0.020412 0.165124 -0.035355
v -0.046305 0.165124 0.009342
v -0.046305 0.158066 0.009342
v -0.046305 0.158066 0.000000
v -0.046305 0.165124 0.000000
v -0.046305 0.158066 -0.009342
v -0.046305 0.165124 -0.009342
v -0.821053 0.165124 0.009342
v -0.821053 0.158066 0.009342
v -0.821053 0.158066 0.000000
v -0.821053 0.165124 0.000000
v -0.821053 0.158066 -0.009342
v -0.821053 0.165124 -0.009342
v -0.859209 0.158066 0.000000
v -0.859209 0.165124 0.000000
v -0.854184 0.158066 0.014556
v -0.825159 0.158066 0.014556
v -0.843583 0.158066 0.020823
v -0.833710 0.158066 0.020823
v -0.825015 0.158066 0.000000
v -0.854328 0.158066 0.000000
v -0.834103 0.158066 0.000000
v -0.843190 0.158066 0.000000
v -0.854184 0.158066 -0.014556
v -0.825159 0.158066 -0.014556
v -0.843583 0.158066 -0.020823
v -0.833710 0.158066 -0.020823
v -0.825159 0.165124 -0.014556
v -0.854184 0.165124 -0.014556
v -0.833710 0.165124 -0.020823
v -0.843583 0.165124 -0.020823
v -0.854328 0.165124 0.000000
v -0.825015 0.165124 0.000000
v -0.843190 0.165124 0.000000
v -0.834103 0.165124 0.000000
v -0.825159 0.165124 0.014556
v -0.854184 0.165124 0.014556
v -0.833710 0.165124 0.020823
v -0.843583 0.165124 0.020823
v -0.838647 0.152282 -0.008669
v -0.838647 0.888385 -0.008669
v -0.832515 0.152282 -0.006129
v -0.832515 0.888385 -0.006129
v -0.829975 0.152282 0.000002
v -0.829975 0.888385 0.000002
v -0.832515 0.152282 0.006134
v -0.832515 0.888385 0.006134
v -0.838647 0.152282 0.008674
v -0.838647 0.888385 0.008674
v -0.844778 0.152282 0.006134
v -0.844778 0.888385 0.006134
v -0.847318 0.152282 0.000002
v -0.847318 0.888385 0.000002
v -0.844778 0.152282 -0.006129
v -0.844778 0.888385 -0.006129
v -0.864040 0.939169 0.018448
v -0.854341 0.919771 -0.048299
v -0.838647 0.888384 -0.059702
v -0.873739 0.888384 -0.048300
v -0.807260 0.939169 0.000000
v -0.864040 0.939169 -0.018448
v -0.828948 0.939169 -0.029850
v -0.889432 0.919771 0.000000
v -0.797561 0.919771 -0.029851
v -0.828948 0.939169 0.029850
v -0.803555 0.888384 -0.048300
v -0.797561 0.919771 0.029851
v -0.854341 0.919771 0.048299
v -0.873739 0.888384 0.048300
v -0.895427 0.888384 -0.018449
v -0.803555 0.888384 0.048300
v -0.895427 0.888384 0.018449
v -0.787862 0.856996 0.000000
v -0.781868 0.888384 -0.018449
v -0.838647 0.888384 0.059702
v -0.813255 0.837598 -0.018448
v -0.822953 0.856996 -0.048299
v -0.781868 0.888384 0.018449
v -0.813255 0.837598 0.018448
v -0.848346 0.837598 -0.029850
v -0.879733 0.856996 -0.029851
v -0.848346 0.837598 0.029850
v -0.870034 0.837599 0.000000
v -0.879733 0.856996 0.029851
v -0.822953 0.856996 0.048299
v -0.838647 0.948085 0.000000
v -0.785249 0.915083 0.000000
v -0.822146 0.915083 -0.050785
v -0.881848 0.915083 -0.031387
v -0.881848 0.915083 0.031387
v -0.822146 0.915083 0.050785
v -0.795447 0.861684 -0.031387
v -0.855148 0.861684 -0.050785
v -0.892046 0.861684 0.000000
v -0.855148 0.861684 0.050785
v -0.795447 0.861684 0.031387
v -0.838647 0.828682 0.000000
vn -0.0000 -0.0000 -1.0000
vn 0.5000 -0.0000 -0.8660
vn 0.8660 -0.0000 -0.5000
vn 1.0000 -0.0000 -0.0000
vn 0.8660 -0.0000 0.5000
vn 0.5000 -0.0000 0.8660
vn -0.0000 -0.0000 1.0000
vn -0.5000 -0.0000 0.8660
vn -0.7090 -0.0000 0.7052
vn -0.0000 -1.0000 -0.0000
vn -0.0000 1.0000 -0.0000
vn -0.7090 -0.0000 -0.7052
vn -0.5000 -0.0000 -0.8660
vn -0.3852 -0.0000 -0.9228
vn -0.3852 -0.0000 0.9228
vn 0.4366 -0.0000 -0.8996
vn 0.6948 -0.0000 -0.7192
vn 0.4366 -0.0000 -0.8997
vn 0.4366 -0.0000 0.8996
vn 0.6948 -0.0000 0.7192
vn 0.4366 -0.0000 0.8997
vn -0.7747 -0.0000 -0.6324
vn -1.0000 -0.0000 -0.0000
vn -0.7747 -0.0000 0.6324
vn -0.2638 -0.0000 0.9646
vn 0.3110 -0.0000 0.9504
vn -0.2638 -0.0000 -0.9646
vn 0.3110 -0.0000 -0.9504
vn 0.7071 -0.0000 -0.7071
vn 0.7071 -0.0000 0.7071
vn -0.7071 -0.0000 0.7071
vn -0.7071 -0.0000 -0.7071
vn 0.4253 -0.8507 0.3090
vn 0.7236 -0.4472 0.5257
vn 0.2629 -0.5257 0.8090
vn -0.1625 -0.8507 0.5000
vn -0.2764 -0.4472 0.8506
vn -0.6882 -0.5257 0.5000
vn 0.4253 -0.8507 -0.3090
vn -0.5257 -0.8507 -0.0000
vn -0.1625 -0.8507 -0.5000
vn -0.6882 -0.5257 -0.5000
vn -0.2764 -0.4472 -0.8506
vn -0.5878 -0.0000 -0.8090
vn -0.9511 -0.0000 -0.3090
vn 0.5878 -0.0000 0.8090
vn 0.2629 -0.5257 -0.8090
vn -0.8944 -0.4472 -0.0000
vn -0.7236 0.4472 -0.5257
vn 0.5878 -0.0000 -0.8090
vn 0.6882 0.5257 0.5000
vn 0.2764 0.4472 0.8506
vn -0.9511 -0.0000 0.3090
vn -0.8506 0.5257 -0.0000
vn 0.8944 0.4472 -0.0000
vn 0.5257 0.8507 -0.0000
vn 0.9511 -0.0000 -0.3090
vn 0.6882 0.5257 -0.5000
vn 0.1625 0.8507 -0.5000
vn -0.4253 0.8507 -0.3090
vn -0.4253 0.8507 0.3090
vn -0.2629 0.5257 -0.8090
vn 0.8506 -0.5257 -0.0000
vn 0.1625 0.8507 0.5000
vn -0.2629 0.5257 0.8090
vn -0.7236 0.4472 0.5257
vn 0.2764 0.4472 -0.8506
vn 0.9511 -0.0000 0.3090
vn -0.5878 -0.0000 0.8090
vn 0.7236 -0.4472 -0.5257
vt 0.431850 0.022415
vt 0.439694 -0.000000
vt 0.439694 0.022415
vt 0.283389 0.225766
vt 0.275655 0.242373
vt 0.275545 0.225766
vt 0.283499 0.242373
vt 0.275695 0.265059
vt 0.283539 0.265059
vt 0.275655 0.287745
vt 0.283499 0.287745
vt 0.275545 0.304352
vt 0.439694 0.935585
vt 0.447538 0.913170
vt 0.447538 0.935585
vt 0.439694 0.913170
vt 0.447538 0.890252
vt 0.439694 0.890252
vt 0.447538 0.872972
vt 0.046434 0.090718
vt 0.056959 0.096562
vt 0.046579 0.096808
vt 0.135001 0.909282
vt 0.124477 0.903438
vt 0.134857 0.903192
vt 0.112466 0.915897
vt 0.181436 0.953566
vt 0.114329 0.994461
vt 0.431850 0.062613
vt 0.439694 0.045333
vt 0.439694 0.062613
vt 0.431850 0.045333
vt 0.044283 -0.000000
vt 0.085179 0.067107
vt 0.006615 0.068970
vt 0.124828 0.042148
vt 0.145237 0.902946
vt 0.056608 0.957852
vt 0.036199 0.097054
vt 0.431850 0.075282
vt 0.023611 0.085179
vt 0.157825 0.914822
vt 0.439694 0.872972
vt 0.447538 0.860302
vt 0.281338 0.344550
vt 0.275545 0.336736
vt 0.281338 0.336706
vt 0.217049 0.337716
vt 0.222843 0.345590
vt 0.217049 0.345560
vt 0.439694 0.860302
vt 0.447538 -0.000000
vt 0.114448 0.042394
vt 0.066988 0.957606
vt 0.439694 0.075282
vt 0.431849 0.935585
vt 0.283389 0.304352
vt 0.275582 0.320529
vt 0.275545 0.304352
vt 0.114343 0.037992
vt 0.130512 0.037448
vt 0.077368 0.957360
vt 0.067092 0.962008
vt 0.129747 0.005200
vt 0.113571 0.005423
vt 0.113442 -0.000000
vt 0.097403 0.005967
vt 0.050924 0.962552
vt 0.275545 0.336706
vt 0.283426 0.320529
vt 0.283389 0.336706
vt 0.051688 0.994800
vt 0.067865 0.994577
vt 0.067993 1.000000
vt 0.084033 0.994033
vt 0.104068 0.042640
vt 0.113864 0.017798
vt 0.090718 0.017910
vt 0.090978 0.028880
vt 0.114104 0.027895
vt 0.098167 0.038215
vt 0.345875 0.327479
vt 0.338031 0.339538
vt 0.338031 0.327479
vt 0.345875 0.339538
vt 0.338031 0.350502
vt 0.345875 0.350502
vt 0.338031 0.359708
vt 0.137251 0.027783
vt 0.067571 0.982202
vt 0.044185 0.972217
vt 0.067332 0.972105
vt 0.090718 0.982090
vt 0.090458 0.971120
vt 0.083268 0.961785
vt 0.345875 0.359708
vt 0.353719 0.347649
vt 0.353719 0.359708
vt 0.345875 0.347649
vt 0.353719 0.336685
vt 0.345875 0.336685
vt 0.353719 0.327478
vt 0.317722 0.000000
vt 0.324414 0.818091
vt 0.317722 0.818091
vt 0.283539 0.000019
vt 0.290354 0.818073
vt 0.283539 0.818092
vt 0.290354 0.000000
vt 0.297168 0.818092
vt 0.324414 0.000000
vt 0.331105 0.818091
vt 0.324414 0.818091
vt 0.331105 0.000000
vt 0.338031 0.818091
vt 0.297168 0.000000
vt 0.303982 0.818091
vt 0.297168 0.818073
vt 0.204458 0.355523
vt 0.199242 0.342931
vt 0.211834 0.337716
vt 0.303982 0.000019
vt 0.310796 0.818073
vt 0.310796 0.000000
vt 0.310796 0.818091
vt 0.194027 0.337716
vt 0.199242 0.350307
vt 0.186651 0.355523
vt 0.209656 0.035938
vt 0.189865 0.021559
vt 0.220435 0.002763
vt 0.248656 0.023266
vt 0.256216 0.000000
vt 0.283539 0.023266
vt 0.181436 0.314925
vt 0.189025 0.279558
vt 0.208529 0.309834
vt 0.237877 0.056442
vt 0.209656 0.076945
vt 0.272760 0.056442
vt 0.248656 0.089617
vt 0.283539 0.089617
vt 0.256216 0.112883
vt 0.430614 0.198241
vt 0.395250 0.217980
vt 0.401923 0.181583
vt 0.181436 0.250308
vt 0.211851 0.245502
vt 0.424260 0.053792
vt 0.404756 0.084068
vt 0.385509 0.054725
vt 0.355763 0.219714
vt 0.338031 0.184389
vt 0.369232 0.196771
vt 0.431850 0.089159
vt 0.429396 0.163187
vt 0.227776 0.280491
vt 0.401434 0.019736
vt 0.241194 0.225766
vt 0.247363 0.251895
vt 0.366560 0.160823
vt 0.401923 0.141083
vt 0.395250 0.221448
vt 0.369232 0.242658
vt 0.355762 0.219714
vt 0.366560 0.278606
vt 0.338031 0.255039
vt 0.272760 0.169325
vt 0.283539 0.202500
vt 0.248656 0.202500
vt 0.209656 0.189828
vt 0.209656 0.148821
vt 0.237877 0.169325
vt 0.369149 0.090668
vt 0.338089 0.087279
vt 0.346323 0.056613
vt 0.429396 0.276242
vt 0.430614 0.306718
vt 0.401924 0.298346
vt 0.248656 0.136149
vt 0.283539 0.136149
vt 0.220435 0.223003
vt 0.189865 0.204207
vt 0.266962 0.282379
vt 0.181436 0.169325
vt 0.369233 0.127868
vt 0.395251 0.111950
vt 0.256216 0.225766
vt 0.397789 0.111950
vt 0.338031 0.295540
vt 0.401923 0.257846
vt 0.275254 0.248557
vt 0.244136 0.316434
vt 0.430614 0.241188
vt 0.431850 0.024542
vt 0.365922 0.026129
vt 0.372091 0.000000
vt 0.215496 0.337716
vt 0.220435 0.115646
vt 0.275196 0.313045
vt 0.220435 0.110120
vt 0.189865 0.091324
vt 0.189865 0.134442
vt 0.256216 0.112883
vt 0.338031 0.143889
vt 0.369233 0.311561
vt 0.430614 0.132710
vt 0.181436 0.056442
vt 0.338031 0.022791
vt 0.395251 0.327479
vt 0.431850 -0.000000
vt 0.283389 0.304352
vt 0.068970 0.084103
vt 0.097332 0.978252
vt 0.090718 0.955717
vt 0.096257 0.932893
vt 0.174821 0.931030
vt 0.175896 0.976389
vt 0.159687 0.993385
vt 0.137152 1.000000
vt -0.000000 0.046434
vt 0.005539 0.023611
vt 0.021748 0.006615
vt 0.067107 0.005539
vt 0.084103 0.021748
vt 0.090718 0.044283
vt 0.275545 0.344580
vt 0.222843 0.337746
vt 0.439694 -0.000000
vt 0.439694 0.935585
vt 0.345875 0.359708
vt 0.136990 0.016813
vt 0.044445 0.983187
vt 0.345875 0.327478
vt 0.324414 0.000000
vt 0.297168 0.000019
vt 0.338031 0.000000
vt 0.217049 0.342931
vt 0.217049 0.350307
vt 0.211834 0.355523
vt 0.199242 0.350307
vt 0.204458 0.337716
vt 0.310796 0.000000
vt 0.181436 0.350307
vt 0.181436 0.342931
vt 0.186651 0.337716
vt 0.199242 0.342931
vt 0.194027 0.355523
s 1
f 2/1/1 3/2/2 1/3/1
f 4/4/2 5/5/3 3/6/2
f 6/7/3 7/8/4 5/5/3
f 8/9/4 9/10/5 7/8/4
f 10/11/5 11/12/6 9/10/5
f 12/13/6 13/14/7 11/15/6
f 14/16/7 15/17/8 13/14/7
f 16/18/8 17/19/9 15/17/8
f 19/20/10 26/21/10 27/22/10
f 20/23/11 30/24/11 28/25/11
f 22/26/11 14/27/11 6/28/11
f 22/29/12 23/30/13 21/31/12
f 24/32/13 1/3/1 23/30/13
f 7/33/10 15/34/10 23/35/10
f 28/25/11 31/36/11 25/37/11
f 27/22/10 35/38/10 29/39/10
f 21/31/12 30/40/14 22/29/12
f 19/20/10 29/39/10 21/41/10
f 20/23/11 25/37/11 18/42/11
f 18/43/9 26/44/15 17/19/9
f 35/45/16 51/46/17 36/47/18
f 31/48/19 40/49/20 32/50/21
f 25/51/15 32/52/21 26/44/15
f 30/24/11 34/53/11 28/25/11
f 26/21/10 33/54/10 27/22/10
f 29/55/14 36/56/18 30/40/14
f 47/57/22 38/58/23 52/59/22
f 31/36/11 56/60/11 59/61/11
f 32/62/10 43/63/10 33/54/10
f 60/64/11 55/65/11 38/66/11
f 55/65/11 52/67/11 38/66/11
f 35/38/10 43/63/10 48/68/10
f 60/69/24 37/70/23 39/71/24
f 47/72/10 44/73/10 37/74/10
f 44/73/10 39/75/10 37/74/10
f 36/76/11 56/60/11 34/53/11
f 52/67/11 57/77/11 54/78/11
f 57/77/11 53/79/11 54/78/11
f 58/80/11 51/81/11 53/79/11
f 39/82/24 62/83/25 60/84/24
f 41/85/25 61/86/26 62/83/25
f 42/87/26 59/88/20 61/86/26
f 60/64/11 57/77/11 55/65/11
f 57/77/11 61/89/11 58/80/11
f 58/80/11 59/61/11 56/60/11
f 47/72/10 46/90/10 44/73/10
f 46/90/10 50/91/10 45/92/10
f 45/92/10 48/68/10 43/63/10
f 39/75/10 46/90/10 41/93/10
f 46/90/10 42/94/10 41/93/10
f 45/92/10 40/95/10 42/94/10
f 52/96/22 49/97/27 47/98/22
f 54/99/27 50/100/28 49/97/27
f 53/101/28 48/102/17 50/100/28
f 64/103/1 65/104/29 63/105/1
f 66/106/29 67/107/4 65/108/29
f 68/109/4 69/110/30 67/107/4
f 70/111/30 71/112/7 69/113/30
f 72/114/7 73/115/31 71/112/7
f 74/116/31 75/117/23 73/118/31
f 76/119/11 72/120/11 68/121/11
f 76/122/23 77/123/32 75/117/23
f 78/124/32 63/105/1 77/125/32
f 69/126/10 73/127/10 77/128/10
f 102/129/33 119/130/34 108/131/35
f 105/132/36 118/133/37 107/134/38
f 105/132/36 102/129/33 108/131/35
f 105/135/36 108/136/35 118/137/37
f 102/129/33 120/138/10 99/139/39
f 106/140/40 105/132/36 107/134/38
f 103/141/41 104/142/42 116/143/43
f 82/144/44 104/145/42 93/146/45
f 108/136/35 119/147/34 94/148/46
f 100/149/47 116/150/43 81/151/1
f 106/152/40 107/153/38 117/154/48
f 103/155/41 116/150/43 100/149/47
f 82/144/44 93/146/45 112/156/49
f 98/157/7 108/136/35 94/148/46
f 89/158/50 100/149/47 81/151/1
f 94/148/46 90/159/51 114/160/52
f 93/146/45 95/161/53 86/162/54
f 90/163/51 110/164/55 83/165/56
f 97/166/57 87/167/58 110/164/55
f 83/168/56 87/169/58 85/170/59
f 84/171/60 79/172/61 109/173/11
f 120/138/10 102/129/33 105/132/36
f 82/174/44 112/175/49 80/176/62
f 85/170/59 84/171/60 109/173/11
f 119/177/34 102/178/33 96/179/63
f 88/180/64 90/181/51 83/168/56
f 85/170/59 80/182/62 84/171/60
f 120/138/10 105/132/36 106/140/40
f 93/146/45 86/162/54 112/156/49
f 80/182/62 112/183/49 84/171/60
f 120/138/10 106/140/40 103/141/41
f 98/157/7 114/160/52 91/184/65
f 84/171/60 86/185/54 79/172/61
f 120/138/10 103/141/41 99/139/39
f 86/162/54 113/186/66 79/187/61
f 87/169/58 111/188/67 85/170/59
f 116/150/43 104/189/42 82/174/44
f 81/151/1 82/174/44 80/176/62
f 97/166/57 89/190/50 87/167/58
f 119/177/34 96/179/63 101/191/68
f 88/180/64 83/168/56 109/173/11
f 79/172/61 88/180/64 109/173/11
f 118/137/37 108/136/35 98/157/7
f 91/184/65 114/160/52 88/192/64
f 95/161/53 113/186/66 86/162/54
f 117/154/48 107/153/38 95/161/53
f 92/193/69 98/157/7 91/184/65
f 94/194/46 101/191/68 90/163/51
f 115/195/70 100/149/47 89/158/50
f 83/168/56 85/170/59 109/173/11
f 89/158/50 111/196/67 87/197/58
f 119/177/34 101/191/68 94/194/46
f 107/198/38 118/137/37 92/193/69
f 79/172/61 91/199/65 88/180/64
f 118/137/37 98/157/7 92/193/69
f 101/191/68 96/179/63 97/166/57
f 92/193/69 91/184/65 113/200/66
f 117/154/48 95/161/53 93/146/45
f 99/139/39 100/201/47 115/202/70
f 101/191/68 110/164/55 90/163/51
f 113/203/66 91/199/65 79/172/61
f 106/152/40 117/154/48 104/145/42
f 81/151/1 80/176/62 111/196/67
f 114/204/52 90/181/51 88/180/64
f 89/158/50 81/151/1 111/196/67
f 95/161/53 92/205/69 113/186/66
f 115/206/70 89/190/50 97/166/57
f 98/157/7 94/148/46 114/160/52
f 101/191/68 97/166/57 110/164/55
f 116/150/43 82/174/44 81/151/1
f 96/179/63 115/206/70 97/166/57
f 104/145/42 117/154/48 93/146/45
f 110/164/55 87/167/58 83/165/56
f 99/139/39 103/141/41 100/201/47
f 95/161/53 107/153/38 92/205/69
f 112/156/49 86/162/54 84/207/60
f 96/208/63 102/129/33 99/139/39
f 103/141/41 106/140/40 104/142/42
f 111/196/67 80/176/62 85/209/59
f 96/179/63 99/210/39 115/206/70
f 2/1/1 4/211/2 3/2/2
f 4/4/2 6/7/3 5/5/3
f 6/7/3 8/9/4 7/8/4
f 8/9/4 10/11/5 9/10/5
f 10/11/5 12/212/6 11/12/6
f 12/13/6 14/16/7 13/14/7
f 14/16/7 16/18/8 15/17/8
f 16/18/8 18/43/9 17/19/9
f 19/20/10 17/213/10 26/21/10
f 20/23/11 22/26/11 30/24/11
f 6/28/11 4/214/11 2/215/11
f 2/215/11 24/216/11 22/26/11
f 22/26/11 20/23/11 18/42/11
f 18/42/11 16/217/11 14/27/11
f 14/27/11 12/218/11 10/219/11
f 10/219/11 8/220/11 6/28/11
f 6/28/11 2/215/11 22/26/11
f 22/26/11 18/42/11 14/27/11
f 14/27/11 10/219/11 6/28/11
f 22/29/12 24/32/13 23/30/13
f 24/32/13 2/1/1 1/3/1
f 23/35/10 1/221/10 3/222/10
f 3/222/10 5/223/10 7/33/10
f 7/33/10 9/224/10 11/225/10
f 11/225/10 13/226/10 15/34/10
f 15/34/10 17/213/10 19/20/10
f 19/20/10 21/41/10 23/35/10
f 23/35/10 3/222/10 7/33/10
f 7/33/10 11/225/10 15/34/10
f 15/34/10 19/20/10 23/35/10
f 28/25/11 34/53/11 31/36/11
f 27/22/10 33/54/10 35/38/10
f 21/31/12 29/55/14 30/40/14
f 19/20/10 27/22/10 29/39/10
f 20/23/11 28/25/11 25/37/11
f 18/43/9 25/51/15 26/44/15
f 35/45/16 48/227/17 51/46/17
f 31/48/19 59/228/20 40/49/20
f 25/51/15 31/229/19 32/52/21
f 30/24/11 36/76/11 34/53/11
f 26/21/10 32/62/10 33/54/10
f 29/55/14 35/230/16 36/56/18
f 47/57/22 37/70/23 38/58/23
f 31/36/11 34/53/11 56/60/11
f 32/62/10 40/95/10 43/63/10
f 35/38/10 33/54/10 43/63/10
f 60/69/24 38/58/23 37/70/23
f 36/76/11 51/81/11 56/60/11
f 52/67/11 55/65/11 57/77/11
f 57/77/11 58/80/11 53/79/11
f 58/80/11 56/60/11 51/81/11
f 39/82/24 41/85/25 62/83/25
f 41/85/25 42/87/26 61/86/26
f 42/87/26 40/231/20 59/88/20
f 60/64/11 62/232/11 57/77/11
f 57/77/11 62/232/11 61/89/11
f 58/80/11 61/89/11 59/61/11
f 47/72/10 49/233/10 46/90/10
f 46/90/10 49/233/10 50/91/10
f 45/92/10 50/91/10 48/68/10
f 39/75/10 44/73/10 46/90/10
f 46/90/10 45/92/10 42/94/10
f 45/92/10 43/63/10 40/95/10
f 52/96/22 54/99/27 49/97/27
f 54/99/27 53/101/28 50/100/28
f 53/101/28 51/234/17 48/102/17
f 64/103/1 66/235/29 65/104/29
f 66/106/29 68/109/4 67/107/4
f 68/109/4 70/236/30 69/110/30
f 70/111/30 72/114/7 71/112/7
f 72/114/7 74/237/31 73/115/31
f 74/116/31 76/122/23 75/117/23
f 68/121/11 66/238/11 64/239/11
f 64/239/11 78/240/11 76/119/11
f 76/119/11 74/241/11 72/120/11
f 72/120/11 70/242/11 68/121/11
f 68/121/11 64/239/11 76/119/11
f 76/122/23 78/243/32 77/123/32
f 78/124/32 64/103/1 63/105/1
f 77/128/10 63/244/10 65/245/10
f 65/245/10 67/246/10 69/126/10
f 69/126/10 71/247/10 73/127/10
f 73/127/10 75/248/10 77/128/10
f 77/128/10 65/245/10 69/126/10
