# Blender 4.5.0 Release Candidate
# www.blender.org
o Icosphere.001
v 0.000000 -0.000000 -0.220399
v -0.084343 -0.000000 -0.203622
v -0.155845 -0.000000 -0.155846
v -0.203622 -0.000000 -0.084343
v -0.220399 -0.000000 0.000000
v -0.203622 -0.000000 0.084343
v -0.155845 -0.000000 0.155846
v -0.084343 -0.000000 0.203622
v 0.000000 -0.000000 0.220399
v 0.084344 -0.000000 0.203622
v 0.155846 -0.000000 0.155846
v 0.203623 -0.000000 0.084343
v 0.220400 -0.000000 0.000000
v 0.203623 -0.000000 -0.084343
v 0.155846 -0.000000 -0.155846
v 0.084344 -0.000000 -0.203622
v -0.084343 0.012996 -0.203622
v 0.000000 0.012996 -0.220399
v -0.155845 0.012996 -0.155846
v -0.203622 0.012996 -0.084343
v -0.220399 0.012996 0.000000
v -0.203622 0.012996 0.084343
v -0.155845 0.012996 0.155846
v -0.084343 0.012996 0.203622
v 0.000000 0.012996 0.220399
v 0.084344 0.012996 0.203622
v 0.155846 0.012996 0.155846
v 0.203623 0.012996 0.084343
v 0.220400 0.012996 0.000000
v 0.203623 0.012996 -0.084343
v 0.155846 0.012996 -0.155846
v 0.084344 0.012996 -0.203622
v -0.075514 0.027578 -0.182308
v 0.000000 0.027578 -0.197329
v -0.139532 0.027578 -0.139533
v -0.182308 0.027578 -0.075515
v -0.197329 0.027578 0.000000
v -0.182308 0.027578 0.075515
v -0.139532 0.027578 0.139533
v -0.075514 0.027578 0.182308
v 0.000000 0.027578 0.197329
v 0.075515 0.027578 0.182308
v 0.139533 0.027578 0.139533
v 0.182309 0.027578 0.075515
v 0.197329 0.027578 0.000000
v 0.182309 0.027578 -0.075515
v 0.139533 0.027578 -0.139533
v 0.075515 0.027578 -0.182308
v -0.067457 0.032057 -0.162856
v 0.000000 0.032057 -0.176274
v -0.124644 0.032057 -0.124644
v -0.162855 0.032057 -0.067457
v -0.176273 0.032057 0.000000
v -0.162855 0.032057 0.067457
v -0.124644 0.032057 0.124644
v -0.067457 0.032057 0.162856
v 0.000000 0.032057 0.176274
v 0.067458 0.032057 0.162856
v 0.124645 0.032057 0.124644
v 0.162856 0.032057 0.067457
v 0.176274 0.032057 0.000000
v 0.162856 0.032057 -0.067457
v 0.124645 0.032057 -0.124644
v 0.067458 0.032057 -0.162856
v -0.022946 0.039413 -0.055397
v 0.000000 0.039413 -0.059962
v -0.042399 0.039413 -0.042399
v -0.055397 0.039413 -0.022946
v -0.059961 0.039413 0.000000
v -0.055397 0.039413 0.022946
v -0.042399 0.039413 0.042399
v -0.022946 0.039413 0.055397
v 0.000000 0.039413 0.059962
v 0.022947 0.039413 0.055397
v 0.042400 0.039413 0.042399
v 0.055398 0.039413 0.022946
v 0.059962 0.039413 0.000000
v 0.055398 0.039413 -0.022946
v 0.042400 0.039413 -0.042399
v 0.022947 0.039413 -0.055397
v -0.067457 0.039413 -0.162856
v 0.000000 0.039413 -0.176274
v -0.124644 0.039413 -0.124644
v -0.162855 0.039413 -0.067457
v -0.176273 0.039413 0.000000
v -0.162855 0.039413 0.067457
v -0.124644 0.039413 0.124644
v -0.067457 0.039413 0.162856
v 0.000000 0.039413 0.176274
v 0.067458 0.039413 0.162856
v 0.124645 0.039413 0.124644
v 0.162856 0.039413 0.067457
v 0.176274 0.039413 0.000000
v 0.162856 0.039413 -0.067457
v 0.124645 0.039413 -0.124644
v 0.067458 0.039413 -0.162856
v -0.022946 0.046444 -0.055397
v 0.000000 0.046444 -0.059962
v -0.042399 0.046444 -0.042399
v -0.055397 0.046444 -0.022946
v -0.059961 0.046444 0.000000
v -0.055397 0.046444 0.022946
v -0.042399 0.046444 0.042399
v -0.022946 0.046444 0.055397
v 0.000000 0.046444 0.059962
v 0.022947 0.046444 0.055397
v 0.042400 0.046444 0.042399
v 0.055398 0.046444 0.022946
v 0.059962 0.046444 0.000000
v 0.055398 0.046444 -0.022946
v 0.042400 0.046444 -0.042399
v 0.022947 0.046444 -0.055397
v -0.007160 0.110098 -0.017288
v 0.000001 0.110098 -0.018712
v -0.013231 0.110098 -0.013232
v -0.017287 0.110098 -0.007161
v -0.018712 0.110098 0.000000
v -0.017287 0.110098 0.007161
v -0.013231 0.110098 0.013232
v -0.007160 0.110098 0.017288
v 0.000001 0.110098 0.018712
v 0.007161 0.110098 0.017288
v 0.013232 0.110098 0.013232
v 0.017288 0.110098 0.007161
v 0.018713 0.110098 0.000000
v 0.017288 0.110098 -0.007161
v 0.013232 0.110098 -0.013232
v 0.007161 0.110098 -0.017288
v -0.007160 0.272129 -0.017288
v 0.000001 0.272129 -0.018712
v -0.013231 0.272129 -0.013232
v -0.017287 0.272129 -0.007161
v -0.018712 0.272129 0.000000
v -0.017287 0.272129 0.007161
v -0.013231 0.272129 0.013232
v -0.007160 0.272129 0.017288
v 0.000001 0.272129 0.018712
v 0.007161 0.272129 0.017288
v 0.013232 0.272129 0.013232
v 0.017288 0.272129 0.007161
v 0.018713 0.272129 0.000000
v 0.017288 0.272129 -0.007161
v 0.013232 0.272129 -0.013232
v 0.007161 0.272129 -0.017288
v 0.021449 0.089892 0.000000
v 0.041456 0.056001 0.000000
v 0.028244 0.070725 0.000000
v 0.038300 0.056001 0.015864
v 0.019816 0.089892 0.008208
v 0.026094 0.070725 0.010808
v -0.019815 0.089892 0.008208
v -0.038299 0.056001 0.015864
v -0.026093 0.070725 0.010808
v -0.041455 0.056001 0.000000
v -0.021448 0.089892 0.000000
v -0.028243 0.070725 0.000000
v 0.019816 0.089892 -0.008208
v 0.038300 0.056001 -0.015864
v 0.026094 0.070725 -0.010808
v -0.015166 0.089892 0.015166
v -0.029313 0.056001 0.029313
v -0.019970 0.070725 0.019971
v 0.015167 0.089892 -0.015166
v 0.029314 0.056001 -0.029313
v 0.019972 0.070725 -0.019971
v -0.008207 0.089892 0.019816
v -0.015864 0.056001 0.038300
v -0.010808 0.070725 0.026093
v 0.008208 0.089892 -0.019816
v 0.015865 0.056001 -0.038300
v 0.010809 0.070725 -0.026093
v 0.000001 0.089892 0.021448
v 0.000001 0.056001 0.041455
v 0.000001 0.070725 0.028243
v -0.008207 0.089892 -0.019816
v -0.015864 0.056001 -0.038300
v -0.010808 0.070725 -0.026093
v 0.000001 0.056001 -0.041455
v 0.000001 0.089892 -0.021448
v 0.000001 0.070725 -0.028243
v 0.008208 0.089892 0.019816
v 0.015865 0.056001 0.038300
v 0.010809 0.070725 0.026093
v -0.015166 0.089892 -0.015166
v -0.029313 0.056001 -0.029313
v -0.019970 0.070725 -0.019971
v 0.015167 0.089892 0.015166
v 0.029314 0.056001 0.029313
v 0.019972 0.070725 0.019971
v -0.019815 0.089892 -0.008208
v -0.038299 0.056001 -0.015864
v -0.026093 0.070725 -0.010808
v 0.000000 1.456517 -0.008862
v -0.218038 1.413146 -0.008862
v -0.402882 1.289638 -0.008862
v -0.526391 1.104794 -0.008862
v -0.569762 0.886755 -0.008862
v -0.526391 0.668717 -0.008862
v -0.402882 0.483872 -0.008862
v -0.218038 0.360364 -0.008862
v 0.000000 0.316993 -0.008862
v 0.218039 0.360364 -0.008862
v 0.402883 0.483872 -0.008862
v 0.526392 0.668717 -0.008862
v 0.569762 0.886755 -0.008862
v 0.526392 1.104794 -0.008862
v 0.402883 1.289638 -0.008862
v 0.218039 1.413146 -0.008862
v 0.000000 1.540072 -0.008862
v -0.250013 1.490341 -0.008862
v -0.461964 1.348720 -0.008862
v -0.603586 1.136769 -0.008862
v -0.653317 0.886755 -0.008862
v -0.603586 0.636741 -0.008862
v -0.461964 0.424790 -0.008862
v -0.250013 0.283169 -0.008862
v 0.000000 0.233438 -0.008862
v 0.250014 0.283169 -0.008862
v 0.461965 0.424790 -0.008862
v 0.603587 0.636741 -0.008862
v 0.653317 0.886755 -0.008862
v 0.603587 1.136769 -0.008862
v 0.461965 1.348720 -0.008862
v 0.250014 1.490341 -0.008862
v 0.000000 1.456517 0.008859
v -0.218038 1.413146 0.008859
v -0.402882 1.289638 0.008860
v -0.526391 1.104794 0.008860
v -0.569762 0.886755 0.008860
v -0.526391 0.668717 0.008860
v -0.402882 0.483872 0.008860
v -0.218038 0.360364 0.008860
v 0.000000 0.316993 0.008860
v 0.218039 0.360364 0.008860
v 0.402883 0.483872 0.008860
v 0.526392 0.668717 0.008860
v 0.569762 0.886755 0.008860
v 0.526392 1.104794 0.008860
v 0.402883 1.289638 0.008860
v 0.218039 1.413146 0.008859
v 0.000000 1.540072 0.008860
v -0.250013 1.490341 0.008860
v -0.461964 1.348720 0.008860
v -0.603586 1.136769 0.008860
v -0.653317 0.886755 0.008860
v -0.603586 0.636741 0.008860
v -0.461964 0.424790 0.008860
v -0.250013 0.283169 0.008860
v 0.000000 0.233438 0.008860
v 0.250014 0.283169 0.008860
v 0.461965 0.424790 0.008860
v 0.603587 0.636741 0.008860
v 0.653317 0.886755 0.008860
v 0.603587 1.136769 0.008860
v 0.461965 1.348720 0.008860
v 0.250014 1.490341 0.008860
v -0.588522 0.896642 0.000000
v 0.588525 0.896642 -0.000000
v -0.588522 0.893746 -0.006992
v 0.588525 0.893746 -0.006992
v -0.588522 0.886754 -0.009888
v 0.588525 0.886754 -0.009888
v -0.588522 0.879763 -0.006992
v 0.588525 0.879763 -0.006992
v -0.588522 0.876867 0.000000
v 0.588525 0.876867 -0.000000
v -0.588522 0.879763 0.006992
v 0.588525 0.879763 0.006992
v -0.588522 0.886754 0.009888
v 0.588525 0.886754 0.009888
v -0.588522 0.893746 0.006992
v 0.588525 0.893746 0.006992
v 0.508219 0.896642 -0.000000
v -0.508216 0.896642 0.000000
v -0.508216 0.893746 -0.006992
v 0.508219 0.893746 -0.006992
v -0.508216 0.886754 -0.009888
v 0.508219 0.886754 -0.009888
v -0.508216 0.879763 -0.006992
v 0.508219 0.879763 -0.006992
v -0.508216 0.876867 0.000000
v 0.508219 0.876867 -0.000000
v -0.508216 0.879763 0.006992
v 0.508219 0.879763 0.006992
v -0.508216 0.886754 0.009888
v 0.508219 0.886754 0.009888
v -0.508216 0.893746 0.006992
v 0.508219 0.893746 0.006992
vn -0.0000 -1.0000 -0.0000
vn 0.3778 0.8453 -0.3778
vn 0.3655 0.9184 -0.1514
vn 0.4936 0.8453 -0.2045
vn 1.0000 -0.0000 -0.0000
vn 0.9239 -0.0000 0.3827
vn -0.9239 -0.0000 0.3827
vn -1.0000 -0.0000 -0.0000
vn 0.9239 -0.0000 -0.3827
vn -0.7071 -0.0000 0.7071
vn 0.7071 -0.0000 -0.7071
vn -0.3827 -0.0000 0.9239
vn 0.3827 -0.0000 -0.9239
vn -0.0000 -0.0000 1.0000
vn -0.3827 -0.0000 -0.9239
vn -0.0000 -0.0000 -1.0000
vn 0.3827 -0.0000 0.9239
vn -0.7071 -0.0000 -0.7071
vn 0.7071 -0.0000 0.7071
vn -0.9239 -0.0000 -0.3827
vn 0.2081 0.9781 -0.0000
vn 0.3956 0.9184 -0.0000
vn -0.3778 0.8453 0.3778
vn -0.1514 0.9184 0.3655
vn -0.2797 0.9184 0.2797
vn 0.2045 0.8453 -0.4936
vn 0.2797 0.9184 -0.2797
vn -0.2045 0.8453 0.4936
vn -0.0000 0.9184 0.3956
vn -0.2045 0.8453 -0.4936
vn -0.0000 0.9184 -0.3956
vn -0.0000 0.8453 -0.5343
vn 0.1514 0.9184 -0.3655
vn 0.2045 0.8453 0.4936
vn -0.0000 0.8453 0.5343
vn -0.3778 0.8453 -0.3778
vn -0.1514 0.9184 -0.3655
vn 0.3778 0.8453 0.3778
vn 0.1514 0.9184 0.3655
vn -0.3655 0.9184 -0.1514
vn -0.2797 0.9184 -0.2797
vn 0.3655 0.9184 0.1514
vn 0.2797 0.9184 0.2797
vn -0.4936 0.8453 -0.2045
vn -0.3956 0.9184 -0.0000
vn 0.5343 0.8453 -0.0000
vn 0.4936 0.8453 0.2045
vn -0.4936 0.8453 0.2045
vn -0.5343 0.8453 -0.0000
vn -0.3655 0.9184 0.1514
vn -0.1471 0.9781 0.1471
vn -0.1922 0.9781 0.0796
vn 0.1922 0.9781 -0.0796
vn -0.0796 0.9781 0.1922
vn 0.1471 0.9781 -0.1471
vn -0.0000 0.9781 0.2081
vn -0.0000 0.9781 -0.2081
vn 0.0796 0.9781 -0.1922
vn 0.0796 0.9781 0.1922
vn -0.0796 0.9781 -0.1922
vn -0.1471 0.9781 -0.1471
vn 0.1922 0.9781 0.0796
vn 0.1471 0.9781 0.1471
vn -0.1922 0.9781 -0.0796
vn -0.2081 0.9781 -0.0000
vn -0.0000 1.0000 -0.0000
vn 0.4588 0.8885 -0.0000
vn 0.5517 0.8021 -0.2285
vn 0.5971 0.8021 -0.0000
vn 0.3818 0.0678 0.9218
vn -0.3245 0.8885 0.3244
vn -0.5517 0.8021 0.2285
vn -0.4239 0.8885 0.1756
vn 0.5517 0.8021 0.2285
vn 0.4239 0.8885 0.1756
vn -0.5971 0.8021 -0.0000
vn -0.4588 0.8885 -0.0000
vn 0.4239 0.8885 -0.1756
vn 0.4222 0.8021 -0.4222
vn -0.1756 0.8885 0.4239
vn -0.4222 0.8021 0.4222
vn 0.3245 0.8885 -0.3245
vn 0.2285 0.8021 -0.5517
vn -0.0000 0.8885 0.4588
vn -0.2285 0.8021 0.5517
vn -0.1756 0.8885 -0.4239
vn -0.4222 0.8021 -0.4222
vn -0.2285 0.8021 -0.5517
vn 0.1756 0.8885 -0.4239
vn -0.0000 0.8021 -0.5971
vn 0.1756 0.8885 0.4239
vn -0.0000 0.8021 0.5971
vn -0.0000 0.8885 -0.4588
vn 0.3245 0.8885 0.3245
vn 0.2285 0.8021 0.5517
vn -0.3245 0.8885 -0.3244
vn -0.5517 0.8021 -0.2285
vn -0.6867 0.2384 0.6867
vn -0.9218 0.0678 0.3818
vn -0.8972 0.2384 0.3717
vn 0.8972 0.2384 -0.3717
vn 0.7055 0.0678 -0.7055
vn 0.9218 0.0678 -0.3818
vn -0.9218 0.0678 -0.3818
vn -0.7055 0.0678 -0.7055
vn 0.9218 0.0678 0.3818
vn 0.7055 0.0678 0.7055
vn -0.9977 0.0678 -0.0000
vn 0.9977 0.0678 -0.0000
vn -0.7055 0.0678 0.7055
vn -0.3818 0.0678 0.9218
vn 0.3818 0.0678 -0.9218
vn -0.0000 0.0678 0.9977
vn -0.3818 0.0678 -0.9218
vn -0.0000 0.0678 -0.9977
vn -0.9712 0.2384 -0.0000
vn -0.8972 0.2384 -0.3717
vn 0.8972 0.2384 0.3716
vn 0.6867 0.2384 0.6867
vn -0.6867 0.2384 -0.6867
vn 0.3717 0.2384 0.8972
vn -0.3716 0.2384 -0.8972
vn -0.0000 0.2384 0.9712
vn -0.0000 0.2384 -0.9712
vn 0.3717 0.2384 -0.8972
vn -0.3716 0.2384 0.8972
vn 0.6867 0.2384 -0.6867
vn -0.4239 0.8885 -0.1756
vn 0.4222 0.8021 0.4222
vn 0.9712 0.2384 -0.0000
vn -0.7882 0.5216 -0.3265
vn -0.8532 0.5216 -0.0000
vn 0.7882 0.5216 0.3265
vn 0.6033 0.5216 0.6033
vn -0.6033 0.5216 -0.6033
vn 0.3265 0.5216 0.7882
vn -0.3265 0.5216 -0.7882
vn -0.0000 0.5216 0.8532
vn 0.3265 0.5216 -0.7882
vn -0.0000 0.5216 -0.8532
vn -0.3265 0.5216 0.7882
vn 0.6033 0.5216 -0.6033
vn -0.6033 0.5216 0.6033
vn 0.7882 0.5216 -0.3265
vn -0.7882 0.5216 0.3265
vn 0.8532 0.5216 -0.0000
vn 0.9239 -0.3827 -0.0000
vn 0.3827 0.9239 -0.0000
vn 0.7071 0.7071 -0.0000
vn -0.7071 0.7071 -0.0000
vn -0.3827 0.9239 -0.0000
vn 0.9239 0.3827 -0.0000
vn -0.9239 0.3827 -0.0000
vn -0.9239 -0.3827 -0.0000
vn -0.7071 -0.7071 -0.0000
vn -0.3827 -0.9239 -0.0000
vn 0.3827 -0.9239 -0.0000
vn 0.7071 -0.7071 -0.0000
vn -0.0000 0.7071 0.7071
vn -0.0000 -0.7071 -0.7071
vn -0.0000 -0.7071 0.7071
vn -0.0000 0.7071 -0.7071
vt 0.101587 0.502426
vt 0.169464 0.604012
vt 0.067878 0.671890
vt 0.237342 0.671890
vt 0.269287 0.663021
vt 0.271051 0.671890
vt 0.680150 0.563514
vt 0.674718 0.530453
vt 0.679806 0.530453
vt 0.667507 0.527498
vt 0.672190 0.559216
vt 0.667105 0.559261
vt 0.679806 0.596575
vt 0.675062 0.563514
vt 0.668654 0.502471
vt 0.672592 0.527453
vt 0.678826 0.624603
vt 0.674718 0.596575
vt 0.680400 0.594513
vt 0.686202 0.624102
vt 0.681112 0.624119
vt 0.686453 0.594513
vt 0.692255 0.624102
vt 0.687165 0.624119
vt 0.680150 0.560994
vt 0.685490 0.594496
vt 0.686453 0.528663
vt 0.691293 0.560976
vt 0.686202 0.560994
vt 0.691543 0.594496
vt 0.680400 0.528663
vt 0.685240 0.560976
vt 0.687165 0.502443
vt 0.691543 0.528645
vt 0.681112 0.502443
vt 0.685490 0.528645
vt 0.667507 0.592923
vt 0.673739 0.623316
vt 0.668654 0.623361
vt 0.673739 0.502426
vt 0.678826 0.502426
vt 0.672592 0.592878
vt 0.292584 0.644609
vt 0.297170 0.651471
vt 0.271051 0.502426
vt 0.297170 0.522845
vt 0.269287 0.511295
vt 0.206200 0.658991
vt 0.239107 0.663021
vt 0.302194 0.515325
vt 0.318510 0.544185
vt 0.169464 0.604012
vt 0.189883 0.630131
vt 0.182364 0.635155
vt 0.211224 0.651471
vt 0.338929 0.570304
vt 0.326029 0.539161
vt 0.169464 0.570304
vt 0.178334 0.602248
vt 0.338929 0.604012
vt 0.330060 0.572068
vt 0.189883 0.544185
vt 0.178334 0.572068
vt 0.318510 0.630131
vt 0.330060 0.602248
vt 0.182364 0.539161
vt 0.211224 0.522845
vt 0.302194 0.658991
vt 0.326029 0.635155
vt 0.237342 0.502426
vt 0.206200 0.515325
vt 0.239107 0.511295
vt 0.699252 0.600142
vt 0.697156 0.577726
vt 0.700035 0.577726
vt 0.267677 0.519390
vt 0.240717 0.519390
vt 0.267677 0.654926
vt 0.292584 0.529707
vt 0.240717 0.654926
vt 0.311648 0.548770
vt 0.196746 0.625546
vt 0.215809 0.644609
vt 0.321965 0.573678
vt 0.186428 0.600638
vt 0.186428 0.573678
vt 0.311648 0.625546
vt 0.321965 0.600638
vt 0.196746 0.548770
vt 0.215809 0.529707
vt 0.772187 0.527484
vt 0.775135 0.535529
vt 0.772381 0.535538
vt 0.700510 0.576073
vt 0.703961 0.599741
vt 0.701080 0.599751
vt 0.704161 0.576073
vt 0.707612 0.599741
vt 0.704731 0.599751
vt 0.700310 0.549264
vt 0.703392 0.576063
vt 0.704161 0.523406
vt 0.706843 0.549254
vt 0.703961 0.549264
vt 0.707043 0.576063
vt 0.700510 0.523406
vt 0.703192 0.549254
vt 0.704731 0.502436
vt 0.707043 0.523396
vt 0.701080 0.502436
vt 0.703392 0.523396
vt 0.692577 0.574795
vt 0.696372 0.599113
vt 0.693494 0.599139
vt 0.700035 0.524842
vt 0.696372 0.502426
vt 0.699252 0.502426
vt 0.692255 0.547871
vt 0.695455 0.574769
vt 0.700310 0.551284
vt 0.697156 0.524842
vt 0.692577 0.522468
vt 0.695133 0.547846
vt 0.697431 0.551284
vt 0.693494 0.502451
vt 0.695455 0.522442
vt 0.393639 0.589737
vt 0.349246 0.608582
vt 0.387154 0.583252
vt 0.338929 0.583674
vt 0.383645 0.574779
vt 0.338929 0.556714
vt 0.383645 0.565609
vt 0.349246 0.531806
vt 0.387154 0.557136
vt 0.368310 0.512743
vt 0.393639 0.550651
vt 0.402112 0.547142
vt 0.393217 0.502426
vt 0.420177 0.502426
vt 0.411283 0.547142
vt 0.419755 0.550651
vt 0.445085 0.512743
vt 0.464148 0.531806
vt 0.426240 0.557136
vt 0.429749 0.565609
vt 0.474465 0.556714
vt 0.474465 0.583674
vt 0.429749 0.574779
vt 0.464148 0.608582
vt 0.426240 0.583252
vt 0.445085 0.627645
vt 0.419755 0.589737
vt 0.420177 0.637962
vt 0.411282 0.593246
vt 0.393217 0.637962
vt 0.402112 0.593246
vt 0.368309 0.627645
vt 0.586362 0.505935
vt 0.586815 0.516450
vt 0.582332 0.511967
vt 0.775203 0.527484
vt 0.778151 0.535529
vt 0.775397 0.535538
vt 0.772119 0.518364
vt 0.774941 0.527474
vt 0.775203 0.509569
vt 0.777889 0.518355
vt 0.775135 0.518364
vt 0.777957 0.527474
vt 0.774941 0.509559
vt 0.774873 0.518355
vt 0.775397 0.502435
vt 0.777957 0.509559
vt 0.772381 0.502435
vt 0.772187 0.509569
vt 0.765943 0.527059
vt 0.769006 0.535315
vt 0.766255 0.535340
vt 0.772025 0.510051
vt 0.769006 0.502426
vt 0.771759 0.502426
vt 0.765834 0.517900
vt 0.768694 0.527034
vt 0.772119 0.519045
vt 0.769273 0.510051
vt 0.765943 0.509259
vt 0.768585 0.517876
vt 0.772025 0.528040
vt 0.769366 0.519045
vt 0.766255 0.502450
vt 0.768694 0.509235
vt 0.771759 0.535665
vt 0.769273 0.528040
vt 0.602477 0.565967
vt 0.604516 0.502426
vt 0.606733 0.502643
vt 0.550252 0.530063
vt 0.559793 0.534506
vt 0.553762 0.538536
vt 0.576474 0.509540
vt 0.577890 0.502426
vt 0.564276 0.538989
vt 0.560246 0.545021
vt 0.592847 0.512420
vt 0.589242 0.522308
vt 0.550252 0.520893
vt 0.557367 0.528648
vt 0.596357 0.520893
vt 0.589242 0.528648
vt 0.553762 0.512420
vt 0.557367 0.522308
vt 0.586362 0.545021
vt 0.576474 0.541415
vt 0.582332 0.538989
vt 0.596357 0.530063
vt 0.586815 0.534506
vt 0.560246 0.505935
vt 0.559793 0.516450
vt 0.592847 0.538536
vt 0.568719 0.502426
vt 0.564276 0.511967
vt 0.577890 0.548530
vt 0.570134 0.541415
vt 0.635893 0.573573
vt 0.639361 0.565947
vt 0.638314 0.573858
vt 0.656059 0.573896
vt 0.654090 0.565851
vt 0.656470 0.565935
vt 0.708707 0.505545
vt 0.718881 0.503521
vt 0.720905 0.513695
vt 0.644901 0.566343
vt 0.651448 0.503158
vt 0.647486 0.566430
vt 0.662083 0.565935
vt 0.664463 0.502426
vt 0.664463 0.565851
vt 0.642048 0.566173
vt 0.648864 0.503071
vt 0.659277 0.502538
vt 0.662083 0.502509
vt 0.646011 0.502901
vt 0.659277 0.565964
vt 0.637248 0.565698
vt 0.643323 0.502674
vt 0.656470 0.502509
vt 0.608054 0.566361
vt 0.614821 0.503154
vt 0.610565 0.566478
vt 0.626518 0.566361
vt 0.633286 0.503154
vt 0.629030 0.566478
vt 0.605213 0.566182
vt 0.612310 0.503037
vt 0.620941 0.565967
vt 0.627934 0.502858
vt 0.623678 0.566182
vt 0.630774 0.503037
vt 0.609469 0.502858
vt 0.618725 0.565750
vt 0.625197 0.502643
vt 0.641395 0.574118
vt 0.644665 0.574313
vt 0.662494 0.573896
vt 0.665221 0.573801
vt 0.647627 0.574413
vt 0.598906 0.573618
vt 0.601446 0.573867
vt 0.619911 0.573867
vt 0.604583 0.574113
vt 0.623048 0.574113
vt 0.626303 0.574319
vt 0.607839 0.574319
vt 0.629182 0.574453
vt 0.610717 0.574453
vt 0.568719 0.548530
vt 0.570134 0.509540
vt 0.659277 0.573930
vt 0.644837 0.581994
vt 0.640530 0.581738
vt 0.645722 0.588127
vt 0.639401 0.587750
vt 0.663513 0.581528
vt 0.571145 0.514620
vt 0.575464 0.514620
vt 0.648738 0.582126
vt 0.651448 0.588320
vt 0.596357 0.581036
vt 0.567154 0.516273
vt 0.617370 0.573618
vt 0.618166 0.581364
vt 0.614821 0.581036
vt 0.575464 0.536336
vt 0.599702 0.581364
vt 0.603832 0.581688
vt 0.596902 0.587130
vt 0.626584 0.581958
vt 0.622297 0.581688
vt 0.627722 0.588003
vt 0.621429 0.587605
vt 0.615366 0.587130
vt 0.608119 0.581958
vt 0.602965 0.587605
vt 0.630375 0.582135
vt 0.633286 0.588262
vt 0.611910 0.582135
vt 0.609257 0.588003
vt 0.653332 0.573801
vt 0.655040 0.581528
vt 0.651448 0.581402
vt 0.584162 0.523318
vt 0.633286 0.581020
vt 0.564099 0.531628
vt 0.562446 0.527638
vt 0.659277 0.587606
vt 0.653058 0.587541
vt 0.636474 0.581396
vt 0.633448 0.587248
vt 0.659277 0.581572
vt 0.434834 0.126821
vt 0.500000 0.200807
vt 0.468027 0.207254
vt 0.108386 0.464361
vt 0.065166 0.375605
vt 0.126498 0.437101
vt 0.293368 0.032129
vt 0.391614 0.038064
vt 0.373502 0.065325
vt 0.461940 0.108578
vt 0.200272 0.502426
vt 0.206632 0.470297
vt 0.200272 0.000181
vt 0.206632 0.032286
vt 0.299728 0.502245
vt 0.293368 0.470140
vt 0.108387 0.038579
vt 0.126498 0.065773
vt 0.391614 0.463847
vt 0.373502 0.436653
vt 0.038060 0.109348
vt 0.065166 0.127492
vt 0.461940 0.393077
vt 0.434834 0.374934
vt 0.000000 0.201716
vt 0.031973 0.208046
vt 0.468027 0.294380
vt -0.000000 0.301618
vt 0.031973 0.295172
vt 0.500000 0.300710
vt 0.038060 0.393847
vt 0.793368 0.032128
vt 0.700272 0.000181
vt 0.799728 -0.000000
vt 0.706632 0.470297
vt 0.608386 0.464361
vt 0.626498 0.437101
vt 0.873502 0.065324
vt 0.961940 0.108578
vt 0.934834 0.126820
vt 0.891614 0.038064
vt 0.538060 0.393847
vt 0.565166 0.375605
vt 1.000000 0.200807
vt 0.968027 0.207254
vt 0.500000 0.301618
vt 0.531973 0.295172
vt 1.000000 0.300710
vt 0.968027 0.294380
vt 0.500000 0.201716
vt 0.531973 0.208046
vt 0.961940 0.393077
vt 0.934834 0.374934
vt 0.538060 0.109348
vt 0.565166 0.127492
vt 0.891614 0.463847
vt 0.873502 0.436652
vt 0.626498 0.065773
vt 0.608387 0.038579
vt 0.799728 0.502245
vt 0.793368 0.470140
vt 0.706632 0.032286
vt 0.700272 0.502426
vt 0.543306 0.572249
vt 0.550252 0.656710
vt 0.543306 0.656710
vt 0.515520 0.585506
vt 0.508573 0.502426
vt 0.515520 0.502426
vt 0.515520 0.864588
vt 0.508573 0.781507
vt 0.515520 0.781507
vt 0.543306 0.742949
vt 0.550252 0.742949
vt 0.515520 0.683507
vt 0.508573 0.585506
vt 0.484165 0.588742
vt 0.485342 0.502426
vt 0.492215 0.502487
vt 0.550252 0.817838
vt 0.543306 0.817838
vt 0.481338 0.687731
vt 0.477292 0.588681
vt 0.529413 0.574881
vt 0.536359 0.502426
vt 0.536359 0.574881
vt 0.484165 0.784383
vt 0.474465 0.687670
vt 0.536359 0.660348
vt 0.529413 0.660348
vt 0.485342 0.863923
vt 0.477292 0.784322
vt 0.529413 0.745815
vt 0.536359 0.745815
vt 0.515520 0.781507
vt 0.522466 0.864588
vt 0.515520 0.864588
vt 0.536359 0.818270
vt 0.529413 0.818270
vt 0.515520 0.683507
vt 0.522466 0.781507
vt 0.499088 0.817751
vt 0.499235 0.742466
vt 0.506108 0.742527
vt 0.515520 0.585506
vt 0.522466 0.683507
vt 0.501700 0.656137
vt 0.508573 0.656198
vt 0.515520 0.502426
vt 0.522466 0.585506
vt 0.499235 0.571846
vt 0.506108 0.571907
vt 0.522466 0.784029
vt 0.529413 0.864092
vt 0.522466 0.864092
vt 0.492215 0.502426
vt 0.499088 0.502487
vt 0.543306 0.660348
vt 0.543306 0.574881
vt 0.522466 0.687182
vt 0.529413 0.784029
vt 0.543306 0.818270
vt 0.536359 0.745815
vt 0.543306 0.745815
vt 0.543306 0.502426
vt 0.522466 0.588297
vt 0.529413 0.687182
vt 0.543306 0.502426
vt 0.550252 0.572249
vt 0.522466 0.502426
vt 0.529413 0.588297
vt 0.508573 0.683507
vt 0.732962 0.533904
vt 0.730222 0.502426
vt 0.732962 0.502426
vt 0.752098 0.533775
vt 0.749402 0.502538
vt 0.752098 0.502426
vt 0.722000 0.502426
vt 0.724741 0.533904
vt 0.722000 0.533904
vt 0.724741 0.502426
vt 0.727481 0.533904
vt 0.743925 0.502538
vt 0.746620 0.533775
vt 0.743925 0.533887
vt 0.746620 0.502426
vt 0.749402 0.533868
vt 0.790367 0.509586
vt 0.785307 0.507489
vt 0.787397 0.502426
vt 0.730222 0.533904
vt 0.727481 0.502426
vt 0.797461 0.509588
vt 0.792460 0.507490
vt 0.794532 0.502426
vt 0.754879 0.533868
vt 0.754879 0.502519
vt 0.763052 0.502426
vt 0.765834 0.533868
vt 0.763052 0.533775
vt 0.760357 0.502538
vt 0.760357 0.533887
vt 0.735703 0.502426
vt 0.738444 0.533904
vt 0.735703 0.533904
vt 0.732962 0.502426
vt 0.732962 0.533904
vt 0.757575 0.533775
vt 0.754879 0.502538
vt 0.757575 0.502426
vt 0.760357 0.533868
vt 0.760357 0.502519
vt 0.741184 0.533904
vt 0.738444 0.502426
vt 0.741184 0.502426
vt 0.743925 0.533904
vt 0.743925 0.502426
vt 0.806606 0.507490
vt 0.801604 0.509587
vt 0.799533 0.504523
vt 0.780246 0.509586
vt 0.778151 0.504521
vt 0.783209 0.502429
vt 0.036735 0.658990
vt 0.012900 0.635155
vt -0.000000 0.604012
vt -0.000000 0.570304
vt 0.012900 0.539161
vt 0.036735 0.515325
vt 0.067878 0.502426
vt 0.132729 0.515325
vt 0.156565 0.539161
vt 0.156565 0.635155
vt 0.132729 0.658990
vt 0.101587 0.671890
vt 0.673739 0.502426
vt 0.673739 0.624603
vt 0.692255 0.502426
vt 0.686202 0.502426
vt 0.696372 0.600142
vt 0.707612 0.502426
vt 0.703961 0.502426
vt 0.778151 0.502426
vt 0.775135 0.502426
vt 0.769006 0.502426
vt 0.769006 0.535665
vt 0.600260 0.565750
vt 0.718881 0.515718
vt 0.716237 0.516814
vt 0.713375 0.516814
vt 0.710731 0.515718
vt 0.708707 0.513695
vt 0.707612 0.511051
vt 0.707612 0.508189
vt 0.710731 0.503521
vt 0.713375 0.502426
vt 0.716237 0.502426
vt 0.720905 0.505545
vt 0.722000 0.508189
vt 0.722000 0.511051
vt 0.641211 0.502426
vt 0.654090 0.502426
vt 0.622981 0.502426
vt 0.667105 0.581402
vt 0.579455 0.534683
vt 0.614821 0.588262
vt 0.582509 0.519327
vt 0.665495 0.587541
vt 0.299728 0.000000
vt 0.508573 0.864588
vt 0.529413 0.502426
vt 0.492215 0.863984
vt 0.492215 0.817690
vt 0.522466 0.502426
vt 0.536359 0.818270
vt 0.550252 0.502426
vt 0.529413 0.502426
vt 0.749402 0.533887
vt 0.727481 0.502426
vt 0.749402 0.502519
vt 0.790360 0.502426
vt 0.792457 0.504523
vt 0.792460 0.507489
vt 0.787404 0.509586
vt 0.785304 0.504523
vt 0.727481 0.533904
vt 0.797461 0.502426
vt 0.799533 0.504524
vt 0.799533 0.507490
vt 0.794532 0.509587
vt 0.792460 0.504523
vt 0.765834 0.502519
vt 0.738444 0.502426
vt 0.754879 0.533887
vt 0.738444 0.533904
vt 0.801604 0.502426
vt 0.804534 0.502426
vt 0.806606 0.504524
vt 0.804534 0.509587
vt 0.799533 0.507490
vt 0.785304 0.504528
vt 0.785304 0.507494
vt 0.783209 0.509589
vt 0.778151 0.507487
vt 0.780246 0.502426
s 1
f 11/1/1 7/2/1 3/3/1
f 31/4/2 46/5/3 30/6/4
f 13/7/5 28/8/6 12/9/6
f 6/10/7 21/11/8 5/12/8
f 14/13/9 29/14/5 13/7/5
f 7/15/10 22/16/7 6/10/7
f 15/17/11 30/18/9 14/13/9
f 8/19/12 23/20/10 7/21/10
f 16/22/13 31/23/11 15/24/11
f 9/25/14 24/26/12 8/19/12
f 2/27/15 18/28/16 1/29/16
f 1/29/16 32/30/13 16/22/13
f 10/31/17 25/32/14 9/25/14
f 3/33/18 17/34/15 2/27/15
f 11/35/19 26/36/17 10/31/17
f 4/37/20 19/38/18 3/39/18
f 12/9/6 27/40/19 11/41/19
f 5/12/8 20/42/20 4/37/20
f 46/5/3 61/43/21 45/44/22
f 23/45/23 40/46/24 39/47/25
f 32/48/26 47/49/27 31/4/2
f 24/50/28 41/51/29 40/46/24
f 17/52/30 34/53/31 18/54/32
f 32/48/26 34/53/31 48/55/33
f 26/56/34 41/51/29 25/57/35
f 19/58/36 33/59/37 17/52/30
f 27/60/38 42/61/39 26/56/34
f 19/58/36 36/62/40 35/63/41
f 27/60/38 44/64/42 43/65/43
f 20/66/44 37/67/45 36/62/40
f 29/68/46 44/64/42 28/69/47
f 22/70/48 37/67/45 21/71/49
f 29/68/46 46/5/3 45/44/22
f 23/45/23 38/72/50 22/70/48
f 63/73/11 94/74/9 62/75/9
f 38/72/50 55/76/51 54/77/52
f 47/49/27 62/78/53 46/5/3
f 39/47/25 56/79/54 55/76/51
f 48/55/33 63/80/55 47/49/27
f 40/46/24 57/81/56 56/79/54
f 33/59/37 50/82/57 34/53/31
f 34/53/31 64/83/58 48/55/33
f 41/51/29 58/84/59 57/81/56
f 35/63/41 49/85/60 33/59/37
f 43/65/43 58/84/59 42/61/39
f 36/62/40 51/86/61 35/63/41
f 43/65/43 60/87/62 59/88/63
f 37/67/45 52/89/64 36/62/40
f 45/44/22 60/87/62 44/64/42
f 37/67/45 54/77/52 53/90/65
f 72/91/12 103/92/10 71/93/10
f 56/94/12 87/95/10 55/96/10
f 64/97/13 95/98/11 63/99/11
f 57/100/14 88/101/12 56/94/12
f 49/102/15 82/103/16 50/104/16
f 50/104/16 96/105/13 64/97/13
f 58/106/17 89/107/14 57/100/14
f 51/108/18 81/109/15 49/102/15
f 59/110/19 90/111/17 58/106/17
f 52/112/20 83/113/18 51/114/18
f 60/115/6 91/116/19 59/117/19
f 53/118/8 84/119/20 52/112/20
f 61/120/5 92/121/6 60/115/6
f 54/122/7 85/123/8 53/118/8
f 62/75/9 93/124/5 61/120/5
f 55/125/10 86/126/7 54/122/7
f 66/127/66 81/128/66 65/129/66
f 65/129/66 83/130/66 67/131/66
f 67/131/66 84/132/66 68/133/66
f 68/133/66 85/134/66 69/135/66
f 69/135/66 86/136/66 70/137/66
f 71/138/66 86/136/66 87/139/66
f 71/138/66 88/140/66 72/141/66
f 73/142/66 88/140/66 89/143/66
f 73/142/66 90/144/66 74/145/66
f 75/146/66 90/144/66 91/147/66
f 75/146/66 92/148/66 76/149/66
f 76/149/66 93/150/66 77/151/66
f 77/151/66 94/152/66 78/153/66
f 78/153/66 95/154/66 79/155/66
f 79/155/66 96/156/66 80/157/66
f 66/127/66 96/156/66 82/158/66
f 109/159/67 158/160/68 146/161/69
f 80/162/13 111/163/11 79/164/11
f 73/165/14 104/166/12 72/91/12
f 65/167/15 98/168/16 66/169/16
f 66/169/16 112/170/13 80/162/13
f 73/165/14 106/171/17 105/172/14
f 67/173/18 97/174/15 65/167/15
f 75/175/19 106/171/17 74/176/17
f 68/177/20 99/178/18 67/179/18
f 76/180/6 107/181/19 75/182/19
f 69/183/8 100/184/20 68/177/20
f 77/185/5 108/186/6 76/180/6
f 70/187/7 101/188/8 69/183/8
f 78/189/9 109/190/5 77/185/5
f 71/191/10 102/192/7 70/187/7
f 79/193/11 110/194/9 78/189/9
f 122/195/70 139/196/19 138/197/17
f 103/198/71 152/199/72 102/200/73
f 109/159/67 148/201/74 108/202/75
f 102/200/73 154/203/76 101/204/77
f 110/205/78 164/206/79 158/160/68
f 104/207/80 161/208/81 103/198/71
f 111/209/82 170/210/83 164/206/79
f 105/211/84 167/212/85 104/207/80
f 97/213/86 185/214/87 176/215/88
f 112/216/89 178/217/90 170/210/83
f 106/218/91 173/219/92 105/211/84
f 98/220/93 176/215/88 178/217/90
f 107/221/94 182/222/95 106/218/91
f 99/223/96 191/224/97 185/214/87
f 160/225/98 118/226/99 151/227/100
f 157/228/101 127/229/102 126/230/103
f 137/231/66 141/232/66 130/233/66
f 116/234/104 131/235/18 115/236/105
f 124/237/106 139/238/19 123/239/107
f 117/240/108 132/241/20 116/234/104
f 124/237/106 141/242/5 140/243/6
f 118/226/99 133/244/8 117/240/108
f 126/230/103 141/242/5 125/245/109
f 119/246/110 134/247/7 118/226/99
f 127/229/102 142/248/9 126/230/103
f 120/249/111 135/250/10 119/251/110
f 128/252/112 143/253/11 127/254/102
f 121/255/113 136/256/12 120/249/111
f 113/257/114 130/258/16 114/259/115
f 114/259/115 144/260/13 128/252/112
f 122/195/70 137/261/14 121/255/113
f 115/262/105 129/263/15 113/257/114
f 155/264/116 116/234/104 190/265/117
f 149/266/118 123/239/107 187/267/119
f 184/268/120 116/234/104 115/236/105
f 187/269/119 122/195/70 181/270/121
f 175/271/122 115/262/105 113/257/114
f 181/270/121 121/255/113 172/272/123
f 179/273/124 113/257/114 114/259/115
f 169/274/125 114/259/115 128/252/112
f 172/272/123 120/249/111 166/275/126
f 163/276/127 128/252/112 127/254/102
f 166/275/126 119/251/110 160/277/98
f 100/278/128 154/203/76 191/224/97
f 108/202/75 188/279/129 107/221/94
f 151/227/100 117/240/108 155/264/116
f 145/280/130 124/237/106 149/266/118
f 155/264/116 192/281/131 156/282/132
f 156/282/132 191/283/97 154/284/76
f 187/267/119 150/285/133 149/266/118
f 189/286/134 148/201/74 150/287/133
f 190/265/117 186/288/135 192/281/131
f 192/281/131 185/289/87 191/283/97
f 181/270/121 189/290/134 187/269/119
f 183/291/136 188/279/129 189/286/134
f 184/292/120 177/293/137 186/294/135
f 186/295/135 176/215/88 185/214/87
f 172/272/123 183/296/136 181/270/121
f 174/297/138 182/298/95 183/296/136
f 179/273/124 171/299/139 180/300/140
f 180/300/140 170/301/83 178/302/90
f 175/271/122 180/300/140 177/293/137
f 177/293/137 178/302/90 176/303/88
f 166/275/126 174/297/138 172/272/123
f 168/304/141 173/305/92 174/297/138
f 169/274/125 165/306/142 171/299/139
f 171/299/139 164/307/79 170/301/83
f 160/277/98 168/304/141 166/275/126
f 162/308/143 167/309/85 168/304/141
f 163/310/127 159/311/144 165/312/142
f 165/313/142 158/160/68 164/206/79
f 151/227/100 162/314/143 160/225/98
f 153/315/145 161/208/81 162/316/143
f 145/280/130 159/311/144 157/228/101
f 159/311/144 146/317/69 158/318/68
f 155/264/116 153/319/145 151/227/100
f 156/282/132 152/320/72 153/319/145
f 149/266/118 147/321/146 145/280/130
f 150/285/133 146/317/69 147/321/146
f 157/228/101 125/245/109 145/280/130
f 208/322/16 223/323/16 207/324/16
f 217/325/16 200/326/16 201/327/16
f 194/328/16 209/329/16 193/330/16
f 193/330/16 224/331/16 208/322/16
f 218/332/16 201/327/16 202/333/16
f 211/334/16 194/328/16 195/335/16
f 219/336/16 202/333/16 203/337/16
f 212/338/16 195/335/16 196/339/16
f 220/340/16 203/337/16 204/341/16
f 213/342/16 196/339/16 197/343/16
f 221/344/16 204/341/16 205/345/16
f 214/346/16 197/343/16 198/347/16
f 206/348/16 221/344/16 205/345/16
f 215/349/16 198/347/16 199/350/16
f 207/324/16 222/351/16 206/348/16
f 216/352/16 199/350/16 200/326/16
f 240/353/14 255/354/14 256/355/14
f 232/356/14 249/357/14 233/358/14
f 225/359/14 242/360/14 226/361/14
f 225/359/14 256/355/14 241/362/14
f 233/358/14 250/363/14 234/364/14
f 226/361/14 243/365/14 227/366/14
f 234/364/14 251/367/14 235/368/14
f 227/366/14 244/369/14 228/370/14
f 235/368/14 252/371/14 236/372/14
f 228/370/14 245/373/14 229/374/14
f 236/372/14 253/375/14 237/376/14
f 229/374/14 246/377/14 230/378/14
f 238/379/14 253/375/14 254/380/14
f 230/378/14 247/381/14 231/382/14
f 239/383/14 254/380/14 255/354/14
f 231/382/14 248/384/14 232/356/14
f 196/385/147 229/386/5 197/387/5
f 224/388/148 255/389/149 223/390/149
f 211/391/150 242/392/151 210/393/151
f 198/394/152 229/386/5 230/395/152
f 209/396/66 256/397/148 224/388/148
f 212/398/153 243/399/150 211/400/150
f 198/394/152 231/401/149 199/402/149
f 213/403/8 244/404/153 212/398/153
f 200/405/148 231/406/149 232/407/148
f 214/408/154 245/409/8 213/403/8
f 200/405/148 233/410/66 201/411/66
f 214/408/154 247/412/155 246/413/154
f 202/414/151 233/410/66 234/415/151
f 216/416/156 247/417/155 215/418/155
f 202/414/151 235/419/150 203/420/150
f 217/421/1 248/422/156 216/416/156
f 203/423/150 236/424/153 204/425/153
f 218/426/157 249/427/1 217/421/1
f 204/425/153 237/428/8 205/429/8
f 219/430/158 250/431/157 218/426/157
f 205/429/8 238/432/154 206/433/154
f 220/434/147 251/435/158 219/436/158
f 206/433/154 239/437/155 207/438/155
f 193/439/1 226/407/157 194/440/157
f 221/441/5 252/442/147 220/434/147
f 207/443/155 240/444/156 208/445/156
f 195/446/158 226/407/157 227/406/158
f 222/447/152 253/448/5 221/441/5
f 193/439/1 240/444/156 225/410/1
f 195/449/158 228/450/147 196/385/147
f 223/451/149 254/452/152 222/447/152
f 210/393/151 241/453/66 209/396/66
f 287/454/159 257/455/66 271/456/159
f 277/457/16 263/458/160 261/459/16
f 279/460/160 265/461/1 263/462/160
f 281/463/1 267/464/161 265/461/1
f 283/465/161 269/466/14 267/467/161
f 285/468/14 271/469/159 269/466/14
f 270/470/5 266/471/5 262/472/5
f 274/473/66 259/474/162 257/455/66
f 263/475/8 267/476/8 271/477/8
f 275/478/162 261/459/16 259/479/162
f 270/480/14 288/481/159 286/482/14
f 268/483/161 286/482/14 284/484/161
f 266/485/1 284/486/161 282/487/1
f 264/488/160 282/487/1 280/489/160
f 262/490/16 280/491/160 278/492/16
f 260/493/162 278/492/16 276/494/162
f 258/495/66 276/496/162 273/497/66
f 272/498/159 273/497/66 288/499/159
f 278/500/8 282/501/8 286/502/8
f 283/503/5 279/504/5 275/505/5
f 3/3/1 2/506/1 1/507/1
f 1/507/1 16/508/1 15/509/1
f 15/509/1 14/510/1 13/511/1
f 13/511/1 12/512/1 11/1/1
f 11/1/1 10/513/1 9/514/1
f 9/514/1 8/58/1 7/2/1
f 7/2/1 6/515/1 5/516/1
f 5/516/1 4/517/1 3/3/1
f 3/3/1 1/507/1 15/509/1
f 15/509/1 13/511/1 11/1/1
f 11/1/1 9/514/1 7/2/1
f 7/2/1 5/516/1 3/3/1
f 3/3/1 15/509/1 11/1/1
f 31/4/2 47/49/27 46/5/3
f 13/7/5 29/14/5 28/8/6
f 6/10/7 22/16/7 21/11/8
f 14/13/9 30/18/9 29/14/5
f 7/15/10 23/518/10 22/16/7
f 15/17/11 31/519/11 30/18/9
f 8/19/12 24/26/12 23/20/10
f 16/22/13 32/30/13 31/23/11
f 9/25/14 25/32/14 24/26/12
f 2/27/15 17/34/15 18/28/16
f 1/29/16 18/28/16 32/30/13
f 10/31/17 26/36/17 25/32/14
f 3/33/18 19/520/18 17/34/15
f 11/35/19 27/521/19 26/36/17
f 4/37/20 20/42/20 19/38/18
f 12/9/6 28/8/6 27/40/19
f 5/12/8 21/11/8 20/42/20
f 46/5/3 62/78/53 61/43/21
f 23/45/23 24/50/28 40/46/24
f 32/48/26 48/55/33 47/49/27
f 24/50/28 25/57/35 41/51/29
f 17/52/30 33/59/37 34/53/31
f 32/48/26 18/54/32 34/53/31
f 26/56/34 42/61/39 41/51/29
f 19/58/36 35/63/41 33/59/37
f 27/60/38 43/65/43 42/61/39
f 19/58/36 20/66/44 36/62/40
f 27/60/38 28/69/47 44/64/42
f 20/66/44 21/71/49 37/67/45
f 29/68/46 45/44/22 44/64/42
f 22/70/48 38/72/50 37/67/45
f 29/68/46 30/6/4 46/5/3
f 23/45/23 39/47/25 38/72/50
f 63/73/11 95/522/11 94/74/9
f 38/72/50 39/47/25 55/76/51
f 47/49/27 63/80/55 62/78/53
f 39/47/25 40/46/24 56/79/54
f 48/55/33 64/83/58 63/80/55
f 40/46/24 41/51/29 57/81/56
f 33/59/37 49/85/60 50/82/57
f 34/53/31 50/82/57 64/83/58
f 41/51/29 42/61/39 58/84/59
f 35/63/41 51/86/61 49/85/60
f 43/65/43 59/88/63 58/84/59
f 36/62/40 52/89/64 51/86/61
f 43/65/43 44/64/42 60/87/62
f 37/67/45 53/90/65 52/89/64
f 45/44/22 61/43/21 60/87/62
f 37/67/45 38/72/50 54/77/52
f 72/91/12 104/166/12 103/92/10
f 56/94/12 88/101/12 87/95/10
f 64/97/13 96/105/13 95/98/11
f 57/100/14 89/107/14 88/101/12
f 49/102/15 81/109/15 82/103/16
f 50/104/16 82/103/16 96/105/13
f 58/106/17 90/111/17 89/107/14
f 51/108/18 83/523/18 81/109/15
f 59/110/19 91/524/19 90/111/17
f 52/112/20 84/119/20 83/113/18
f 60/115/6 92/121/6 91/116/19
f 53/118/8 85/123/8 84/119/20
f 61/120/5 93/124/5 92/121/6
f 54/122/7 86/126/7 85/123/8
f 62/75/9 94/74/9 93/124/5
f 55/125/10 87/116/10 86/126/7
f 66/127/66 82/158/66 81/128/66
f 65/129/66 81/128/66 83/130/66
f 67/131/66 83/130/66 84/132/66
f 68/133/66 84/132/66 85/134/66
f 69/135/66 85/134/66 86/136/66
f 71/138/66 70/137/66 86/136/66
f 71/138/66 87/139/66 88/140/66
f 73/142/66 72/141/66 88/140/66
f 73/142/66 89/143/66 90/144/66
f 75/146/66 74/145/66 90/144/66
f 75/146/66 91/147/66 92/148/66
f 76/149/66 92/148/66 93/150/66
f 77/151/66 93/150/66 94/152/66
f 78/153/66 94/152/66 95/154/66
f 79/155/66 95/154/66 96/156/66
f 66/127/66 80/157/66 96/156/66
f 109/159/67 110/205/78 158/160/68
f 80/162/13 112/170/13 111/163/11
f 73/165/14 105/172/14 104/166/12
f 65/167/15 97/174/15 98/168/16
f 66/169/16 98/168/16 112/170/13
f 73/165/14 74/176/17 106/171/17
f 67/173/18 99/525/18 97/174/15
f 75/175/19 107/526/19 106/171/17
f 68/177/20 100/184/20 99/178/18
f 76/180/6 108/186/6 107/181/19
f 69/183/8 101/188/8 100/184/20
f 77/185/5 109/190/5 108/186/6
f 70/187/7 102/192/7 101/188/8
f 78/189/9 110/194/9 109/190/5
f 71/191/10 103/527/10 102/192/7
f 79/193/11 111/528/11 110/194/9
f 122/195/70 123/529/107 139/196/19
f 103/198/71 161/208/81 152/199/72
f 109/159/67 146/161/69 148/201/74
f 102/200/73 152/199/72 154/203/76
f 110/205/78 111/209/82 164/206/79
f 104/207/80 167/212/85 161/208/81
f 111/209/82 112/216/89 170/210/83
f 105/211/84 173/219/92 167/212/85
f 97/213/86 99/223/96 185/214/87
f 112/216/89 98/220/93 178/217/90
f 106/218/91 182/222/95 173/219/92
f 98/220/93 97/213/86 176/215/88
f 107/221/94 188/279/129 182/222/95
f 99/223/96 100/278/128 191/224/97
f 160/225/98 119/246/110 118/226/99
f 157/228/101 163/310/127 127/229/102
f 130/233/66 129/530/66 131/531/66
f 131/531/66 132/532/66 133/533/66
f 133/533/66 134/534/66 135/535/66
f 135/535/66 136/536/66 137/231/66
f 137/231/66 138/537/66 139/538/66
f 139/538/66 140/539/66 141/232/66
f 141/232/66 142/540/66 143/541/66
f 143/541/66 144/542/66 130/233/66
f 130/233/66 131/531/66 133/533/66
f 133/533/66 135/535/66 137/231/66
f 137/231/66 139/538/66 141/232/66
f 141/232/66 143/541/66 130/233/66
f 130/233/66 133/533/66 137/231/66
f 116/234/104 132/241/20 131/235/18
f 124/237/106 140/243/6 139/238/19
f 117/240/108 133/244/8 132/241/20
f 124/237/106 125/245/109 141/242/5
f 118/226/99 134/247/7 133/244/8
f 126/230/103 142/248/9 141/242/5
f 119/246/110 135/543/10 134/247/7
f 127/229/102 143/544/11 142/248/9
f 120/249/111 136/256/12 135/250/10
f 128/252/112 144/260/13 143/253/11
f 121/255/113 137/261/14 136/256/12
f 113/257/114 129/263/15 130/258/16
f 114/259/115 130/258/16 144/260/13
f 122/195/70 138/197/17 137/261/14
f 115/262/105 131/545/18 129/263/15
f 155/264/116 117/240/108 116/234/104
f 149/266/118 124/237/106 123/239/107
f 184/268/120 190/265/117 116/234/104
f 187/269/119 123/529/107 122/195/70
f 175/271/122 184/292/120 115/262/105
f 181/270/121 122/195/70 121/255/113
f 179/273/124 175/271/122 113/257/114
f 169/274/125 179/273/124 114/259/115
f 172/272/123 121/255/113 120/249/111
f 163/276/127 169/274/125 128/252/112
f 166/275/126 120/249/111 119/251/110
f 100/278/128 101/204/77 154/203/76
f 108/202/75 148/201/74 188/279/129
f 151/227/100 118/226/99 117/240/108
f 145/280/130 125/245/109 124/237/106
f 155/264/116 190/265/117 192/281/131
f 156/282/132 192/281/131 191/283/97
f 187/267/119 189/546/134 150/285/133
f 189/286/134 188/279/129 148/201/74
f 190/265/117 184/268/120 186/288/135
f 192/281/131 186/288/135 185/289/87
f 181/270/121 183/296/136 189/290/134
f 183/291/136 182/222/95 188/279/129
f 184/292/120 175/271/122 177/293/137
f 186/295/135 177/547/137 176/215/88
f 172/272/123 174/297/138 183/296/136
f 174/297/138 173/305/92 182/298/95
f 179/273/124 169/274/125 171/299/139
f 180/300/140 171/299/139 170/301/83
f 175/271/122 179/273/124 180/300/140
f 177/293/137 180/300/140 178/302/90
f 166/275/126 168/304/141 174/297/138
f 168/304/141 167/309/85 173/305/92
f 169/274/125 163/276/127 165/306/142
f 171/299/139 165/306/142 164/307/79
f 160/277/98 162/308/143 168/304/141
f 162/308/143 161/548/81 167/309/85
f 163/310/127 157/228/101 159/311/144
f 165/313/142 159/549/144 158/160/68
f 151/227/100 153/319/145 162/314/143
f 153/315/145 152/199/72 161/208/81
f 145/280/130 147/321/146 159/311/144
f 159/311/144 147/321/146 146/317/69
f 155/264/116 156/282/132 153/319/145
f 156/282/132 154/284/76 152/320/72
f 149/266/118 150/285/133 147/321/146
f 150/285/133 148/550/74 146/317/69
f 157/228/101 126/230/103 125/245/109
f 208/322/16 224/331/16 223/323/16
f 217/325/16 216/352/16 200/326/16
f 194/328/16 210/551/16 209/329/16
f 193/330/16 209/329/16 224/331/16
f 218/332/16 217/325/16 201/327/16
f 211/334/16 210/551/16 194/328/16
f 219/336/16 218/332/16 202/333/16
f 212/338/16 211/334/16 195/335/16
f 220/340/16 219/336/16 203/337/16
f 213/342/16 212/338/16 196/339/16
f 221/344/16 220/340/16 204/341/16
f 214/346/16 213/342/16 197/343/16
f 206/348/16 222/351/16 221/344/16
f 215/349/16 214/346/16 198/347/16
f 207/324/16 223/323/16 222/351/16
f 216/352/16 215/349/16 199/350/16
f 240/353/14 239/383/14 255/354/14
f 232/356/14 248/384/14 249/357/14
f 225/359/14 241/362/14 242/360/14
f 225/359/14 240/353/14 256/355/14
f 233/358/14 249/357/14 250/363/14
f 226/361/14 242/360/14 243/365/14
f 234/364/14 250/363/14 251/367/14
f 227/366/14 243/365/14 244/369/14
f 235/368/14 251/367/14 252/371/14
f 228/370/14 244/369/14 245/373/14
f 236/372/14 252/371/14 253/375/14
f 229/374/14 245/373/14 246/377/14
f 238/379/14 237/376/14 253/375/14
f 230/378/14 246/377/14 247/381/14
f 239/383/14 238/379/14 254/380/14
f 231/382/14 247/381/14 248/384/14
f 196/385/147 228/450/147 229/386/5
f 224/388/148 256/397/148 255/389/149
f 211/391/150 243/552/150 242/392/151
f 198/394/152 197/387/5 229/386/5
f 209/396/66 241/453/66 256/397/148
f 212/398/153 244/404/153 243/399/150
f 198/394/152 230/395/152 231/401/149
f 213/403/8 245/409/8 244/404/153
f 200/405/148 199/553/149 231/406/149
f 214/408/154 246/413/154 245/409/8
f 200/405/148 232/407/148 233/410/66
f 214/408/154 215/554/155 247/412/155
f 202/414/151 201/411/66 233/410/66
f 216/416/156 248/422/156 247/417/155
f 202/414/151 234/415/151 235/419/150
f 217/421/1 249/427/1 248/422/156
f 203/423/150 235/555/150 236/424/153
f 218/426/157 250/431/157 249/427/1
f 204/425/153 236/424/153 237/428/8
f 219/430/158 251/556/158 250/431/157
f 205/429/8 237/428/8 238/432/154
f 220/434/147 252/442/147 251/435/158
f 206/433/154 238/432/154 239/437/155
f 193/439/1 225/410/1 226/407/157
f 221/441/5 253/448/5 252/442/147
f 207/443/155 239/557/155 240/444/156
f 195/446/158 194/440/157 226/407/157
f 222/447/152 254/452/152 253/448/5
f 193/439/1 208/445/156 240/444/156
f 195/449/158 227/558/158 228/450/147
f 223/451/149 255/559/149 254/452/152
f 210/393/151 242/392/151 241/453/66
f 287/454/159 274/473/66 257/455/66
f 277/457/16 279/560/160 263/458/160
f 279/460/160 281/463/1 265/461/1
f 281/463/1 283/561/161 267/464/161
f 283/465/161 285/468/14 269/466/14
f 285/468/14 287/562/159 271/469/159
f 262/472/5 260/563/5 258/564/5
f 258/564/5 272/565/5 270/470/5
f 270/470/5 268/566/5 266/471/5
f 266/471/5 264/567/5 262/472/5
f 262/472/5 258/564/5 270/470/5
f 274/473/66 275/568/162 259/474/162
f 271/477/8 257/569/8 259/570/8
f 259/570/8 261/571/8 263/475/8
f 263/475/8 265/572/8 267/476/8
f 267/476/8 269/573/8 271/477/8
f 271/477/8 259/570/8 263/475/8
f 275/478/162 277/457/16 261/459/16
f 270/480/14 272/574/159 288/481/159
f 268/483/161 270/480/14 286/482/14
f 266/485/1 268/575/161 284/486/161
f 264/488/160 266/485/1 282/487/1
f 262/490/16 264/576/160 280/491/160
f 260/493/162 262/490/16 278/492/16
f 258/495/66 260/577/162 276/496/162
f 272/498/159 258/495/66 273/497/66
f 286/502/8 288/578/8 273/579/8
f 273/579/8 276/580/8 278/500/8
f 278/500/8 280/581/8 282/501/8
f 282/501/8 284/582/8 286/502/8
f 286/502/8 273/579/8 278/500/8
f 275/505/5 274/583/5 287/584/5
f 287/584/5 285/585/5 283/503/5
f 283/503/5 281/586/5 279/504/5
f 279/504/5 277/587/5 275/505/5
f 275/505/5 287/584/5 283/503/5
