# Blender 4.5.0 Release Candidate
# www.blender.org
o Icosphere.003
v -0.000001 0.126403 0.040825
v -0.000001 0.133462 0.040825
v -0.020413 0.126403 0.035355
v -0.020413 0.133462 0.035355
v -0.035356 0.126403 0.020412
v -0.035356 0.133462 0.020412
v -0.040826 0.126403 0.000000
v -0.040826 0.133462 0.000000
v -0.035356 0.126403 -0.020412
v -0.035356 0.133462 -0.020412
v -0.020413 0.126403 -0.035355
v -0.020413 0.133462 -0.035355
v -0.000001 0.126403 -0.040825
v -0.000001 0.133462 -0.040825
v 0.020411 0.126403 -0.035355
v 0.020411 0.133462 -0.035355
v 0.035354 0.126403 -0.020412
v 0.035354 0.133462 -0.020412
v 0.040823 0.126403 -0.000000
v 0.040823 0.133462 -0.000000
v 0.035354 0.126403 0.020412
v 0.035354 0.133462 0.020412
v 0.020411 0.126403 0.035355
v 0.020411 0.133462 0.035355
v 0.046305 0.133462 -0.009342
v 0.046305 0.126403 -0.009342
v 0.046305 0.126403 -0.000000
v 0.046305 0.133462 -0.000000
v 0.046305 0.126403 0.009342
v 0.046305 0.133462 0.009342
v 1.753398 0.133462 -0.009343
v 1.753398 0.126403 -0.009343
v 1.753398 0.126403 -0.000000
v 1.753398 0.133462 -0.000000
v 1.753398 0.126403 0.009342
v 1.753398 0.133462 0.009342
v 1.791554 0.126403 -0.000000
v 1.791554 0.133462 -0.000000
v 1.786529 0.126403 -0.014556
v 1.757504 0.126403 -0.014556
v 1.775928 0.126403 -0.020824
v 1.766055 0.126403 -0.020824
v 1.757360 0.126403 -0.000000
v 1.786673 0.126403 -0.000000
v 1.766448 0.126403 -0.000000
v 1.775536 0.126403 -0.000000
v 1.786529 0.126403 0.014555
v 1.757504 0.126403 0.014555
v 1.775928 0.126403 0.020823
v 1.766055 0.126403 0.020823
v 1.757504 0.133462 0.014555
v 1.786529 0.133462 0.014555
v 1.766055 0.133462 0.020823
v 1.775928 0.133462 0.020823
v 1.786673 0.133462 -0.000000
v 1.757360 0.133462 -0.000000
v 1.775536 0.133462 -0.000000
v 1.766448 0.133462 -0.000000
v 1.757504 0.133462 -0.014556
v 1.786529 0.133462 -0.014556
v 1.766055 0.133462 -0.020824
v 1.775928 0.133462 -0.020824
v 1.770992 0.120620 0.008669
v 1.770992 0.888385 0.008669
v 1.764860 0.120620 0.006129
v 1.764860 0.888385 0.006129
v 1.762321 0.120620 -0.000003
v 1.762321 0.888385 -0.000003
v 1.764860 0.120620 -0.006134
v 1.764860 0.888385 -0.006134
v 1.770992 0.120620 -0.008674
v 1.770992 0.888385 -0.008674
v 1.777123 0.120620 -0.006134
v 1.777123 0.888385 -0.006134
v 1.779663 0.120620 -0.000003
v 1.779663 0.888385 -0.000003
v 1.777123 0.120620 0.006129
v 1.777123 0.888385 0.006129
v 1.831803 1.009984 -0.044170
v 1.808581 0.963537 0.115650
v 1.771004 0.888384 0.142951
v 1.855027 0.888384 0.115651
v 1.695852 1.009983 0.000003
v 1.831803 1.009984 0.044176
v 1.747781 1.009984 0.071476
v 1.892603 0.963537 0.000003
v 1.672629 0.963537 0.071477
v 1.747781 1.009984 -0.071471
v 1.686981 0.888384 0.115651
v 1.672629 0.963537 -0.071471
v 1.808581 0.963537 -0.115644
v 1.855027 0.888384 -0.115645
v 1.906956 0.888384 0.044176
v 1.686981 0.888384 -0.115645
v 1.906956 0.888384 -0.044170
v 1.649405 0.813231 0.000003
v 1.635052 0.888384 0.044176
v 1.771004 0.888384 -0.142946
v 1.710205 0.766784 0.044176
v 1.733427 0.813231 0.115650
v 1.635052 0.888384 -0.044170
v 1.710205 0.766784 -0.044170
v 1.794227 0.766784 0.071476
v 1.869380 0.813231 0.071477
v 1.794227 0.766784 -0.071471
v 1.846156 0.766785 0.000003
v 1.869380 0.813231 -0.071471
v 1.733427 0.813231 -0.115644
v 1.771004 1.031333 0.000003
v 1.643147 0.952313 0.000003
v 1.731495 0.952313 0.121602
v 1.874443 0.952313 0.075155
v 1.874443 0.952313 -0.075149
v 1.731495 0.952313 -0.121596
v 1.667565 0.824455 0.075155
v 1.810513 0.824455 0.121602
v 1.898861 0.824455 0.000003
v 1.810513 0.824455 -0.121596
v 1.667565 0.824455 -0.075149
v 1.771004 0.745436 0.000003
vn -0.0000 -0.0000 1.0000
vn -0.5000 -0.0000 0.8660
vn -0.8660 -0.0000 0.5000
vn -1.0000 -0.0000 -0.0000
vn -0.8660 -0.0000 -0.5000
vn -0.5000 -0.0000 -0.8660
vn -0.0000 -0.0000 -1.0000
vn 0.5000 -0.0000 -0.8660
vn 0.7090 -0.0000 -0.7052
vn -0.0000 -1.0000 -0.0000
vn -0.0000 1.0000 -0.0000
vn 0.7090 -0.0000 0.7052
vn 0.5000 -0.0000 0.8660
vn 0.3852 -0.0000 0.9228
vn 0.3852 -0.0000 -0.9228
vn -0.4366 -0.0000 0.8996
vn -0.6948 -0.0000 0.7192
vn -0.4366 -0.0000 0.8997
vn -0.4366 -0.0000 -0.8996
vn -0.6948 -0.0000 -0.7192
vn -0.4366 -0.0000 -0.8997
vn 0.7746 -0.0000 0.6324
vn 1.0000 -0.0000 -0.0000
vn 0.7747 -0.0000 0.6324
vn 0.7746 -0.0000 -0.6324
vn 0.7747 -0.0000 -0.6324
vn 0.2638 -0.0000 -0.9646
vn -0.3110 -0.0000 -0.9504
vn 0.2638 -0.0000 0.9646
vn -0.3110 -0.0000 0.9504
vn -0.7071 -0.0000 0.7071
vn -0.7071 -0.0000 -0.7071
vn 0.7071 -0.0000 -0.7071
vn 0.7071 -0.0000 0.7071
vn -0.4253 -0.8507 -0.3090
vn -0.7236 -0.4472 -0.5257
vn -0.2629 -0.5257 -0.8090
vn 0.1625 -0.8507 -0.5000
vn 0.2764 -0.4472 -0.8506
vn 0.6882 -0.5257 -0.5000
vn -0.4253 -0.8507 0.3090
vn 0.5257 -0.8507 -0.0000
vn 0.1625 -0.8507 0.5000
vn 0.6882 -0.5257 0.5000
vn 0.2764 -0.4472 0.8506
vn 0.5878 -0.0000 0.8090
vn 0.9511 -0.0000 0.3090
vn -0.5878 -0.0000 -0.8090
vn -0.2629 -0.5257 0.8090
vn 0.8944 -0.4472 -0.0000
vn 0.7236 0.4472 0.5257
vn -0.5878 -0.0000 0.8090
vn -0.6882 0.5257 -0.5000
vn -0.2764 0.4472 -0.8506
vn 0.9511 -0.0000 -0.3090
vn 0.8506 0.5257 -0.0000
vn -0.8944 0.4472 -0.0000
vn -0.5257 0.8507 -0.0000
vn -0.9511 -0.0000 0.3090
vn -0.6882 0.5257 0.5000
vn -0.1625 0.8507 0.5000
vn 0.4253 0.8507 0.3090
vn 0.4253 0.8507 -0.3090
vn 0.2629 0.5257 0.8090
vn -0.8506 -0.5257 -0.0000
vn -0.1625 0.8507 -0.5000
vn 0.2629 0.5257 -0.8090
vn 0.7236 0.4472 -0.5257
vn -0.2764 0.4472 0.8506
vn -0.9511 -0.0000 -0.3090
vn 0.5878 -0.0000 -0.8090
vn -0.7236 -0.4472 0.5257
vt 0.209174 0.011007
vt 0.213027 -0.000000
vt 0.213027 0.011007
vt 0.227423 0.838051
vt 0.223626 0.846206
vt 0.223571 0.838051
vt 0.227478 0.846206
vt 0.223645 0.857347
vt 0.227497 0.857347
vt 0.223626 0.868487
vt 0.227478 0.868487
vt 0.223571 0.876643
vt 0.216879 -0.000000
vt 0.213027 0.011007
vt 0.213027 -0.000000
vt 0.216879 0.011007
vt 0.213027 0.022262
vt 0.216879 0.022262
vt 0.213027 0.030748
vt 0.067090 0.044559
vt 0.072222 0.047493
vt 0.067123 0.047550
vt 0.022029 0.955441
vt 0.016896 0.952507
vt 0.021995 0.952450
vt 0.010923 0.958551
vt 0.044559 0.977470
vt 0.011357 0.997141
vt 0.209174 0.030748
vt 0.213027 0.022262
vt 0.213027 0.030748
vt 0.209174 0.022262
vt 0.066588 -0.000000
vt 0.086259 0.033202
vt 0.047669 0.033637
vt 0.016601 0.020766
vt 0.027094 0.952392
vt 0.072517 0.979234
vt 0.062025 0.047608
vt 0.209174 0.036969
vt 0.055916 0.041700
vt 0.033202 0.958300
vt 0.216879 0.030748
vt 0.213027 0.036969
vt 0.226417 0.945526
vt 0.223571 0.941689
vt 0.226417 0.941674
vt 0.223571 0.945541
vt 0.226417 0.949408
vt 0.223571 0.949393
vt 0.216879 0.036969
vt 0.213027 0.967856
vt 0.011503 0.020823
vt 0.077615 0.979177
vt 0.213027 0.036969
vt 0.209174 0.967856
vt 0.227423 0.894132
vt 0.223590 0.902076
vt 0.223571 0.894132
vt 0.011478 0.018661
vt 0.019421 0.018493
vt 0.082714 0.979119
vt 0.077640 0.981339
vt 0.019243 0.002653
vt 0.011298 0.002664
vt 0.011268 -0.000000
vt 0.003355 0.002832
vt 0.069697 0.981507
vt 0.223571 0.910020
vt 0.227442 0.902076
vt 0.227423 0.910020
vt 0.069876 0.997347
vt 0.077820 0.997336
vt 0.077850 1.000000
vt 0.085763 0.997168
vt 0.006404 0.020881
vt 0.011367 0.008742
vt -0.000000 0.008656
vt 0.000061 0.014044
vt 0.011422 0.013702
vt 0.003534 0.018672
vt 0.227424 0.910020
vt 0.223571 0.915942
vt 0.223571 0.910020
vt 0.227424 0.915942
vt 0.223571 0.921326
vt 0.227424 0.921326
vt 0.223571 0.925847
vt 0.022789 0.013788
vt 0.077752 0.991258
vt 0.066329 0.986212
vt 0.077696 0.986298
vt 0.089118 0.991344
vt 0.089057 0.985956
vt 0.085584 0.981328
vt 0.223571 0.941674
vt 0.227424 0.935752
vt 0.227424 0.941674
vt 0.223571 0.935752
vt 0.227424 0.930368
vt 0.223571 0.930368
vt 0.227424 0.925847
vt 0.226972 0.000000
vt 0.230258 0.419026
vt 0.226972 0.419026
vt 0.216879 0.000009
vt 0.220225 0.419016
vt 0.216879 0.419026
vt 0.220225 0.000000
vt 0.223571 0.419026
vt 0.223571 0.419026
vt 0.226857 0.838051
vt 0.223571 0.838051
vt 0.226857 0.419026
vt 0.230258 0.838051
vt 0.220225 0.838051
vt 0.216879 0.838042
vt 0.226133 0.876643
vt 0.232316 0.879204
vt 0.229755 0.885387
vt 0.220225 0.419035
vt 0.223571 0.838042
vt 0.223571 0.000000
vt 0.223571 0.419026
vt 0.226133 0.885387
vt 0.232316 0.887949
vt 0.229755 0.894132
vt 0.122301 0.042257
vt 0.099030 0.025350
vt 0.134975 0.003248
vt 0.168158 0.027357
vt 0.177047 -0.000000
vt 0.209174 0.027357
vt 0.089118 0.501931
vt 0.098042 0.460346
vt 0.120975 0.495944
vt 0.155484 0.066365
vt 0.122301 0.090474
vt 0.196500 0.066365
vt 0.168158 0.105374
vt 0.209174 0.105374
vt 0.177047 0.132731
vt 0.197981 0.630192
vt 0.156398 0.653403
vt 0.164244 0.610606
vt 0.089118 0.425952
vt 0.124881 0.420302
vt 0.190509 0.328712
vt 0.167576 0.364311
vt 0.144945 0.329809
vt 0.109968 0.655441
vt 0.089118 0.613906
vt 0.125805 0.628464
vt 0.199433 0.370297
vt 0.196548 0.588975
vt 0.143606 0.461442
vt 0.163670 0.288668
vt 0.159384 0.397095
vt 0.166637 0.427818
vt 0.122663 0.586196
vt 0.164245 0.562985
vt 0.197980 0.696977
vt 0.161293 0.682420
vt 0.177131 0.655441
vt 0.122854 0.700277
vt 0.130700 0.657480
vt 0.196500 0.199096
vt 0.209174 0.238105
vt 0.168158 0.238105
vt 0.122301 0.223205
vt 0.122301 0.174988
vt 0.155483 0.199096
vt 0.125708 0.372072
vt 0.089187 0.368087
vt 0.098869 0.332029
vt 0.161292 0.763437
vt 0.130699 0.782153
vt 0.122853 0.747898
vt 0.168158 0.160088
vt 0.209174 0.160088
vt 0.134975 0.262213
vt 0.099029 0.240112
vt 0.189682 0.463662
vt 0.089118 0.199096
vt 0.125806 0.547446
vt 0.156400 0.528729
vt 0.177047 0.265462
vt 0.159384 0.397095
vt 0.089118 0.680690
vt 0.164435 0.724688
vt 0.199433 0.423893
vt 0.162843 0.503706
vt 0.197980 0.744599
vt 0.199433 0.294319
vt 0.121914 0.296185
vt 0.129167 0.265462
vt 0.129167 0.528729
vt 0.134975 0.135979
vt 0.199364 0.499720
vt 0.134975 0.129482
vt 0.099030 0.107381
vt 0.099029 0.158081
vt 0.177047 0.132731
vt 0.089118 0.566284
vt 0.090550 0.721908
vt 0.197981 0.553139
vt 0.089118 0.066365
vt 0.089118 0.292260
vt 0.089118 0.757743
vt 0.209174 -0.000000
vt 0.227423 0.876643
vt 0.078196 0.041449
vt 0.003110 0.989078
vt 0.000000 0.977971
vt 0.002859 0.966798
vt 0.041449 0.966363
vt 0.041700 0.988643
vt 0.033637 0.996890
vt 0.022531 1.000000
vt 0.044559 0.022530
vt 0.047419 0.011357
vt 0.055482 0.003110
vt 0.077761 0.002859
vt 0.086008 0.010922
vt 0.089118 0.022029
vt 0.226417 0.945556
vt 0.216879 0.967856
vt 0.213026 0.967856
vt 0.227424 0.925847
vt 0.022728 0.008400
vt 0.066390 0.991600
vt 0.223571 0.925847
vt 0.230258 0.000000
vt 0.223571 0.000009
vt 0.230258 0.419026
vt 0.226133 0.885387
vt 0.223571 0.882826
vt 0.223571 0.879204
vt 0.229755 0.876643
vt 0.232316 0.882826
vt 0.226133 0.894132
vt 0.223571 0.891571
vt 0.223571 0.887948
vt 0.229755 0.885387
vt 0.232316 0.891571
s 1
f 2/1/1 3/2/2 1/3/1
f 4/4/2 5/5/3 3/6/2
f 6/7/3 7/8/4 5/5/3
f 8/9/4 9/10/5 7/8/4
f 10/11/5 11/12/6 9/10/5
f 12/13/6 13/14/7 11/15/6
f 14/16/7 15/17/8 13/14/7
f 16/18/8 17/19/9 15/17/8
f 19/20/10 26/21/10 27/22/10
f 20/23/11 30/24/11 28/25/11
f 22/26/11 14/27/11 6/28/11
f 22/29/12 23/30/13 21/31/12
f 24/32/13 1/3/1 23/30/13
f 7/33/10 15/34/10 23/35/10
f 28/25/11 31/36/11 25/37/11
f 27/22/10 35/38/10 29/39/10
f 21/31/12 30/40/14 22/29/12
f 19/20/10 29/39/10 21/41/10
f 20/23/11 25/37/11 18/42/11
f 18/43/9 26/44/15 17/19/9
f 35/45/16 51/46/17 36/47/18
f 31/48/19 40/49/20 32/50/21
f 25/51/15 32/52/21 26/44/15
f 30/24/11 34/53/11 28/25/11
f 26/21/10 33/54/10 27/22/10
f 29/55/14 36/56/18 30/40/14
f 47/57/22 38/58/23 52/59/24
f 31/36/11 56/60/11 59/61/11
f 32/62/10 43/63/10 33/54/10
f 60/64/11 55/65/11 38/66/11
f 55/65/11 52/67/11 38/66/11
f 35/38/10 43/63/10 48/68/10
f 60/69/25 37/70/23 39/71/26
f 47/72/10 44/73/10 37/74/10
f 44/73/10 39/75/10 37/74/10
f 36/76/11 56/60/11 34/53/11
f 52/67/11 57/77/11 54/78/11
f 57/77/11 53/79/11 54/78/11
f 58/80/11 51/81/11 53/79/11
f 39/82/26 62/83/27 60/84/25
f 41/85/27 61/86/28 62/83/27
f 42/87/28 59/88/20 61/86/28
f 60/64/11 57/77/11 55/65/11
f 57/77/11 61/89/11 58/80/11
f 58/80/11 59/61/11 56/60/11
f 47/72/10 46/90/10 44/73/10
f 46/90/10 50/91/10 45/92/10
f 45/92/10 48/68/10 43/63/10
f 39/75/10 46/90/10 41/93/10
f 46/90/10 42/94/10 41/93/10
f 45/92/10 40/95/10 42/94/10
f 52/96/24 49/97/29 47/98/22
f 54/99/29 50/100/30 49/97/29
f 53/101/30 48/102/17 50/100/30
f 64/103/1 65/104/31 63/105/1
f 66/106/31 67/107/4 65/108/31
f 68/109/4 69/110/32 67/107/4
f 70/111/32 71/112/7 69/113/32
f 72/114/7 73/115/33 71/112/7
f 74/108/33 75/116/23 73/117/33
f 76/118/11 72/119/11 68/120/11
f 76/121/23 77/122/34 75/116/23
f 78/123/34 63/105/1 77/124/34
f 69/125/10 73/126/10 77/127/10
f 102/128/35 119/129/36 108/130/37
f 105/131/38 118/132/39 107/133/40
f 105/131/38 102/128/35 108/130/37
f 105/134/38 108/135/37 118/136/39
f 102/128/35 120/137/10 99/138/41
f 106/139/42 105/131/38 107/133/40
f 103/140/43 104/141/44 116/142/45
f 82/143/46 104/144/44 93/145/47
f 108/135/37 119/146/36 94/147/48
f 100/148/49 116/149/45 81/150/1
f 106/151/42 107/152/40 117/153/50
f 103/154/43 116/149/45 100/148/49
f 82/143/46 93/145/47 112/155/51
f 98/156/7 108/135/37 94/147/48
f 89/157/52 100/148/49 81/150/1
f 94/147/48 90/158/53 114/159/54
f 93/145/47 95/160/55 86/161/56
f 90/162/53 110/163/57 83/164/58
f 97/165/59 87/166/60 110/163/57
f 83/167/58 87/168/60 85/169/61
f 84/170/62 79/171/63 109/172/11
f 120/137/10 102/128/35 105/131/38
f 82/173/46 112/174/51 80/175/64
f 85/169/61 84/170/62 109/172/11
f 119/176/36 102/177/35 96/178/65
f 88/179/66 90/180/53 83/167/58
f 85/169/61 80/181/64 84/170/62
f 120/137/10 105/131/38 106/139/42
f 93/145/47 86/161/56 112/155/51
f 80/181/64 112/182/51 84/170/62
f 120/137/10 106/139/42 103/140/43
f 98/156/7 114/159/54 91/183/67
f 84/170/62 86/184/56 79/171/63
f 120/137/10 103/140/43 99/138/41
f 86/161/56 113/185/68 79/186/63
f 87/168/60 111/187/69 85/169/61
f 116/149/45 104/188/44 82/173/46
f 81/150/1 82/173/46 80/175/64
f 97/165/59 89/189/52 87/166/60
f 119/176/36 96/178/65 101/190/70
f 88/179/66 83/167/58 109/172/11
f 79/171/63 88/179/66 109/172/11
f 118/136/39 108/135/37 98/156/7
f 91/183/67 114/159/54 88/191/66
f 95/160/55 113/185/68 86/161/56
f 117/153/50 107/152/40 95/160/55
f 92/192/71 98/156/7 91/183/67
f 94/193/48 101/190/70 90/162/53
f 115/194/72 100/148/49 89/157/52
f 83/167/58 85/169/61 109/172/11
f 89/157/52 111/195/69 87/196/60
f 119/176/36 101/190/70 94/193/48
f 107/197/40 118/136/39 92/192/71
f 79/171/63 91/198/67 88/179/66
f 118/136/39 98/156/7 92/192/71
f 101/190/70 96/178/65 97/165/59
f 92/192/71 91/183/67 113/199/68
f 117/153/50 95/160/55 93/145/47
f 99/138/41 100/200/49 115/201/72
f 101/190/70 110/163/57 90/162/53
f 113/202/68 91/198/67 79/171/63
f 106/151/42 117/153/50 104/144/44
f 81/150/1 80/175/64 111/195/69
f 114/203/54 90/180/53 88/179/66
f 89/157/52 81/150/1 111/195/69
f 95/160/55 92/204/71 113/185/68
f 115/205/72 89/189/52 97/165/59
f 98/156/7 94/147/48 114/159/54
f 101/190/70 97/165/59 110/163/57
f 116/149/45 82/173/46 81/150/1
f 96/178/65 115/205/72 97/165/59
f 104/144/44 117/153/50 93/145/47
f 110/163/57 87/166/60 83/164/58
f 99/138/41 103/140/43 100/200/49
f 95/160/55 107/152/40 92/204/71
f 112/155/51 86/161/56 84/206/62
f 96/207/65 102/128/35 99/138/41
f 103/140/43 106/139/42 104/141/44
f 111/195/69 80/175/64 85/208/61
f 96/178/65 99/209/41 115/205/72
f 2/1/1 4/210/2 3/2/2
f 4/4/2 6/7/3 5/5/3
f 6/7/3 8/9/4 7/8/4
f 8/9/4 10/11/5 9/10/5
f 10/11/5 12/211/6 11/12/6
f 12/13/6 14/16/7 13/14/7
f 14/16/7 16/18/8 15/17/8
f 16/18/8 18/43/9 17/19/9
f 19/20/10 17/212/10 26/21/10
f 20/23/11 22/26/11 30/24/11
f 6/28/11 4/213/11 2/214/11
f 2/214/11 24/215/11 22/26/11
f 22/26/11 20/23/11 18/42/11
f 18/42/11 16/216/11 14/27/11
f 14/27/11 12/217/11 10/218/11
f 10/218/11 8/219/11 6/28/11
f 6/28/11 2/214/11 22/26/11
f 22/26/11 18/42/11 14/27/11
f 14/27/11 10/218/11 6/28/11
f 22/29/12 24/32/13 23/30/13
f 24/32/13 2/1/1 1/3/1
f 23/35/10 1/220/10 3/221/10
f 3/221/10 5/222/10 7/33/10
f 7/33/10 9/223/10 11/224/10
f 11/224/10 13/225/10 15/34/10
f 15/34/10 17/212/10 19/20/10
f 19/20/10 21/41/10 23/35/10
f 23/35/10 3/221/10 7/33/10
f 7/33/10 11/224/10 15/34/10
f 15/34/10 19/20/10 23/35/10
f 28/25/11 34/53/11 31/36/11
f 27/22/10 33/54/10 35/38/10
f 21/31/12 29/55/14 30/40/14
f 19/20/10 27/22/10 29/39/10
f 20/23/11 28/25/11 25/37/11
f 18/43/9 25/51/15 26/44/15
f 35/45/16 48/48/17 51/46/17
f 31/48/19 59/226/20 40/49/20
f 25/51/15 31/227/19 32/52/21
f 30/24/11 36/76/11 34/53/11
f 26/21/10 32/62/10 33/54/10
f 29/55/14 35/228/16 36/56/18
f 47/57/22 37/70/23 38/58/23
f 31/36/11 34/53/11 56/60/11
f 32/62/10 40/95/10 43/63/10
f 35/38/10 33/54/10 43/63/10
f 60/69/25 38/58/23 37/70/23
f 36/76/11 51/81/11 56/60/11
f 52/67/11 55/65/11 57/77/11
f 57/77/11 58/80/11 53/79/11
f 58/80/11 56/60/11 51/81/11
f 39/82/26 41/85/27 62/83/27
f 41/85/27 42/87/28 61/86/28
f 42/87/28 40/229/20 59/88/20
f 60/64/11 62/230/11 57/77/11
f 57/77/11 62/230/11 61/89/11
f 58/80/11 61/89/11 59/61/11
f 47/72/10 49/231/10 46/90/10
f 46/90/10 49/231/10 50/91/10
f 45/92/10 50/91/10 48/68/10
f 39/75/10 44/73/10 46/90/10
f 46/90/10 45/92/10 42/94/10
f 45/92/10 43/63/10 40/95/10
f 52/96/24 54/99/29 49/97/29
f 54/99/29 53/101/30 50/100/30
f 53/101/30 51/232/17 48/102/17
f 64/103/1 66/233/31 65/104/31
f 66/106/31 68/109/4 67/107/4
f 68/109/4 70/234/32 69/110/32
f 70/111/32 72/114/7 71/112/7
f 72/114/7 74/235/33 73/115/33
f 74/108/33 76/121/23 75/116/23
f 68/120/11 66/236/11 64/237/11
f 64/237/11 78/238/11 76/118/11
f 76/118/11 74/239/11 72/119/11
f 72/119/11 70/240/11 68/120/11
f 68/120/11 64/237/11 76/118/11
f 76/121/23 78/110/34 77/122/34
f 78/123/34 64/103/1 63/105/1
f 77/127/10 63/241/10 65/242/10
f 65/242/10 67/243/10 69/125/10
f 69/125/10 71/244/10 73/126/10
f 73/126/10 75/245/10 77/127/10
f 77/127/10 65/242/10 69/125/10
