# Blender 4.3.2
# www.blender.org
o PalmTreeD
v -0.441149 0.000000 0.228505
v -0.330319 0.000000 -0.526749
v -1.471604 1.383430 0.191155
v -1.532287 1.433780 -0.455227
v -0.396165 0.000000 -0.128291
v -1.492795 1.325948 -0.116305
v -0.460172 0.202302 0.246872
v -1.015437 1.305057 0.290224
v -0.494031 0.635240 0.269932
v -0.616124 0.931656 0.289855
v -0.851965 1.167672 0.320105
v -1.109849 1.466713 -0.451589
v -0.356310 0.277794 -0.500322
v -0.756982 1.206387 -0.465620
v -0.590223 0.956309 -0.408542
v -0.427032 0.701909 -0.467659
v -0.407213 0.237779 -0.108455
v -1.133373 1.323471 -0.107647
v -0.509651 0.606492 -0.094505
v -0.683305 0.873981 -0.036472
v -0.846528 1.083387 -0.067639
v -0.007555 0.000000 0.461516
v -0.269750 0.000000 -0.258119
v -1.179461 0.765650 0.834850
v -1.444703 0.755562 0.390512
v -0.137706 0.000000 0.124861
v -1.338403 0.627495 0.649325
v -0.066117 0.091932 0.490291
v -0.741480 0.753411 0.795473
v -0.170793 0.398443 0.532651
v -0.325323 0.583524 0.609814
v -0.560609 0.696599 0.746386
v -1.189982 0.809392 0.181371
v -0.330067 0.135251 -0.219092
v -0.842277 0.709069 0.006200
v -0.623879 0.572748 -0.021932
v -0.460224 0.426538 -0.151756
v -0.242095 0.113162 0.179912
v -1.026102 0.632373 0.495320
v -0.404247 0.355147 0.243640
v -0.543151 0.424021 0.309372
v -0.714542 0.532772 0.398165
v -0.024739 0.000000 -0.331555
v 0.255783 0.000000 0.219193
v 0.868858 0.910022 -0.625534
v 1.112972 0.837280 -0.277776
v 0.112543 0.000000 -0.074913
v 1.014278 0.831003 -0.480034
v 0.016491 0.185601 -0.328464
v 0.518205 0.970671 -0.517617
v 0.091346 0.525375 -0.318576
v 0.204862 0.742456 -0.361797
v 0.378635 0.895144 -0.471856
v 0.908425 0.882387 -0.028859
v 0.297473 0.120154 0.213448
v 0.677390 0.791940 0.087335
v 0.506931 0.633370 0.106326
v 0.390605 0.448717 0.198634
v 0.147736 0.154734 -0.069092
v 0.776966 0.826957 -0.313981
v 0.291421 0.430866 -0.109673
v 0.427447 0.597538 -0.171799
v 0.537813 0.692845 -0.225525
v -0.570336 0.000000 -0.050904
v 0.155032 0.000000 -0.306104
v -0.809791 1.349872 -1.152975
v -0.413609 1.391438 -1.337441
v -0.228360 0.000000 -0.178268
v -0.649409 1.272307 -1.254797
v -0.544187 0.265875 -0.057496
v -0.763263 1.265571 -0.699416
v -0.517889 0.670223 -0.058951
v -0.622645 0.978207 -0.156296
v -0.711132 1.191350 -0.464706
v -0.126094 1.405702 -1.034355
v 0.171459 0.241208 -0.315210
v 0.148588 1.178149 -0.714404
v 0.224525 0.920020 -0.535129
v 0.240177 0.641276 -0.365278
v -0.197586 0.253337 -0.177396
v -0.472990 1.238557 -0.960740
v -0.174509 0.612400 -0.263154
v -0.262525 0.873797 -0.420816
v -0.272356 1.073715 -0.617091
v -0.194050 0.000000 -0.377993
v 0.385030 0.000000 0.267084
v 0.847764 1.528722 -1.448925
v 1.266389 1.616029 -1.109674
v 0.037789 0.000000 -0.095400
v 1.045917 1.444896 -1.312773
v -0.260777 0.266148 -0.421611
v 0.361913 1.453272 -1.145324
v -0.237524 0.773326 -0.449426
v -0.178212 1.140175 -0.660912
v 0.124844 1.379286 -0.952606
v 1.079504 1.683017 -0.630180
v 0.408799 0.303514 0.245042
v 0.862304 1.447882 -0.122360
v 0.696648 1.144302 0.093301
v 0.509100 0.807603 0.239506
v 0.057984 0.283772 -0.096057
v 0.809144 1.438800 -0.955467
v 0.173280 0.729582 -0.165732
v 0.308313 1.037015 -0.383913
v 0.527128 1.274660 -0.526590
v 0.127762 0.000000 0.193995
v -0.041741 0.000000 0.148711
v 0.106615 0.990555 1.576867
v -0.356218 1.052507 1.539299
v 0.041893 0.000000 0.167564
v -0.108385 0.936238 1.573239
v 0.191628 0.179160 0.213222
v 0.208202 0.992053 1.177009
v 0.340688 0.511677 0.298469
v 0.322987 0.743450 0.475752
v 0.271959 0.889806 0.833498
v -0.375881 1.078142 1.099864
v -0.138393 0.188798 0.146841
v -0.402630 0.974267 0.763867
v -0.379853 0.752657 0.389258
v -0.373562 0.535694 0.172202
v -0.018565 0.183873 0.279567
v -0.108355 0.820055 1.189870
v -0.070109 0.360509 0.388472
v -0.063009 0.559713 0.617852
v -0.060609 0.682436 0.808401
v 0.132621 0.000000 -0.075921
v 0.063926 0.000000 0.097738
v 1.592175 1.771919 0.116259
v 1.495616 1.951390 0.601012
v 0.094131 0.000000 0.011624
v 1.561937 1.465622 0.343139
v 0.160793 0.369091 -0.141088
v 1.196308 1.956401 -0.117395
v 0.269233 1.054112 -0.288224
v 0.466002 1.515628 -0.331983
v 0.840934 1.823267 -0.226992
v 0.998254 2.190626 0.637340
v 0.050080 0.388945 0.199702
v 0.639710 2.027740 0.624362
v 0.258139 1.549562 0.560960
v 0.048015 1.103591 0.451467
v 0.205130 0.378800 0.089303
v 1.156593 1.542213 0.296029
v 0.313949 0.742689 0.157176
v 0.557351 1.153073 0.177838
v 0.759118 1.400062 0.198700
v -0.497601 0.000000 -0.209216
v 0.361097 0.000000 0.101609
v -0.029176 1.733929 -1.703656
v 0.696506 1.709431 -1.620074
v -0.031423 0.000000 -0.039992
v 0.394149 1.467812 -1.731539
v -0.513314 0.279533 -0.231111
v -0.241279 1.798393 -1.293974
v -0.499649 0.868713 -0.317926
v -0.468693 1.287049 -0.633344
v -0.360907 1.755101 -1.018454
v 0.680893 1.951714 -1.209345
v 0.344125 0.368342 0.079264
v 0.636892 1.865814 -0.810068
v 0.466080 1.338028 -0.290492
v 0.402018 0.957792 -0.010171
v -0.048394 0.323803 -0.062338
v 0.289132 1.493059 -1.322256
v 0.035962 0.839531 -0.305207
v 0.071044 1.230381 -0.613501
v 0.162059 1.358333 -0.868599
v -0.459504 0.000000 -0.191918
v 0.156089 0.000000 -0.136593
v -0.233247 0.818710 -1.105017
v 0.191079 0.753267 -1.126809
v -0.169156 0.000000 -0.171695
v -0.032692 0.747619 -1.150790
v -0.434960 0.166978 -0.225191
v -0.328333 0.873273 -0.750669
v -0.386778 0.472659 -0.283325
v -0.363012 0.667957 -0.402443
v -0.363804 0.805325 -0.608136
v 0.293100 0.793848 -0.821210
v 0.173395 0.108098 -0.174955
v 0.268636 0.712476 -0.563761
v 0.194068 0.569817 -0.409306
v 0.210378 0.403692 -0.261703
v -0.145509 0.139208 -0.198404
v -0.018271 0.743980 -0.861511
v -0.103464 0.387633 -0.341667
v -0.083738 0.537580 -0.489901
v -0.070543 0.623325 -0.611939
v 0.453218 0.000000 0.122730
v -0.141326 0.000000 0.293721
v 0.580668 0.815747 1.053572
v 0.192238 0.754747 1.227387
v 0.174906 0.000000 0.208857
v 0.409487 0.746720 1.168913
v 0.444197 0.162888 0.162120
v 0.541849 0.869693 0.688656
v 0.423395 0.468995 0.232883
v 0.446269 0.664403 0.351997
v 0.522729 0.801531 0.543125
v -0.012889 0.796732 0.979182
v -0.141777 0.110464 0.335246
v -0.083930 0.715388 0.730513
v -0.071667 0.572120 0.559948
v -0.141900 0.406337 0.428672
v 0.164355 0.138193 0.241801
v 0.291482 0.743547 0.904397
v 0.179450 0.386890 0.389885
v 0.216147 0.536875 0.534814
v 0.248814 0.622621 0.653136
v 0.166736 0.000000 -0.225278
v 0.082573 0.000000 0.387039
v 1.068206 0.751761 0.043594
v 1.070055 0.690911 0.468475
v 0.132905 0.000000 0.063801
v 1.104514 0.685660 0.246076
v 0.198819 0.145775 -0.199199
v 0.718713 0.802494 -0.068022
v 0.254627 0.430000 -0.148341
v 0.372499 0.611590 -0.119010
v 0.578002 0.739316 -0.110145
v 0.760003 0.728644 0.556037
v 0.120080 0.091028 0.406127
v 0.503987 0.652984 0.519515
v 0.353202 0.520338 0.437778
v 0.204996 0.365874 0.447141
v 0.158474 0.119955 0.088675
v 0.814877 0.682276 0.246901
v 0.299605 0.350942 0.137399
v 0.446750 0.490364 0.164062
v 0.568033 0.570090 0.182971
v -0.047004 0.000000 -0.301140
v 0.084347 0.000000 -0.184826
v 0.590411 1.155319 -1.528529
v 0.987568 1.227577 -1.287922
v 0.017976 0.000000 -0.239095
v 0.781086 1.091969 -1.429125
v -0.095527 0.208961 -0.346901
v 0.320711 1.157067 -1.216330
v -0.190719 0.596787 -0.489815
v -0.095596 0.867112 -0.640461
v 0.110048 1.037813 -0.937608
v 0.808615 1.257476 -0.886096
v 0.169957 0.220202 -0.139926
v 0.682262 1.136322 -0.573615
v 0.494342 0.877851 -0.248750
v 0.391636 0.624799 -0.057427
v 0.122144 0.214458 -0.312231
v 0.609594 0.956460 -1.086250
v 0.216954 0.420474 -0.386582
v 0.313196 0.652814 -0.594917
v 0.396275 0.795950 -0.766417
v -0.058932 0.000000 0.385441
v 0.025479 0.000000 -0.418327
v -1.485234 2.079942 0.311439
v -1.641651 2.108904 -0.326428
v -0.016485 0.000000 -0.020913
v -1.782754 1.928052 -0.029377
v -0.077088 0.304178 0.396600
v -1.046684 2.102769 0.315147
v -0.155345 0.974861 0.385659
v -0.417963 1.451423 0.409144
v -0.843985 2.024123 0.376945
v -1.379795 2.247221 -0.472293
v 0.007512 0.429601 -0.411556
v -0.798665 2.173915 -0.475364
v -0.329160 1.532384 -0.407992
v -0.070666 1.100623 -0.423089
v -0.034521 0.366720 -0.012865
v -1.270334 1.844902 -0.082711
v -0.249632 0.951778 -0.054538
v -0.510886 1.411906 -0.043378
v -0.759215 1.591416 -0.074119
v 0.370455 0.000000 -0.041585
v -0.392480 0.000000 0.080653
v 0.657323 1.738916 1.293387
v 0.107493 1.763129 1.596608
v -0.015199 0.000000 0.020424
v 0.416822 1.611930 1.652880
v 0.385277 0.254305 -0.027605
v 0.551539 1.758000 0.887661
v 0.394665 0.815023 0.047355
v 0.481739 1.213448 0.283915
v 0.558105 1.692249 0.685172
v -0.092355 1.878768 1.391225
v -0.381756 0.359163 0.095551
v -0.239901 1.817481 0.855579
v -0.294629 1.281135 0.405428
v -0.372934 0.920165 0.170585
v -0.003279 0.306593 0.035068
v 0.239990 1.542413 1.193174
v 0.011822 0.795725 0.244003
v 0.087180 1.180411 0.482374
v 0.120643 1.330488 0.719248
vn 0.9899 0.0438 0.1350
vn 0.9754 0.1315 0.1769
vn 0.9775 0.1513 0.1472
vn 0.2700 0.8898 0.3679
vn -0.0184 0.9945 0.1026
vn 0.3362 0.9290 0.1548
vn 0.0924 0.9912 -0.0943
vn 0.4983 0.8606 -0.1055
vn 0.7052 0.7038 0.0859
vn 0.8138 0.5374 -0.2211
vn 0.8333 0.5520 0.0303
vn 0.9476 0.2973 -0.1168
vn 0.9302 0.3421 0.1330
vn 0.9859 0.1262 0.1097
vn 0.6515 0.6720 0.3520
vn 0.7845 0.5300 0.3218
vn 0.9088 0.3092 0.2803
vn 0.9876 0.0629 0.1438
vn 0.7009 0.6767 -0.2253
vn 0.8500 0.4812 -0.2141
vn 0.7461 0.6084 -0.2705
vn 0.1597 0.9866 -0.0329
vn 0.1645 0.9008 0.4019
vn -0.0213 0.9997 -0.0115
vn -0.1183 0.9050 -0.4087
vn 0.0913 0.8930 -0.4408
vn 0.3436 0.9241 -0.1672
vn 0.2902 0.7981 -0.5281
vn 0.4113 0.8929 -0.1833
vn 0.6192 0.7428 -0.2548
vn 0.6438 0.5577 -0.5238
vn 0.4536 0.8570 0.2444
vn 0.2849 0.8909 0.3536
vn 0.5989 0.7874 0.1463
vn 0.7951 0.6047 -0.0453
vn 0.7847 0.4956 -0.3722
vn 0.7616 0.5773 -0.2944
vn -0.8428 0.2742 0.4631
vn -0.8251 0.3337 0.4558
vn -0.8753 0.1832 0.4476
vn -0.0935 0.9748 0.2027
vn -0.0196 0.9946 -0.1017
vn 0.0867 0.9852 0.1479
vn 0.2280 0.9220 0.3131
vn -0.0145 0.8115 0.5842
vn -0.4076 0.8166 0.4087
vn -0.3081 0.5614 0.7681
vn -0.5448 0.7023 0.4581
vn -0.5643 0.3226 0.7599
vn -0.7303 0.4904 0.4755
vn -0.8116 0.2474 0.5293
vn -0.5396 0.8418 0.0121
vn -0.2239 0.9709 -0.0855
vn -0.7161 0.6865 0.1264
vn -0.8634 0.4367 0.2525
vn -0.8392 0.3403 0.4242
vn -0.8666 0.1848 0.4636
vn 0.3380 -0.0077 0.9411
vn 0.3613 0.0495 0.9312
vn 0.3261 -0.0355 0.9447
vn -0.0190 0.9526 0.3037
vn -0.3514 0.8855 0.3040
vn 0.0363 0.9951 0.0924
vn 0.3073 0.9515 0.0125
vn 0.2907 0.9335 0.2100
vn 0.1487 0.7829 0.6041
vn 0.4034 0.8434 0.3548
vn 0.3399 0.6300 0.6983
vn 0.5216 0.3060 0.7964
vn 0.3733 0.3625 0.8539
vn -0.2418 0.8428 0.4809
vn -0.0016 0.6852 0.7283
vn 0.1047 0.5759 0.8108
vn 0.1935 0.3454 0.9183
vn 0.3173 0.0774 0.9451
vn 0.3333 -0.0207 0.9426
vn 0.3490 -0.0111 0.9371
vn -0.7049 0.0883 0.7038
vn -0.6956 0.1316 0.7063
vn -0.7478 0.0547 0.6617
vn -0.2840 0.9587 0.0164
vn -0.4270 0.8608 -0.2770
vn -0.0681 0.9973 -0.0281
vn 0.1212 0.9748 0.1871
vn -0.0661 0.9641 0.2573
vn -0.4811 0.8198 0.3107
vn -0.1486 0.8916 0.4278
vn -0.4836 0.6920 0.5359
vn -0.4954 0.3972 0.7725
vn -0.6095 0.4419 0.6582
vn -0.5379 0.8371 -0.0999
vn -0.6559 0.7167 0.2368
vn -0.6844 0.6235 0.3779
vn -0.7437 0.4123 0.5262
vn -0.7170 0.1660 0.6770
vn -0.7343 -0.0219 0.6785
vn -0.7147 0.0087 0.6993
vn 0.3986 0.4979 -0.7702
vn 0.2285 0.4963 -0.8375
vn 0.2159 0.5587 -0.8007
vn 0.1467 0.9578 -0.2471
vn 0.5685 0.8113 -0.1365
vn 0.1017 0.9521 -0.2885
vn -0.3464 0.9142 -0.2104
vn -0.4712 0.8496 -0.2370
vn -0.4677 0.8051 -0.3647
vn 0.0834 0.8995 -0.4289
vn -0.5014 0.6409 -0.5812
vn 0.1255 0.7789 -0.6145
vn -0.4190 0.5126 -0.7494
vn 0.2426 0.6333 -0.7349
vn -0.3015 0.3180 -0.8989
vn 0.6623 0.6926 -0.2858
vn 0.7116 0.6879 -0.1428
vn 0.6647 0.5976 -0.4484
vn 0.6740 0.5212 -0.5235
vn 0.6792 0.4509 -0.5791
vn -0.0143 0.4125 -0.9108
vn -0.8392 0.3028 -0.4518
vn -0.8886 0.2977 -0.3489
vn -0.9433 0.2008 -0.2644
vn -0.1175 0.9758 -0.1845
vn 0.1797 0.4878 -0.8542
vn 0.1855 0.9826 0.0016
vn -0.0406 0.6624 0.7481
vn -0.2982 0.6885 0.6611
vn -0.5099 0.6492 0.5645
vn -0.5996 0.7798 -0.1799
vn -0.7207 0.5127 0.4665
vn -0.7966 0.5573 -0.2340
vn -0.8557 0.3623 0.3694
vn -0.8548 0.3742 -0.3596
vn -0.9639 0.2199 0.1504
vn -0.2239 0.4704 -0.8536
vn -0.0274 0.4604 -0.8873
vn -0.4449 0.4311 -0.7850
vn -0.4774 0.3539 -0.8043
vn -0.5424 0.2528 -0.8012
vn -0.9154 -0.0012 -0.4025
vn -0.3412 0.0455 0.9389
vn -0.4269 0.2019 0.8815
vn -0.3097 0.2067 0.9281
vn -0.1282 0.9905 0.0492
vn -0.6175 0.7167 -0.3239
vn -0.0649 0.9948 -0.0780
vn 0.5136 0.8511 0.1089
vn 0.4992 0.8221 0.2737
vn -0.2179 0.8762 0.4300
vn 0.1091 0.6466 0.7550
vn -0.2465 0.7902 0.5610
vn -0.0690 0.4673 0.8814
vn -0.3214 0.4933 0.8083
vn -0.7432 0.6501 0.1581
vn -0.7366 0.6626 -0.1358
vn -0.6330 0.6084 0.4788
vn -0.6526 0.3684 0.6621
vn -0.3437 0.0514 0.9377
vn -0.3478 0.0983 0.9324
vn -0.0539 0.3054 0.9507
vn -0.0529 0.3641 0.9299
vn -0.0860 0.2028 0.9754
vn 0.1113 0.9792 0.1695
vn -0.0870 0.9956 -0.0338
vn 0.1555 0.9878 0.0047
vn 0.3525 0.9355 -0.0241
vn 0.4541 0.8364 0.3070
vn 0.1241 0.8437 0.5222
vn 0.4688 0.5938 0.6539
vn 0.0967 0.7400 0.6656
vn 0.3366 0.3440 0.8766
vn 0.0149 0.5345 0.8450
vn 0.0192 0.2663 0.9637
vn -0.2568 0.8644 0.4322
vn -0.1734 0.9760 0.1316
vn -0.2591 0.7220 0.6415
vn -0.2404 0.4709 0.8488
vn -0.0901 0.3705 0.9245
vn -0.0680 0.2046 0.9765
vn -0.2907 0.3019 -0.9079
vn -0.2834 0.3650 -0.8868
vn -0.2713 0.2051 -0.9404
vn -0.1550 0.9805 -0.1205
vn 0.1035 0.9946 -0.0027
vn -0.1366 0.9894 0.0491
vn -0.3104 0.9391 0.1473
vn -0.5258 0.8414 -0.1245
vn -0.2958 0.8456 -0.4444
vn -0.6674 0.5994 -0.4420
vn -0.3231 0.7417 -0.5877
vn -0.6271 0.3485 -0.6967
vn -0.3138 0.5355 -0.7841
vn -0.3639 0.2696 -0.8916
vn 0.0920 0.8622 -0.4982
vn 0.1240 0.9743 -0.1881
vn 0.0171 0.7200 -0.6938
vn -0.0778 0.4693 -0.8796
vn -0.2465 0.3677 -0.8967
vn -0.2890 0.2099 -0.9340
vn -0.9288 0.3590 -0.0920
vn -0.9363 0.3464 -0.0571
vn -0.9638 0.2330 -0.1300
vn -0.1630 0.9819 0.0968
vn 0.0352 0.9962 -0.0794
vn -0.0111 0.9894 0.1450
vn 0.0070 0.9435 0.3312
vn -0.3153 0.8522 0.4175
vn -0.5000 0.8606 0.0967
vn -0.6629 0.6160 0.4255
vn -0.6414 0.7644 0.0651
vn -0.8650 0.4492 0.2237
vn -0.8041 0.5940 0.0257
vn -0.3991 0.8786 -0.2623
vn -0.1158 0.9791 -0.1674
vn -0.6060 0.7455 -0.2775
vn -0.8241 0.4949 -0.2756
vn -0.9034 0.4077 -0.1329
vn -0.9682 0.2221 -0.1152
vn -0.9659 0.2328 -0.1130
vn -0.7091 0.4483 0.5443
vn -0.6018 0.4370 0.6685
vn -0.5753 0.5002 0.6472
vn -0.2683 0.9446 0.1890
vn -0.6281 0.7633 -0.1510
vn -0.2508 0.9366 0.2447
vn 0.2463 0.8879 0.3885
vn 0.3524 0.8107 0.4676
vn 0.2809 0.7590 0.5873
vn -0.2969 0.8687 0.3966
vn 0.2053 0.5938 0.7780
vn -0.4184 0.7241 0.5482
vn 0.0447 0.4622 0.8857
vn -0.5703 0.5737 0.5879
vn -0.1359 0.2766 0.9513
vn -0.7712 0.6348 -0.0471
vn -0.7466 0.6319 -0.2080
vn -0.8362 0.5385 0.1040
vn -0.8695 0.4661 0.1637
vn -0.8906 0.3974 0.2211
vn -0.4257 0.3783 0.8220
vn 0.9932 0.0430 0.1081
vn 0.9837 0.1562 0.0886
vn 0.9932 0.0483 0.1062
vn 0.2176 0.9680 0.1251
vn 0.1031 0.7491 0.6544
vn 0.1691 0.9810 0.0953
vn 0.0253 0.8646 -0.5018
vn 0.2516 0.7640 -0.5942
vn 0.6284 0.7606 0.1628
vn 0.7850 0.5600 -0.2648
vn 0.7225 0.6733 0.1572
vn 0.9187 0.3714 0.1340
vn 0.9170 0.3690 -0.1511
vn 0.3013 0.6075 0.7349
vn 0.0631 0.7031 0.7083
vn 0.6492 0.5132 0.5614
vn 0.8134 0.2875 0.5057
vn 0.9650 0.1661 0.2028
vn 0.9902 0.0814 0.1131
vn 0.9931 0.0555 0.1037
vn -0.1540 0.0488 -0.9869
vn -0.1733 0.1802 -0.9682
vn -0.1559 0.0550 -0.9862
vn 0.0662 0.9749 -0.2124
vn 0.5561 0.7924 -0.2509
vn 0.0447 0.9851 -0.1662
vn -0.4426 0.8917 0.0949
vn -0.5917 0.8015 -0.0872
vn 0.0006 0.8032 -0.5957
vn -0.4406 0.6071 -0.6613
vn -0.0358 0.7194 -0.6936
vn -0.1081 0.4222 -0.9000
vn -0.3707 0.4068 -0.8349
vn 0.5948 0.6522 -0.4700
vn 0.6221 0.7490 -0.2281
vn 0.3605 0.5533 -0.7509
vn 0.2762 0.3190 -0.9066
vn -0.0497 0.1809 -0.9822
vn -0.1487 0.0937 -0.9844
vn -0.1584 0.0634 -0.9853
vn 0.9837 0.0766 0.1626
vn -0.0765 0.9475 0.3104
vn 0.6698 0.7275 -0.1487
vn 0.8403 0.4583 -0.2897
vn 0.1442 0.8693 -0.4727
vn -0.1674 0.7061 0.6881
vn 0.5731 0.6203 0.5354
vn -0.2383 0.6957 0.6776
vn -0.3391 0.0414 0.9399
vn 0.4024 0.7360 0.5444
vn 0.4669 0.7423 0.4806
vn -0.6014 0.7477 -0.2815
vn -0.4818 0.7659 0.4258
vn 0.5611 0.6475 -0.5157
vn -0.6038 0.6930 -0.3940
vt 0.500001 0.000000
vt 0.800945 0.127269
vt 0.500001 0.127269
vt 0.800945 0.872731
vt 0.500001 1.000000
vt 0.500001 0.872731
vt 0.500001 0.872731
vt 0.199056 1.000000
vt 0.199056 0.872731
vt 0.500001 0.686366
vt 0.199056 0.500000
vt 0.500001 0.500000
vt 0.199056 0.313634
vt 0.500001 0.313634
vt 0.199056 0.127269
vt 0.800945 0.686366
vt 0.800945 0.500000
vt 0.800945 0.313634
vt 0.199056 0.000000
vt 0.800945 1.000000
vt 0.800945 0.000000
vt 0.199056 0.686366
vt 0.557469 0.000000
vt 0.375792 0.127269
vt 0.800945 0.741575
vt 0.615850 0.127269
vt 0.417296 0.000000
vt 0.444709 1.000000
s 1
f 5/1/1 13/2/2 17/3/3
f 12/4/4 6/5/5 18/6/6
f 18/7/6 3/8/7 8/9/8
f 8/9/8 21/10/9 18/7/6
f 21/10/9 10/11/10 20/12/11
f 20/12/11 9/13/12 19/14/13
f 19/14/13 7/15/14 17/3/3
f 18/6/6 14/16/15 12/4/4
f 21/10/9 15/17/16 14/16/15
f 15/17/16 19/14/13 16/18/17
f 19/14/13 13/2/2 16/18/17
f 1/19/18 17/3/3 7/15/14
f 26/1/19 34/2/20 38/3/21
f 39/6/22 25/20/23 27/5/24
f 39/7/22 24/8/25 29/9/26
f 29/9/26 42/10/27 39/7/22
f 42/10/27 31/11/28 41/12/29
f 31/11/28 40/14/30 41/12/29
f 30/13/31 38/3/21 40/14/30
f 39/6/22 35/16/32 33/4/33
f 42/10/27 36/17/34 35/16/32
f 36/17/34 40/14/30 37/18/35
f 37/18/35 38/3/21 34/2/20
f 26/1/19 28/15/36 22/19/37
f 44/21/38 59/3/39 47/1/40
f 60/6/41 46/20/42 48/5/43
f 60/7/41 45/8/44 50/9/45
f 50/9/45 63/10/46 60/7/41
f 63/10/46 52/11/47 62/12/48
f 62/12/48 51/13/49 61/14/50
f 61/14/50 49/15/51 59/3/39
f 60/6/41 56/16/52 54/4/53
f 63/10/46 57/17/54 56/16/52
f 57/17/54 61/14/50 58/18/55
f 61/14/50 55/2/56 58/18/55
f 47/1/40 49/15/51 43/19/57
f 65/21/58 80/3/59 68/1/60
f 81/6/61 67/20/62 69/5/63
f 81/7/61 66/8/64 71/9/65
f 71/9/65 84/10/66 81/7/61
f 74/22/67 83/12/68 84/10/66
f 83/12/68 72/13/69 82/14/70
f 72/13/69 80/3/59 82/14/70
f 75/4/71 84/10/66 77/16/72
f 84/10/66 78/17/73 77/16/72
f 83/12/68 79/18/74 78/17/73
f 82/14/70 76/2/75 79/18/74
f 68/1/60 70/15/76 64/19/77
f 86/21/78 101/3/79 89/1/80
f 102/6/81 88/20/82 90/5/83
f 102/7/81 87/8/84 92/9/85
f 92/9/85 105/10/86 102/7/81
f 95/22/87 104/12/88 105/10/86
f 104/12/88 93/13/89 103/14/90
f 93/13/89 101/3/79 103/14/90
f 96/4/91 105/10/86 98/16/92
f 105/10/86 99/17/93 98/16/92
f 104/12/88 100/18/94 99/17/93
f 103/14/90 97/2/95 100/18/94
f 85/19/96 101/3/79 91/15/97
f 107/23/98 122/3/99 110/1/100
f 123/6/101 109/20/102 111/5/103
f 123/7/101 108/8/104 113/9/105
f 123/7/101 116/22/106 126/10/107
f 126/10/107 115/11/108 125/12/109
f 125/12/109 114/13/110 124/14/111
f 124/14/111 112/24/112 122/3/99
f 123/6/101 119/25/113 117/4/114
f 126/10/107 120/17/115 119/25/113
f 120/17/115 124/14/111 121/18/116
f 124/14/111 118/26/117 121/18/116
f 106/27/118 122/3/99 112/24/112
f 128/23/119 143/3/120 131/1/121
f 144/6/122 130/20/123 132/5/124
f 144/7/122 129/8/125 134/9/126
f 144/7/122 137/22/127 147/10/128
f 147/10/128 136/11/129 146/12/130
f 146/12/130 135/13/131 145/14/132
f 145/14/132 133/24/133 143/3/120
f 144/6/122 140/25/134 138/4/135
f 147/10/128 141/17/136 140/25/134
f 146/12/130 142/18/137 141/17/136
f 145/14/132 139/26/138 142/18/137
f 131/1/121 133/24/133 127/27/139
f 152/1/140 160/2/141 164/3/142
f 165/6/143 151/20/144 153/28/145
f 165/7/143 150/8/146 155/9/147
f 155/9/147 168/10/148 165/7/143
f 168/10/148 157/11/149 167/12/150
f 167/12/150 156/13/151 166/14/152
f 156/13/151 164/3/142 166/14/152
f 165/6/143 161/16/153 159/4/154
f 168/10/148 162/17/155 161/16/153
f 162/17/155 166/14/152 163/18/156
f 166/14/152 160/2/141 163/18/156
f 148/19/157 164/3/142 154/15/158
f 170/21/159 185/3/160 173/1/161
f 186/6/162 172/20/163 174/5/164
f 186/7/162 171/8/165 176/9/166
f 176/9/166 189/10/167 186/7/162
f 189/10/167 178/11/168 188/12/169
f 188/12/169 177/13/170 187/14/171
f 187/14/171 175/15/172 185/3/160
f 186/6/162 182/16/173 180/4/174
f 189/10/167 183/17/175 182/16/173
f 183/17/175 187/14/171 184/18/176
f 187/14/171 181/2/177 184/18/176
f 173/1/161 175/15/172 169/19/178
f 191/21/179 206/3/180 194/1/181
f 207/6/182 193/20/183 195/5/184
f 207/7/182 192/8/185 197/9/186
f 197/9/186 210/10/187 207/7/182
f 210/10/187 199/11/188 209/12/189
f 209/12/189 198/13/190 208/14/191
f 208/14/191 196/15/192 206/3/180
f 207/6/182 203/16/193 201/4/194
f 210/10/187 204/17/195 203/16/193
f 204/17/195 208/14/191 205/18/196
f 208/14/191 202/2/197 205/18/196
f 194/1/181 196/15/192 190/19/198
f 212/21/199 227/3/200 215/1/201
f 228/6/202 214/20/203 216/5/204
f 228/7/202 213/8/205 218/9/206
f 218/9/206 231/10/207 228/7/202
f 231/10/207 220/11/208 230/12/209
f 230/12/209 219/13/210 229/14/211
f 219/13/210 227/3/200 229/14/211
f 228/6/202 224/16/212 222/4/213
f 231/10/207 225/17/214 224/16/212
f 225/17/214 229/14/211 226/18/215
f 229/14/211 223/2/216 226/18/215
f 215/1/201 217/15/217 211/19/218
f 233/23/219 248/3/220 236/1/221
f 249/6/222 235/20/223 237/5/224
f 249/7/222 234/8/225 239/9/226
f 249/7/222 242/22/227 252/10/228
f 252/10/228 241/11/229 251/12/230
f 251/12/230 240/13/231 250/14/232
f 250/14/232 238/24/233 248/3/220
f 249/6/222 245/25/234 243/4/235
f 252/10/228 246/17/236 245/25/234
f 251/12/230 247/18/237 246/17/236
f 250/14/232 244/26/238 247/18/237
f 232/27/239 248/3/220 238/24/233
f 254/21/240 269/3/241 257/1/242
f 270/6/243 256/20/244 258/28/245
f 270/7/243 255/8/246 260/9/247
f 260/9/247 273/10/248 270/7/243
f 273/10/248 262/11/249 272/12/250
f 262/11/249 271/14/251 272/12/250
f 261/13/252 269/3/241 271/14/251
f 270/6/243 266/16/253 264/4/254
f 273/10/248 267/17/255 266/16/253
f 272/12/250 268/18/256 267/17/255
f 271/14/251 265/2/257 268/18/256
f 257/1/242 259/15/258 253/19/259
f 275/21/260 290/3/261 278/1/262
f 291/6/263 277/20/264 279/28/265
f 291/7/263 276/8/266 281/9/267
f 281/9/267 294/10/268 291/7/263
f 294/10/268 283/11/269 293/12/270
f 283/11/269 292/14/271 293/12/270
f 282/13/272 290/3/261 292/14/271
f 291/6/263 287/16/273 285/4/274
f 294/10/268 288/17/275 287/16/273
f 288/17/275 292/14/271 289/18/276
f 292/14/271 286/2/277 289/18/276
f 278/1/262 280/15/278 274/19/279
f 5/1/1 2/21/280 13/2/2
f 12/4/4 4/20/281 6/5/5
f 18/7/6 6/5/5 3/8/7
f 8/9/8 11/22/282 21/10/9
f 21/10/9 11/22/282 10/11/10
f 20/12/11 10/11/10 9/13/12
f 19/14/13 9/13/12 7/15/14
f 18/6/6 21/10/9 14/16/15
f 21/10/9 20/12/11 15/17/16
f 15/17/16 20/12/11 19/14/13
f 19/14/13 17/3/3 13/2/2
f 1/19/18 5/1/1 17/3/3
f 26/1/19 23/21/283 34/2/20
f 39/6/22 33/4/33 25/20/23
f 39/7/22 27/5/24 24/8/25
f 29/9/26 32/22/284 42/10/27
f 42/10/27 32/22/284 31/11/28
f 31/11/28 30/13/31 40/14/30
f 30/13/31 28/15/36 38/3/21
f 39/6/22 42/10/27 35/16/32
f 42/10/27 41/12/29 36/17/34
f 36/17/34 41/12/29 40/14/30
f 37/18/35 40/14/30 38/3/21
f 26/1/19 38/3/21 28/15/36
f 44/21/38 55/2/56 59/3/39
f 60/6/41 54/4/53 46/20/42
f 60/7/41 48/5/43 45/8/44
f 50/9/45 53/22/285 63/10/46
f 63/10/46 53/22/285 52/11/47
f 62/12/48 52/11/47 51/13/49
f 61/14/50 51/13/49 49/15/51
f 60/6/41 63/10/46 56/16/52
f 63/10/46 62/12/48 57/17/54
f 57/17/54 62/12/48 61/14/50
f 61/14/50 59/3/39 55/2/56
f 47/1/40 59/3/39 49/15/51
f 65/21/58 76/2/75 80/3/59
f 81/6/61 75/4/71 67/20/62
f 81/7/61 69/5/63 66/8/64
f 71/9/65 74/22/67 84/10/66
f 74/22/67 73/11/286 83/12/68
f 83/12/68 73/11/286 72/13/69
f 72/13/69 70/15/76 80/3/59
f 75/4/71 81/6/61 84/10/66
f 84/10/66 83/12/68 78/17/73
f 83/12/68 82/14/70 79/18/74
f 82/14/70 80/3/59 76/2/75
f 68/1/60 80/3/59 70/15/76
f 86/21/78 97/2/95 101/3/79
f 102/6/81 96/4/91 88/20/82
f 102/7/81 90/5/83 87/8/84
f 92/9/85 95/22/87 105/10/86
f 95/22/87 94/11/287 104/12/88
f 104/12/88 94/11/287 93/13/89
f 93/13/89 91/15/97 101/3/79
f 96/4/91 102/6/81 105/10/86
f 105/10/86 104/12/88 99/17/93
f 104/12/88 103/14/90 100/18/94
f 103/14/90 101/3/79 97/2/95
f 85/19/96 89/1/80 101/3/79
f 107/23/98 118/26/117 122/3/99
f 123/6/101 117/4/114 109/20/102
f 123/7/101 111/5/103 108/8/104
f 123/7/101 113/9/105 116/22/106
f 126/10/107 116/22/106 115/11/108
f 125/12/109 115/11/108 114/13/110
f 124/14/111 114/13/110 112/24/112
f 123/6/101 126/10/107 119/25/113
f 126/10/107 125/12/109 120/17/115
f 120/17/115 125/12/109 124/14/111
f 124/14/111 122/3/99 118/26/117
f 106/27/118 110/1/100 122/3/99
f 128/23/119 139/26/138 143/3/120
f 144/6/122 138/4/135 130/20/123
f 144/7/122 132/5/124 129/8/125
f 144/7/122 134/9/126 137/22/127
f 147/10/128 137/22/127 136/11/129
f 146/12/130 136/11/129 135/13/131
f 145/14/132 135/13/131 133/24/133
f 144/6/122 147/10/128 140/25/134
f 147/10/128 146/12/130 141/17/136
f 146/12/130 145/14/132 142/18/137
f 145/14/132 143/3/120 139/26/138
f 131/1/121 143/3/120 133/24/133
f 152/1/140 149/21/288 160/2/141
f 165/6/143 159/4/154 151/20/144
f 165/7/143 153/28/145 150/8/146
f 155/9/147 158/22/289 168/10/148
f 168/10/148 158/22/289 157/11/149
f 167/12/150 157/11/149 156/13/151
f 156/13/151 154/15/158 164/3/142
f 165/6/143 168/10/148 161/16/153
f 168/10/148 167/12/150 162/17/155
f 162/17/155 167/12/150 166/14/152
f 166/14/152 164/3/142 160/2/141
f 148/19/157 152/1/140 164/3/142
f 170/21/159 181/2/177 185/3/160
f 186/6/162 180/4/174 172/20/163
f 186/7/162 174/5/164 171/8/165
f 176/9/166 179/22/290 189/10/167
f 189/10/167 179/22/290 178/11/168
f 188/12/169 178/11/168 177/13/170
f 187/14/171 177/13/170 175/15/172
f 186/6/162 189/10/167 182/16/173
f 189/10/167 188/12/169 183/17/175
f 183/17/175 188/12/169 187/14/171
f 187/14/171 185/3/160 181/2/177
f 173/1/161 185/3/160 175/15/172
f 191/21/179 202/2/197 206/3/180
f 207/6/182 201/4/194 193/20/183
f 207/7/182 195/5/184 192/8/185
f 197/9/186 200/22/291 210/10/187
f 210/10/187 200/22/291 199/11/188
f 209/12/189 199/11/188 198/13/190
f 208/14/191 198/13/190 196/15/192
f 207/6/182 210/10/187 203/16/193
f 210/10/187 209/12/189 204/17/195
f 204/17/195 209/12/189 208/14/191
f 208/14/191 206/3/180 202/2/197
f 194/1/181 206/3/180 196/15/192
f 212/21/199 223/2/216 227/3/200
f 228/6/202 222/4/213 214/20/203
f 228/7/202 216/5/204 213/8/205
f 218/9/206 221/22/292 231/10/207
f 231/10/207 221/22/292 220/11/208
f 230/12/209 220/11/208 219/13/210
f 219/13/210 217/15/217 227/3/200
f 228/6/202 231/10/207 224/16/212
f 231/10/207 230/12/209 225/17/214
f 225/17/214 230/12/209 229/14/211
f 229/14/211 227/3/200 223/2/216
f 215/1/201 227/3/200 217/15/217
f 233/23/219 244/26/238 248/3/220
f 249/6/222 243/4/235 235/20/223
f 249/7/222 237/5/224 234/8/225
f 249/7/222 239/9/226 242/22/227
f 252/10/228 242/22/227 241/11/229
f 251/12/230 241/11/229 240/13/231
f 250/14/232 240/13/231 238/24/233
f 249/6/222 252/10/228 245/25/234
f 252/10/228 251/12/230 246/17/236
f 251/12/230 250/14/232 247/18/237
f 250/14/232 248/3/220 244/26/238
f 232/27/239 236/1/221 248/3/220
f 254/21/240 265/2/257 269/3/241
f 270/6/243 264/4/254 256/20/244
f 270/7/243 258/28/245 255/8/246
f 260/9/247 263/22/293 273/10/248
f 273/10/248 263/22/293 262/11/249
f 262/11/249 261/13/252 271/14/251
f 261/13/252 259/15/258 269/3/241
f 270/6/243 273/10/248 266/16/253
f 273/10/248 272/12/250 267/17/255
f 272/12/250 271/14/251 268/18/256
f 271/14/251 269/3/241 265/2/257
f 257/1/242 269/3/241 259/15/258
f 275/21/260 286/2/277 290/3/261
f 291/6/263 285/4/274 277/20/264
f 291/7/263 279/28/265 276/8/266
f 281/9/267 284/22/294 294/10/268
f 294/10/268 284/22/294 283/11/269
f 283/11/269 282/13/272 292/14/271
f 282/13/272 280/15/278 290/3/261
f 291/6/263 294/10/268 287/16/273
f 294/10/268 293/12/270 288/17/275
f 288/17/275 293/12/270 292/14/271
f 292/14/271 290/3/261 286/2/277
f 278/1/262 290/3/261 280/15/278
