# Blender 4.3.2
# www.blender.org
o PalmTreeB
v -0.313937 0.000000 0.469766
v 0.041082 0.000000 -0.489085
v -1.824440 3.193996 0.321015
v -1.848361 3.133305 -0.527958
v -0.136416 0.000000 -0.009648
v -1.855865 3.048122 -0.071956
v -0.306702 0.525675 0.509264
v -1.120404 3.314399 0.542303
v -0.305194 1.550450 0.573828
v -0.530695 2.289801 0.633308
v -0.834797 2.896407 0.613320
v -1.089532 3.424708 -0.536012
v 0.046173 0.618040 -0.449950
v -0.573780 3.012509 -0.399852
v -0.202132 2.316493 -0.358622
v 0.038829 1.644233 -0.395934
v -0.129081 0.571508 0.031714
v -1.237257 3.141181 0.014418
v -0.342868 1.469343 -0.008118
v -0.573731 2.183907 0.042347
v -0.868538 2.759454 0.006391
v -0.441149 0.000000 0.228505
v -0.330319 0.000000 -0.526749
v -1.471604 1.383430 0.191155
v -1.532287 1.433780 -0.455227
v -0.396165 0.000000 -0.128291
v -1.492795 1.325948 -0.116305
v -0.460172 0.202302 0.246872
v -1.015437 1.305057 0.290224
v -0.494031 0.635240 0.269932
v -0.616124 0.931656 0.289855
v -0.851965 1.167672 0.320105
v -1.109849 1.466713 -0.451589
v -0.356310 0.277794 -0.500322
v -0.756982 1.206387 -0.465620
v -0.590223 0.956309 -0.408542
v -0.427032 0.701909 -0.467659
v -0.407213 0.237779 -0.108455
v -1.133373 1.323471 -0.107647
v -0.509651 0.606492 -0.094505
v -0.683305 0.873981 -0.036472
v -0.846528 1.083387 -0.067639
v -0.413928 0.000000 0.432253
v 0.306193 0.000000 -0.398900
v -2.011914 2.278070 -0.607770
v -1.692051 2.293135 -1.437090
v -0.053867 0.000000 0.016677
v -2.083091 2.110723 -1.214401
v -0.442829 0.342515 0.439840
v -1.527353 2.294022 -0.264952
v -0.527297 1.064444 0.391267
v -0.843333 1.582521 0.234133
v -1.335896 2.206856 -0.059806
v -1.284917 2.432042 -1.398147
v 0.276328 0.451334 -0.390188
v -0.596887 2.340214 -1.006284
v -0.117192 1.643397 -0.597769
v 0.192824 1.173593 -0.439886
v -0.083733 0.396760 0.025389
v -1.475383 2.009769 -0.876649
v -0.301749 1.028687 -0.158256
v -0.615355 1.529035 -0.317374
v -0.881395 1.726385 -0.520932
v -0.007555 0.000000 0.461516
v -0.269750 0.000000 -0.258119
v -1.179461 0.765650 0.834850
v -1.444703 0.755562 0.390512
v -0.137706 0.000000 0.124861
v -1.338403 0.627495 0.649325
v -0.066117 0.091932 0.490291
v -0.741480 0.753411 0.795473
v -0.170793 0.398443 0.532651
v -0.325323 0.583524 0.609814
v -0.560609 0.696599 0.746386
v -1.189982 0.809392 0.181371
v -0.330067 0.135251 -0.219092
v -0.842277 0.709069 0.006200
v -0.623879 0.572748 -0.021932
v -0.460224 0.426538 -0.151756
v -0.242095 0.113162 0.179912
v -1.026102 0.632373 0.495320
v -0.404247 0.355147 0.243640
v -0.543151 0.424021 0.309372
v -0.714542 0.532772 0.398165
v -0.024739 0.000000 -0.331555
v 0.255783 0.000000 0.219193
v 0.868858 0.910022 -0.625534
v 1.112972 0.837280 -0.277776
v 0.112543 0.000000 -0.074913
v 1.014278 0.831003 -0.480034
v 0.016491 0.185601 -0.328464
v 0.518205 0.970671 -0.517617
v 0.091346 0.525375 -0.318576
v 0.204862 0.742456 -0.361797
v 0.378635 0.895144 -0.471856
v 0.908425 0.882387 -0.028859
v 0.297473 0.120154 0.213448
v 0.677390 0.791940 0.087335
v 0.506931 0.633370 0.106326
v 0.390605 0.448717 0.198634
v 0.147736 0.154734 -0.069092
v 0.776966 0.826957 -0.313981
v 0.291421 0.430866 -0.109673
v 0.427447 0.597538 -0.171799
v 0.537813 0.692845 -0.225525
v -0.539113 0.000000 -0.192957
v 0.227153 0.000000 -0.257169
v -0.493177 1.502750 -1.319806
v -0.063300 1.549024 -1.398504
v -0.176079 0.000000 -0.230052
v -0.312315 1.416401 -1.377936
v -0.512146 0.295986 -0.192748
v -0.562423 1.408901 -0.869156
v -0.486330 0.746129 -0.187531
v -0.563180 1.088992 -0.308128
v -0.571109 1.326275 -0.628883
v 0.138578 1.564903 -1.032756
v 0.245345 0.268525 -0.261842
v 0.323788 1.311579 -0.653921
v 0.352107 1.024216 -0.461297
v 0.324460 0.713902 -0.292982
v -0.146517 0.282028 -0.221455
v -0.215674 1.378828 -1.048916
v -0.102578 0.681757 -0.298632
v -0.148032 0.972758 -0.473383
v -0.108094 1.195317 -0.665804
v -0.194050 0.000000 -0.377993
v 0.385030 0.000000 0.267084
v 0.847764 1.528722 -1.448925
v 1.266389 1.616029 -1.109674
v 0.037789 0.000000 -0.095400
v 1.045917 1.444896 -1.312773
v -0.260777 0.266148 -0.421611
v 0.361913 1.453272 -1.145324
v -0.237524 0.773326 -0.449426
v -0.178212 1.140175 -0.660912
v 0.124844 1.379286 -0.952606
v 1.079504 1.683017 -0.630180
v 0.408799 0.303514 0.245042
v 0.862304 1.447882 -0.122360
v 0.696648 1.144302 0.093301
v 0.509100 0.807603 0.239506
v 0.057984 0.283772 -0.096057
v 0.809144 1.438800 -0.955467
v 0.173280 0.729582 -0.165732
v 0.308313 1.037015 -0.383913
v 0.527128 1.274660 -0.526590
v 0.243791 0.000000 -0.014903
v 0.060277 0.000000 0.111163
v 1.559653 1.257011 1.146460
v 1.141559 1.335630 1.561709
v 0.147460 0.000000 0.046081
v 1.378765 1.188084 1.350762
v 0.315023 0.227354 -0.060616
v 1.323559 1.255761 0.651906
v 0.520201 0.649316 -0.133999
v 0.743958 0.933603 -0.046342
v 1.044964 1.126010 0.307011
v 0.625409 1.381819 1.266674
v -0.021271 0.239584 0.202808
v 0.279384 1.250001 1.015241
v -0.055865 0.954506 0.698608
v -0.190851 0.679795 0.450474
v 0.205566 0.233335 0.196783
v 1.009159 1.040648 1.034424
v 0.268039 0.457485 0.336335
v 0.495057 0.710275 0.518746
v 0.680756 0.866010 0.673649
v 0.127762 0.000000 0.193995
v -0.041741 0.000000 0.148711
v 0.106615 0.990555 1.576867
v -0.356218 1.052507 1.539299
v 0.041893 0.000000 0.167564
v -0.108385 0.936238 1.573239
v 0.191628 0.179160 0.213222
v 0.208202 0.992053 1.177009
v 0.340688 0.511677 0.298469
v 0.322987 0.743450 0.475752
v 0.271959 0.889806 0.833498
v -0.375881 1.078142 1.099864
v -0.138393 0.188798 0.146841
v -0.402630 0.974267 0.763867
v -0.379853 0.752657 0.389258
v -0.373562 0.535694 0.172202
v -0.018565 0.183873 0.279567
v -0.108355 0.820055 1.189870
v -0.070109 0.360509 0.388472
v -0.063009 0.559713 0.617852
v -0.060609 0.682436 0.808401
v 0.171926 0.000000 -0.098423
v 0.082872 0.000000 0.126706
v 2.064054 1.771919 0.150715
v 1.938878 1.951390 0.779136
v 0.122029 0.000000 0.015070
v 2.024856 1.465622 0.444837
v 0.208448 0.369091 -0.182902
v 1.550864 1.956401 -0.152188
v 0.349026 1.054112 -0.373647
v 0.604113 1.515628 -0.430374
v 1.090165 1.823267 -0.294267
v 1.294111 2.190626 0.826232
v 0.064922 0.388945 0.258889
v 0.829304 2.027740 0.809406
v 0.334645 1.549562 0.727214
v 0.062246 1.103591 0.585271
v 0.265925 0.378800 0.115770
v 1.499378 1.542213 0.383764
v 0.406995 0.742689 0.203759
v 0.722536 1.153073 0.230544
v 0.984101 1.400062 0.257590
v -0.609717 0.000000 -0.256355
v 0.442456 0.000000 0.124502
v -0.035749 2.124603 -2.087509
v 0.853437 2.094586 -1.985095
v -0.038503 0.000000 -0.049003
v 0.482956 1.798527 -2.121675
v -0.628970 0.342515 -0.283184
v -0.295641 2.203593 -1.585522
v -0.612225 1.064444 -0.389559
v -0.574295 1.577036 -0.776044
v -0.442223 2.150546 -1.247924
v 0.834306 2.391457 -1.481825
v 0.421660 0.451334 0.097123
v 0.780391 2.286204 -0.992586
v 0.571093 1.639501 -0.355943
v 0.492597 1.173593 -0.012462
v -0.059298 0.396760 -0.076383
v 0.354277 1.829463 -1.620176
v 0.044065 1.028687 -0.373974
v 0.087051 1.507600 -0.751730
v 0.198573 1.664381 -1.064305
v -0.459504 0.000000 -0.191918
v 0.156089 0.000000 -0.136593
v -0.233247 0.818710 -1.105017
v 0.191079 0.753267 -1.126809
v -0.169156 0.000000 -0.171695
v -0.032692 0.747619 -1.150790
v -0.434960 0.166978 -0.225191
v -0.328333 0.873273 -0.750669
v -0.386778 0.472659 -0.283325
v -0.363012 0.667957 -0.402443
v -0.363804 0.805325 -0.608136
v 0.293100 0.793848 -0.821210
v 0.173395 0.108098 -0.174955
v 0.268636 0.712476 -0.563761
v 0.194068 0.569817 -0.409306
v 0.210378 0.403692 -0.261703
v -0.145509 0.139208 -0.198404
v -0.018271 0.743980 -0.861511
v -0.103464 0.387633 -0.341667
v -0.083738 0.537580 -0.489901
v -0.070543 0.623325 -0.611939
v 0.453218 0.000000 0.122730
v -0.141326 0.000000 0.293721
v 0.580668 0.815747 1.053572
v 0.192238 0.754747 1.227387
v 0.174906 0.000000 0.208857
v 0.409487 0.746720 1.168913
v 0.444197 0.162888 0.162120
v 0.541849 0.869693 0.688656
v 0.423395 0.468995 0.232883
v 0.446269 0.664403 0.351997
v 0.522729 0.801531 0.543125
v -0.012889 0.796732 0.979182
v -0.141777 0.110464 0.335246
v -0.083930 0.715388 0.730513
v -0.071667 0.572120 0.559948
v -0.141900 0.406337 0.428672
v 0.164355 0.138193 0.241801
v 0.291482 0.743547 0.904397
v 0.179450 0.386890 0.389885
v 0.216147 0.536875 0.534814
v 0.248814 0.622621 0.653136
v 0.303317 0.000000 0.273711
v -0.563550 0.000000 0.272844
v 0.402809 1.528722 1.764473
v -0.129376 1.616029 1.848834
v -0.061831 0.000000 0.257091
v 0.169066 1.444896 1.820743
v 0.380369 0.266148 0.253270
v 0.502006 1.453272 1.200217
v 0.385499 0.773327 0.289159
v 0.503069 1.140175 0.474690
v 0.517266 1.379286 0.895079
v -0.360889 1.683017 1.389223
v -0.563058 0.303514 0.305255
v -0.593188 1.447882 0.888130
v -0.642743 1.144302 0.620744
v -0.626019 0.807603 0.383529
v -0.074847 0.283772 0.272545
v 0.061761 1.438800 1.405755
v -0.100150 0.729582 0.404861
v -0.028242 1.037014 0.651166
v -0.068499 1.274660 0.909266
v -0.375811 0.000000 0.274901
v -0.311438 0.000000 -0.589572
v -1.869856 1.758473 0.264910
v -1.915001 1.858902 -0.272026
v -0.332485 0.000000 -0.088047
v -1.908851 1.662049 0.027673
v -0.361071 0.306148 0.353245
v -1.314384 1.671683 0.405178
v -0.397239 0.889550 0.355731
v -0.590885 1.311532 0.459393
v -1.011184 1.586578 0.442753
v -1.439665 1.935956 -0.469244
v -0.343798 0.349129 -0.591456
v -0.922900 1.665483 -0.664208
v -0.652601 1.316278 -0.694040
v -0.417249 0.928978 -0.659983
v -0.346943 0.326420 -0.102161
v -1.487117 1.655036 -0.048941
v -0.477050 0.839231 -0.137089
v -0.727962 1.192867 -0.083419
v -0.982419 1.466228 -0.142477
v 0.558204 0.000000 0.401277
v -0.441161 0.000000 -0.270219
v -0.358481 2.654771 2.276655
v -1.302388 2.672326 2.039854
v 0.058522 0.000000 0.065529
v -1.008168 2.459751 2.435031
v 0.570309 0.399153 0.431669
v -0.050684 2.673359 1.704312
v 0.528811 1.240459 0.529945
v 0.400276 1.844205 0.894355
v 0.146663 2.571779 1.468863
v -1.314456 2.834203 1.592240
v -0.427705 0.525967 -0.238930
v -0.980543 2.727190 0.792248
v -0.600708 1.915148 0.216417
v -0.470555 1.367658 -0.141552
v 0.071978 0.462368 0.096818
v -0.722327 2.342103 1.729549
v -0.098457 1.198791 0.358256
v -0.229472 1.781876 0.720292
v -0.415131 2.011858 1.036575
v -0.000482 0.000000 -0.573941
v 0.242737 0.000000 0.437861
v 1.607586 3.095218 -1.420147
v 2.099327 3.024564 -0.707849
v 0.121111 0.000000 -0.068043
v 1.843656 2.941087 -1.097170
v 0.014137 0.512614 -0.626182
v 0.895029 3.278738 -1.219645
v 0.053400 1.554840 -0.720836
v 0.266799 2.287791 -0.926853
v 0.581520 2.878547 -1.103884
v 1.481656 3.384627 -0.288071
v 0.259364 0.628376 0.384737
v 0.936736 3.010252 -0.099311
v 0.546085 2.334487 0.100937
v 0.312161 1.671211 0.294063
v 0.134567 0.570256 -0.121799
v 1.277192 3.088511 -0.828430
v 0.405573 1.464463 -0.242917
v 0.626721 2.171695 -0.443272
v 0.940180 2.731536 -0.600275
v 0.166736 0.000000 -0.225278
v 0.082573 0.000000 0.387039
v 1.068206 0.751761 0.043594
v 1.070055 0.690911 0.468475
v 0.132905 0.000000 0.063801
v 1.104514 0.685660 0.246076
v 0.198819 0.145775 -0.199199
v 0.718713 0.802494 -0.068022
v 0.254627 0.430000 -0.148341
v 0.372499 0.611590 -0.119010
v 0.578002 0.739316 -0.110145
v 0.760003 0.728644 0.556037
v 0.120080 0.091028 0.406127
v 0.503987 0.652984 0.519515
v 0.353202 0.520338 0.437778
v 0.204996 0.365874 0.447141
v 0.158474 0.119955 0.088675
v 0.814877 0.682276 0.246901
v 0.299605 0.350942 0.137399
v 0.446750 0.490364 0.164062
v 0.568033 0.570090 0.182971
v -0.047004 0.000000 -0.301140
v 0.084347 0.000000 -0.184826
v 0.590411 1.155319 -1.528529
v 0.987568 1.227577 -1.287922
v 0.017976 0.000000 -0.239095
v 0.781086 1.091969 -1.429125
v -0.095527 0.208961 -0.346901
v 0.320711 1.157067 -1.216330
v -0.190719 0.596787 -0.489815
v -0.095596 0.867112 -0.640461
v 0.110048 1.037813 -0.937608
v 0.808615 1.257476 -0.886096
v 0.169957 0.220202 -0.139926
v 0.682262 1.136322 -0.573615
v 0.494342 0.877851 -0.248750
v 0.391636 0.624799 -0.057427
v 0.122144 0.214458 -0.312231
v 0.609594 0.956460 -1.086250
v 0.216954 0.420474 -0.386582
v 0.313196 0.652814 -0.594917
v 0.396275 0.795950 -0.766417
v 0.517275 0.000000 -0.047904
v -0.466666 0.000000 0.443267
v 1.593806 2.278070 1.525720
v 0.980181 2.293135 2.168796
v 0.025304 0.000000 0.197682
v 1.426739 2.110723 2.113219
v 0.546875 0.342515 -0.043819
v 1.277900 2.294022 1.023198
v 0.606236 1.064444 0.033450
v 0.837775 1.582521 0.299832
v 1.179827 2.206856 0.760288
v 0.619163 2.432043 1.976598
v -0.435745 0.451334 0.446683
v 0.134188 2.340214 1.350705
v -0.152013 1.643397 0.789385
v -0.377706 1.173593 0.524621
v 0.056226 0.396760 0.201098
v 0.995171 2.009769 1.568118
v 0.187077 1.028688 0.454345
v 0.415611 1.529035 0.721627
v 0.583166 1.726385 1.011693
v 0.179465 0.000000 -0.661750
v -0.097826 0.000000 0.506531
v 2.302733 2.491992 -0.511707
v 2.411361 2.526691 0.454892
v 0.040819 0.000000 -0.077610
v 2.675016 2.310012 0.045376
v 0.211611 0.364438 -0.692889
v 1.659294 2.519341 -0.600425
v 0.332396 1.167987 -0.704849
v 0.728889 1.738959 -0.723607
v 1.368015 2.425115 -0.701033
v 1.999048 2.692410 0.619418
v -0.065318 0.514707 0.473821
v 1.131119 2.604582 0.588239
v 0.445180 1.835959 0.449544
v 0.055105 1.318663 0.463433
v 0.073327 0.439369 -0.110320
v 1.912246 2.210390 0.026414
v 0.390266 1.140331 -0.056451
v 0.785053 1.691614 -0.071651
v 1.150130 1.906686 -0.012752
vn 0.9379 -0.0348 0.3451
vn 0.9075 0.0593 0.4159
vn 0.9308 0.0979 0.3521
vn 0.2547 0.9630 0.0885
vn -0.2494 0.9307 0.2675
vn -0.1414 0.9886 -0.0525
vn -0.0835 0.9429 -0.3224
vn 0.5223 0.7693 -0.3680
vn 0.8262 0.5208 -0.2149
vn 0.7728 0.5511 0.3149
vn 0.9154 0.3789 -0.1359
vn 0.8781 0.3616 0.3134
vn 0.9801 0.1757 -0.0926
vn 0.9185 0.1509 0.3654
vn 0.9575 0.0569 0.2826
vn 0.5611 0.5196 0.6444
vn 0.0894 0.8755 0.4749
vn 0.6562 0.2849 0.6988
vn 0.6978 0.0861 0.7111
vn 0.9374 -0.0379 0.3461
vn 0.9899 0.0438 0.1350
vn 0.9754 0.1315 0.1769
vn 0.9775 0.1513 0.1472
vn 0.2700 0.8898 0.3679
vn -0.0184 0.9945 0.1026
vn 0.3362 0.9290 0.1548
vn 0.0924 0.9912 -0.0943
vn 0.4983 0.8606 -0.1055
vn 0.7052 0.7038 0.0859
vn 0.8138 0.5374 -0.2211
vn 0.8333 0.5520 0.0303
vn 0.9476 0.2973 -0.1168
vn 0.9302 0.3421 0.1330
vn 0.9859 0.1262 0.1097
vn 0.6515 0.6720 0.3520
vn 0.7845 0.5300 0.3218
vn 0.9088 0.3092 0.2803
vn 0.9876 0.0629 0.1438
vn 0.7543 0.0412 0.6552
vn 0.6768 0.1701 0.7162
vn 0.7581 0.1875 0.6246
vn 0.1180 0.9783 0.1702
vn -0.2258 0.8314 0.5077
vn 0.0898 0.9870 0.1335
vn 0.2793 0.8983 -0.3391
vn 0.4692 0.8257 -0.3132
vn 0.3795 0.8244 0.4198
vn 0.7425 0.6432 0.1869
vn 0.4790 0.7393 0.4732
vn 0.8152 0.4352 0.3821
vn 0.6632 0.4473 0.6000
vn -0.0647 0.6843 0.7263
vn -0.2643 0.7945 0.5468
vn 0.2493 0.5664 0.7855
vn 0.4002 0.3102 0.8623
vn 0.7530 0.0463 0.6563
vn 0.7470 0.0887 0.6589
vn 0.7009 0.6767 -0.2253
vn 0.8500 0.4812 -0.2141
vn 0.7461 0.6084 -0.2705
vn 0.1597 0.9866 -0.0329
vn 0.1645 0.9008 0.4019
vn -0.0213 0.9997 -0.0115
vn -0.1183 0.9050 -0.4087
vn 0.0913 0.8930 -0.4408
vn 0.3436 0.9241 -0.1672
vn 0.2902 0.7981 -0.5281
vn 0.4113 0.8929 -0.1833
vn 0.6192 0.7428 -0.2548
vn 0.6438 0.5577 -0.5238
vn 0.4536 0.8570 0.2444
vn 0.2849 0.8909 0.3536
vn 0.5989 0.7874 0.1463
vn 0.7951 0.6047 -0.0453
vn 0.7847 0.4956 -0.3722
vn 0.7616 0.5773 -0.2944
vn -0.8428 0.2742 0.4631
vn -0.8251 0.3337 0.4558
vn -0.8753 0.1832 0.4476
vn -0.0935 0.9748 0.2027
vn -0.0196 0.9946 -0.1017
vn 0.0867 0.9852 0.1479
vn 0.2280 0.9220 0.3131
vn -0.0145 0.8115 0.5842
vn -0.4076 0.8166 0.4087
vn -0.3081 0.5614 0.7681
vn -0.5448 0.7023 0.4581
vn -0.5643 0.3226 0.7599
vn -0.7303 0.4904 0.4755
vn -0.8116 0.2474 0.5293
vn -0.5396 0.8418 0.0121
vn -0.2239 0.9709 -0.0855
vn -0.7161 0.6865 0.1264
vn -0.8634 0.4367 0.2525
vn -0.8392 0.3403 0.4242
vn -0.8666 0.1848 0.4636
vn 0.0888 -0.0084 0.9960
vn 0.0872 0.0752 0.9933
vn 0.0779 -0.0314 0.9965
vn -0.1017 0.9424 0.3187
vn -0.4524 0.8634 0.2232
vn 0.0139 0.9939 0.1094
vn 0.3231 0.9411 0.0996
vn 0.2501 0.9197 0.3027
vn -0.0067 0.7490 0.6625
vn 0.3221 0.8187 0.4755
vn 0.1598 0.5883 0.7927
vn 0.3477 0.2422 0.9058
vn 0.1213 0.3085 0.9435
vn 0.1349 0.0272 0.9905
vn -0.3844 0.8164 0.4309
vn -0.1952 0.6501 0.7343
vn -0.1061 0.5367 0.8371
vn -0.0446 0.3164 0.9476
vn 0.0717 0.0710 0.9949
vn 0.1016 -0.0100 0.9948
vn -0.7049 0.0883 0.7038
vn -0.6956 0.1316 0.7063
vn -0.7478 0.0547 0.6617
vn -0.2840 0.9587 0.0164
vn -0.4270 0.8608 -0.2770
vn -0.0681 0.9973 -0.0281
vn 0.1212 0.9748 0.1871
vn -0.0661 0.9641 0.2573
vn -0.4811 0.8198 0.3107
vn -0.1486 0.8916 0.4278
vn -0.4836 0.6920 0.5359
vn -0.4954 0.3972 0.7725
vn -0.6095 0.4419 0.6582
vn -0.5379 0.8371 -0.0999
vn -0.6559 0.7167 0.2368
vn -0.6844 0.6235 0.3779
vn -0.7437 0.4123 0.5262
vn -0.7170 0.1660 0.6770
vn -0.7343 -0.0219 0.6785
vn -0.7147 0.0087 0.6993
vn -0.3260 0.4979 -0.8036
vn -0.4878 0.4963 -0.7181
vn -0.4680 0.5587 -0.6847
vn -0.1028 0.9529 -0.2853
vn 0.2300 0.8236 -0.5185
vn -0.1531 0.9521 -0.2649
vn -0.3797 0.9210 0.0873
vn -0.4548 0.8822 0.1223
vn -0.5368 0.8421 0.0528
vn -0.2685 0.8963 -0.3528
vn -0.6845 0.7283 -0.0318
vn -0.3734 0.7971 -0.4745
vn -0.8023 0.5734 -0.1658
vn -0.4013 0.6360 -0.6592
vn -0.8790 0.3180 -0.3554
vn 0.1517 0.7228 -0.6742
vn 0.2807 0.7355 -0.6166
vn 0.0521 0.6737 -0.7371
vn 0.0428 0.5850 -0.8099
vn 0.0016 0.4509 -0.8926
vn -0.7013 0.4125 -0.5814
vn 0.3986 0.4979 -0.7702
vn 0.2285 0.4963 -0.8375
vn 0.2159 0.5587 -0.8007
vn 0.1467 0.9578 -0.2471
vn 0.5685 0.8113 -0.1365
vn 0.1017 0.9521 -0.2885
vn -0.3464 0.9142 -0.2104
vn -0.4712 0.8496 -0.2370
vn -0.4677 0.8051 -0.3647
vn 0.0834 0.8995 -0.4289
vn -0.5014 0.6409 -0.5812
vn 0.1255 0.7789 -0.6145
vn -0.4190 0.5126 -0.7494
vn 0.2426 0.6333 -0.7349
vn -0.3015 0.3180 -0.8989
vn 0.6623 0.6926 -0.2858
vn 0.7116 0.6879 -0.1428
vn 0.6647 0.5976 -0.4484
vn 0.6740 0.5212 -0.5235
vn 0.6792 0.4509 -0.5791
vn -0.0143 0.4125 -0.9108
vn -0.8005 0.3733 -0.4689
vn -0.8669 0.3503 -0.3546
vn -0.8471 0.4113 -0.3365
vn -0.0860 0.9806 -0.1760
vn 0.1676 0.5860 -0.7928
vn 0.1458 0.9892 -0.0141
vn -0.0316 0.7490 0.6618
vn -0.2619 0.7756 0.5743
vn -0.4578 0.7400 0.4927
vn -0.4927 0.8549 -0.1625
vn -0.6768 0.5993 0.4276
vn -0.7177 0.6614 -0.2176
vn -0.8277 0.4391 0.3495
vn -0.8085 0.4730 -0.3502
vn -0.9555 0.2198 0.1968
vn -0.2216 0.5718 -0.7899
vn -0.0300 0.5569 -0.8300
vn -0.4210 0.5245 -0.7401
vn -0.4600 0.4385 -0.7721
vn -0.5296 0.3205 -0.7854
vn -0.9311 0.3248 -0.1657
vn -0.3412 0.0455 0.9389
vn -0.4269 0.2019 0.8815
vn -0.3097 0.2067 0.9281
vn -0.1282 0.9905 0.0492
vn -0.6175 0.7167 -0.3239
vn -0.0649 0.9948 -0.0780
vn 0.5136 0.8511 0.1089
vn 0.4992 0.8221 0.2737
vn -0.2179 0.8762 0.4300
vn 0.1091 0.6466 0.7550
vn -0.2465 0.7902 0.5610
vn -0.0690 0.4673 0.8814
vn -0.3214 0.4933 0.8083
vn -0.7432 0.6501 0.1581
vn -0.7366 0.6626 -0.1358
vn -0.6330 0.6084 0.4788
vn -0.6526 0.3684 0.6621
vn -0.3437 0.0514 0.9377
vn -0.3478 0.0983 0.9324
vn -0.0539 0.3054 0.9507
vn -0.0529 0.3641 0.9299
vn -0.0860 0.2028 0.9754
vn 0.1113 0.9792 0.1695
vn -0.0870 0.9956 -0.0338
vn 0.1555 0.9878 0.0047
vn 0.3525 0.9355 -0.0241
vn 0.4541 0.8364 0.3070
vn 0.1241 0.8437 0.5222
vn 0.4688 0.5938 0.6539
vn 0.0967 0.7400 0.6656
vn 0.3366 0.3440 0.8766
vn 0.0149 0.5345 0.8450
vn 0.0192 0.2663 0.9637
vn -0.2568 0.8644 0.4322
vn -0.1734 0.9760 0.1316
vn -0.2591 0.7220 0.6415
vn -0.2404 0.4709 0.8488
vn -0.0901 0.3705 0.9245
vn -0.0680 0.2046 0.9765
vn -0.2907 0.3019 -0.9079
vn -0.2834 0.3650 -0.8868
vn -0.2713 0.2051 -0.9404
vn -0.1550 0.9805 -0.1205
vn 0.1035 0.9946 -0.0027
vn -0.1366 0.9894 0.0491
vn -0.3104 0.9391 0.1473
vn -0.5258 0.8414 -0.1245
vn -0.2958 0.8456 -0.4444
vn -0.6674 0.5994 -0.4420
vn -0.3231 0.7417 -0.5877
vn -0.6271 0.3485 -0.6967
vn -0.3138 0.5355 -0.7841
vn -0.3639 0.2696 -0.8916
vn 0.0920 0.8622 -0.4982
vn 0.1240 0.9743 -0.1881
vn 0.0171 0.7200 -0.6938
vn -0.0778 0.4693 -0.8796
vn -0.2465 0.3677 -0.8967
vn -0.2890 0.2099 -0.9340
vn -0.0519 0.0883 -0.9947
vn -0.0600 0.1316 -0.9895
vn 0.0081 0.0547 -0.9985
vn 0.1777 0.9587 -0.2221
vn 0.4915 0.8608 -0.1323
vn 0.0664 0.9973 -0.0318
vn -0.2202 0.9748 -0.0350
vn -0.1471 0.9641 -0.2212
vn 0.0907 0.8198 -0.5654
vn -0.2187 0.8916 -0.3965
vn -0.0750 0.6920 -0.7179
vn -0.2430 0.3972 -0.8849
vn -0.0818 0.4419 -0.8933
vn 0.4340 0.8371 -0.3331
vn 0.2626 0.7167 -0.6460
vn 0.1768 0.6235 -0.7616
vn 0.1062 0.4123 -0.9048
vn -0.0239 0.1660 -0.9858
vn -0.0134 -0.0219 -0.9997
vn -0.0420 0.0087 -0.9991
vn 0.9969 0.0750 0.0224
vn 0.9936 0.1125 0.0140
vn 0.9956 0.0476 0.0812
vn 0.2373 0.9475 0.2141
vn 0.1058 0.8267 0.5526
vn 0.0301 0.9968 0.0743
vn 0.0592 0.9673 -0.2466
vn 0.2628 0.9534 -0.1481
vn 0.6093 0.7803 0.1411
vn 0.4543 0.8661 -0.2086
vn 0.7683 0.6396 -0.0248
vn 0.9138 0.3618 -0.1849
vn 0.9191 0.3937 -0.0163
vn 0.3259 0.8004 0.5032
vn 0.6616 0.6723 0.3322
vn 0.7827 0.5725 0.2442
vn 0.9112 0.3723 0.1765
vn 0.9880 0.1474 0.0457
vn 0.9979 -0.0145 0.0639
vn 0.9995 0.0065 0.0313
vn 0.5583 0.0387 -0.8287
vn 0.6270 0.1640 -0.7615
vn 0.5300 0.1757 -0.8296
vn 0.1622 0.9755 -0.1488
vn 0.5547 0.8144 0.1702
vn 0.1285 0.9853 -0.1123
vn -0.3898 0.8870 -0.2477
vn -0.3844 0.8097 -0.4435
vn 0.3841 0.8068 -0.4489
vn 0.0967 0.6214 -0.7775
vn 0.4248 0.7184 -0.5509
vn 0.2785 0.4171 -0.8651
vn 0.5208 0.4237 -0.7411
vn 0.7473 0.6642 -0.0201
vn 0.5976 0.7757 0.2030
vn 0.7627 0.5451 -0.3480
vn 0.8112 0.2974 -0.5035
vn 0.5595 0.0434 -0.8277
vn 0.5630 0.0832 -0.8222
vn -0.9713 0.0451 0.2336
vn -0.9792 0.1366 0.1498
vn -0.9605 0.1789 0.2133
vn -0.1899 0.9814 0.0284
vn 0.1288 0.9091 -0.3962
vn 0.2191 0.9730 -0.0720
vn 0.3159 0.9302 0.1869
vn -0.1758 0.8068 0.5641
vn -0.5311 0.5856 0.6124
vn -0.7757 0.6156 0.1394
vn -0.6592 0.4521 0.6009
vn -0.8764 0.4354 0.2058
vn -0.7517 0.2553 0.6080
vn -0.9541 0.2292 0.1927
vn -0.9474 0.1429 0.2863
vn -0.7830 0.5693 -0.2507
vn -0.2712 0.8836 -0.3816
vn -0.9092 0.3437 -0.2349
vn -0.9652 0.1491 -0.2147
vn -0.9720 0.0477 0.2302
vn -0.9288 0.3590 -0.0920
vn -0.9363 0.3464 -0.0571
vn -0.9638 0.2330 -0.1300
vn -0.1630 0.9819 0.0968
vn 0.0352 0.9962 -0.0794
vn -0.0111 0.9894 0.1450
vn 0.0070 0.9435 0.3312
vn -0.3153 0.8522 0.4175
vn -0.5000 0.8606 0.0967
vn -0.6629 0.6160 0.4255
vn -0.6414 0.7644 0.0651
vn -0.8650 0.4492 0.2237
vn -0.8041 0.5940 0.0257
vn -0.3991 0.8786 -0.2623
vn -0.1158 0.9791 -0.1674
vn -0.6060 0.7455 -0.2775
vn -0.8241 0.4949 -0.2756
vn -0.9034 0.4077 -0.1329
vn -0.9682 0.2221 -0.1152
vn -0.9659 0.2328 -0.1130
vn -0.7091 0.4483 0.5443
vn -0.6018 0.4370 0.6685
vn -0.5753 0.5002 0.6472
vn -0.2683 0.9446 0.1890
vn -0.6281 0.7633 -0.1510
vn -0.2508 0.9366 0.2447
vn 0.2463 0.8879 0.3885
vn 0.3524 0.8107 0.4676
vn 0.2809 0.7590 0.5873
vn -0.2969 0.8687 0.3966
vn 0.2053 0.5938 0.7780
vn -0.4184 0.7241 0.5482
vn 0.0447 0.4622 0.8857
vn -0.5703 0.5737 0.5879
vn -0.1359 0.2766 0.9513
vn -0.7712 0.6348 -0.0471
vn -0.7466 0.6319 -0.2080
vn -0.8362 0.5385 0.1040
vn -0.8695 0.4661 0.1637
vn -0.8906 0.3974 0.2211
vn -0.4257 0.3783 0.8220
vn -0.4451 0.0412 -0.8945
vn -0.3501 0.1701 -0.9211
vn -0.4603 0.1875 -0.8677
vn -0.0437 0.9783 -0.2025
vn 0.4033 0.8314 -0.3822
vn -0.0317 0.9870 -0.1577
vn -0.3880 0.8983 0.2059
vn -0.5535 0.8257 0.1091
vn -0.1894 0.8244 -0.5333
vn -0.6140 0.6432 -0.4576
vn -0.2607 0.7393 -0.6208
vn -0.6062 0.4352 -0.6657
vn -0.3822 0.4473 -0.8086
vn 0.3384 0.6843 -0.6459
vn 0.4539 0.7945 -0.4035
vn 0.0713 0.5664 -0.8210
vn -0.0386 0.3102 -0.9499
vn -0.4435 0.0463 -0.8951
vn -0.4370 0.0887 -0.8951
vn -0.9712 0.0526 -0.2325
vn -0.9287 0.1776 -0.3257
vn -0.9579 0.1971 -0.2086
vn -0.1698 0.9784 -0.1176
vn -0.0196 0.8152 -0.5789
vn -0.1265 0.9871 -0.0985
vn -0.0768 0.9052 0.4180
vn -0.2601 0.8357 0.4837
vn -0.5234 0.8243 -0.2159
vn -0.7390 0.6532 0.1649
vn -0.6369 0.7401 -0.2160
vn -0.8945 0.4462 0.0295
vn -0.8609 0.4506 -0.2363
vn -0.2666 0.6689 -0.6939
vn -0.0043 0.7763 -0.6304
vn -0.5766 0.5580 -0.5968
vn -0.7482 0.3075 -0.5879
vn -0.9700 0.0610 -0.2353
vn -0.9649 0.1017 -0.2421
vn 0.9374 -0.0297 0.3470
vn 0.9837 0.0766 0.1626
vn -0.0765 0.9475 0.3104
vn 0.6698 0.7275 -0.1487
vn 0.7553 0.0373 0.6544
vn 0.6644 0.7385 -0.1146
vn 0.8403 0.4583 -0.2897
vn 0.1442 0.8693 -0.4727
vn -0.1674 0.7061 0.6881
vn 0.4359 0.5866 0.6825
vn -0.2383 0.6957 0.6776
vn -0.3391 0.0414 0.9399
vn 0.4024 0.7360 0.5444
vn 0.4669 0.7423 0.4806
vn -0.6014 0.7477 -0.2815
vn -0.3445 0.6957 -0.6303
vn 0.6888 0.6522 -0.3165
vn 0.5574 0.0351 -0.8295
vn -0.2050 0.7187 -0.6645
vn -0.9713 0.0454 0.2335
vn -0.4818 0.7659 0.4258
vn -0.4463 0.0373 -0.8941
vn -0.6575 0.7385 -0.1491
vn -0.9719 0.0467 -0.2307
vn -0.5280 0.7503 0.3980
vt 0.500001 0.000000
vt 0.800945 0.127269
vt 0.500001 0.127269
vt 0.500001 0.872731
vt 0.800945 1.000000
vt 0.436688 1.000000
vt 0.500001 0.872731
vt 0.199056 1.000000
vt 0.199056 0.872731
vt 0.199056 0.686366
vt 0.500001 0.686366
vt 0.199056 0.500000
vt 0.500001 0.500000
vt 0.199056 0.313634
vt 0.500001 0.313634
vt 0.199056 0.127269
vt 0.800945 0.686366
vt 0.800945 0.872731
vt 0.800945 0.500000
vt 0.800945 0.313634
vt 0.199056 0.000000
vt 0.500001 1.000000
vt 0.444709 1.000000
vt 0.800945 0.000000
vt 0.557469 0.000000
vt 0.375792 0.127269
vt 0.800945 0.741575
vt 0.615850 0.127269
vt 0.417296 0.000000
s 1
f 5/1/1 13/2/2 17/3/3
f 18/4/4 4/5/5 6/6/6
f 18/7/4 3/8/7 8/9/8
f 18/7/4 11/10/9 21/11/10
f 21/11/10 10/12/11 20/13/12
f 20/13/12 9/14/13 19/15/14
f 19/15/14 7/16/15 17/3/3
f 18/4/4 14/17/16 12/18/17
f 21/11/10 15/19/18 14/17/16
f 20/13/12 16/20/19 15/19/18
f 19/15/14 13/2/2 16/20/19
f 1/21/20 17/3/3 7/16/15
f 26/1/21 34/2/22 38/3/23
f 33/18/24 27/22/25 39/4/26
f 39/7/26 24/8/27 29/9/28
f 29/9/28 42/11/29 39/7/26
f 42/11/29 31/12/30 41/13/31
f 41/13/31 30/14/32 40/15/33
f 40/15/33 28/16/34 38/3/23
f 39/4/26 35/17/35 33/18/24
f 42/11/29 36/19/36 35/17/35
f 36/19/36 40/15/33 37/20/37
f 40/15/33 34/2/22 37/20/37
f 22/21/38 38/3/23 28/16/34
f 47/1/39 55/2/40 59/3/41
f 60/4/42 46/5/43 48/23/44
f 60/7/42 45/8/45 50/9/46
f 50/9/46 63/11/47 60/7/42
f 63/11/47 52/12/48 62/13/49
f 62/13/49 51/14/50 61/15/51
f 51/14/50 59/3/41 61/15/51
f 60/4/42 56/17/52 54/18/53
f 63/11/47 57/19/54 56/17/52
f 57/19/54 61/15/51 58/20/55
f 61/15/51 55/2/40 58/20/55
f 43/21/56 59/3/41 49/16/57
f 68/1/58 76/2/59 80/3/60
f 81/4/61 67/5/62 69/22/63
f 81/7/61 66/8/64 71/9/65
f 71/9/65 84/11/66 81/7/61
f 84/11/66 73/12/67 83/13/68
f 73/12/67 82/15/69 83/13/68
f 72/14/70 80/3/60 82/15/69
f 81/4/61 77/17/71 75/18/72
f 84/11/66 78/19/73 77/17/71
f 78/19/73 82/15/69 79/20/74
f 79/20/74 80/3/60 76/2/59
f 68/1/58 70/16/75 64/21/76
f 86/24/77 101/3/78 89/1/79
f 102/4/80 88/5/81 90/22/82
f 102/7/80 87/8/83 92/9/84
f 92/9/84 105/11/85 102/7/80
f 105/11/85 94/12/86 104/13/87
f 104/13/87 93/14/88 103/15/89
f 103/15/89 91/16/90 101/3/78
f 102/4/80 98/17/91 96/18/92
f 105/11/85 99/19/93 98/17/91
f 99/19/93 103/15/89 100/20/94
f 103/15/89 97/2/95 100/20/94
f 89/1/79 91/16/90 85/21/96
f 107/24/97 122/3/98 110/1/99
f 123/4/100 109/5/101 111/22/102
f 123/7/100 108/8/103 113/9/104
f 113/9/104 126/11/105 123/7/100
f 116/10/106 125/13/107 126/11/105
f 125/13/107 114/14/108 124/15/109
f 124/15/109 112/16/110 122/3/98
f 117/18/111 126/11/105 119/17/112
f 126/11/105 120/19/113 119/17/112
f 125/13/107 121/20/114 120/19/113
f 124/15/109 118/2/115 121/20/114
f 110/1/99 112/16/110 106/21/116
f 128/24/117 143/3/118 131/1/119
f 144/4/120 130/5/121 132/22/122
f 144/7/120 129/8/123 134/9/124
f 134/9/124 147/11/125 144/7/120
f 137/10/126 146/13/127 147/11/125
f 146/13/127 135/14/128 145/15/129
f 135/14/128 143/3/118 145/15/129
f 138/18/130 147/11/125 140/17/131
f 147/11/125 141/19/132 140/17/131
f 146/13/127 142/20/133 141/19/132
f 145/15/129 139/2/134 142/20/133
f 127/21/135 143/3/118 133/16/136
f 149/25/137 164/3/138 152/1/139
f 165/4/140 151/5/141 153/22/142
f 165/7/140 150/8/143 155/9/144
f 165/7/140 158/10/145 168/11/146
f 168/11/146 157/12/147 167/13/148
f 167/13/148 156/14/149 166/15/150
f 166/15/150 154/26/151 164/3/138
f 165/4/140 161/27/152 159/18/153
f 168/11/146 162/19/154 161/27/152
f 167/13/148 163/20/155 162/19/154
f 166/15/150 160/28/156 163/20/155
f 148/29/157 164/3/138 154/26/151
f 170/25/158 185/3/159 173/1/160
f 186/4/161 172/5/162 174/22/163
f 186/7/161 171/8/164 176/9/165
f 186/7/161 179/10/166 189/11/167
f 189/11/167 178/12/168 188/13/169
f 188/13/169 177/14/170 187/15/171
f 187/15/171 175/26/172 185/3/159
f 186/4/161 182/27/173 180/18/174
f 189/11/167 183/19/175 182/27/173
f 183/19/175 187/15/171 184/20/176
f 187/15/171 181/28/177 184/20/176
f 169/29/178 185/3/159 175/26/172
f 191/25/179 206/3/180 194/1/181
f 207/4/182 193/5/183 195/22/184
f 207/7/182 192/8/185 197/9/186
f 207/7/182 200/10/187 210/11/188
f 210/11/188 199/12/189 209/13/190
f 209/13/190 198/14/191 208/15/192
f 208/15/192 196/26/193 206/3/180
f 207/4/182 203/27/194 201/18/195
f 210/11/188 204/19/196 203/27/194
f 209/13/190 205/20/197 204/19/196
f 208/15/192 202/28/198 205/20/197
f 190/29/199 206/3/180 196/26/193
f 215/1/200 223/2/201 227/3/202
f 228/4/203 214/5/204 216/23/205
f 228/7/203 213/8/206 218/9/207
f 218/9/207 231/11/208 228/7/203
f 231/11/208 220/12/209 230/13/210
f 230/13/210 219/14/211 229/15/212
f 219/14/211 227/3/202 229/15/212
f 228/4/203 224/17/213 222/18/214
f 231/11/208 225/19/215 224/17/213
f 225/19/215 229/15/212 226/20/216
f 229/15/212 223/2/201 226/20/216
f 211/21/217 227/3/202 217/16/218
f 233/24/219 248/3/220 236/1/221
f 249/4/222 235/5/223 237/22/224
f 249/7/222 234/8/225 239/9/226
f 239/9/226 252/11/227 249/7/222
f 252/11/227 241/12/228 251/13/229
f 251/13/229 240/14/230 250/15/231
f 250/15/231 238/16/232 248/3/220
f 249/4/222 245/17/233 243/18/234
f 252/11/227 246/19/235 245/17/233
f 246/19/235 250/15/231 247/20/236
f 250/15/231 244/2/237 247/20/236
f 236/1/221 238/16/232 232/21/238
f 254/24/239 269/3/240 257/1/241
f 270/4/242 256/5/243 258/22/244
f 270/7/242 255/8/245 260/9/246
f 260/9/246 273/11/247 270/7/242
f 273/11/247 262/12/248 272/13/249
f 272/13/249 261/14/250 271/15/251
f 271/15/251 259/16/252 269/3/240
f 270/4/242 266/17/253 264/18/254
f 273/11/247 267/19/255 266/17/253
f 267/19/255 271/15/251 268/20/256
f 271/15/251 265/2/257 268/20/256
f 257/1/241 259/16/252 253/21/258
f 275/24/259 290/3/260 278/1/261
f 291/4/262 277/5/263 279/22/264
f 291/7/262 276/8/265 281/9/266
f 281/9/266 294/11/267 291/7/262
f 284/10/268 293/13/269 294/11/267
f 293/13/269 282/14/270 292/15/271
f 282/14/270 290/3/260 292/15/271
f 285/18/272 294/11/267 287/17/273
f 294/11/267 288/19/274 287/17/273
f 293/13/269 289/20/275 288/19/274
f 292/15/271 286/2/276 289/20/275
f 274/21/277 290/3/260 280/16/278
f 296/24/279 311/3/280 299/1/281
f 312/4/282 298/5/283 300/22/284
f 312/7/282 297/8/285 302/9/286
f 302/9/286 315/11/287 312/7/282
f 305/10/288 314/13/289 315/11/287
f 314/13/289 303/14/290 313/15/291
f 303/14/290 311/3/280 313/15/291
f 306/18/292 315/11/287 308/17/293
f 315/11/287 309/19/294 308/17/293
f 314/13/289 310/20/295 309/19/294
f 313/15/291 307/2/296 310/20/295
f 295/21/297 311/3/280 301/16/298
f 320/1/299 328/2/300 332/3/301
f 333/4/302 319/5/303 321/23/304
f 333/7/302 318/8/305 323/9/306
f 323/9/306 336/11/307 333/7/302
f 336/11/307 325/12/308 335/13/309
f 335/13/309 324/14/310 334/15/311
f 324/14/310 332/3/301 334/15/311
f 333/4/302 329/17/312 327/18/313
f 336/11/307 330/19/314 329/17/312
f 330/19/314 334/15/311 331/20/315
f 334/15/311 328/2/300 331/20/315
f 316/21/316 332/3/301 322/16/317
f 341/1/318 349/2/319 353/3/320
f 354/4/321 340/5/322 342/6/323
f 354/7/321 339/8/324 344/9/325
f 354/7/321 347/10/326 357/11/327
f 357/11/327 346/12/328 356/13/329
f 356/13/329 345/14/330 355/15/331
f 355/15/331 343/16/332 353/3/320
f 354/4/321 350/17/333 348/18/334
f 357/11/327 351/19/335 350/17/333
f 356/13/329 352/20/336 351/19/335
f 355/15/331 349/2/319 352/20/336
f 337/21/337 353/3/320 343/16/332
f 359/24/338 374/3/339 362/1/340
f 375/4/341 361/5/342 363/22/343
f 375/7/341 360/8/344 365/9/345
f 365/9/345 378/11/346 375/7/341
f 378/11/346 367/12/347 377/13/348
f 377/13/348 366/14/349 376/15/350
f 366/14/349 374/3/339 376/15/350
f 375/4/341 371/17/351 369/18/352
f 378/11/346 372/19/353 371/17/351
f 372/19/353 376/15/350 373/20/354
f 376/15/350 370/2/355 373/20/354
f 362/1/340 364/16/356 358/21/357
f 380/25/358 395/3/359 383/1/360
f 396/4/361 382/5/362 384/22/363
f 396/7/361 381/8/364 386/9/365
f 396/7/361 389/10/366 399/11/367
f 399/11/367 388/12/368 398/13/369
f 398/13/369 387/14/370 397/15/371
f 397/15/371 385/26/372 395/3/359
f 396/4/361 392/27/373 390/18/374
f 399/11/367 393/19/375 392/27/373
f 398/13/369 394/20/376 393/19/375
f 397/15/371 391/28/377 394/20/376
f 379/29/378 395/3/359 385/26/372
f 404/1/379 412/2/380 416/3/381
f 417/4/382 403/5/383 405/23/384
f 417/7/382 402/8/385 407/9/386
f 407/9/386 420/11/387 417/7/382
f 420/11/387 409/12/388 419/13/389
f 419/13/389 408/14/390 418/15/391
f 408/14/390 416/3/381 418/15/391
f 417/4/382 413/17/392 411/18/393
f 420/11/387 414/19/394 413/17/392
f 414/19/394 418/15/391 415/20/395
f 418/15/391 412/2/380 415/20/395
f 400/21/396 416/3/381 406/16/397
f 425/1/398 433/2/399 437/3/400
f 438/4/401 424/5/402 426/23/403
f 438/7/401 423/8/404 428/9/405
f 428/9/405 441/11/406 438/7/401
f 441/11/406 430/12/407 440/13/408
f 440/13/408 429/14/409 439/15/410
f 429/14/409 437/3/400 439/15/410
f 438/4/401 434/17/411 432/18/412
f 441/11/406 435/19/413 434/17/411
f 435/19/413 439/15/410 436/20/414
f 439/15/410 433/2/399 436/20/414
f 421/21/415 437/3/400 427/16/416
f 5/1/1 2/24/417 13/2/2
f 18/4/4 12/18/17 4/5/5
f 18/7/4 6/6/6 3/8/7
f 18/7/4 8/9/8 11/10/9
f 21/11/10 11/10/9 10/12/11
f 20/13/12 10/12/11 9/14/13
f 19/15/14 9/14/13 7/16/15
f 18/4/4 21/11/10 14/17/16
f 21/11/10 20/13/12 15/19/18
f 20/13/12 19/15/14 16/20/19
f 19/15/14 17/3/3 13/2/2
f 1/21/20 5/1/1 17/3/3
f 26/1/21 23/24/418 34/2/22
f 33/18/24 25/5/419 27/22/25
f 39/7/26 27/22/25 24/8/27
f 29/9/28 32/10/420 42/11/29
f 42/11/29 32/10/420 31/12/30
f 41/13/31 31/12/30 30/14/32
f 40/15/33 30/14/32 28/16/34
f 39/4/26 42/11/29 35/17/35
f 42/11/29 41/13/31 36/19/36
f 36/19/36 41/13/31 40/15/33
f 40/15/33 38/3/23 34/2/22
f 22/21/38 26/1/21 38/3/23
f 47/1/39 44/24/421 55/2/40
f 60/4/42 54/18/53 46/5/43
f 60/7/42 48/23/44 45/8/45
f 50/9/46 53/10/422 63/11/47
f 63/11/47 53/10/422 52/12/48
f 62/13/49 52/12/48 51/14/50
f 51/14/50 49/16/57 59/3/41
f 60/4/42 63/11/47 56/17/52
f 63/11/47 62/13/49 57/19/54
f 57/19/54 62/13/49 61/15/51
f 61/15/51 59/3/41 55/2/40
f 43/21/56 47/1/39 59/3/41
f 68/1/58 65/24/423 76/2/59
f 81/4/61 75/18/72 67/5/62
f 81/7/61 69/22/63 66/8/64
f 71/9/65 74/10/424 84/11/66
f 84/11/66 74/10/424 73/12/67
f 73/12/67 72/14/70 82/15/69
f 72/14/70 70/16/75 80/3/60
f 81/4/61 84/11/66 77/17/71
f 84/11/66 83/13/68 78/19/73
f 78/19/73 83/13/68 82/15/69
f 79/20/74 82/15/69 80/3/60
f 68/1/58 80/3/60 70/16/75
f 86/24/77 97/2/95 101/3/78
f 102/4/80 96/18/92 88/5/81
f 102/7/80 90/22/82 87/8/83
f 92/9/84 95/10/425 105/11/85
f 105/11/85 95/10/425 94/12/86
f 104/13/87 94/12/86 93/14/88
f 103/15/89 93/14/88 91/16/90
f 102/4/80 105/11/85 98/17/91
f 105/11/85 104/13/87 99/19/93
f 99/19/93 104/13/87 103/15/89
f 103/15/89 101/3/78 97/2/95
f 89/1/79 101/3/78 91/16/90
f 107/24/97 118/2/115 122/3/98
f 123/4/100 117/18/111 109/5/101
f 123/7/100 111/22/102 108/8/103
f 113/9/104 116/10/106 126/11/105
f 116/10/106 115/12/426 125/13/107
f 125/13/107 115/12/426 114/14/108
f 124/15/109 114/14/108 112/16/110
f 117/18/111 123/4/100 126/11/105
f 126/11/105 125/13/107 120/19/113
f 125/13/107 124/15/109 121/20/114
f 124/15/109 122/3/98 118/2/115
f 110/1/99 122/3/98 112/16/110
f 128/24/117 139/2/134 143/3/118
f 144/4/120 138/18/130 130/5/121
f 144/7/120 132/22/122 129/8/123
f 134/9/124 137/10/126 147/11/125
f 137/10/126 136/12/427 146/13/127
f 146/13/127 136/12/427 135/14/128
f 135/14/128 133/16/136 143/3/118
f 138/18/130 144/4/120 147/11/125
f 147/11/125 146/13/127 141/19/132
f 146/13/127 145/15/129 142/20/133
f 145/15/129 143/3/118 139/2/134
f 127/21/135 131/1/119 143/3/118
f 149/25/137 160/28/156 164/3/138
f 165/4/140 159/18/153 151/5/141
f 165/7/140 153/22/142 150/8/143
f 165/7/140 155/9/144 158/10/145
f 168/11/146 158/10/145 157/12/147
f 167/13/148 157/12/147 156/14/149
f 166/15/150 156/14/149 154/26/151
f 165/4/140 168/11/146 161/27/152
f 168/11/146 167/13/148 162/19/154
f 167/13/148 166/15/150 163/20/155
f 166/15/150 164/3/138 160/28/156
f 148/29/157 152/1/139 164/3/138
f 170/25/158 181/28/177 185/3/159
f 186/4/161 180/18/174 172/5/162
f 186/7/161 174/22/163 171/8/164
f 186/7/161 176/9/165 179/10/166
f 189/11/167 179/10/166 178/12/168
f 188/13/169 178/12/168 177/14/170
f 187/15/171 177/14/170 175/26/172
f 186/4/161 189/11/167 182/27/173
f 189/11/167 188/13/169 183/19/175
f 183/19/175 188/13/169 187/15/171
f 187/15/171 185/3/159 181/28/177
f 169/29/178 173/1/160 185/3/159
f 191/25/179 202/28/198 206/3/180
f 207/4/182 201/18/195 193/5/183
f 207/7/182 195/22/184 192/8/185
f 207/7/182 197/9/186 200/10/187
f 210/11/188 200/10/187 199/12/189
f 209/13/190 199/12/189 198/14/191
f 208/15/192 198/14/191 196/26/193
f 207/4/182 210/11/188 203/27/194
f 210/11/188 209/13/190 204/19/196
f 209/13/190 208/15/192 205/20/197
f 208/15/192 206/3/180 202/28/198
f 190/29/199 194/1/181 206/3/180
f 215/1/200 212/24/428 223/2/201
f 228/4/203 222/18/214 214/5/204
f 228/7/203 216/23/205 213/8/206
f 218/9/207 221/10/429 231/11/208
f 231/11/208 221/10/429 220/12/209
f 230/13/210 220/12/209 219/14/211
f 219/14/211 217/16/218 227/3/202
f 228/4/203 231/11/208 224/17/213
f 231/11/208 230/13/210 225/19/215
f 225/19/215 230/13/210 229/15/212
f 229/15/212 227/3/202 223/2/201
f 211/21/217 215/1/200 227/3/202
f 233/24/219 244/2/237 248/3/220
f 249/4/222 243/18/234 235/5/223
f 249/7/222 237/22/224 234/8/225
f 239/9/226 242/10/430 252/11/227
f 252/11/227 242/10/430 241/12/228
f 251/13/229 241/12/228 240/14/230
f 250/15/231 240/14/230 238/16/232
f 249/4/222 252/11/227 245/17/233
f 252/11/227 251/13/229 246/19/235
f 246/19/235 251/13/229 250/15/231
f 250/15/231 248/3/220 244/2/237
f 236/1/221 248/3/220 238/16/232
f 254/24/239 265/2/257 269/3/240
f 270/4/242 264/18/254 256/5/243
f 270/7/242 258/22/244 255/8/245
f 260/9/246 263/10/431 273/11/247
f 273/11/247 263/10/431 262/12/248
f 272/13/249 262/12/248 261/14/250
f 271/15/251 261/14/250 259/16/252
f 270/4/242 273/11/247 266/17/253
f 273/11/247 272/13/249 267/19/255
f 267/19/255 272/13/249 271/15/251
f 271/15/251 269/3/240 265/2/257
f 257/1/241 269/3/240 259/16/252
f 275/24/259 286/2/276 290/3/260
f 291/4/262 285/18/272 277/5/263
f 291/7/262 279/22/264 276/8/265
f 281/9/266 284/10/268 294/11/267
f 284/10/268 283/12/432 293/13/269
f 293/13/269 283/12/432 282/14/270
f 282/14/270 280/16/278 290/3/260
f 285/18/272 291/4/262 294/11/267
f 294/11/267 293/13/269 288/19/274
f 293/13/269 292/15/271 289/20/275
f 292/15/271 290/3/260 286/2/276
f 274/21/277 278/1/261 290/3/260
f 296/24/279 307/2/296 311/3/280
f 312/4/282 306/18/292 298/5/283
f 312/7/282 300/22/284 297/8/285
f 302/9/286 305/10/288 315/11/287
f 305/10/288 304/12/433 314/13/289
f 314/13/289 304/12/433 303/14/290
f 303/14/290 301/16/298 311/3/280
f 306/18/292 312/4/282 315/11/287
f 315/11/287 314/13/289 309/19/294
f 314/13/289 313/15/291 310/20/295
f 313/15/291 311/3/280 307/2/296
f 295/21/297 299/1/281 311/3/280
f 320/1/299 317/24/434 328/2/300
f 333/4/302 327/18/313 319/5/303
f 333/7/302 321/23/304 318/8/305
f 323/9/306 326/10/435 336/11/307
f 336/11/307 326/10/435 325/12/308
f 335/13/309 325/12/308 324/14/310
f 324/14/310 322/16/317 332/3/301
f 333/4/302 336/11/307 329/17/312
f 336/11/307 335/13/309 330/19/314
f 330/19/314 335/13/309 334/15/311
f 334/15/311 332/3/301 328/2/300
f 316/21/316 320/1/299 332/3/301
f 341/1/318 338/24/436 349/2/319
f 354/4/321 348/18/334 340/5/322
f 354/7/321 342/6/323 339/8/324
f 354/7/321 344/9/325 347/10/326
f 357/11/327 347/10/326 346/12/328
f 356/13/329 346/12/328 345/14/330
f 355/15/331 345/14/330 343/16/332
f 354/4/321 357/11/327 350/17/333
f 357/11/327 356/13/329 351/19/335
f 356/13/329 355/15/331 352/20/336
f 355/15/331 353/3/320 349/2/319
f 337/21/337 341/1/318 353/3/320
f 359/24/338 370/2/355 374/3/339
f 375/4/341 369/18/352 361/5/342
f 375/7/341 363/22/343 360/8/344
f 365/9/345 368/10/437 378/11/346
f 378/11/346 368/10/437 367/12/347
f 377/13/348 367/12/347 366/14/349
f 366/14/349 364/16/356 374/3/339
f 375/4/341 378/11/346 371/17/351
f 378/11/346 377/13/348 372/19/353
f 372/19/353 377/13/348 376/15/350
f 376/15/350 374/3/339 370/2/355
f 362/1/340 374/3/339 364/16/356
f 380/25/358 391/28/377 395/3/359
f 396/4/361 390/18/374 382/5/362
f 396/7/361 384/22/363 381/8/364
f 396/7/361 386/9/365 389/10/366
f 399/11/367 389/10/366 388/12/368
f 398/13/369 388/12/368 387/14/370
f 397/15/371 387/14/370 385/26/372
f 396/4/361 399/11/367 392/27/373
f 399/11/367 398/13/369 393/19/375
f 398/13/369 397/15/371 394/20/376
f 397/15/371 395/3/359 391/28/377
f 379/29/378 383/1/360 395/3/359
f 404/1/379 401/24/438 412/2/380
f 417/4/382 411/18/393 403/5/383
f 417/7/382 405/23/384 402/8/385
f 407/9/386 410/10/439 420/11/387
f 420/11/387 410/10/439 409/12/388
f 419/13/389 409/12/388 408/14/390
f 408/14/390 406/16/397 416/3/381
f 417/4/382 420/11/387 413/17/392
f 420/11/387 419/13/389 414/19/394
f 414/19/394 419/13/389 418/15/391
f 418/15/391 416/3/381 412/2/380
f 400/21/396 404/1/379 416/3/381
f 425/1/398 422/24/440 433/2/399
f 438/4/401 432/18/412 424/5/402
f 438/7/401 426/23/403 423/8/404
f 428/9/405 431/10/441 441/11/406
f 441/11/406 431/10/441 430/12/407
f 440/13/408 430/12/407 429/14/409
f 429/14/409 427/16/416 437/3/400
f 438/4/401 441/11/406 434/17/411
f 441/11/406 440/13/408 435/19/413
f 435/19/413 440/13/408 439/15/410
f 439/15/410 437/3/400 433/2/399
f 421/21/415 425/1/398 437/3/400
