# Blender 4.3.2
# www.blender.org
o PalmTreeE
v -0.652865 -0.028316 -0.613001
v 0.761138 -0.028316 0.244718
v 1.226479 3.985234 -3.224987
v 2.322309 3.898342 -2.806569
v 0.054136 -0.028316 -0.184142
v 1.759534 3.853172 -2.986200
v -0.623000 0.717566 -0.594885
v 0.620303 4.292003 -2.360329
v -0.485919 2.002120 -0.626365
v -0.271060 2.935642 -1.056238
v 0.112053 3.697090 -1.618063
v 2.121834 4.269852 -2.006767
v 0.789070 0.717243 0.261661
v 1.561458 3.719960 -0.835650
v 1.139748 2.849161 -0.196909
v 0.928084 2.002121 0.231354
v 0.082068 0.717243 -0.167198
v 1.366820 3.943602 -2.163682
v 0.287039 1.839368 -0.306238
v 0.503291 2.740870 -0.735644
v 0.872114 3.460987 -1.257673
v 0.660719 -0.024871 -0.564047
v -0.107553 -0.024871 0.668744
v 2.951267 4.081128 0.848523
v 2.459856 3.891208 2.014208
v 0.276582 -0.024871 0.052348
v 2.789072 3.774409 1.514639
v 0.644492 0.719543 -0.538009
v 1.945130 4.218351 0.357492
v 0.670688 2.007636 -0.417282
v 1.045956 2.943731 -0.224029
v 1.535333 3.707277 0.118393
v 1.648205 4.281618 1.773646
v -0.122730 0.719219 0.693096
v 0.832824 3.730210 1.383073
v 0.276304 2.857013 1.005938
v -0.097584 2.007638 0.815509
v 0.261406 0.719219 0.076700
v 1.907991 3.954468 1.132928
v 0.381350 1.844436 0.258191
v 0.756193 2.748423 0.452663
v 1.210770 3.470524 0.782113
v 0.436869 -0.029480 0.844579
v -0.686867 -0.029480 -0.459923
v -1.407338 5.263212 2.635046
v -2.561748 5.039476 1.866592
v -0.124972 -0.029480 0.192320
v -1.989274 4.969241 2.377094
v 0.430152 0.934067 0.812140
v -0.525917 5.475698 1.770310
v 0.399944 2.604171 0.765963
v 0.212641 3.815992 1.075331
v -0.138453 4.802649 1.448159
v -2.090143 5.493838 0.842863
v -0.695833 0.933736 -0.489491
v -1.420942 4.834791 0.235368
v -0.972876 3.704923 -0.210941
v -0.748833 2.604766 -0.531350
v -0.128828 0.933614 0.161285
v -1.371158 5.119283 1.531110
v -0.278778 2.392615 0.204873
v -0.480577 3.563051 0.517139
v -0.843629 4.496809 0.866343
v -0.503068 -0.024871 0.709602
v -0.124461 -0.024871 -0.686469
v -2.804457 3.062036 -0.981974
v -2.547771 2.842006 -2.039462
v -0.317985 -0.024871 0.011015
v -2.638543 2.706664 -1.516636
v -0.527789 0.592849 0.664693
v -1.771641 3.139162 -0.401186
v -0.614816 1.591524 0.518958
v -0.983343 2.290114 0.315392
v -1.481351 2.830148 -0.047946
v -1.619130 3.054904 -1.892870
v -0.097318 0.551642 -0.694456
v -0.648829 2.602093 -1.299532
v -0.344588 2.088695 -0.914542
v -0.069171 1.502645 -0.768791
v -0.320544 0.569884 -0.010772
v -1.810384 2.856875 -1.218482
v -0.455278 1.409420 -0.157554
v -0.766195 2.034381 -0.334929
v -1.065589 2.465152 -0.701886
v -0.464975 -0.024871 -0.061249
v 0.517139 -0.024871 -0.527043
v -0.923463 2.173832 -1.526020
v -0.218051 2.100319 -2.103307
v -0.003038 -0.024871 -0.290774
v -0.585906 2.015111 -1.781861
v -0.437187 0.389992 -0.110828
v -0.655340 2.074177 -0.908822
v -0.369967 1.051050 -0.205787
v -0.405034 1.505233 -0.384430
v -0.576593 1.871532 -0.674995
v 0.151528 2.147509 -1.615408
v 0.530912 0.329793 -0.578461
v 0.427362 1.746562 -1.178472
v 0.442425 1.379677 -0.900061
v 0.557358 0.979930 -0.708320
v 0.032447 0.360554 -0.330343
v -0.266323 2.009935 -1.361606
v 0.047838 0.922498 -0.504324
v -0.059927 1.341646 -0.713677
v -0.065660 1.651890 -0.971311
v 0.309523 -0.024871 -0.519430
v 0.543926 -0.024871 0.540627
v 1.731454 1.947608 -0.804775
v 2.137328 1.936683 0.022268
v 0.430009 -0.024871 -0.022361
v 1.912083 1.830947 -0.417896
v 0.332596 0.321177 -0.520790
v 1.076194 1.844423 -0.716214
v 0.377941 0.916549 -0.513034
v 0.537745 1.326524 -0.562817
v 0.841133 1.657323 -0.690988
v 1.577664 1.974346 0.233725
v 0.572091 0.328966 0.524794
v 1.110668 1.610178 0.396189
v 0.854462 1.272359 0.372907
v 0.661132 0.914159 0.500278
v 0.441756 0.324237 -0.021827
v 1.432261 1.821995 -0.249190
v 0.580582 0.831936 -0.044676
v 0.788661 1.208087 -0.174207
v 1.026056 1.493482 -0.188444
v 0.954067 -0.024871 0.040510
v -0.577954 -0.024871 0.828582
v 1.958972 2.713111 2.198663
v 1.016369 2.568002 2.957296
v 0.239979 -0.024871 0.426286
v 1.439002 2.547696 2.626988
v 0.963783 0.464909 0.091068
v 1.557796 2.557301 1.222919
v 0.967332 1.275602 0.190477
v 1.106532 1.837881 0.434272
v 1.424669 2.297394 0.863546
v 0.302518 2.718765 2.382287
v -0.543943 0.452438 0.881005
v -0.134444 2.209678 1.713958
v -0.200952 1.745588 1.295799
v -0.473090 1.251014 1.034088
v 0.242204 0.457961 0.460123
v 0.985503 2.521453 1.957341
v 0.331074 1.152056 0.686912
v 0.612419 1.671405 0.971218
v 0.729143 2.064795 1.343000
v 0.219679 -0.024871 0.493431
v -0.643502 -0.024871 -0.165040
v -0.682341 1.947608 1.629069
v -1.526124 1.936683 1.259252
v -0.193149 -0.024871 0.191493
v -1.069997 1.830947 1.450115
v 0.202931 0.321177 0.509360
v -0.238961 1.844423 1.138534
v 0.163288 0.916549 0.532700
v 0.073347 1.326524 0.673861
v -0.075684 1.657323 0.967564
v -1.235080 1.974347 0.736537
v -0.654799 0.328966 -0.134768
v -0.983205 1.610178 0.311051
v -0.772471 1.272359 0.163488
v -0.706993 0.914159 -0.058577
v -0.202468 0.324237 0.198666
v -0.812352 1.821995 1.011582
v -0.293767 0.831936 0.305714
v -0.369118 1.208087 0.538946
v -0.541268 1.493482 0.703029
v -0.061567 -0.024871 -0.721773
v 0.117087 -0.024871 0.597379
v 2.635201 3.323842 -1.244667
v 3.102350 3.179041 -0.152960
v 0.027760 -0.024871 -0.062197
v 2.907439 3.111622 -0.731861
v -0.016585 0.596564 -0.719707
v 1.623168 3.514708 -0.970596
v 0.146148 1.699306 -0.695840
v 0.577023 2.478795 -0.811619
v 1.165531 3.102307 -0.882321
v 2.457210 3.562310 0.160787
v 0.161806 0.632039 0.597654
v 1.410456 3.153646 0.420203
v 0.748090 2.440292 0.509452
v 0.324802 1.735109 0.623313
v 0.072479 0.614138 -0.061923
v 2.125691 3.310399 -0.443797
v 0.327422 1.571102 -0.043932
v 0.756872 2.323056 -0.157451
v 1.310910 2.913168 -0.215546
v -0.788944 -0.024871 0.042866
v 0.655197 -0.024871 -0.107573
v -1.233047 2.961164 -3.004814
v -0.062507 2.832163 -3.387316
v -0.066874 -0.024871 -0.032353
v -0.700173 2.772100 -3.194278
v -0.785180 0.531470 -0.006104
v -1.003598 3.131204 -1.802190
v -0.753692 1.513888 -0.182712
v -0.865435 2.208323 -0.656343
v -1.013006 3.034169 -1.427511
v 0.257861 3.173613 -2.673443
v 0.656998 0.563075 -0.156317
v 0.554951 3.084381 -1.672598
v 0.580542 2.174022 -0.798447
v 0.690449 1.545784 -0.333152
v -0.065072 0.547127 -0.081097
v -0.412397 2.949187 -2.332339
v -0.036892 1.399672 -0.358431
v -0.146219 2.069577 -0.830431
v -0.190936 2.595301 -1.436395
v 0.254925 -0.024871 0.811595
v -0.286790 -0.024871 -0.654830
v -2.350668 2.869924 1.905887
v -3.067954 2.792281 0.715787
v -0.015932 -0.024871 0.078382
v -3.145671 2.772100 1.581498
v 0.202837 0.531470 0.820716
v -1.612620 3.131204 1.527117
v 0.010212 1.513888 0.834923
v -0.454100 2.208323 1.077687
v -1.219253 3.034169 1.437101
v -2.857603 3.173612 0.443318
v -0.338119 0.563075 -0.643722
v -1.892692 3.084381 -0.133268
v -0.987608 2.174021 -0.392874
v -0.531504 1.545784 -0.631502
v -0.067261 0.547127 0.089490
v -2.323184 2.949187 1.051637
v -0.364080 1.399672 0.133986
v -0.827335 2.069577 0.373795
v -1.447553 2.595300 0.581897
v 0.919856 -0.024871 0.140233
v -0.781343 -0.024871 -0.033905
v 0.728965 2.657612 3.417016
v -0.785522 2.568520 3.540552
v 0.069256 -0.024871 0.053164
v 0.026806 2.518359 4.032601
v 0.902375 0.519584 0.233261
v 0.712988 2.976641 2.529427
v 0.821013 1.487064 0.495872
v 0.833466 2.143148 1.115079
v 0.814829 2.907671 2.094140
v -0.952282 2.970392 3.229237
v -0.796506 0.558750 0.059316
v -1.052065 2.959965 2.000159
v -0.867676 2.117209 0.926387
v -0.880186 1.526530 0.321734
v 0.054094 0.539017 0.146386
v -0.096510 2.763170 2.983728
v -0.047557 1.369348 0.516774
v -0.037436 2.001110 1.131847
v -0.133914 2.479849 1.875519
v 0.245482 -0.026875 0.671798
v -0.610267 -0.026875 -0.130392
v -1.101874 1.160987 1.973584
v -1.799129 1.008575 1.482282
v -0.164989 -0.026875 0.301932
v -1.472291 1.042030 1.749941
v 0.177383 0.203935 0.727182
v -0.562976 1.235869 1.519402
v 0.050122 0.664549 0.816010
v -0.115729 0.951481 1.002728
v -0.347569 1.141690 1.335476
v -1.550284 1.213221 0.962019
v -0.673541 0.177290 -0.059423
v -1.201647 1.065661 0.571781
v -0.978359 0.856112 0.328457
v -0.817662 0.619299 0.082939
v -0.224126 0.191862 0.348678
v -1.102380 1.122051 1.309061
v -0.401841 0.561361 0.510238
v -0.556133 0.808983 0.792713
v -0.794014 0.980574 0.979603
v -0.474545 -0.024871 0.461433
v -0.120698 -0.024871 -0.564747
v -2.102990 1.176708 -0.167442
v -2.009612 1.092430 -1.080530
v -0.317415 -0.024871 -0.025147
v -2.034866 1.050480 -0.581593
v -0.547080 0.205589 0.424864
v -1.496216 1.245891 0.099211
v -0.670238 0.669938 0.350980
v -0.890670 0.959197 0.281527
v -1.259398 1.150948 0.211575
v -1.439731 1.254591 -0.978132
v -0.204571 0.178727 -0.591344
v -0.912034 1.074303 -0.851445
v -0.660165 0.863055 -0.675675
v -0.379321 0.624321 -0.659221
v -0.379264 0.193418 -0.057412
v -1.546622 1.156375 -0.479997
v -0.582935 0.565913 -0.146401
v -0.879871 0.815543 -0.169872
v -1.127693 0.988526 -0.300096
v -0.468805 -0.024871 -0.259578
v 0.409344 -0.024871 -0.225905
v -0.363176 1.176708 -1.668903
v 0.366284 1.092430 -1.810565
v -0.054913 -0.024871 -0.251866
v -0.026273 1.050480 -1.713186
v -0.457470 0.205589 -0.324359
v -0.427586 1.245891 -1.136197
v -0.429082 0.669938 -0.437115
v -0.426930 0.959197 -0.624212
v -0.459150 1.150948 -0.926344
v 0.420512 1.254591 -1.344950
v 0.410296 0.178727 -0.297135
v 0.446028 1.074303 -0.906331
v 0.368856 0.863054 -0.669951
v 0.421935 0.624321 -0.448463
v -0.044408 0.193418 -0.307358
v 0.009441 1.156375 -1.311022
v -0.023188 0.565913 -0.486045
v -0.074600 0.815543 -0.721649
v -0.031774 0.988526 -0.944216
v -0.609059 -0.024871 0.534463
v -0.159553 -0.024871 -0.455212
v -2.121318 1.898355 -0.409119
v -1.928059 1.943817 -0.998257
v -0.404372 -0.024871 0.060996
v -2.059895 1.769690 -0.665675
v -0.619835 0.389992 0.478658
v -1.603530 1.827726 -0.008635
v -0.642297 1.005546 0.414643
v -0.879237 1.460599 0.400308
v -1.304706 1.744995 0.172542
v -1.340204 2.007555 -0.999775
v -0.182220 0.329793 -0.503375
v -0.719778 1.705218 -0.950433
v -0.433098 1.335948 -0.831326
v -0.212427 0.933298 -0.657749
v -0.402807 0.360554 0.007870
v -1.584024 1.757707 -0.557827
v -0.509191 0.896544 -0.130777
v -0.785975 1.273341 -0.216783
v -1.018841 1.552781 -0.415060
v 0.323318 -0.024871 0.880693
v -0.581266 -0.024871 0.180205
v -1.083078 1.898355 2.893336
v -1.722040 1.943817 2.574526
v -0.042798 -0.024871 0.563788
v -1.367776 1.769690 2.785901
v 0.387948 0.389992 0.898145
v -0.464711 1.827726 2.213608
v 0.306198 1.005546 0.923520
v 0.222155 1.460599 1.249455
v -0.166658 1.744995 1.816923
v -1.557191 2.007555 1.762604
v -0.644406 0.329793 0.207262
v -1.323221 1.705218 0.910186
v -1.101702 1.335948 0.524799
v -0.834752 0.933298 0.235368
v -0.104914 0.360554 0.556944
v -1.105886 1.757707 2.138261
v -0.298334 0.896544 0.691632
v -0.478070 1.273341 1.066270
v -0.777562 1.552781 1.370365
v 0.718007 -0.024871 0.106872
v -0.173021 -0.024871 0.568986
v 1.246207 1.853503 2.164017
v 0.726057 1.914894 2.566390
v 0.336342 -0.024871 0.279493
v 1.040108 1.731638 2.358239
v 0.751335 0.365463 0.059788
v 1.124643 1.786867 1.348087
v 0.711327 0.980204 0.139824
v 0.864488 1.429006 0.351517
v 1.023559 1.707537 0.925006
v 0.292298 1.991831 2.076662
v -0.196978 0.334785 0.634022
v -0.123573 1.703359 1.511045
v -0.248286 1.339175 1.157516
v -0.288862 0.939121 0.807008
v 0.291420 0.350343 0.329032
v 0.760424 1.728341 1.857408
v 0.267181 0.885298 0.550616
v 0.405641 1.256558 0.864196
v 0.442447 1.533930 1.248533
v 1.036485 -0.024871 0.024110
v -0.799380 -0.024871 0.416318
v 1.784000 3.573107 2.725132
v 0.427993 3.421216 3.357504
v 0.118559 -0.024871 0.220185
v 1.232722 3.373535 3.146777
v 1.001941 0.634122 0.013559
v 1.418124 3.717359 1.429494
v 0.941962 1.767928 0.018288
v 1.139862 2.590613 0.359347
v 1.312746 3.260438 0.890287
v -0.287596 3.729675 2.440365
v -0.832355 0.633898 0.409421
v -0.518474 3.282259 1.482341
v -0.710897 2.515210 0.820191
v -0.900130 1.768332 0.438212
v 0.086855 0.633815 0.207632
v 0.746990 3.475395 2.112812
v 0.050075 1.624306 0.373873
v 0.243161 2.418896 0.730315
v 0.387191 3.052807 1.260329
v -0.095115 -0.027581 1.145791
v -0.408090 -0.027581 -0.912394
v -3.134479 3.962437 1.794975
v -3.744993 3.793996 0.252135
v -0.251570 -0.027581 0.116709
v -3.564845 3.741119 1.156878
v -0.081154 0.703217 1.108248
v -1.676062 4.122407 1.475485
v -0.082430 1.960564 1.041540
v -0.473045 2.872889 1.238098
v -1.072205 3.615699 1.394430
v -2.682485 4.136065 -0.479471
v -0.398278 0.702968 -0.948441
v -1.606715 3.639898 -0.671806
v -0.861016 2.789270 -0.841105
v -0.425675 1.961011 -1.025369
v -0.235581 0.702877 0.082441
v -2.388184 3.854078 0.687434
v -0.417181 1.801293 0.030751
v -0.824507 2.682462 0.220965
v -1.420739 3.385445 0.345416
v -0.734840 -0.041911 0.410525
v 0.336374 -0.042225 -0.647741
v -2.643524 4.426181 -1.299337
v -1.996083 4.261256 -2.312660
v -0.201563 -0.043654 -0.120625
v -2.452930 4.169077 -1.822409
v -0.727669 0.786728 0.384656
v -1.836734 4.612018 -0.581479
v -0.738989 2.213578 0.312103
v -1.062829 3.244390 0.129680
v -1.483408 4.056798 -0.219515
v -1.058731 4.669570 -1.947765
v 0.340961 0.786160 -0.675356
v -0.475000 4.102662 -1.387645
v -0.010951 3.147094 -0.981211
v 0.326201 2.214960 -0.766076
v -0.196974 0.783552 -0.145246
v -1.678110 4.300302 -1.333195
v -0.290789 2.027761 -0.314408
v -0.626534 3.016601 -0.516737
v -1.005933 3.797178 -0.859210
v -0.395571 -0.021885 0.724596
v -0.456271 -0.021885 -0.280320
v -2.543245 1.670460 0.960370
v -2.702622 1.710464 0.352561
v -0.398032 -0.021885 0.298513
v -2.637172 1.557240 0.709619
v -0.369656 0.343174 0.777498
v -1.734787 1.608309 0.975662
v -0.433846 0.884831 0.738091
v -0.698334 1.285256 0.871410
v -1.299397 1.535510 0.942999
v -2.069572 1.766550 -0.009007
v -0.510786 0.290202 -0.306433
v -1.369642 1.500508 -0.348294
v -0.986100 1.175569 -0.425071
v -0.639741 0.821257 -0.416146
v -0.429512 0.317270 0.253426
v -2.056617 1.546696 0.507531
v -0.630805 0.788915 0.203466
v -0.983009 1.120477 0.301673
v -1.357940 1.366371 0.279706
v -0.517497 -0.018245 -0.354996
v 0.464615 -0.018245 0.249497
v 0.612620 2.438348 -2.449305
v 1.600693 2.332123 -2.163015
v -0.026441 -0.018245 -0.052749
v 1.105736 2.282664 -2.350214
v -0.491416 0.437635 -0.384007
v 0.240679 2.578366 -1.620626
v -0.386081 1.246599 -0.479959
v -0.227119 1.818427 -0.832273
v 0.048592 2.275831 -1.265477
v 1.456767 2.613286 -1.558426
v 0.489349 0.463659 0.219679
v 1.055943 2.313493 -0.714524
v 0.752112 1.790182 -0.221642
v 0.596030 1.272864 0.124535
v -0.001706 0.450527 -0.082568
v 0.869600 2.428486 -1.668178
v 0.150315 1.152549 -0.243540
v 0.310009 1.704178 -0.593658
v 0.575246 2.137080 -0.996841
v -0.199987 -0.021761 0.787432
v 0.102909 -0.021761 -0.676377
v -2.756435 2.325274 0.332382
v -2.705692 2.247323 -0.995344
v -0.048539 -0.021761 0.055527
v -3.171660 2.203435 -0.332443
v -0.271387 0.454609 0.764026
v -2.057358 2.604409 0.396792
v -0.469820 1.301105 0.670115
v -0.957644 1.875145 0.626317
v -1.725225 2.544063 0.523742
v -2.444766 2.598941 -1.112876
v 0.031130 0.488878 -0.697784
v -1.469148 2.589818 -1.091209
v -0.643316 1.852450 -0.836158
v -0.166924 1.335636 -0.793693
v -0.120318 0.471612 0.034120
v -2.335361 2.417632 -0.347135
v -0.401468 1.198109 -0.086939
v -0.885814 1.750868 -0.132400
v -1.460817 2.169740 -0.281892
v 0.222868 -0.021761 -0.781264
v -0.122592 -0.021761 0.673088
v 2.764957 2.325274 -0.251847
v 2.675511 2.247323 1.073834
v 0.050138 -0.021761 -0.054088
v 3.160616 2.203435 0.424805
v 0.293555 0.454609 -0.755786
v 2.068055 2.604409 -0.336618
v 0.489165 1.301105 -0.656127
v 0.975503 1.875145 -0.598120
v 1.739767 2.544063 -0.473201
v 2.411268 2.598941 1.183706
v -0.051469 0.488878 0.696579
v 1.436697 2.589818 1.133593
v 0.618655 1.852450 0.854565
v 0.143704 1.335636 0.798224
v 0.121262 0.471612 -0.030596
v 2.324243 2.417632 0.415100
v 0.398762 1.198109 0.098611
v 0.881576 1.750868 0.158180
v 1.451974 2.169740 0.324378
v 0.254465 -0.029480 -1.127001
v 0.278866 -0.029480 0.964913
v 3.369721 5.263212 -1.349137
v 3.841955 5.039476 0.268367
v 0.266635 -0.029480 -0.081058
v 3.709013 4.969241 -0.654091
v 0.235336 0.934067 -1.091586
v 1.873775 5.475698 -1.234602
v 0.227302 2.604171 -1.025021
v 0.643449 3.815992 -1.166150
v 1.261524 4.802649 -1.238160
v 2.602677 5.493838 0.851301
v 0.264073 0.933736 0.999418
v 1.505268 4.834791 0.892665
v 0.739551 3.704923 0.957140
v 0.280608 2.604766 1.079796
v 0.245943 0.933614 -0.049186
v 2.472550 5.119283 -0.351026
v 0.419459 2.392615 0.027584
v 0.851351 3.563051 -0.104901
v 1.462065 4.496809 -0.145592
vn -0.5186 -0.0000 0.8550
vn -0.5161 0.0988 0.8508
vn -0.3120 0.9464 -0.0839
vn 0.0444 0.9815 -0.1865
vn -0.0859 0.9830 0.1621
vn 0.3226 0.9465 -0.0055
vn 0.2904 0.8596 0.4204
vn -0.0313 0.7424 0.6692
vn -0.3093 0.7896 0.5300
vn -0.1983 0.5522 0.8098
vn -0.4039 0.5666 0.7182
vn -0.3119 0.2819 0.9073
vn -0.5025 0.2838 0.8167
vn -0.4895 0.0687 0.8693
vn -0.5055 0.7860 0.3558
vn -0.5879 0.5668 0.5772
vn -0.6518 0.2999 0.6966
vn -0.5463 0.0808 0.8337
vn -0.8487 -0.0000 -0.5289
vn -0.8455 0.0869 -0.5269
vn -0.1550 0.9849 -0.0769
vn 0.3345 0.9315 -0.1426
vn 0.1231 0.9766 0.1765
vn -0.0091 0.9254 0.3788
vn -0.5368 0.8062 0.2487
vn -0.7451 0.6660 -0.0355
vn -0.5877 0.7275 -0.3541
vn -0.8360 0.5052 -0.2141
vn -0.7416 0.5152 -0.4297
vn -0.9108 0.2557 -0.3240
vn -0.8193 0.2473 -0.5174
vn -0.8623 0.0628 -0.5026
vn -0.4016 0.7216 -0.5639
vn 0.1051 0.9023 -0.4181
vn -0.5911 0.5190 -0.6175
vn -0.6940 0.2703 -0.6673
vn -0.8295 0.0725 -0.5538
vn 0.7558 -0.0157 -0.6546
vn 0.7561 0.0401 -0.6532
vn 0.7578 -0.0176 -0.6523
vn 0.0949 0.9761 -0.1956
vn 0.0171 0.9573 0.2886
vn -0.2069 0.9781 0.0223
vn -0.3808 0.9152 -0.1318
vn -0.1182 0.7312 -0.6719
vn 0.2613 0.5712 -0.7781
vn 0.5561 0.6311 -0.5408
vn 0.4857 0.3870 -0.7838
vn 0.6677 0.3805 -0.6398
vn 0.5920 0.1677 -0.7883
vn 0.7470 0.1445 -0.6489
vn 0.7392 0.0207 -0.6731
vn 0.6909 0.6575 -0.3007
vn 0.3782 0.9197 0.1054
vn 0.7938 0.3922 -0.4647
vn 0.8464 0.1679 -0.5054
vn 0.7706 0.0288 -0.6367
vn 0.7576 -0.0167 -0.6525
vn 0.9563 -0.0165 0.2921
vn 0.9512 0.1021 0.2911
vn 0.9621 0.0243 0.2718
vn 0.1542 0.9877 -0.0244
vn -0.2470 0.9472 0.2047
vn -0.1226 0.9805 -0.1534
vn 0.0754 0.8881 -0.4534
vn 0.4965 0.8436 -0.2045
vn 0.5699 0.7935 0.2136
vn 0.8104 0.5812 0.0738
vn 0.7665 0.5832 0.2689
vn 0.9388 0.3129 0.1439
vn 0.8952 0.2961 0.3331
vn 0.9607 0.0985 0.2597
vn 0.3567 0.8287 0.4312
vn -0.0294 0.9613 0.2739
vn 0.6051 0.6032 0.5196
vn 0.7870 0.2782 0.5507
vn 0.9311 0.0428 0.3623
vn 0.9651 0.0572 0.2557
vn 0.4351 0.0899 0.8959
vn 0.4537 0.1304 0.8816
vn 0.4240 0.0598 0.9037
vn 0.1807 0.9408 0.2867
vn -0.1918 0.9756 0.1064
vn 0.0756 0.9961 -0.0452
vn 0.2581 0.9635 -0.0711
vn 0.4510 0.8453 0.2866
vn 0.3902 0.6847 0.6156
vn 0.6843 0.4587 0.5669
vn 0.5115 0.4964 0.7014
vn 0.6138 0.2822 0.7373
vn 0.4787 0.3449 0.8074
vn 0.1634 0.6956 0.6996
vn -0.0708 0.9211 0.3828
vn 0.2450 0.5490 0.7991
vn 0.3139 0.3426 0.8855
vn 0.4241 0.1650 0.8905
vn 0.4316 0.0762 0.8989
vn 0.4437 0.0770 0.8929
vn -0.9742 0.0484 0.2206
vn -0.9718 0.1386 0.1906
vn -0.9640 0.1504 0.2192
vn -0.3584 0.9195 -0.1615
vn 0.0005 0.9999 -0.0122
vn -0.3426 0.9377 0.0574
vn -0.0323 0.9785 0.2038
vn -0.4042 0.8467 0.3460
vn -0.6657 0.7098 0.2302
vn -0.6673 0.5141 0.5389
vn -0.7713 0.5532 0.3147
vn -0.8372 0.2781 0.4709
vn -0.9065 0.3502 0.2357
vn -0.9574 0.1103 0.2669
vn -0.7107 0.7027 -0.0353
vn -0.8297 0.5576 0.0264
vn -0.9403 0.3285 0.0894
vn -0.9698 0.0656 0.2351
vn -0.4600 0.1089 -0.8812
vn -0.4498 0.2035 -0.8696
vn -0.4511 0.0708 -0.8897
vn -0.1464 0.9560 -0.2542
vn 0.1265 0.9907 -0.0500
vn -0.0987 0.9947 0.0279
vn -0.1958 0.9806 0.0111
vn -0.4062 0.8709 -0.2767
vn -0.3680 0.7627 -0.5319
vn -0.6642 0.5689 -0.4851
vn -0.4794 0.6207 -0.6204
vn -0.6597 0.3219 -0.6791
vn -0.4474 0.4209 -0.7891
vn -0.5046 0.1475 -0.8506
vn -0.1481 0.7574 -0.6359
vn 0.0552 0.9366 -0.3461
vn -0.2323 0.6259 -0.7445
vn -0.3243 0.3891 -0.8622
vn -0.4375 0.1959 -0.8776
vn -0.4729 0.0998 -0.8754
vn 0.6018 0.0484 -0.7972
vn 0.6194 0.1386 -0.7728
vn 0.5949 0.1504 -0.7896
vn 0.3780 0.9195 -0.1079
vn 0.0075 0.9999 0.0096
vn 0.2246 0.9377 -0.2650
vn -0.1069 0.9785 -0.1765
vn 0.0855 0.8467 -0.5252
vn 0.3599 0.7098 -0.6055
vn 0.1619 0.5141 -0.8423
vn 0.3861 0.5532 -0.7382
vn 0.3356 0.2781 -0.9000
vn 0.5404 0.3502 -0.7651
vn 0.5591 0.1103 -0.8218
vn 0.5656 0.7027 -0.4317
vn 0.6167 0.5576 -0.5556
vn 0.6605 0.3285 -0.6751
vn 0.5891 0.0656 -0.8054
vn -0.9888 0.0682 0.1330
vn -0.9785 0.1617 0.1284
vn -0.9886 0.0696 0.1334
vn -0.0418 0.9989 0.0222
vn 0.2190 0.9222 -0.3188
vn 0.2502 0.9681 0.0108
vn 0.2777 0.9412 0.1925
vn -0.1780 0.9092 0.3765
vn -0.6205 0.7780 0.0981
vn -0.7331 0.5891 0.3399
vn -0.7941 0.5961 0.1187
vn -0.8852 0.3402 0.3172
vn -0.9369 0.3312 0.1117
vn -0.9775 0.1371 0.1604
vn -0.5837 0.7916 -0.1809
vn -0.0425 0.9303 -0.3643
vn -0.7998 0.5889 -0.1163
vn -0.9361 0.3421 -0.0814
vn -0.9849 0.1439 0.0964
vn -0.9884 0.0711 0.1339
vn 0.1022 0.0828 0.9913
vn 0.1180 0.1733 0.9778
vn 0.1027 0.0846 0.9911
vn -0.0213 0.9996 0.0167
vn -0.2639 0.9452 -0.1924
vn 0.0469 0.9753 -0.2160
vn 0.2016 0.9523 -0.2291
vn 0.3750 0.9208 0.1073
vn 0.0464 0.8138 0.5793
vn 0.3149 0.6442 0.6971
vn 0.0904 0.6713 0.7357
vn 0.2500 0.4276 0.8687
vn 0.1017 0.4206 0.9016
vn -0.2995 0.8282 0.4738
vn -0.3394 0.9394 -0.0488
vn -0.1532 0.6413 0.7519
vn -0.1121 0.4005 0.9094
vn 0.0608 0.1707 0.9834
vn 0.1005 0.1279 0.9867
vn 0.1032 0.0865 0.9909
vn 0.9347 0.0891 -0.3441
vn 0.9155 0.1866 -0.3564
vn 0.9343 0.0911 -0.3446
vn -0.0316 0.9973 0.0656
vn -0.3363 0.8804 0.3345
vn -0.1818 0.9823 0.0460
vn -0.2218 0.9716 0.0830
vn -0.0261 0.9478 -0.3178
vn 0.5220 0.8342 -0.1779
vn 0.5799 0.6703 -0.4631
vn 0.6667 0.6983 -0.2606
vn 0.7723 0.4492 -0.4492
vn 0.8362 0.4472 -0.3175
vn 0.5119 0.8437 0.1618
vn -0.1035 0.9002 0.4230
vn 0.7438 0.6674 -0.0366
vn 0.8996 0.4210 -0.1164
vn 0.9365 0.1816 -0.2999
vn 0.9299 0.1375 -0.3412
vn 0.9340 0.0931 -0.3450
vn 0.1028 0.1615 -0.9815
vn 0.0820 0.2690 -0.9596
vn 0.1016 0.1660 -0.9809
vn 0.0390 0.9924 0.1163
vn 0.1459 0.8637 0.4825
vn -0.0379 0.9721 0.2314
vn -0.0238 0.9599 0.2792
vn -0.2762 0.9599 -0.0475
vn 0.0651 0.8883 -0.4547
vn -0.1540 0.7456 -0.6483
vn 0.0558 0.7734 -0.6315
vn -0.0582 0.5336 -0.8437
vn 0.0808 0.5381 -0.8390
vn 0.3457 0.8846 -0.3129
vn 0.3103 0.8919 0.3288
vn 0.2819 0.7411 -0.6094
vn 0.2860 0.5031 -0.8155
vn 0.1456 0.2596 -0.9547
vn 0.1031 0.2171 -0.9707
vn 0.1003 0.1707 -0.9802
vn 0.6159 0.3996 -0.6789
vn 0.6078 0.4414 -0.6601
vn 0.6492 0.3269 -0.6868
vn -0.0175 0.9968 -0.0774
vn -0.1106 0.9748 0.1939
vn -0.2070 0.9783 0.0039
vn -0.2332 0.9708 -0.0567
vn -0.0652 0.9504 -0.3040
vn 0.2320 0.9069 -0.3518
vn 0.0300 0.8749 -0.4834
vn 0.2870 0.8210 -0.4936
vn 0.3455 0.5164 -0.7836
vn 0.4950 0.6350 -0.5930
vn 0.5826 0.3753 -0.7209
vn 0.3827 0.9013 -0.2030
vn 0.1191 0.9872 0.1057
vn 0.4831 0.8046 -0.3452
vn 0.6119 0.6013 -0.5139
vn 0.6171 0.4459 -0.6484
vn 0.6266 0.3518 -0.6954
vn 0.8815 0.3737 0.2885
vn 0.8633 0.4140 0.2887
vn 0.8989 0.3056 0.3139
vn 0.0005 0.9840 0.1783
vn -0.2108 0.9732 -0.0925
vn 0.0719 0.9974 0.0099
vn -0.0935 0.9688 -0.2294
vn 0.2740 0.9470 -0.1680
vn 0.4548 0.8877 0.0725
vn 0.4829 0.8568 -0.1810
vn 0.6008 0.7967 0.0655
vn 0.8706 0.4920 -0.0079
vn 0.7691 0.6014 0.2162
vn 0.9042 0.3525 0.2412
vn 0.3637 0.8889 0.2785
vn 0.5337 0.7854 0.3136
vn 0.7413 0.5671 0.3589
vn 0.8566 0.4190 0.3013
vn 0.8987 0.3289 0.2902
vn -0.0263 0.2630 0.9644
vn -0.0542 0.3410 0.9385
vn -0.0193 0.3418 0.9396
vn -0.2091 0.9760 0.0615
vn 0.0307 0.9599 -0.2785
vn 0.0141 0.9962 0.0865
vn 0.2335 0.9538 -0.1889
vn 0.2863 0.9252 0.2489
vn 0.0952 0.8492 0.5194
vn 0.3964 0.6501 0.6482
vn 0.1452 0.7079 0.6913
vn 0.2750 0.4341 0.8578
vn 0.0189 0.5176 0.8554
vn 0.0261 0.2978 0.9543
vn -0.1891 0.8462 0.4981
vn -0.1643 0.7189 0.6755
vn -0.1376 0.4977 0.8563
vn -0.0179 0.2714 0.9623
vn 0.9106 0.0899 0.4035
vn 0.9159 0.1376 0.3772
vn 0.9071 0.0598 0.4166
vn 0.1546 0.9705 0.1851
vn -0.0861 0.8918 0.4441
vn 0.0285 0.9995 -0.0147
vn 0.1698 0.9448 -0.2800
vn 0.3096 0.9432 -0.1209
vn 0.5088 0.8147 0.2782
vn 0.5006 0.8603 -0.0959
vn 0.7155 0.6673 0.2067
vn 0.9167 0.3700 0.1510
vn 0.8556 0.4217 0.3003
vn 0.1273 0.8639 0.4873
vn 0.4911 0.7262 0.4811
vn 0.6316 0.6231 0.4612
vn 0.7773 0.4115 0.4759
vn 0.8950 0.1689 0.4129
vn 0.9099 0.0716 0.4085
vn 0.9152 0.0770 0.3956
vn 0.5474 0.1313 -0.8265
vn 0.5285 0.1832 -0.8289
vn 0.6189 0.0859 -0.7807
vn 0.1690 0.9827 -0.0763
vn 0.3759 0.9160 0.1400
vn -0.0069 0.9997 -0.0213
vn -0.2493 0.9534 -0.1701
vn -0.0852 0.9648 -0.2486
vn 0.2861 0.8911 -0.3523
vn -0.0508 0.9141 -0.4024
vn 0.2484 0.7931 -0.5562
vn 0.2553 0.4705 -0.8446
vn 0.3968 0.5453 -0.7383
vn 0.4367 0.8996 -0.0049
vn 0.4913 0.8127 -0.3133
vn 0.4925 0.7458 -0.4486
vn 0.5772 0.5104 -0.6375
vn 0.5567 0.2347 -0.7969
vn 0.6023 -0.0014 -0.7983
vn 0.5676 0.0317 -0.8227
vn -0.5162 0.0946 -0.8512
vn -0.5373 0.1479 -0.8303
vn -0.4803 0.0260 -0.8767
vn 0.0008 0.9786 -0.2056
vn 0.3901 0.8949 -0.2166
vn 0.0524 0.9980 -0.0358
vn -0.3054 0.9473 0.0971
vn -0.3033 0.9482 -0.0947
vn -0.2081 0.8800 -0.4269
vn -0.4515 0.8622 -0.2296
vn -0.4313 0.7356 -0.5224
vn -0.6297 0.6704 -0.3925
vn -0.5378 0.4503 -0.7127
vn -0.6379 0.3440 -0.6890
vn 0.0290 0.8185 -0.5738
vn 0.2930 0.8630 -0.4116
vn -0.1756 0.7120 -0.6799
vn -0.3156 0.4925 -0.8111
vn -0.4885 0.1933 -0.8509
vn -0.4827 0.0334 -0.8752
vn -0.4109 -0.0745 -0.9086
vn -0.2122 -0.0239 -0.9769
vn -0.2096 0.0639 -0.9757
vn -0.2084 -0.0282 -0.9776
vn -0.0926 0.9923 -0.0821
vn 0.1667 0.9823 0.0855
vn -0.0622 0.9900 0.1267
vn -0.1960 0.9643 0.1781
vn -0.3752 0.9052 -0.1996
vn -0.1952 0.7760 -0.5998
vn -0.4102 0.5474 -0.7295
vn -0.2240 0.5494 -0.8049
vn -0.3991 0.2411 -0.8847
vn -0.2078 0.2534 -0.9448
vn -0.2468 0.0208 -0.9688
vn 0.0421 0.7952 -0.6049
vn 0.1746 0.9647 -0.1974
vn -0.0150 0.5430 -0.8396
vn -0.0267 0.2557 -0.9664
vn -0.1772 0.0371 -0.9835
vn -0.2088 -0.0266 -0.9776
vn 0.9878 -0.0239 -0.1537
vn 0.9864 0.0639 -0.1512
vn 0.9883 -0.0282 -0.1498
vn 0.0875 0.9923 -0.0875
vn -0.0953 0.9823 0.1613
vn -0.1228 0.9900 -0.0696
vn -0.1661 0.9643 -0.2063
vn 0.2216 0.9052 -0.3626
vn 0.6104 0.7760 -0.1592
vn 0.7526 0.5474 -0.3660
vn 0.8169 0.5494 -0.1757
vn 0.9068 0.2411 -0.3457
vn 0.9555 0.2534 -0.1512
vn 0.9818 0.0208 -0.1887
vn 0.6013 0.7952 0.0781
vn 0.1866 0.9647 0.1860
vn 0.8390 0.5430 0.0350
vn 0.9663 0.2557 0.0309
vn 0.9923 0.0371 -0.1183
vn 0.9883 -0.0266 -0.1503
vn 0.7007 0.0185 0.7132
vn 0.7016 0.0830 0.7077
vn 0.7030 0.0169 0.7110
vn 0.1499 0.9858 0.0751
vn -0.2983 0.9527 0.0589
vn -0.0413 0.9795 -0.1974
vn 0.1057 0.9152 -0.3889
vn 0.6315 0.7543 -0.1795
vn 0.7451 0.6443 0.1723
vn 0.5219 0.6966 0.4924
vn 0.8016 0.4555 0.3873
vn 0.6634 0.4490 0.5987
vn 0.8283 0.2225 0.5143
vn 0.6896 0.2023 0.6953
vn 0.7262 0.0621 0.6847
vn 0.2765 0.6819 0.6772
vn -0.1096 0.8969 0.4285
vn 0.4737 0.4489 0.7577
vn 0.5395 0.2206 0.8126
vn 0.6797 0.0699 0.7301
vn 0.7056 0.0160 0.7084
vn 0.9824 0.1313 -0.1327
vn 0.9718 0.1832 -0.1486
vn 0.9951 0.0859 -0.0487
vn 0.1687 0.9827 0.0769
vn 0.1423 0.9160 0.3750
vn 0.0115 0.9997 -0.0192
vn -0.0363 0.9534 -0.2996
vn 0.1309 0.9648 -0.2279
vn 0.4535 0.8911 -0.0169
vn 0.2692 0.9141 -0.3033
vn 0.5821 0.7931 -0.1796
vn 0.8036 0.4705 -0.3644
vn 0.8169 0.5453 -0.1879
vn 0.2914 0.8996 0.3253
vn 0.5594 0.8127 0.1632
vn 0.6620 0.7458 0.0750
vn 0.8598 0.5104 0.0142
vn 0.9663 0.2347 -0.1063
vn 0.9973 -0.0014 -0.0728
vn 0.9929 0.0317 -0.1150
vn -0.5233 0.0803 0.8483
vn -0.5035 0.1673 0.8477
vn -0.5229 0.0821 0.8485
vn -0.0086 0.9992 0.0401
vn -0.0947 0.9416 -0.3232
vn 0.1444 0.9767 -0.1588
vn 0.2799 0.9567 -0.0800
vn 0.1489 0.9287 0.3396
vn -0.2837 0.8263 0.4865
vn -0.1910 0.6489 0.7365
vn -0.3830 0.6578 0.6485
vn -0.3318 0.4172 0.8461
vn -0.4722 0.4078 0.7815
vn -0.4602 0.8323 0.3090
vn -0.2656 0.9480 -0.1755
vn -0.5680 0.6429 0.5138
vn -0.6466 0.3906 0.6553
vn -0.5511 0.1658 0.8178
vn -0.5221 0.1236 0.8439
vn -0.5223 0.0839 0.8486
vn 0.9683 0.1465 0.2025
vn 0.9522 0.2454 0.1817
vn 0.9679 0.1505 0.2014
vn -0.1223 0.9923 0.0217
vn -0.5422 0.8354 0.0903
vn -0.2487 0.9664 -0.0652
vn -0.3045 0.9506 -0.0595
vn 0.0773 0.9607 -0.2665
vn 0.4780 0.8703 0.1185
vn 0.6976 0.7130 -0.0709
vn 0.6593 0.7410 0.1278
vn 0.8656 0.4990 0.0416
vn 0.8482 0.5015 0.1706
vn 0.2949 0.8794 0.3738
vn -0.3698 0.8909 0.2638
vn 0.6113 0.7135 0.3423
vn 0.8027 0.4762 0.3590
vn 0.9415 0.2371 0.2397
vn 0.9593 0.1972 0.2020
vn 0.9674 0.1548 0.2002
vn -0.9619 0.1465 -0.2306
vn -0.9465 0.2454 -0.2094
vn -0.9616 0.1505 -0.2295
vn 0.1229 0.9923 -0.0181
vn 0.5446 0.8354 -0.0744
vn 0.2467 0.9664 0.0725
vn 0.3027 0.9506 0.0684
vn -0.0851 0.9607 0.2641
vn -0.4743 0.8703 -0.1323
vn -0.6993 0.7130 0.0505
vn -0.6553 0.7410 -0.1469
vn -0.8640 0.4990 -0.0668
vn -0.8429 0.5015 -0.1953
vn -0.2839 0.8794 -0.3823
vn 0.3773 0.8909 -0.2529
vn -0.6011 0.7135 -0.3600
vn -0.7919 0.4762 -0.3823
vn -0.9341 0.2371 -0.2670
vn -0.9530 0.1972 -0.2299
vn -0.9612 0.1548 -0.2283
vn -0.9997 -0.0188 0.0146
vn -0.9987 0.0486 0.0129
vn -0.9997 -0.0215 0.0113
vn -0.1284 0.9871 0.0952
vn 0.1445 0.9702 -0.1946
vn 0.1439 0.9846 0.0994
vn 0.1749 0.9401 0.2927
vn -0.2976 0.8635 0.4072
vn -0.7282 0.6804 0.0820
vn -0.8491 0.4498 0.2770
vn -0.8919 0.4485 0.0581
vn -0.9558 0.1951 0.2201
vn -0.9833 0.1814 0.0140
vn -0.9988 0.0214 0.0438
vn -0.6695 0.7175 -0.1923
vn -0.1966 0.9420 -0.2722
vn -0.8771 0.4565 -0.1496
vn -0.9680 0.1972 -0.1551
vn -0.9994 0.0323 -0.0134
vn -0.9997 -0.0203 0.0116
vn 0.0574 0.9109 -0.4087
vn 0.7058 0.7063 0.0545
vn 0.5619 0.6886 0.4584
vn -0.9765 0.0866 0.1976
vn -0.0192 0.9743 -0.2243
vn -0.5509 0.7123 0.4349
vn -0.5211 0.7608 -0.3869
vn 0.6184 0.0866 -0.7811
vn 0.1594 0.9743 0.1589
vn 0.1401 0.7123 -0.6877
vn -0.6273 0.7025 0.3361
vn 0.4331 0.8029 0.4096
vn 0.2815 0.8211 -0.4965
vn -0.3012 0.8688 -0.3931
vn 0.0718 0.7489 -0.6587
vn -0.2840 0.9565 0.0660
vn 0.6547 0.7247 -0.2150
vn -0.0527 0.3300 0.9425
vn -0.1758 0.9358 -0.3055
vn 0.3331 0.8267 0.4534
vn 0.7556 0.6497 -0.0830
vn -0.0233 0.7422 -0.6698
vn -0.3970 0.6887 -0.6067
vn 0.6292 0.6887 -0.3602
vn 0.4885 0.7422 -0.4588
vn -0.1267 0.7580 0.6399
vn 0.4573 0.8544 -0.2469
vn -0.4643 0.8544 0.2334
vn -0.7504 0.5879 0.3023
vt 0.800945 0.000000
vt 0.500001 0.127269
vt 0.500001 0.000000
vt 0.800945 0.872731
vt 0.500001 1.000000
vt 0.500001 0.872731
vt 0.500001 0.872731
vt 0.199056 1.000000
vt 0.199056 0.872731
vt 0.199056 0.686366
vt 0.500001 0.686366
vt 0.199056 0.500000
vt 0.500001 0.500000
vt 0.199056 0.313634
vt 0.500001 0.313634
vt 0.199056 0.127269
vt 0.800945 0.686366
vt 0.800945 0.500000
vt 0.800945 0.313634
vt 0.800945 0.127269
vt 0.199056 0.000000
vt 0.800945 1.000000
vt 0.436688 1.000000
vt 0.444709 1.000000
s 1
f 2/1/1 17/2/2 5/3/1
f 12/4/3 6/5/4 18/6/5
f 18/7/5 3/8/6 8/9/7
f 18/7/5 11/10/8 21/11/9
f 21/11/9 10/12/10 20/13/11
f 20/13/11 9/14/12 19/15/13
f 19/15/13 7/16/14 17/2/2
f 18/6/5 14/17/15 12/4/3
f 21/11/9 15/18/16 14/17/15
f 20/13/11 16/19/17 15/18/16
f 19/15/13 13/20/18 16/19/17
f 5/3/1 7/16/14 1/21/1
f 23/1/19 38/2/20 26/3/19
f 39/6/21 25/22/22 27/5/23
f 39/7/21 24/8/24 29/9/25
f 39/7/21 32/10/26 42/11/27
f 42/11/27 31/12/28 41/13/29
f 41/13/29 30/14/30 40/15/31
f 40/15/31 28/16/32 38/2/20
f 39/6/21 35/17/33 33/4/34
f 42/11/27 36/18/35 35/17/33
f 41/13/29 37/19/36 36/18/35
f 40/15/31 34/20/37 37/19/36
f 26/3/19 28/16/32 22/21/19
f 44/1/38 59/2/39 47/3/40
f 60/6/41 46/22/42 48/23/43
f 60/7/41 45/8/44 50/9/45
f 60/7/41 53/10/46 63/11/47
f 63/11/47 52/12/48 62/13/49
f 62/13/49 51/14/50 61/15/51
f 61/15/51 49/16/52 59/2/39
f 60/6/41 56/17/53 54/4/54
f 63/11/47 57/18/55 56/17/53
f 62/13/49 58/19/56 57/18/55
f 61/15/51 55/20/57 58/19/56
f 47/3/40 49/16/52 43/21/58
f 65/1/59 80/2/60 68/3/61
f 81/6/62 67/22/63 69/5/64
f 81/7/62 66/8/65 71/9/66
f 71/9/66 84/11/67 81/7/62
f 84/11/67 73/12/68 83/13/69
f 83/13/69 72/14/70 82/15/71
f 82/15/71 70/16/72 80/2/60
f 81/6/62 77/17/73 75/4/74
f 84/11/67 78/18/75 77/17/73
f 83/13/69 79/19/76 78/18/75
f 82/15/71 76/20/77 79/19/76
f 68/3/61 70/16/72 64/21/78
f 86/1/79 101/2/80 89/3/81
f 102/6/82 88/22/83 90/5/84
f 102/7/82 87/8/85 92/9/86
f 92/9/86 105/11/87 102/7/82
f 105/11/87 94/12/88 104/13/89
f 104/13/89 93/14/90 103/15/91
f 93/14/90 101/2/80 103/15/91
f 102/6/82 98/17/92 96/4/93
f 105/11/87 99/18/94 98/17/92
f 104/13/89 100/19/95 99/18/94
f 103/15/91 97/20/96 100/19/95
f 89/3/81 91/16/97 85/21/98
f 110/3/99 118/20/100 122/2/101
f 117/4/102 111/5/103 123/6/104
f 123/7/104 108/8/105 113/9/106
f 113/9/106 126/11/107 123/7/104
f 126/11/107 115/12/108 125/13/109
f 125/13/109 114/14/110 124/15/111
f 124/15/111 112/16/112 122/2/101
f 123/6/104 119/17/113 117/4/102
f 126/11/107 120/18/114 119/17/113
f 120/18/114 124/15/111 121/19/115
f 124/15/111 118/20/100 121/19/115
f 110/3/99 112/16/112 106/21/116
f 128/1/117 143/2/118 131/3/119
f 144/6/120 130/22/121 132/5/122
f 144/7/120 129/8/123 134/9/124
f 134/9/124 147/11/125 144/7/120
f 147/11/125 136/12/126 146/13/127
f 146/13/127 135/14/128 145/15/129
f 145/15/129 133/16/130 143/2/118
f 144/6/120 140/17/131 138/4/132
f 147/11/125 141/18/133 140/17/131
f 141/18/133 145/15/129 142/19/134
f 145/15/129 139/20/135 142/19/134
f 131/3/119 133/16/130 127/21/136
f 152/3/137 160/20/138 164/2/139
f 159/4/140 153/5/141 165/6/142
f 165/7/142 150/8/143 155/9/144
f 155/9/144 168/11/145 165/7/142
f 168/11/145 157/12/146 167/13/147
f 167/13/147 156/14/148 166/15/149
f 166/15/149 154/16/150 164/2/139
f 165/6/142 161/17/151 159/4/140
f 168/11/145 162/18/152 161/17/151
f 162/18/152 166/15/149 163/19/153
f 166/15/149 160/20/138 163/19/153
f 152/3/137 154/16/150 148/21/154
f 170/1/155 185/2/156 173/3/157
f 186/6/158 172/22/159 174/24/160
f 186/7/158 171/8/161 176/9/162
f 176/9/162 189/11/163 186/7/158
f 189/11/163 178/12/164 188/13/165
f 188/13/165 177/14/166 187/15/167
f 187/15/167 175/16/168 185/2/156
f 186/6/158 182/17/169 180/4/170
f 189/11/163 183/18/171 182/17/169
f 188/13/165 184/19/172 183/18/171
f 187/15/167 181/20/173 184/19/172
f 173/3/157 175/16/168 169/21/174
f 191/1/175 206/2/176 194/3/177
f 207/6/178 193/22/179 195/24/180
f 207/7/178 192/8/181 197/9/182
f 197/9/182 210/11/183 207/7/178
f 210/11/183 199/12/184 209/13/185
f 209/13/185 198/14/186 208/15/187
f 198/14/186 206/2/176 208/15/187
f 207/6/178 203/17/188 201/4/189
f 210/11/183 204/18/190 203/17/188
f 204/18/190 208/15/187 205/19/191
f 208/15/187 202/20/192 205/19/191
f 194/3/177 196/16/193 190/21/194
f 212/1/195 227/2/196 215/3/197
f 228/6/198 214/22/199 216/24/200
f 228/7/198 213/8/201 218/9/202
f 218/9/202 231/11/203 228/7/198
f 231/11/203 220/12/204 230/13/205
f 230/13/205 219/14/206 229/15/207
f 219/14/206 227/2/196 229/15/207
f 228/6/198 224/17/208 222/4/209
f 231/11/203 225/18/210 224/17/208
f 225/18/210 229/15/207 226/19/211
f 229/15/207 223/20/212 226/19/211
f 215/3/197 217/16/213 211/21/214
f 233/1/215 248/2/216 236/3/217
f 249/6/218 235/22/219 237/24/220
f 249/7/218 234/8/221 239/9/222
f 239/9/222 252/11/223 249/7/218
f 252/11/223 241/12/224 251/13/225
f 251/13/225 240/14/226 250/15/227
f 240/14/226 248/2/216 250/15/227
f 249/6/218 245/17/228 243/4/229
f 252/11/223 246/18/230 245/17/228
f 246/18/230 250/15/227 247/19/231
f 250/15/227 244/20/232 247/19/231
f 236/3/217 238/16/233 232/21/234
f 254/1/235 269/2/236 257/3/237
f 270/6/238 256/22/239 258/5/240
f 270/7/238 255/8/241 260/9/242
f 260/9/242 273/11/243 270/7/238
f 263/10/244 272/13/245 273/11/243
f 272/13/245 261/14/246 271/15/247
f 271/15/247 259/16/248 269/2/236
f 270/6/238 266/17/249 264/4/250
f 273/11/243 267/18/251 266/17/249
f 267/18/251 271/15/247 268/19/252
f 271/15/247 265/20/253 268/19/252
f 257/3/237 259/16/248 253/21/254
f 275/1/255 290/2/256 278/3/257
f 285/4/258 279/5/259 291/6/260
f 291/7/260 276/8/261 281/9/262
f 281/9/262 294/11/263 291/7/260
f 284/10/264 293/13/265 294/11/263
f 293/13/265 282/14/266 292/15/267
f 292/15/267 280/16/268 290/2/256
f 291/6/260 287/17/269 285/4/258
f 294/11/263 288/18/270 287/17/269
f 288/18/270 292/15/267 289/19/271
f 292/15/267 286/20/272 289/19/271
f 278/3/257 280/16/268 274/21/273
f 299/3/274 307/20/275 311/2/276
f 306/4/277 300/5/278 312/6/279
f 312/7/279 297/8/280 302/9/281
f 302/9/281 315/11/282 312/7/279
f 315/11/282 304/12/283 314/13/284
f 314/13/284 303/14/285 313/15/286
f 313/15/286 301/16/287 311/2/276
f 312/6/279 308/17/288 306/4/277
f 315/11/282 309/18/289 308/17/288
f 309/18/289 313/15/286 310/19/290
f 313/15/286 307/20/275 310/19/290
f 299/3/274 301/16/287 295/21/291
f 317/1/292 332/2/293 320/3/294
f 333/6/295 319/22/296 321/5/297
f 333/7/295 318/8/298 323/9/299
f 323/9/299 336/11/300 333/7/295
f 326/10/301 335/13/302 336/11/300
f 335/13/302 324/14/303 334/15/304
f 324/14/303 332/2/293 334/15/304
f 327/4/305 336/11/300 329/17/306
f 336/11/300 330/18/307 329/17/306
f 335/13/302 331/19/308 330/18/307
f 334/15/304 328/20/309 331/19/308
f 320/3/294 322/16/310 316/21/311
f 338/1/312 353/2/313 341/3/314
f 354/6/315 340/22/316 342/5/317
f 354/7/315 339/8/318 344/9/319
f 344/9/319 357/11/320 354/7/315
f 347/10/321 356/13/322 357/11/320
f 356/13/322 345/14/323 355/15/324
f 345/14/323 353/2/313 355/15/324
f 348/4/325 357/11/320 350/17/326
f 357/11/320 351/18/327 350/17/326
f 351/18/327 355/15/324 352/19/328
f 355/15/324 349/20/329 352/19/328
f 337/21/330 353/2/313 343/16/331
f 359/1/332 374/2/333 362/3/334
f 375/6/335 361/22/336 363/5/337
f 375/7/335 360/8/338 365/9/339
f 365/9/339 378/11/340 375/7/335
f 368/10/341 377/13/342 378/11/340
f 367/12/343 376/15/344 377/13/342
f 366/14/345 374/2/333 376/15/344
f 375/6/335 371/17/346 369/4/347
f 378/11/340 372/18/348 371/17/346
f 377/13/342 373/19/349 372/18/348
f 376/15/344 370/20/350 373/19/349
f 362/3/334 364/16/351 358/21/352
f 380/1/353 395/2/354 383/3/355
f 396/6/356 382/22/357 384/23/358
f 396/7/356 381/8/359 386/9/360
f 386/9/360 399/11/361 396/7/356
f 399/11/361 388/12/362 398/13/363
f 398/13/363 387/14/364 397/15/365
f 397/15/365 385/16/366 395/2/354
f 396/6/356 392/17/367 390/4/368
f 399/11/361 393/18/369 392/17/367
f 393/18/369 397/15/365 394/19/370
f 397/15/365 391/20/371 394/19/370
f 383/3/355 385/16/366 379/21/372
f 401/1/373 416/2/374 404/3/375
f 417/6/376 403/22/377 405/23/378
f 417/7/376 402/8/379 407/9/380
f 407/9/380 420/11/381 417/7/376
f 420/11/381 409/12/382 419/13/383
f 419/13/383 408/14/384 418/15/385
f 418/15/385 406/16/386 416/2/374
f 417/6/376 413/17/387 411/4/388
f 420/11/381 414/18/389 413/17/387
f 414/18/389 418/15/385 415/19/390
f 418/15/385 412/20/391 415/19/390
f 404/3/375 406/16/386 400/21/392
f 422/1/393 437/2/394 425/3/395
f 438/6/396 424/22/397 426/23/398
f 438/7/396 423/8/399 428/9/400
f 438/7/396 431/10/401 441/11/402
f 441/11/402 430/12/403 440/13/404
f 440/13/404 429/14/405 439/15/406
f 439/15/406 427/16/407 437/2/394
f 438/6/396 434/17/408 432/4/409
f 441/11/402 435/18/410 434/17/408
f 440/13/404 436/19/411 435/18/410
f 439/15/406 433/20/412 436/19/411
f 425/3/395 427/16/407 421/21/413
f 443/1/414 458/2/415 446/3/416
f 459/6/417 445/22/418 447/5/419
f 459/7/417 444/8/420 449/9/421
f 449/9/421 462/11/422 459/7/417
f 452/10/423 461/13/424 462/11/422
f 461/13/424 450/14/425 460/15/426
f 450/14/425 458/2/415 460/15/426
f 453/4/427 462/11/422 455/17/428
f 462/11/422 456/18/429 455/17/428
f 456/18/429 460/15/426 457/19/430
f 460/15/426 454/20/431 457/19/430
f 442/21/432 458/2/415 448/16/433
f 464/1/434 479/2/435 467/3/436
f 480/6/437 466/22/438 468/24/439
f 480/7/437 465/8/440 470/9/441
f 470/9/441 483/11/442 480/7/437
f 483/11/442 472/12/443 482/13/444
f 482/13/444 471/14/445 481/15/446
f 471/14/445 479/2/435 481/15/446
f 480/6/437 476/17/447 474/4/448
f 483/11/442 477/18/449 476/17/447
f 477/18/449 481/15/446 478/19/450
f 481/15/446 475/20/451 478/19/450
f 467/3/436 469/16/452 463/21/453
f 485/1/454 500/2/455 488/3/456
f 501/6/457 487/22/458 489/24/459
f 501/7/457 486/8/460 491/9/461
f 491/9/461 504/11/462 501/7/457
f 504/11/462 493/12/463 503/13/464
f 503/13/464 492/14/465 502/15/466
f 492/14/465 500/2/455 502/15/466
f 501/6/457 497/17/467 495/4/468
f 504/11/462 498/18/469 497/17/467
f 498/18/469 502/15/466 499/19/470
f 502/15/466 496/20/471 499/19/470
f 488/3/456 490/16/472 484/21/473
f 506/1/474 521/2/475 509/3/476
f 522/6/477 508/22/478 510/24/479
f 522/7/477 507/8/480 512/9/481
f 512/9/481 525/11/482 522/7/477
f 525/11/482 514/12/483 524/13/484
f 524/13/484 513/14/485 523/15/486
f 513/14/485 521/2/475 523/15/486
f 522/6/477 518/17/487 516/4/488
f 525/11/482 519/18/489 518/17/487
f 519/18/489 523/15/486 520/19/490
f 523/15/486 517/20/491 520/19/490
f 509/3/476 511/16/492 505/21/493
f 527/1/494 542/2/495 530/3/496
f 543/6/497 529/22/498 531/23/499
f 543/7/497 528/8/500 533/9/501
f 533/9/501 546/11/502 543/7/497
f 546/11/502 535/12/503 545/13/504
f 545/13/504 534/14/505 544/15/506
f 544/15/506 532/16/507 542/2/495
f 543/6/497 539/17/508 537/4/509
f 546/11/502 540/18/510 539/17/508
f 545/13/504 541/19/511 540/18/510
f 544/15/506 538/20/512 541/19/511
f 530/3/496 532/16/507 526/21/513
f 2/1/1 13/20/18 17/2/2
f 12/4/3 4/22/514 6/5/4
f 18/7/5 6/5/4 3/8/6
f 18/7/5 8/9/7 11/10/8
f 21/11/9 11/10/8 10/12/10
f 20/13/11 10/12/10 9/14/12
f 19/15/13 9/14/12 7/16/14
f 18/6/5 21/11/9 14/17/15
f 21/11/9 20/13/11 15/18/16
f 20/13/11 19/15/13 16/19/17
f 19/15/13 17/2/2 13/20/18
f 5/3/1 17/2/2 7/16/14
f 23/1/19 34/20/37 38/2/20
f 39/6/21 33/4/34 25/22/22
f 39/7/21 27/5/23 24/8/24
f 39/7/21 29/9/25 32/10/26
f 42/11/27 32/10/26 31/12/28
f 41/13/29 31/12/28 30/14/30
f 40/15/31 30/14/30 28/16/32
f 39/6/21 42/11/27 35/17/33
f 42/11/27 41/13/29 36/18/35
f 41/13/29 40/15/31 37/19/36
f 40/15/31 38/2/20 34/20/37
f 26/3/19 38/2/20 28/16/32
f 44/1/38 55/20/57 59/2/39
f 60/6/41 54/4/54 46/22/42
f 60/7/41 48/23/43 45/8/44
f 60/7/41 50/9/45 53/10/46
f 63/11/47 53/10/46 52/12/48
f 62/13/49 52/12/48 51/14/50
f 61/15/51 51/14/50 49/16/52
f 60/6/41 63/11/47 56/17/53
f 63/11/47 62/13/49 57/18/55
f 62/13/49 61/15/51 58/19/56
f 61/15/51 59/2/39 55/20/57
f 47/3/40 59/2/39 49/16/52
f 65/1/59 76/20/77 80/2/60
f 81/6/62 75/4/74 67/22/63
f 81/7/62 69/5/64 66/8/65
f 71/9/66 74/10/515 84/11/67
f 84/11/67 74/10/515 73/12/68
f 83/13/69 73/12/68 72/14/70
f 82/15/71 72/14/70 70/16/72
f 81/6/62 84/11/67 77/17/73
f 84/11/67 83/13/69 78/18/75
f 83/13/69 82/15/71 79/19/76
f 82/15/71 80/2/60 76/20/77
f 68/3/61 80/2/60 70/16/72
f 86/1/79 97/20/96 101/2/80
f 102/6/82 96/4/93 88/22/83
f 102/7/82 90/5/84 87/8/85
f 92/9/86 95/10/516 105/11/87
f 105/11/87 95/10/516 94/12/88
f 104/13/89 94/12/88 93/14/90
f 93/14/90 91/16/97 101/2/80
f 102/6/82 105/11/87 98/17/92
f 105/11/87 104/13/89 99/18/94
f 104/13/89 103/15/91 100/19/95
f 103/15/91 101/2/80 97/20/96
f 89/3/81 101/2/80 91/16/97
f 110/3/99 107/1/517 118/20/100
f 117/4/102 109/22/518 111/5/103
f 123/7/104 111/5/103 108/8/105
f 113/9/106 116/10/519 126/11/107
f 126/11/107 116/10/519 115/12/108
f 125/13/109 115/12/108 114/14/110
f 124/15/111 114/14/110 112/16/112
f 123/6/104 126/11/107 119/17/113
f 126/11/107 125/13/109 120/18/114
f 120/18/114 125/13/109 124/15/111
f 124/15/111 122/2/101 118/20/100
f 110/3/99 122/2/101 112/16/112
f 128/1/117 139/20/135 143/2/118
f 144/6/120 138/4/132 130/22/121
f 144/7/120 132/5/122 129/8/123
f 134/9/124 137/10/520 147/11/125
f 147/11/125 137/10/520 136/12/126
f 146/13/127 136/12/126 135/14/128
f 145/15/129 135/14/128 133/16/130
f 144/6/120 147/11/125 140/17/131
f 147/11/125 146/13/127 141/18/133
f 141/18/133 146/13/127 145/15/129
f 145/15/129 143/2/118 139/20/135
f 131/3/119 143/2/118 133/16/130
f 152/3/137 149/1/521 160/20/138
f 159/4/140 151/22/522 153/5/141
f 165/7/142 153/5/141 150/8/143
f 155/9/144 158/10/523 168/11/145
f 168/11/145 158/10/523 157/12/146
f 167/13/147 157/12/146 156/14/148
f 166/15/149 156/14/148 154/16/150
f 165/6/142 168/11/145 161/17/151
f 168/11/145 167/13/147 162/18/152
f 162/18/152 167/13/147 166/15/149
f 166/15/149 164/2/139 160/20/138
f 152/3/137 164/2/139 154/16/150
f 170/1/155 181/20/173 185/2/156
f 186/6/158 180/4/170 172/22/159
f 186/7/158 174/24/160 171/8/161
f 176/9/162 179/10/524 189/11/163
f 189/11/163 179/10/524 178/12/164
f 188/13/165 178/12/164 177/14/166
f 187/15/167 177/14/166 175/16/168
f 186/6/158 189/11/163 182/17/169
f 189/11/163 188/13/165 183/18/171
f 188/13/165 187/15/167 184/19/172
f 187/15/167 185/2/156 181/20/173
f 173/3/157 185/2/156 175/16/168
f 191/1/175 202/20/192 206/2/176
f 207/6/178 201/4/189 193/22/179
f 207/7/178 195/24/180 192/8/181
f 197/9/182 200/10/525 210/11/183
f 210/11/183 200/10/525 199/12/184
f 209/13/185 199/12/184 198/14/186
f 198/14/186 196/16/193 206/2/176
f 207/6/178 210/11/183 203/17/188
f 210/11/183 209/13/185 204/18/190
f 204/18/190 209/13/185 208/15/187
f 208/15/187 206/2/176 202/20/192
f 194/3/177 206/2/176 196/16/193
f 212/1/195 223/20/212 227/2/196
f 228/6/198 222/4/209 214/22/199
f 228/7/198 216/24/200 213/8/201
f 218/9/202 221/10/526 231/11/203
f 231/11/203 221/10/526 220/12/204
f 230/13/205 220/12/204 219/14/206
f 219/14/206 217/16/213 227/2/196
f 228/6/198 231/11/203 224/17/208
f 231/11/203 230/13/205 225/18/210
f 225/18/210 230/13/205 229/15/207
f 229/15/207 227/2/196 223/20/212
f 215/3/197 227/2/196 217/16/213
f 233/1/215 244/20/232 248/2/216
f 249/6/218 243/4/229 235/22/219
f 249/7/218 237/24/220 234/8/221
f 239/9/222 242/10/527 252/11/223
f 252/11/223 242/10/527 241/12/224
f 251/13/225 241/12/224 240/14/226
f 240/14/226 238/16/233 248/2/216
f 249/6/218 252/11/223 245/17/228
f 252/11/223 251/13/225 246/18/230
f 246/18/230 251/13/225 250/15/227
f 250/15/227 248/2/216 244/20/232
f 236/3/217 248/2/216 238/16/233
f 254/1/235 265/20/253 269/2/236
f 270/6/238 264/4/250 256/22/239
f 270/7/238 258/5/240 255/8/241
f 260/9/242 263/10/244 273/11/243
f 263/10/244 262/12/528 272/13/245
f 272/13/245 262/12/528 261/14/246
f 271/15/247 261/14/246 259/16/248
f 270/6/238 273/11/243 266/17/249
f 273/11/243 272/13/245 267/18/251
f 267/18/251 272/13/245 271/15/247
f 271/15/247 269/2/236 265/20/253
f 257/3/237 269/2/236 259/16/248
f 275/1/255 286/20/272 290/2/256
f 285/4/258 277/22/529 279/5/259
f 291/7/260 279/5/259 276/8/261
f 281/9/262 284/10/264 294/11/263
f 284/10/264 283/12/530 293/13/265
f 293/13/265 283/12/530 282/14/266
f 292/15/267 282/14/266 280/16/268
f 291/6/260 294/11/263 287/17/269
f 294/11/263 293/13/265 288/18/270
f 288/18/270 293/13/265 292/15/267
f 292/15/267 290/2/256 286/20/272
f 278/3/257 290/2/256 280/16/268
f 299/3/274 296/1/531 307/20/275
f 306/4/277 298/22/532 300/5/278
f 312/7/279 300/5/278 297/8/280
f 302/9/281 305/10/533 315/11/282
f 315/11/282 305/10/533 304/12/283
f 314/13/284 304/12/283 303/14/285
f 313/15/286 303/14/285 301/16/287
f 312/6/279 315/11/282 308/17/288
f 315/11/282 314/13/284 309/18/289
f 309/18/289 314/13/284 313/15/286
f 313/15/286 311/2/276 307/20/275
f 299/3/274 311/2/276 301/16/287
f 317/1/292 328/20/309 332/2/293
f 333/6/295 327/4/305 319/22/296
f 333/7/295 321/5/297 318/8/298
f 323/9/299 326/10/301 336/11/300
f 326/10/301 325/12/534 335/13/302
f 335/13/302 325/12/534 324/14/303
f 324/14/303 322/16/310 332/2/293
f 327/4/305 333/6/295 336/11/300
f 336/11/300 335/13/302 330/18/307
f 335/13/302 334/15/304 331/19/308
f 334/15/304 332/2/293 328/20/309
f 320/3/294 332/2/293 322/16/310
f 338/1/312 349/20/329 353/2/313
f 354/6/315 348/4/325 340/22/316
f 354/7/315 342/5/317 339/8/318
f 344/9/319 347/10/321 357/11/320
f 347/10/321 346/12/535 356/13/322
f 356/13/322 346/12/535 345/14/323
f 345/14/323 343/16/331 353/2/313
f 348/4/325 354/6/315 357/11/320
f 357/11/320 356/13/322 351/18/327
f 351/18/327 356/13/322 355/15/324
f 355/15/324 353/2/313 349/20/329
f 337/21/330 341/3/314 353/2/313
f 359/1/332 370/20/350 374/2/333
f 375/6/335 369/4/347 361/22/336
f 375/7/335 363/5/337 360/8/338
f 365/9/339 368/10/341 378/11/340
f 368/10/341 367/12/343 377/13/342
f 367/12/343 366/14/345 376/15/344
f 366/14/345 364/16/351 374/2/333
f 375/6/335 378/11/340 371/17/346
f 378/11/340 377/13/342 372/18/348
f 377/13/342 376/15/344 373/19/349
f 376/15/344 374/2/333 370/20/350
f 362/3/334 374/2/333 364/16/351
f 380/1/353 391/20/371 395/2/354
f 396/6/356 390/4/368 382/22/357
f 396/7/356 384/23/358 381/8/359
f 386/9/360 389/10/536 399/11/361
f 399/11/361 389/10/536 388/12/362
f 398/13/363 388/12/362 387/14/364
f 397/15/365 387/14/364 385/16/366
f 396/6/356 399/11/361 392/17/367
f 399/11/361 398/13/363 393/18/369
f 393/18/369 398/13/363 397/15/365
f 397/15/365 395/2/354 391/20/371
f 383/3/355 395/2/354 385/16/366
f 401/1/373 412/20/391 416/2/374
f 417/6/376 411/4/388 403/22/377
f 417/7/376 405/23/378 402/8/379
f 407/9/380 410/10/537 420/11/381
f 420/11/381 410/10/537 409/12/382
f 419/13/383 409/12/382 408/14/384
f 418/15/385 408/14/384 406/16/386
f 417/6/376 420/11/381 413/17/387
f 420/11/381 419/13/383 414/18/389
f 414/18/389 419/13/383 418/15/385
f 418/15/385 416/2/374 412/20/391
f 404/3/375 416/2/374 406/16/386
f 422/1/393 433/20/412 437/2/394
f 438/6/396 432/4/409 424/22/397
f 438/7/396 426/23/398 423/8/399
f 438/7/396 428/9/400 431/10/401
f 441/11/402 431/10/401 430/12/403
f 440/13/404 430/12/403 429/14/405
f 439/15/406 429/14/405 427/16/407
f 438/6/396 441/11/402 434/17/408
f 441/11/402 440/13/404 435/18/410
f 440/13/404 439/15/406 436/19/411
f 439/15/406 437/2/394 433/20/412
f 425/3/395 437/2/394 427/16/407
f 443/1/414 454/20/431 458/2/415
f 459/6/417 453/4/427 445/22/418
f 459/7/417 447/5/419 444/8/420
f 449/9/421 452/10/423 462/11/422
f 452/10/423 451/12/538 461/13/424
f 461/13/424 451/12/538 450/14/425
f 450/14/425 448/16/433 458/2/415
f 453/4/427 459/6/417 462/11/422
f 462/11/422 461/13/424 456/18/429
f 456/18/429 461/13/424 460/15/426
f 460/15/426 458/2/415 454/20/431
f 442/21/432 446/3/416 458/2/415
f 464/1/434 475/20/451 479/2/435
f 480/6/437 474/4/448 466/22/438
f 480/7/437 468/24/439 465/8/440
f 470/9/441 473/10/539 483/11/442
f 483/11/442 473/10/539 472/12/443
f 482/13/444 472/12/443 471/14/445
f 471/14/445 469/16/452 479/2/435
f 480/6/437 483/11/442 476/17/447
f 483/11/442 482/13/444 477/18/449
f 477/18/449 482/13/444 481/15/446
f 481/15/446 479/2/435 475/20/451
f 467/3/436 479/2/435 469/16/452
f 485/1/454 496/20/471 500/2/455
f 501/6/457 495/4/468 487/22/458
f 501/7/457 489/24/459 486/8/460
f 491/9/461 494/10/540 504/11/462
f 504/11/462 494/10/540 493/12/463
f 503/13/464 493/12/463 492/14/465
f 492/14/465 490/16/472 500/2/455
f 501/6/457 504/11/462 497/17/467
f 504/11/462 503/13/464 498/18/469
f 498/18/469 503/13/464 502/15/466
f 502/15/466 500/2/455 496/20/471
f 488/3/456 500/2/455 490/16/472
f 506/1/474 517/20/491 521/2/475
f 522/6/477 516/4/488 508/22/478
f 522/7/477 510/24/479 507/8/480
f 512/9/481 515/10/541 525/11/482
f 525/11/482 515/10/541 514/12/483
f 524/13/484 514/12/483 513/14/485
f 513/14/485 511/16/492 521/2/475
f 522/6/477 525/11/482 518/17/487
f 525/11/482 524/13/484 519/18/489
f 519/18/489 524/13/484 523/15/486
f 523/15/486 521/2/475 517/20/491
f 509/3/476 521/2/475 511/16/492
f 527/1/494 538/20/512 542/2/495
f 543/6/497 537/4/509 529/22/498
f 543/7/497 531/23/499 528/8/500
f 533/9/501 536/10/542 546/11/502
f 546/11/502 536/10/542 535/12/503
f 545/13/504 535/12/503 534/14/505
f 544/15/506 534/14/505 532/16/507
f 543/6/497 546/11/502 539/17/508
f 546/11/502 545/13/504 540/18/510
f 545/13/504 544/15/506 541/19/511
f 544/15/506 542/2/495 538/20/512
f 530/3/496 542/2/495 532/16/507
