# Blender 4.3.2
# www.blender.org
o PalmTreeA
v -0.553872 -0.021683 -0.368822
v 0.587873 -0.021683 0.085622
v 0.273801 3.051755 -2.531728
v 1.242272 2.985216 -2.377557
v 0.017000 -0.021683 -0.141600
v 0.772704 2.950627 -2.466203
v -0.529757 0.549487 -0.359224
v 0.163971 3.286668 -1.805966
v -0.433182 1.533154 -0.399167
v -0.328659 2.248013 -0.740620
v -0.117086 2.831104 -1.199479
v 1.307789 3.269706 -1.731734
v 0.610427 0.549240 0.094599
v 1.041331 2.848617 -0.804576
v 0.810943 2.181790 -0.284603
v 0.708564 1.533155 0.055277
v 0.039554 0.549240 -0.132623
v 0.735212 3.019875 -1.753770
v 0.172636 1.408524 -0.259742
v 0.278238 2.098864 -0.601025
v 0.484238 2.650305 -1.028962
v 0.558955 -0.021683 -0.477173
v -0.090988 -0.021683 0.565744
v 2.654504 3.558106 0.577578
v 2.238779 3.392525 1.756578
v 0.233983 -0.021683 0.044286
v 2.333203 3.290694 1.465442
v 0.545228 0.627329 -0.455146
v 1.645543 3.677743 0.302432
v 0.567389 1.750345 -0.353013
v 0.884859 2.566473 -0.189524
v 1.298862 3.232166 0.100158
v 1.569670 3.732901 1.596897
v -0.103827 0.627047 0.586346
v 0.704553 3.252160 1.170053
v 0.233748 2.490868 0.851004
v -0.082554 1.750346 0.689905
v 0.221145 0.627047 0.064887
v 1.693018 3.447678 1.037330
v 0.322614 1.608060 0.218425
v 0.639725 2.396195 0.382944
v 1.024288 3.025754 0.661653
v 0.311802 -0.021683 0.602792
v -0.490230 -0.021683 -0.328256
v -1.004444 3.871294 1.880682
v -1.898496 3.706728 1.419882
v -0.089195 -0.021683 0.137263
v -1.419782 3.655067 1.696576
v 0.307008 0.687042 0.579640
v -0.375357 4.027585 1.263503
v 0.285448 1.915467 0.546682
v 0.151766 2.806808 0.767484
v -0.098816 3.532532 1.033578
v -1.491775 4.040928 0.601567
v -0.496629 0.686798 -0.349359
v -1.014153 3.556174 0.167986
v -0.694360 2.725112 -0.150552
v -0.534456 1.915905 -0.379234
v -0.091947 0.686709 0.115112
v -0.978621 3.765428 1.092782
v -0.198969 1.759860 0.146221
v -0.342997 2.620761 0.369092
v -0.602114 3.307575 0.618325
v -0.425586 -0.021683 0.600310
v -0.105291 -0.021683 -0.580740
v -2.495241 2.669617 -0.664177
v -2.155365 2.477785 -1.725346
v -0.269009 -0.021683 0.009319
v -2.153263 2.359788 -1.484663
v -0.446500 0.516871 0.562318
v -1.498774 2.736858 -0.339396
v -0.520123 1.387560 0.439028
v -0.831890 1.996621 0.266816
v -1.253195 2.467446 -0.040561
v -1.369753 2.663399 -1.601331
v -0.082329 0.480945 -0.587496
v -0.548897 2.268619 -1.099379
v -0.291515 1.821016 -0.773685
v -0.058517 1.310071 -0.650382
v -0.271174 0.496850 -0.009113
v -1.531551 2.490749 -1.030812
v -0.385156 1.228794 -0.133287
v -0.648187 1.773662 -0.283343
v -0.901468 2.149227 -0.593782
v -0.393360 -0.021683 -0.051816
v 0.437490 -0.021683 -0.445868
v -0.781232 1.895242 -1.290983
v -0.184467 1.831150 -1.779358
v -0.002570 -0.021683 -0.245989
v -0.495665 1.756862 -1.507420
v -0.369852 0.340012 -0.093758
v -0.554405 1.808358 -0.768846
v -0.312985 0.916351 -0.174092
v -0.342651 1.312328 -0.325220
v -0.487786 1.631684 -0.571033
v 0.128190 1.872292 -1.366604
v 0.449142 0.287528 -0.489367
v 0.361540 1.522729 -0.996965
v 0.374283 1.202863 -0.761434
v 0.471514 0.854346 -0.599225
v 0.027450 0.314347 -0.279464
v -0.225304 1.752349 -1.151893
v 0.040470 0.804274 -0.426648
v -0.050697 1.169706 -0.603757
v -0.055547 1.440190 -0.821711
v 0.261850 -0.021683 -0.439428
v 0.460151 -0.021683 0.457360
v 1.464777 1.698010 -0.680825
v 1.808138 1.688485 0.018839
v 0.363779 -0.021683 -0.018917
v 1.617585 1.596300 -0.353532
v 0.281370 0.280016 -0.440578
v 0.910439 1.608049 -0.605903
v 0.319731 0.799088 -0.434017
v 0.454922 1.156521 -0.476133
v 0.711582 1.444927 -0.584563
v 1.334673 1.721321 0.197727
v 0.483978 0.286807 0.443965
v 0.939604 1.403824 0.335168
v 0.722859 1.109298 0.315472
v 0.559305 0.797004 0.423225
v 0.373717 0.282684 -0.018465
v 1.211665 1.588495 -0.210810
v 0.491162 0.725318 -0.037795
v 0.667192 1.053263 -0.147376
v 0.868024 1.302083 -0.159420
v 0.508638 -0.021683 0.021597
v -0.308123 -0.021683 0.441739
v 1.044379 2.365409 1.172165
v 0.455420 2.340307 1.682170
v 0.127939 -0.021683 0.227264
v 0.767170 2.221192 1.400516
v 0.513818 0.405328 0.048551
v 0.830502 2.229567 0.651970
v 0.515710 1.112126 0.101548
v 0.589921 1.602345 0.231522
v 0.759528 2.002969 0.460379
v 0.161280 2.370338 1.270059
v -0.289990 0.394455 0.469687
v -0.071676 1.926494 0.913756
v -0.107133 1.521880 0.690824
v -0.252217 1.090689 0.551299
v 0.129126 0.399271 0.245304
v 0.525398 2.198313 1.043510
v 0.176504 1.004413 0.366211
v 0.326496 1.457204 0.517782
v 0.388725 1.800179 0.715989
v 0.185844 -0.021683 0.417433
v -0.544391 -0.021683 -0.139621
v -0.577247 1.698010 1.378161
v -1.291072 1.688485 1.065303
v -0.163401 -0.021683 0.161999
v -0.905197 1.596300 1.226769
v 0.171676 0.280016 0.430909
v -0.202156 1.608049 0.963178
v 0.138139 0.799088 0.450654
v 0.062050 1.156522 0.570073
v -0.064028 1.444927 0.818541
v -1.044854 1.721322 0.623096
v -0.553947 0.286807 -0.114011
v -0.831773 1.403824 0.263143
v -0.653495 1.109298 0.138307
v -0.598102 0.797004 -0.049555
v -0.171284 0.282684 0.168068
v -0.687234 1.588495 0.855779
v -0.248521 0.725318 0.258628
v -0.312266 1.053263 0.455938
v -0.457903 1.302083 0.594749
v -0.052085 -0.021683 -0.610606
v 0.099053 -0.021683 0.505371
v 2.238095 2.897871 -1.210753
v 2.624529 2.771627 -0.129401
v 0.023484 -0.021683 -0.052617
v 2.459638 2.712848 -0.619140
v -0.014030 0.520110 -0.608858
v 1.373169 3.064276 -0.821105
v 0.123638 1.481529 -0.588667
v 0.488151 2.161121 -0.686614
v 0.986017 2.704727 -0.746427
v 2.078753 3.105778 0.136023
v 0.136885 0.551039 0.505603
v 1.193219 2.749487 0.355483
v 0.632870 2.127553 0.430986
v 0.274776 1.512744 0.527311
v 0.061316 0.535432 -0.052385
v 1.798294 2.886150 -0.375444
v 0.276993 1.369755 -0.037165
v 0.640299 2.025342 -0.133200
v 1.109005 2.539828 -0.182347
v -0.667432 -0.021683 0.036264
v 0.554284 -0.021683 -0.091005
v -1.244753 2.581673 -2.480653
v -0.052880 2.469204 -2.865605
v -0.056574 -0.021683 -0.027370
v -0.592333 2.416838 -2.702298
v -0.664247 0.463359 -0.005164
v -0.849024 2.729921 -1.524619
v -0.637609 1.319873 -0.154571
v -0.732141 1.925313 -0.555253
v -0.856983 2.645321 -1.207647
v 0.218145 2.766894 -2.261682
v 0.555808 0.490913 -0.132241
v 0.469478 2.689098 -1.414986
v 0.491127 1.895407 -0.675471
v 0.584107 1.347682 -0.281841
v -0.055050 0.477009 -0.068607
v -0.348880 2.571230 -1.973114
v -0.031210 1.220296 -0.303225
v -0.123699 1.804348 -0.702528
v -0.161529 2.262697 -1.215162
v 0.215662 -0.021683 0.686593
v -0.242619 -0.021683 -0.553973
v -1.988620 2.502125 1.612344
v -2.595430 2.434433 0.605542
v -0.013478 -0.021683 0.066310
v -2.661178 2.416838 1.337917
v 0.171596 0.463359 0.694310
v -1.364246 2.729920 1.291912
v 0.008639 1.319873 0.706329
v -0.384160 1.925313 0.911702
v -1.031464 2.645321 1.215760
v -2.417477 2.766894 0.375039
v -0.286042 0.490913 -0.544577
v -1.601181 2.689098 -0.112743
v -0.835498 1.895407 -0.332364
v -0.449642 1.347682 -0.534238
v -0.056902 0.477009 0.075707
v -1.965369 2.571230 0.889665
v -0.308005 1.220295 0.113349
v -0.699909 1.804348 0.316223
v -1.224602 2.262696 0.492274
v 0.778180 -0.021683 0.118635
v -0.661001 -0.021683 -0.028683
v 0.616691 2.317022 2.890730
v -0.664536 2.239348 2.995239
v 0.058589 -0.021683 0.044976
v 0.022678 2.195615 3.411503
v 0.763392 0.452996 0.197334
v 0.603174 2.595166 2.139847
v 0.694561 1.296487 0.419498
v 0.705096 1.868490 0.943335
v 0.689330 2.535035 1.771602
v -0.805612 2.589718 2.731872
v -0.673828 0.487143 0.050180
v -0.890027 2.580627 1.692096
v -0.734038 1.845876 0.783706
v -0.744621 1.330896 0.272180
v 0.045762 0.469939 0.123840
v -0.081646 2.409052 2.524176
v -0.040232 1.193857 0.437181
v -0.031670 1.744655 0.957520
v -0.113288 2.162040 1.586653
v 0.454165 -0.021683 0.327543
v -0.452764 -0.021683 0.183549
v 0.169547 0.941757 1.776648
v -0.604887 0.874306 1.833037
v 0.025696 -0.021683 0.268140
v -0.185501 0.840733 1.780754
v 0.434359 0.164539 0.393347
v 0.302531 0.997126 1.231947
v 0.390903 0.536173 0.506810
v 0.365434 0.767676 0.700663
v 0.361342 0.921140 1.018137
v -0.603324 1.004089 1.343210
v -0.462597 0.143041 0.257333
v -0.575327 0.859799 0.884958
v -0.465903 0.690730 0.649290
v -0.493467 0.499664 0.412896
v 0.007904 0.154798 0.324410
v -0.172610 0.925484 1.359059
v -0.036303 0.452918 0.507169
v -0.012221 0.652705 0.758001
v -0.084295 0.791149 0.983604
v -0.401456 -0.021683 0.390363
v -0.102108 -0.021683 -0.477765
v -1.779089 1.025905 -0.141653
v -1.700094 0.952428 -0.914108
v -0.268527 -0.021683 -0.021274
v -1.721457 0.915855 -0.492016
v -0.462819 0.179242 0.359427
v -1.265770 1.086222 0.083930
v -0.567009 0.584082 0.296922
v -0.753490 0.836270 0.238166
v -1.065426 1.003447 0.178988
v -1.217985 1.093807 -0.827481
v -0.173063 0.155822 -0.500266
v -0.771563 0.936624 -0.720306
v -0.558487 0.752449 -0.571608
v -0.320899 0.544311 -0.557689
v -0.320850 0.168630 -0.048569
v -1.308413 1.008178 -0.406069
v -0.493152 0.493387 -0.123852
v -0.744354 0.711026 -0.143708
v -0.954007 0.861840 -0.253875
v -0.396600 -0.021683 -0.219598
v 0.346297 -0.021683 -0.191112
v -0.307240 1.025905 -1.411860
v 0.309870 0.952428 -1.531703
v -0.046455 -0.021683 -0.213074
v -0.022226 0.915855 -1.449323
v -0.387011 0.179242 -0.274401
v -0.361729 1.086222 -0.961201
v -0.362996 0.584082 -0.369791
v -0.361174 0.836270 -0.528072
v -0.388432 1.003447 -0.783669
v 0.355745 1.093807 -1.137802
v 0.347102 0.155822 -0.251370
v 0.377331 0.936624 -0.766738
v 0.312045 0.752449 -0.566766
v 0.356949 0.544310 -0.379391
v -0.037568 0.168630 -0.260019
v 0.007987 1.008178 -1.109100
v -0.019616 0.493387 -0.411185
v -0.063110 0.711026 -0.610501
v -0.026880 0.861840 -0.798789
v -0.515252 -0.021683 0.452145
v -0.134979 -0.021683 -0.385100
v -1.794594 1.655069 -0.346107
v -1.631101 1.694704 -0.844506
v -0.342091 -0.021683 0.051602
v -1.742632 1.542893 -0.563148
v -0.524368 0.340012 0.404936
v -1.356555 1.593491 -0.007305
v -0.543371 0.876679 0.350780
v -0.743817 1.273414 0.338653
v -1.103757 1.521363 0.145967
v -1.133787 1.750274 -0.845790
v -0.154155 0.287528 -0.425846
v -0.608918 1.486684 -0.804048
v -0.366393 1.164738 -0.703286
v -0.179709 0.813690 -0.556443
v -0.340767 0.314347 0.006658
v -1.340054 1.532446 -0.471911
v -0.430766 0.781647 -0.110634
v -0.664919 1.110154 -0.183394
v -0.861920 1.353782 -0.351133
v 0.183400 -0.021683 0.668107
v -0.450265 -0.021683 0.000407
v -1.013805 1.655069 1.743292
v -1.473431 1.694704 1.391560
v -0.070783 -0.021683 0.375114
v -1.220964 1.542893 1.610157
v 0.230902 0.340012 0.693604
v -0.501442 1.593491 1.410357
v 0.167574 0.876679 0.693682
v 0.081973 1.273414 0.898057
v -0.249762 1.521363 1.202833
v -1.293729 1.750274 0.873080
v -0.499687 0.287528 0.005549
v -1.059180 1.486683 0.341562
v -0.865937 1.164738 0.125622
v -0.645022 0.813690 -0.015375
v -0.117116 0.314347 0.357374
v -0.979377 1.532445 1.224037
v -0.272053 0.781647 0.408420
v -0.433081 1.110154 0.625832
v -0.679515 1.353782 0.769970
v 0.607420 -0.021683 0.090412
v -0.146373 -0.021683 0.481352
v 1.054267 1.615965 1.830717
v 0.614230 1.669488 2.171116
v 0.284539 -0.021683 0.236446
v 0.879911 1.509717 1.995025
v 0.635615 0.318627 0.050579
v 0.951426 1.557869 1.140456
v 0.601769 0.854585 0.118288
v 0.731341 1.245870 0.297377
v 0.865911 1.488705 0.782537
v 0.247278 1.736565 1.756817
v -0.166640 0.291880 0.536370
v -0.104540 1.485063 1.278315
v -0.210045 1.167551 0.979236
v -0.244372 0.818766 0.682714
v 0.246536 0.305445 0.278355
v 0.643304 1.506844 1.571331
v 0.226030 0.771841 0.465811
v 0.343165 1.095522 0.731093
v 0.374302 1.337347 1.056235
v 0.876846 -0.021683 0.020397
v -0.676260 -0.021683 0.352197
v 1.509230 3.115191 2.305410
v 0.432202 2.982765 3.033237
v 0.100299 -0.021683 0.186272
v 1.042859 2.941195 2.662113
v 0.847623 0.552856 0.011470
v 1.199706 3.240956 1.209325
v 0.796882 1.541357 0.015471
v 0.964301 2.258610 0.304001
v 1.110558 2.842592 0.753165
v -0.243301 3.251693 2.064502
v -0.704156 0.552660 0.346362
v -0.438619 2.861617 1.254032
v -0.601405 2.192870 0.693866
v -0.761493 1.541709 0.370719
v 0.073478 0.552588 0.175652
v 0.631939 3.030001 1.787398
v 0.042363 1.416141 0.316290
v 0.205709 2.108899 0.617832
v 0.327556 2.661571 1.066214
vn -0.3698 -0.0000 0.9291
vn -0.3681 0.0960 0.9248
vn -0.0550 0.9892 0.1358
vn -0.1944 0.9579 -0.2112
vn 0.0863 0.9920 -0.0919
vn 0.3117 0.9388 -0.1464
vn 0.3858 0.8801 0.2766
vn 0.0823 0.7334 0.6748
vn -0.2212 0.7805 0.5847
vn -0.0616 0.5415 0.8385
vn -0.2822 0.5549 0.7826
vn -0.1572 0.2758 0.9483
vn -0.3611 0.2752 0.8910
vn -0.3393 0.0674 0.9383
vn -0.4474 0.7781 0.4409
vn -0.3981 0.9163 -0.0432
vn -0.4886 0.5559 0.6725
vn -0.5288 0.2929 0.7966
vn -0.4000 0.0788 0.9131
vn -0.8487 -0.0000 -0.5289
vn -0.8457 0.0844 -0.5270
vn 0.1431 0.9047 -0.4012
vn 0.2964 0.9550 -0.0074
vn -0.1005 0.9922 -0.0733
vn 0.0330 0.9540 0.2981
vn -0.4227 0.8836 0.2013
vn -0.6171 0.7128 -0.3334
vn -0.8419 0.4947 -0.2154
vn -0.7474 0.5036 -0.4333
vn -0.9123 0.2500 -0.3242
vn -0.8210 0.2395 -0.5183
vn -0.8620 0.0615 -0.5032
vn -0.3744 0.7414 -0.5569
vn -0.5954 0.5083 -0.6222
vn -0.6951 0.2639 -0.6687
vn -0.8300 0.0707 -0.5532
vn 0.7559 -0.0153 -0.6545
vn 0.7562 0.0390 -0.6532
vn 0.7578 -0.0171 -0.6523
vn 0.1059 0.9738 -0.2011
vn 0.0440 0.9545 0.2949
vn -0.1867 0.9815 0.0430
vn -0.3904 0.9107 -0.1352
vn -0.1236 0.7254 -0.6771
vn 0.2623 0.5616 -0.7847
vn 0.5626 0.6194 -0.5475
vn 0.4875 0.3778 -0.7871
vn 0.6707 0.3705 -0.6426
vn 0.5923 0.1638 -0.7889
vn 0.7474 0.1394 -0.6495
vn 0.7397 0.0205 -0.6726
vn 0.6989 0.6479 -0.3029
vn 0.3931 0.9138 0.1018
vn 0.7973 0.3828 -0.4666
vn 0.8471 0.1638 -0.5055
vn 0.7702 0.0283 -0.6372
vn 0.7576 -0.0162 -0.6526
vn 0.9564 -0.0155 0.2916
vn 0.9515 0.0990 0.2913
vn 0.9621 0.0238 0.2716
vn -0.0658 0.9516 0.3002
vn -0.1755 0.9809 0.0836
vn 0.1396 0.9898 -0.0279
vn 0.0466 0.9406 -0.3363
vn 0.4609 0.8594 -0.2212
vn 0.5804 0.7845 0.2183
vn 0.8180 0.5704 0.0743
vn 0.7740 0.5717 0.2723
vn 0.9410 0.3062 0.1437
vn 0.8975 0.2872 0.3346
vn 0.9608 0.0959 0.2602
vn 0.3630 0.8216 0.4395
vn 0.6112 0.5925 0.5248
vn 0.7884 0.2720 0.5518
vn 0.9316 0.0423 0.3610
vn 0.9652 0.0555 0.2557
vn 0.4348 0.0868 0.8963
vn 0.4535 0.1266 0.8822
vn 0.4241 0.0581 0.9037
vn 0.1850 0.9379 0.2935
vn -0.1974 0.9742 0.1095
vn 0.0776 0.9959 -0.0464
vn 0.2653 0.9614 -0.0729
vn 0.4593 0.8393 0.2910
vn 0.3957 0.6735 0.6243
vn 0.6881 0.4493 0.5698
vn 0.5146 0.4850 0.7071
vn 0.6160 0.2767 0.7375
vn 0.4803 0.3355 0.8104
vn 0.1655 0.6853 0.7093
vn -0.0742 0.9176 0.3904
vn 0.2472 0.5378 0.8061
vn 0.3148 0.3343 0.8883
vn 0.4249 0.1605 0.8909
vn 0.4315 0.0739 0.8991
vn 0.4437 0.0747 0.8930
vn -0.9742 0.0474 0.2205
vn -0.9722 0.1350 0.1913
vn -0.9646 0.1462 0.2194
vn -0.3652 0.9159 -0.1665
vn 0.0005 0.9999 -0.0126
vn -0.3508 0.9346 0.0588
vn -0.0333 0.9772 0.2097
vn -0.4114 0.8406 0.3524
vn -0.6758 0.6991 0.2336
vn -0.6718 0.5040 0.5429
vn -0.7788 0.5412 0.3171
vn -0.8386 0.2726 0.4717
vn -0.9100 0.3402 0.2371
vn -0.9579 0.1079 0.2660
vn -0.7205 0.6925 -0.0360
vn -0.8370 0.5465 0.0265
vn -0.9428 0.3212 0.0894
vn -0.9699 0.0636 0.2351
vn -0.4612 0.0538 -0.8856
vn -0.4414 0.1182 -0.8895
vn -0.4614 0.1242 -0.8784
vn 0.0837 0.8759 -0.4753
vn -0.0147 0.9997 -0.0173
vn -0.2065 0.8887 -0.4093
vn -0.3099 0.9507 0.0152
vn -0.5365 0.7633 -0.3600
vn -0.4596 0.5836 -0.6695
vn -0.7410 0.4055 -0.5353
vn -0.5435 0.4294 -0.7213
vn -0.6780 0.2323 -0.6974
vn -0.4818 0.2618 -0.8363
vn -0.4939 0.1011 -0.8636
vn -0.1797 0.5884 -0.7884
vn -0.2657 0.4468 -0.8543
vn -0.3365 0.2660 -0.9034
vn -0.4744 0.0612 -0.8782
vn 0.6019 0.0474 -0.7972
vn 0.6192 0.1350 -0.7736
vn 0.5953 0.1462 -0.7901
vn 0.3864 0.9159 -0.1086
vn 0.0077 0.9999 0.0099
vn 0.2300 0.9346 -0.2713
vn -0.1099 0.9772 -0.1817
vn 0.0869 0.8406 -0.5347
vn 0.3655 0.6991 -0.6146
vn 0.1628 0.5040 -0.8482
vn 0.3903 0.5412 -0.7448
vn 0.3362 0.2726 -0.9015
vn 0.5421 0.3402 -0.7684
vn 0.5601 0.1079 -0.8214
vn 0.5736 0.6925 -0.4375
vn 0.6223 0.5465 -0.5605
vn 0.6625 0.3212 -0.6767
vn 0.5891 0.0636 -0.8055
vn -0.9889 0.0662 0.1330
vn -0.9792 0.1571 0.1285
vn -0.9888 0.0676 0.1334
vn -0.0395 0.9991 0.0138
vn 0.2245 0.9181 -0.3265
vn 0.2526 0.9676 -0.0025
vn 0.2834 0.9451 0.1625
vn -0.1502 0.9173 0.3689
vn -0.6321 0.7685 0.0997
vn -0.7401 0.5782 0.3435
vn -0.8026 0.5843 0.1199
vn -0.8877 0.3326 0.3184
vn -0.9402 0.3216 0.1123
vn -0.9781 0.1336 0.1598
vn -0.5931 0.7837 -0.1847
vn -0.0446 0.9266 -0.3734
vn -0.8075 0.5780 -0.1176
vn -0.9388 0.3345 -0.0820
vn -0.9853 0.1402 0.0972
vn -0.9886 0.0690 0.1339
vn 0.1023 0.0804 0.9915
vn 0.1177 0.1682 0.9787
vn 0.1027 0.0822 0.9913
vn -0.0365 0.9993 0.0108
vn -0.2707 0.9422 -0.1975
vn 0.0058 0.9779 -0.2090
vn 0.1424 0.9623 -0.2315
vn 0.3632 0.9281 0.0817
vn 0.0477 0.8050 0.5913
vn 0.3187 0.6334 0.7052
vn 0.0915 0.6600 0.7456
vn 0.2523 0.4189 0.8723
vn 0.1020 0.4099 0.9064
vn -0.3062 0.8216 0.4809
vn -0.3481 0.9361 -0.0493
vn -0.1549 0.6305 0.7606
vn -0.1129 0.3923 0.9129
vn 0.0616 0.1664 0.9841
vn 0.1006 0.1241 0.9872
vn 0.1032 0.0840 0.9911
vn 0.9349 0.0865 -0.3442
vn 0.9166 0.1811 -0.3564
vn 0.9346 0.0884 -0.3446
vn -0.0327 0.9972 0.0677
vn -0.3431 0.8759 0.3392
vn -0.1872 0.9812 0.0474
vn -0.2280 0.9699 0.0854
vn -0.0273 0.9450 -0.3258
vn 0.5333 0.8261 -0.1821
vn 0.5872 0.6597 -0.4691
vn 0.6765 0.6874 -0.2643
vn 0.7755 0.4404 -0.4525
vn 0.8413 0.4363 -0.3193
vn 0.5206 0.8375 0.1663
vn -0.1028 0.8964 0.4311
vn 0.7532 0.6568 -0.0370
vn 0.9035 0.4126 -0.1164
vn 0.9371 0.1771 -0.3008
vn 0.9304 0.1335 -0.3413
vn 0.9342 0.0904 -0.3451
vn 0.1028 0.1569 -0.9822
vn 0.0826 0.2614 -0.9617
vn 0.1017 0.1612 -0.9817
vn 0.0401 0.9920 0.1198
vn 0.1469 0.8586 0.4911
vn -0.0390 0.9705 0.2380
vn -0.0244 0.9576 0.2869
vn -0.2838 0.9576 -0.0486
vn 0.0664 0.8823 -0.4659
vn -0.1566 0.7360 -0.6586
vn 0.0569 0.7639 -0.6428
vn -0.0599 0.5242 -0.8495
vn 0.0817 0.5266 -0.8462
vn 0.3538 0.8795 -0.3184
vn 0.3171 0.8880 0.3330
vn 0.2864 0.7314 -0.6189
vn 0.2883 0.4940 -0.8203
vn 0.1452 0.2532 -0.9565
vn 0.1033 0.2110 -0.9720
vn 0.1004 0.1658 -0.9810
vn 0.1298 0.3891 -0.9120
vn 0.1334 0.4312 -0.8924
vn 0.1524 0.3183 -0.9357
vn 0.1663 0.9856 -0.0302
vn -0.0521 0.9759 0.2121
vn -0.0025 0.9976 -0.0689
vn -0.1991 0.9719 0.1253
vn -0.2029 0.9517 -0.2303
vn -0.0076 0.8978 -0.4404
vn -0.2519 0.8687 -0.4264
vn -0.0389 0.8127 -0.5814
vn -0.1555 0.5077 -0.8474
vn 0.0781 0.6231 -0.7782
vn 0.0787 0.3666 -0.9270
vn 0.2021 0.8985 -0.3898
vn 0.2087 0.8012 -0.5608
vn 0.2207 0.5855 -0.7801
vn 0.1474 0.4356 -0.8880
vn 0.1290 0.3426 -0.9306
vn 0.8853 0.3636 0.2900
vn 0.8675 0.4041 0.2900
vn 0.9014 0.2975 0.3148
vn 0.0003 0.9830 0.1835
vn -0.2169 0.9716 -0.0949
vn 0.0739 0.9972 0.0102
vn -0.0961 0.9670 -0.2359
vn 0.2805 0.9442 -0.1725
vn 0.4657 0.8818 0.0744
vn 0.4933 0.8500 -0.1848
vn 0.6124 0.7877 0.0671
vn 0.8753 0.4835 -0.0089
vn 0.7777 0.5896 0.2183
vn 0.9070 0.3442 0.2427
vn 0.3719 0.8834 0.2850
vn 0.5433 0.7765 0.3193
vn 0.7473 0.5571 0.3621
vn 0.8609 0.4091 0.3024
vn 0.9015 0.3202 0.2911
vn -0.0264 0.2561 0.9663
vn -0.0537 0.3322 0.9417
vn -0.0194 0.3330 0.9427
vn -0.2152 0.9745 0.0628
vn 0.0311 0.9576 -0.2864
vn 0.0146 0.9959 0.0888
vn 0.2398 0.9512 -0.1940
vn 0.2933 0.9217 0.2539
vn 0.0970 0.8419 0.5308
vn 0.4012 0.6405 0.6548
vn 0.1465 0.6970 0.7020
vn 0.2770 0.4262 0.8612
vn 0.0193 0.5056 0.8625
vn 0.0254 0.2906 0.9565
vn -0.1932 0.8393 0.5081
vn -0.1669 0.7087 0.6855
vn -0.1388 0.4880 0.8617
vn -0.0180 0.2639 0.9644
vn 0.9107 0.0868 0.4040
vn 0.9019 0.1652 0.3991
vn 0.9073 0.0581 0.4166
vn 0.1594 0.9688 0.1899
vn -0.0882 0.8862 0.4548
vn 0.0293 0.9995 -0.0150
vn 0.1746 0.9418 -0.2871
vn 0.3178 0.9400 -0.1242
vn 0.5192 0.8063 0.2833
vn 0.5106 0.8542 -0.0982
vn 0.7252 0.6559 0.2095
vn 0.9402 0.3190 0.1191
vn 0.8584 0.3915 0.3316
vn 0.9262 0.1143 0.3594
vn 0.1292 0.8574 0.4982
vn 0.4976 0.7169 0.4883
vn 0.6387 0.6121 0.4663
vn 0.7809 0.4020 0.4781
vn 0.8960 0.1644 0.4126
vn 0.9153 0.0747 0.3957
vn 0.6802 0.0974 -0.7265
vn 0.6662 0.1379 -0.7329
vn 0.7302 0.0648 -0.6802
vn 0.2125 0.9740 -0.0785
vn 0.3699 0.9037 0.2155
vn -0.0044 0.9995 -0.0298
vn -0.1970 0.9512 -0.2377
vn -0.0113 0.9498 -0.3127
vn 0.4116 0.8327 -0.3703
vn 0.0719 0.8736 -0.4813
vn 0.4177 0.6927 -0.5880
vn 0.4450 0.3862 -0.8080
vn 0.5584 0.4455 -0.6998
vn 0.4776 0.8778 0.0368
vn 0.5954 0.7469 -0.2960
vn 0.6270 0.6480 -0.4324
vn 0.6978 0.4333 -0.5704
vn 0.6850 0.1796 -0.7061
vn 0.7198 0.0018 -0.6942
vn 0.6937 0.0238 -0.7199
vn -0.5160 0.0913 -0.8517
vn -0.5372 0.1435 -0.8312
vn -0.4799 0.0247 -0.8770
vn 0.0002 0.9774 -0.2114
vn 0.3996 0.8894 -0.2218
vn 0.0536 0.9979 -0.0367
vn -0.3135 0.9444 0.0994
vn -0.3114 0.9453 -0.0972
vn -0.2130 0.8740 -0.4368
vn -0.4609 0.8561 -0.2340
vn -0.4304 0.7156 -0.5501
vn -0.6658 0.3670 -0.6496
vn -0.5190 0.4598 -0.7205
vn 0.0308 0.8111 -0.5841
vn 0.3001 0.8565 -0.4200
vn -0.1782 0.7017 -0.6898
vn -0.3176 0.4823 -0.8164
vn -0.4897 0.1881 -0.8513
vn -0.4831 0.0330 -0.8749
vn -0.4110 -0.0723 -0.9088
vn -0.2122 -0.0233 -0.9769
vn -0.2097 0.0620 -0.9758
vn -0.2084 -0.0274 -0.9777
vn -0.0920 0.9916 -0.0912
vn 0.1805 0.9813 0.0661
vn -0.0376 0.9923 0.1184
vn -0.2016 0.9622 0.1832
vn -0.3838 0.9012 -0.2016
vn -0.1986 0.7666 -0.6107
vn -0.4137 0.5366 -0.7355
vn -0.2259 0.5378 -0.8122
vn -0.3997 0.2358 -0.8858
vn -0.2083 0.2456 -0.9467
vn -0.2461 0.0210 -0.9690
vn 0.0435 0.7874 -0.6149
vn 0.1767 0.9614 -0.2109
vn -0.0153 0.5321 -0.8465
vn -0.0265 0.2501 -0.9679
vn -0.1780 0.0366 -0.9834
vn -0.2088 -0.0258 -0.9776
vn 0.4763 0.8666 -0.1486
vn -0.7740 0.6145 -0.1526
vn -0.2712 0.8633 0.4256
vn 0.7163 0.6956 0.0553
vn 0.5698 0.6779 0.4646
vn -0.9767 0.0840 0.1976
vn -0.0197 0.9728 -0.2307
vn -0.5591 0.7018 0.4415
vn -0.4400 0.0792 -0.8945
vn 0.2610 0.9583 -0.1164
vn -0.6522 0.5849 -0.4822
vn 0.6185 0.0840 -0.7813
vn 0.1640 0.9728 0.1635
vn 0.1421 0.7018 -0.6981
vn -0.6363 0.6920 0.3410
vn 0.4420 0.7952 0.4151
vn 0.2850 0.8138 -0.5065
vn -0.3087 0.8628 -0.4004
vn 0.1087 0.9608 0.2549
vn -0.3155 0.7405 -0.5934
vn -0.2920 0.9540 0.0679
vn 0.6629 0.7160 -0.2190
vn -0.0529 0.3212 0.9455
vn -0.1805 0.9323 -0.3136
vn 0.3400 0.8188 0.4626
vn 0.7633 0.6405 -0.0849
vn 0.1692 0.6705 -0.7223
vn -0.6753 0.6281 -0.3866
vn -0.4026 0.6782 -0.6148
vt 0.800945 0.000000
vt 0.500001 0.127269
vt 0.500001 0.000000
vt 0.500001 0.872731
vt 0.800945 1.000000
vt 0.500001 1.000000
vt 0.500001 0.872731
vt 0.199056 1.000000
vt 0.199056 0.872731
vt 0.199056 0.686366
vt 0.500001 0.686366
vt 0.199056 0.500000
vt 0.500001 0.500000
vt 0.199056 0.313634
vt 0.500001 0.313634
vt 0.199056 0.127269
vt 0.800945 0.686366
vt 0.800945 0.872731
vt 0.800945 0.500000
vt 0.800945 0.313634
vt 0.800945 0.127269
vt 0.199056 0.000000
vt 0.436688 1.000000
vt 0.444709 1.000000
s 1
f 2/1/1 17/2/2 5/3/1
f 18/4/3 4/5/4 6/6/5
f 18/7/3 3/8/6 8/9/7
f 18/7/3 11/10/8 21/11/9
f 21/11/9 10/12/10 20/13/11
f 20/13/11 9/14/12 19/15/13
f 19/15/13 7/16/14 17/2/2
f 18/4/3 14/17/15 12/18/16
f 21/11/9 15/19/17 14/17/15
f 20/13/11 16/20/18 15/19/17
f 19/15/13 13/21/19 16/20/18
f 5/3/1 7/16/14 1/22/1
f 23/1/20 38/2/21 26/3/20
f 33/18/22 27/6/23 39/4/24
f 39/7/24 24/8/25 29/9/26
f 29/9/26 42/11/27 39/7/24
f 42/11/27 31/12/28 41/13/29
f 41/13/29 30/14/30 40/15/31
f 40/15/31 28/16/32 38/2/21
f 39/4/24 35/17/33 33/18/22
f 42/11/27 36/19/34 35/17/33
f 41/13/29 37/20/35 36/19/34
f 40/15/31 34/21/36 37/20/35
f 26/3/20 28/16/32 22/22/20
f 44/1/37 59/2/38 47/3/39
f 60/4/40 46/5/41 48/23/42
f 60/7/40 45/8/43 50/9/44
f 60/7/40 53/10/45 63/11/46
f 63/11/46 52/12/47 62/13/48
f 62/13/48 51/14/49 61/15/50
f 61/15/50 49/16/51 59/2/38
f 60/4/40 56/17/52 54/18/53
f 63/11/46 57/19/54 56/17/52
f 62/13/48 58/20/55 57/19/54
f 61/15/50 55/21/56 58/20/55
f 47/3/39 49/16/51 43/22/57
f 65/1/58 80/2/59 68/3/60
f 75/18/61 69/6/62 81/4/63
f 81/7/63 66/8/64 71/9/65
f 71/9/65 84/11/66 81/7/63
f 84/11/66 73/12/67 83/13/68
f 83/13/68 72/14/69 82/15/70
f 82/15/70 70/16/71 80/2/59
f 81/4/63 77/17/72 75/18/61
f 84/11/66 78/19/73 77/17/72
f 83/13/68 79/20/74 78/19/73
f 82/15/70 76/21/75 79/20/74
f 68/3/60 70/16/71 64/22/76
f 86/1/77 101/2/78 89/3/79
f 102/4/80 88/5/81 90/6/82
f 102/7/80 87/8/83 92/9/84
f 92/9/84 105/11/85 102/7/80
f 105/11/85 94/12/86 104/13/87
f 104/13/87 93/14/88 103/15/89
f 93/14/88 101/2/78 103/15/89
f 102/4/80 98/17/90 96/18/91
f 105/11/85 99/19/92 98/17/90
f 104/13/87 100/20/93 99/19/92
f 103/15/89 97/21/94 100/20/93
f 89/3/79 91/16/95 85/22/96
f 110/3/97 118/21/98 122/2/99
f 117/18/100 111/6/101 123/4/102
f 123/7/102 108/8/103 113/9/104
f 113/9/104 126/11/105 123/7/102
f 126/11/105 115/12/106 125/13/107
f 125/13/107 114/14/108 124/15/109
f 124/15/109 112/16/110 122/2/99
f 123/4/102 119/17/111 117/18/100
f 126/11/105 120/19/112 119/17/111
f 120/19/112 124/15/109 121/20/113
f 124/15/109 118/21/98 121/20/113
f 110/3/97 112/16/110 106/22/114
f 131/3/115 139/21/116 143/2/117
f 138/18/118 132/6/119 144/4/120
f 144/7/120 129/8/121 134/9/122
f 134/9/122 147/11/123 144/7/120
f 147/11/123 136/12/124 146/13/125
f 146/13/125 135/14/126 145/15/127
f 145/15/127 133/16/128 143/2/117
f 144/4/120 140/17/129 138/18/118
f 147/11/123 141/19/130 140/17/129
f 141/19/130 145/15/127 142/20/131
f 145/15/127 139/21/116 142/20/131
f 131/3/115 133/16/128 127/22/132
f 152/3/133 160/21/134 164/2/135
f 159/18/136 153/6/137 165/4/138
f 165/7/138 150/8/139 155/9/140
f 155/9/140 168/11/141 165/7/138
f 168/11/141 157/12/142 167/13/143
f 167/13/143 156/14/144 166/15/145
f 166/15/145 154/16/146 164/2/135
f 165/4/138 161/17/147 159/18/136
f 168/11/141 162/19/148 161/17/147
f 162/19/148 166/15/145 163/20/149
f 166/15/145 160/21/134 163/20/149
f 152/3/133 154/16/146 148/22/150
f 170/1/151 185/2/152 173/3/153
f 186/4/154 172/5/155 174/24/156
f 186/7/154 171/8/157 176/9/158
f 176/9/158 189/11/159 186/7/154
f 189/11/159 178/12/160 188/13/161
f 188/13/161 177/14/162 187/15/163
f 187/15/163 175/16/164 185/2/152
f 186/4/154 182/17/165 180/18/166
f 189/11/159 183/19/167 182/17/165
f 188/13/161 184/20/168 183/19/167
f 187/15/163 181/21/169 184/20/168
f 173/3/153 175/16/164 169/22/170
f 191/1/171 206/2/172 194/3/173
f 207/4/174 193/5/175 195/24/176
f 207/7/174 192/8/177 197/9/178
f 197/9/178 210/11/179 207/7/174
f 210/11/179 199/12/180 209/13/181
f 209/13/181 198/14/182 208/15/183
f 198/14/182 206/2/172 208/15/183
f 207/4/174 203/17/184 201/18/185
f 210/11/179 204/19/186 203/17/184
f 204/19/186 208/15/183 205/20/187
f 208/15/183 202/21/188 205/20/187
f 194/3/173 196/16/189 190/22/190
f 212/1/191 227/2/192 215/3/193
f 228/4/194 214/5/195 216/24/196
f 228/7/194 213/8/197 218/9/198
f 218/9/198 231/11/199 228/7/194
f 231/11/199 220/12/200 230/13/201
f 230/13/201 219/14/202 229/15/203
f 219/14/202 227/2/192 229/15/203
f 228/4/194 224/17/204 222/18/205
f 231/11/199 225/19/206 224/17/204
f 225/19/206 229/15/203 226/20/207
f 229/15/203 223/21/208 226/20/207
f 215/3/193 217/16/209 211/22/210
f 233/1/211 248/2/212 236/3/213
f 249/4/214 235/5/215 237/24/216
f 249/7/214 234/8/217 239/9/218
f 239/9/218 252/11/219 249/7/214
f 252/11/219 241/12/220 251/13/221
f 251/13/221 240/14/222 250/15/223
f 240/14/222 248/2/212 250/15/223
f 249/4/214 245/17/224 243/18/225
f 252/11/219 246/19/226 245/17/224
f 246/19/226 250/15/223 247/20/227
f 250/15/223 244/21/228 247/20/227
f 236/3/213 238/16/229 232/22/230
f 254/1/231 269/2/232 257/3/233
f 264/18/234 258/6/235 270/4/236
f 270/7/236 255/8/237 260/9/238
f 260/9/238 273/11/239 270/7/236
f 263/10/240 272/13/241 273/11/239
f 272/13/241 261/14/242 271/15/243
f 271/15/243 259/16/244 269/2/232
f 270/4/236 266/17/245 264/18/234
f 273/11/239 267/19/246 266/17/245
f 267/19/246 271/15/243 268/20/247
f 271/15/243 265/21/248 268/20/247
f 257/3/233 259/16/244 253/22/249
f 275/1/250 290/2/251 278/3/252
f 285/18/253 279/6/254 291/4/255
f 291/7/255 276/8/256 281/9/257
f 281/9/257 294/11/258 291/7/255
f 284/10/259 293/13/260 294/11/258
f 293/13/260 282/14/261 292/15/262
f 292/15/262 280/16/263 290/2/251
f 291/4/255 287/17/264 285/18/253
f 294/11/258 288/19/265 287/17/264
f 288/19/265 292/15/262 289/20/266
f 292/15/262 286/21/267 289/20/266
f 278/3/252 280/16/263 274/22/268
f 299/3/269 307/21/270 311/2/271
f 306/18/272 300/6/273 312/4/274
f 312/7/274 297/8/275 302/9/276
f 302/9/276 315/11/277 312/7/274
f 315/11/277 304/12/278 314/13/279
f 314/13/279 303/14/280 313/15/281
f 313/15/281 301/16/282 311/2/271
f 312/4/274 308/17/283 306/18/272
f 315/11/277 309/19/284 308/17/283
f 309/19/284 313/15/281 310/20/285
f 313/15/281 307/21/270 310/20/285
f 299/3/269 301/16/282 295/22/286
f 317/1/287 332/2/288 320/3/289
f 333/4/290 319/5/291 321/6/292
f 333/7/290 318/8/293 323/9/294
f 323/9/294 336/11/295 333/7/290
f 326/10/296 335/13/297 336/11/295
f 335/13/297 324/14/298 334/15/299
f 334/15/299 322/16/300 332/2/288
f 327/18/301 336/11/295 329/17/302
f 336/11/295 330/19/303 329/17/302
f 335/13/297 331/20/304 330/19/303
f 334/15/299 328/21/305 331/20/304
f 320/3/289 322/16/300 316/22/306
f 338/1/307 353/2/308 341/3/309
f 354/4/310 340/5/311 342/6/312
f 354/7/310 339/8/313 344/9/314
f 344/9/314 357/11/315 354/7/310
f 347/10/316 356/13/317 357/11/315
f 356/13/317 345/14/318 355/15/319
f 345/14/318 353/2/308 355/15/319
f 348/18/320 357/11/315 350/17/321
f 357/11/315 351/19/322 350/17/321
f 356/13/317 352/20/323 351/19/322
f 355/15/319 349/21/324 352/20/323
f 337/22/325 353/2/308 343/16/326
f 359/1/327 374/2/328 362/3/329
f 375/4/330 361/5/331 363/6/332
f 375/7/330 360/8/333 365/9/334
f 365/9/334 378/11/335 375/7/330
f 368/10/336 377/13/337 378/11/335
f 377/13/337 366/14/338 376/15/339
f 366/14/338 374/2/328 376/15/339
f 375/4/330 371/17/340 369/18/341
f 378/11/335 372/19/342 371/17/340
f 377/13/337 373/20/343 372/19/342
f 376/15/339 370/21/344 373/20/343
f 362/3/329 364/16/345 358/22/346
f 380/1/347 395/2/348 383/3/349
f 396/4/350 382/5/351 384/23/352
f 396/7/350 381/8/353 386/9/354
f 386/9/354 399/11/355 396/7/350
f 399/11/355 388/12/356 398/13/357
f 398/13/357 387/14/358 397/15/359
f 397/15/359 385/16/360 395/2/348
f 396/4/350 392/17/361 390/18/362
f 399/11/355 393/19/363 392/17/361
f 393/19/363 397/15/359 394/20/364
f 397/15/359 391/21/365 394/20/364
f 383/3/349 385/16/360 379/22/366
f 2/1/1 13/21/19 17/2/2
f 18/4/3 12/18/16 4/5/4
f 18/7/3 6/6/5 3/8/6
f 18/7/3 8/9/7 11/10/8
f 21/11/9 11/10/8 10/12/10
f 20/13/11 10/12/10 9/14/12
f 19/15/13 9/14/12 7/16/14
f 18/4/3 21/11/9 14/17/15
f 21/11/9 20/13/11 15/19/17
f 20/13/11 19/15/13 16/20/18
f 19/15/13 17/2/2 13/21/19
f 5/3/1 17/2/2 7/16/14
f 23/1/20 34/21/36 38/2/21
f 33/18/22 25/5/367 27/6/23
f 39/7/24 27/6/23 24/8/25
f 29/9/26 32/10/368 42/11/27
f 42/11/27 32/10/368 31/12/28
f 41/13/29 31/12/28 30/14/30
f 40/15/31 30/14/30 28/16/32
f 39/4/24 42/11/27 35/17/33
f 42/11/27 41/13/29 36/19/34
f 41/13/29 40/15/31 37/20/35
f 40/15/31 38/2/21 34/21/36
f 26/3/20 38/2/21 28/16/32
f 44/1/37 55/21/56 59/2/38
f 60/4/40 54/18/53 46/5/41
f 60/7/40 48/23/42 45/8/43
f 60/7/40 50/9/44 53/10/45
f 63/11/46 53/10/45 52/12/47
f 62/13/48 52/12/47 51/14/49
f 61/15/50 51/14/49 49/16/51
f 60/4/40 63/11/46 56/17/52
f 63/11/46 62/13/48 57/19/54
f 62/13/48 61/15/50 58/20/55
f 61/15/50 59/2/38 55/21/56
f 47/3/39 59/2/38 49/16/51
f 65/1/58 76/21/75 80/2/59
f 75/18/61 67/5/369 69/6/62
f 81/7/63 69/6/62 66/8/64
f 71/9/65 74/10/370 84/11/66
f 84/11/66 74/10/370 73/12/67
f 83/13/68 73/12/67 72/14/69
f 82/15/70 72/14/69 70/16/71
f 81/4/63 84/11/66 77/17/72
f 84/11/66 83/13/68 78/19/73
f 83/13/68 82/15/70 79/20/74
f 82/15/70 80/2/59 76/21/75
f 68/3/60 80/2/59 70/16/71
f 86/1/77 97/21/94 101/2/78
f 102/4/80 96/18/91 88/5/81
f 102/7/80 90/6/82 87/8/83
f 92/9/84 95/10/371 105/11/85
f 105/11/85 95/10/371 94/12/86
f 104/13/87 94/12/86 93/14/88
f 93/14/88 91/16/95 101/2/78
f 102/4/80 105/11/85 98/17/90
f 105/11/85 104/13/87 99/19/92
f 104/13/87 103/15/89 100/20/93
f 103/15/89 101/2/78 97/21/94
f 89/3/79 101/2/78 91/16/95
f 110/3/97 107/1/372 118/21/98
f 117/18/100 109/5/373 111/6/101
f 123/7/102 111/6/101 108/8/103
f 113/9/104 116/10/374 126/11/105
f 126/11/105 116/10/374 115/12/106
f 125/13/107 115/12/106 114/14/108
f 124/15/109 114/14/108 112/16/110
f 123/4/102 126/11/105 119/17/111
f 126/11/105 125/13/107 120/19/112
f 120/19/112 125/13/107 124/15/109
f 124/15/109 122/2/99 118/21/98
f 110/3/97 122/2/99 112/16/110
f 131/3/115 128/1/375 139/21/116
f 138/18/118 130/5/376 132/6/119
f 144/7/120 132/6/119 129/8/121
f 134/9/122 137/10/377 147/11/123
f 147/11/123 137/10/377 136/12/124
f 146/13/125 136/12/124 135/14/126
f 145/15/127 135/14/126 133/16/128
f 144/4/120 147/11/123 140/17/129
f 147/11/123 146/13/125 141/19/130
f 141/19/130 146/13/125 145/15/127
f 145/15/127 143/2/117 139/21/116
f 131/3/115 143/2/117 133/16/128
f 152/3/133 149/1/378 160/21/134
f 159/18/136 151/5/379 153/6/137
f 165/7/138 153/6/137 150/8/139
f 155/9/140 158/10/380 168/11/141
f 168/11/141 158/10/380 157/12/142
f 167/13/143 157/12/142 156/14/144
f 166/15/145 156/14/144 154/16/146
f 165/4/138 168/11/141 161/17/147
f 168/11/141 167/13/143 162/19/148
f 162/19/148 167/13/143 166/15/145
f 166/15/145 164/2/135 160/21/134
f 152/3/133 164/2/135 154/16/146
f 170/1/151 181/21/169 185/2/152
f 186/4/154 180/18/166 172/5/155
f 186/7/154 174/24/156 171/8/157
f 176/9/158 179/10/381 189/11/159
f 189/11/159 179/10/381 178/12/160
f 188/13/161 178/12/160 177/14/162
f 187/15/163 177/14/162 175/16/164
f 186/4/154 189/11/159 182/17/165
f 189/11/159 188/13/161 183/19/167
f 188/13/161 187/15/163 184/20/168
f 187/15/163 185/2/152 181/21/169
f 173/3/153 185/2/152 175/16/164
f 191/1/171 202/21/188 206/2/172
f 207/4/174 201/18/185 193/5/175
f 207/7/174 195/24/176 192/8/177
f 197/9/178 200/10/382 210/11/179
f 210/11/179 200/10/382 199/12/180
f 209/13/181 199/12/180 198/14/182
f 198/14/182 196/16/189 206/2/172
f 207/4/174 210/11/179 203/17/184
f 210/11/179 209/13/181 204/19/186
f 204/19/186 209/13/181 208/15/183
f 208/15/183 206/2/172 202/21/188
f 194/3/173 206/2/172 196/16/189
f 212/1/191 223/21/208 227/2/192
f 228/4/194 222/18/205 214/5/195
f 228/7/194 216/24/196 213/8/197
f 218/9/198 221/10/383 231/11/199
f 231/11/199 221/10/383 220/12/200
f 230/13/201 220/12/200 219/14/202
f 219/14/202 217/16/209 227/2/192
f 228/4/194 231/11/199 224/17/204
f 231/11/199 230/13/201 225/19/206
f 225/19/206 230/13/201 229/15/203
f 229/15/203 227/2/192 223/21/208
f 215/3/193 227/2/192 217/16/209
f 233/1/211 244/21/228 248/2/212
f 249/4/214 243/18/225 235/5/215
f 249/7/214 237/24/216 234/8/217
f 239/9/218 242/10/384 252/11/219
f 252/11/219 242/10/384 241/12/220
f 251/13/221 241/12/220 240/14/222
f 240/14/222 238/16/229 248/2/212
f 249/4/214 252/11/219 245/17/224
f 252/11/219 251/13/221 246/19/226
f 246/19/226 251/13/221 250/15/223
f 250/15/223 248/2/212 244/21/228
f 236/3/213 248/2/212 238/16/229
f 254/1/231 265/21/248 269/2/232
f 264/18/234 256/5/385 258/6/235
f 270/7/236 258/6/235 255/8/237
f 260/9/238 263/10/240 273/11/239
f 263/10/240 262/12/386 272/13/241
f 272/13/241 262/12/386 261/14/242
f 271/15/243 261/14/242 259/16/244
f 270/4/236 273/11/239 266/17/245
f 273/11/239 272/13/241 267/19/246
f 267/19/246 272/13/241 271/15/243
f 271/15/243 269/2/232 265/21/248
f 257/3/233 269/2/232 259/16/244
f 275/1/250 286/21/267 290/2/251
f 285/18/253 277/5/387 279/6/254
f 291/7/255 279/6/254 276/8/256
f 281/9/257 284/10/259 294/11/258
f 284/10/259 283/12/388 293/13/260
f 293/13/260 283/12/388 282/14/261
f 292/15/262 282/14/261 280/16/263
f 291/4/255 294/11/258 287/17/264
f 294/11/258 293/13/260 288/19/265
f 288/19/265 293/13/260 292/15/262
f 292/15/262 290/2/251 286/21/267
f 278/3/252 290/2/251 280/16/263
f 299/3/269 296/1/389 307/21/270
f 306/18/272 298/5/390 300/6/273
f 312/7/274 300/6/273 297/8/275
f 302/9/276 305/10/391 315/11/277
f 315/11/277 305/10/391 304/12/278
f 314/13/279 304/12/278 303/14/280
f 313/15/281 303/14/280 301/16/282
f 312/4/274 315/11/277 308/17/283
f 315/11/277 314/13/279 309/19/284
f 309/19/284 314/13/279 313/15/281
f 313/15/281 311/2/271 307/21/270
f 299/3/269 311/2/271 301/16/282
f 317/1/287 328/21/305 332/2/288
f 333/4/290 327/18/301 319/5/291
f 333/7/290 321/6/292 318/8/293
f 323/9/294 326/10/296 336/11/295
f 326/10/296 325/12/392 335/13/297
f 335/13/297 325/12/392 324/14/298
f 334/15/299 324/14/298 322/16/300
f 327/18/301 333/4/290 336/11/295
f 336/11/295 335/13/297 330/19/303
f 335/13/297 334/15/299 331/20/304
f 334/15/299 332/2/288 328/21/305
f 320/3/289 332/2/288 322/16/300
f 338/1/307 349/21/324 353/2/308
f 354/4/310 348/18/320 340/5/311
f 354/7/310 342/6/312 339/8/313
f 344/9/314 347/10/316 357/11/315
f 347/10/316 346/12/393 356/13/317
f 356/13/317 346/12/393 345/14/318
f 345/14/318 343/16/326 353/2/308
f 348/18/320 354/4/310 357/11/315
f 357/11/315 356/13/317 351/19/322
f 356/13/317 355/15/319 352/20/323
f 355/15/319 353/2/308 349/21/324
f 337/22/325 341/3/309 353/2/308
f 359/1/327 370/21/344 374/2/328
f 375/4/330 369/18/341 361/5/331
f 375/7/330 363/6/332 360/8/333
f 365/9/334 368/10/336 378/11/335
f 368/10/336 367/12/394 377/13/337
f 377/13/337 367/12/394 366/14/338
f 366/14/338 364/16/345 374/2/328
f 375/4/330 378/11/335 371/17/340
f 378/11/335 377/13/337 372/19/342
f 377/13/337 376/15/339 373/20/343
f 376/15/339 374/2/328 370/21/344
f 362/3/329 374/2/328 364/16/345
f 380/1/347 391/21/365 395/2/348
f 396/4/350 390/18/362 382/5/351
f 396/7/350 384/23/352 381/8/353
f 386/9/354 389/10/395 399/11/355
f 399/11/355 389/10/395 388/12/356
f 398/13/357 388/12/356 387/14/358
f 397/15/359 387/14/358 385/16/360
f 396/4/350 399/11/355 392/17/361
f 399/11/355 398/13/357 393/19/363
f 393/19/363 398/13/357 397/15/359
f 397/15/359 395/2/348 391/21/365
f 383/3/349 395/2/348 385/16/360
