# Blender 4.3.2
# www.blender.org
o PalmTreeC
v -0.149675 -0.000000 -0.544827
v 0.342869 0.000000 0.351183
v 0.951468 3.766992 -1.589447
v 1.524380 3.807099 -1.052945
v 0.096581 -0.000000 -0.096821
v 1.269135 3.594949 -1.355990
v -0.184272 0.619980 -0.565210
v 0.358858 3.908994 -1.231448
v -0.234072 1.828598 -0.606330
v -0.155729 2.700586 -0.752148
v 0.058430 3.416017 -0.968975
v 1.072521 4.039093 -0.512580
v 0.309950 0.728915 0.329416
v 0.653570 3.552946 -0.108478
v 0.379141 2.732067 0.145512
v 0.273920 1.939205 0.288508
v 0.060509 0.674036 -0.118349
v 0.798930 3.704702 -0.944840
v 0.230555 1.732940 -0.253906
v 0.343512 2.575695 -0.461476
v 0.563658 3.254495 -0.660825
v -0.274390 -0.000000 -0.324414
v 0.435395 0.000000 0.173243
v 0.498694 1.695416 -1.602932
v 0.983111 1.792243 -1.366971
v 0.015272 0.000000 -0.101469
v 0.722473 1.602450 -1.515041
v -0.349243 0.295170 -0.351837
v 0.093946 1.611738 -1.197465
v -0.332872 0.857651 -0.384184
v -0.322846 1.264501 -0.603601
v -0.093484 1.529685 -0.956194
v 0.909326 1.866535 -0.857662
v 0.453573 0.336610 0.146404
v 0.812404 1.605761 -0.313913
v 0.699724 1.269078 -0.066416
v 0.550034 0.895665 0.118363
v 0.034797 0.314714 -0.106669
v 0.572496 1.595688 -1.113499
v 0.131381 0.809137 -0.200579
v 0.213661 1.150092 -0.443617
v 0.394607 1.413651 -0.632018
v 0.242903 0.000000 -0.025581
v 0.065094 -0.000000 0.108412
v 1.608432 1.482517 1.076956
v 1.208952 1.575239 1.510141
v 0.149339 0.000000 0.039570
v 1.436678 1.401224 1.288995
v 0.312062 0.268141 -0.074374
v 1.350876 1.481042 0.593232
v 0.513824 0.765802 -0.156684
v 0.741210 1.101090 -0.078925
v 1.057423 1.328014 0.260887
v 0.680359 1.629715 1.238027
v -0.012356 0.282565 0.203546
v 0.323640 1.474249 1.002011
v -0.025173 1.125742 0.700386
v -0.170911 0.801748 0.458410
v 0.213998 0.275195 0.187579
v 1.053555 1.227338 0.989171
v 0.282532 0.539557 0.324256
v 0.517331 0.837697 0.496536
v 0.709645 1.021371 0.643145
v 0.127762 0.000000 0.193995
v -0.041741 -0.000000 0.148711
v 0.106615 1.168258 1.576867
v -0.356218 1.241325 1.539299
v 0.041894 -0.000000 0.167564
v -0.108385 1.104198 1.573240
v 0.191628 0.211301 0.213222
v 0.208202 1.170025 1.177009
v 0.340688 0.603470 0.298469
v 0.322987 0.876823 0.475752
v 0.271959 1.049435 0.833498
v -0.375882 1.271559 1.099864
v -0.138393 0.222668 0.146841
v -0.402630 1.149048 0.763867
v -0.379853 0.887682 0.389258
v -0.373562 0.631796 0.172202
v -0.018565 0.216860 0.279567
v -0.108355 0.967171 1.189870
v -0.070109 0.425183 0.388472
v -0.063009 0.660125 0.617852
v -0.060609 0.804864 0.808401
v 0.171927 0.000000 -0.098423
v 0.082872 0.000000 0.126706
v 2.064055 2.089798 0.150715
v 1.938878 2.301465 0.779136
v 0.122029 0.000000 0.015070
v 2.024856 1.728551 0.444837
v 0.208448 0.435305 -0.182902
v 1.550864 2.307375 -0.152188
v 0.349026 1.243217 -0.373647
v 0.604113 1.787529 -0.430374
v 1.090165 2.150357 -0.294267
v 1.294111 2.583619 0.826232
v 0.064922 0.458721 0.258889
v 0.829304 2.391512 0.809406
v 0.334645 1.827549 0.727214
v 0.062246 1.301573 0.585271
v 0.265925 0.446756 0.115770
v 1.499378 1.818883 0.383764
v 0.406995 0.875926 0.203759
v 0.722536 1.359932 0.230544
v 0.984102 1.651230 0.257590
v -0.374869 -0.000000 -0.176692
v 0.117864 0.000000 -0.145665
v -0.191372 0.786026 -1.116036
v 0.202099 0.723195 -1.106974
v -0.152746 0.000000 -0.169924
v -0.032692 0.717774 -1.150790
v -0.370431 0.196852 -0.237214
v -0.276438 0.863294 -0.875331
v -0.371407 0.431710 -0.281482
v -0.340285 0.632109 -0.433462
v -0.319648 0.757545 -0.619219
v 0.234577 0.766850 -0.828210
v 0.136876 0.192433 -0.205929
v 0.221133 0.688727 -0.590597
v 0.193676 0.551763 -0.425441
v 0.162875 0.392270 -0.268704
v -0.136442 0.185086 -0.229299
v -0.038106 0.714279 -0.859307
v -0.103464 0.372158 -0.341667
v -0.083738 0.516120 -0.489901
v -0.062402 0.616483 -0.650810
v 0.406444 -0.000000 0.554453
v -0.335757 0.000000 -0.393585
v -1.046083 3.131031 2.053625
v -1.870209 3.151736 1.536080
v 0.035344 -0.000000 0.080434
v -1.712874 2.901025 2.002959
v 0.408539 0.470760 0.587100
v -0.558456 3.251547 1.703951
v 0.338639 1.462995 0.667687
v 0.144687 2.175052 0.970801
v -0.136496 2.970497 1.395288
v -1.743027 3.342653 1.106745
v -0.332655 0.620324 -0.359667
v -1.177726 3.216442 0.449538
v -0.638200 2.258722 0.019692
v -0.403562 1.613013 -0.280352
v 0.038445 0.545316 0.114353
v -1.222557 2.762271 1.420723
v -0.204591 1.413851 0.310136
v -0.441309 2.101540 0.613779
v -0.873574 2.494040 1.032498
v -0.039377 -0.000000 0.574817
v -0.143070 0.000000 -0.518858
v -1.762484 2.129557 0.842495
v -2.162955 2.143640 0.048954
v -0.089051 0.000000 0.023538
v -2.260120 1.973120 0.488342
v -0.043269 0.320185 0.583313
v -1.215213 2.144469 0.751104
v -0.111658 0.995050 0.569461
v -0.421964 1.479352 0.661359
v -0.776523 2.062985 0.690391
v -1.767927 2.273492 -0.280218
v -0.147090 0.421911 -0.514860
v -1.134781 2.187649 -0.421263
v -0.531312 1.536260 -0.450820
v -0.222097 1.097084 -0.530429
v -0.091831 0.370894 0.028746
v -1.601975 1.878748 0.264223
v -0.351794 0.961625 0.016428
v -0.658170 1.429354 0.092878
v -0.972503 1.613837 0.121756
v 0.531928 -0.000000 0.190494
v -0.484426 0.000000 0.078882
v 0.754341 3.766993 1.691920
v -0.013927 3.807099 1.852627
v 0.023759 -0.000000 0.134674
v 0.380755 3.594948 1.817809
v 0.568488 0.619980 0.173887
v 0.801775 3.908995 1.001195
v 0.630754 1.828598 0.156749
v 0.705099 2.700587 0.304645
v 0.759537 3.416017 0.604502
v -0.196622 4.039093 1.172338
v -0.447698 0.728915 0.064442
v -0.286692 3.552947 0.597267
v -0.336923 2.732066 0.226729
v -0.393515 1.939205 0.058453
v 0.062104 0.674036 0.117517
v 0.314362 3.704702 1.196738
v 0.075365 1.732940 0.334578
v 0.180368 2.575695 0.546283
v 0.217060 3.254495 0.840999
v -0.658770 -0.000000 0.196573
v 0.483499 0.000000 -0.184035
v -1.582894 2.956966 -1.675150
v -0.818584 2.976521 -2.277533
v -0.087635 0.000000 0.006269
v -1.311184 2.739747 -2.286175
v -0.690223 0.444589 0.187580
v -1.417342 3.070782 -1.098396
v -0.742646 1.381662 0.094671
v -0.962995 2.054133 -0.189833
v -1.268361 2.805357 -0.597269
v -0.456920 3.156823 -2.013519
v 0.450509 0.585838 -0.192507
v -0.027798 3.037629 -1.260299
v 0.195833 2.133151 -0.607731
v 0.399622 1.523340 -0.285937
v -0.120625 0.515000 -0.002203
v -0.927488 2.608707 -1.628765
v -0.223391 1.335251 -0.296885
v -0.429872 1.984708 -0.621846
v -0.679053 2.355388 -1.169649
v 0.305660 0.000000 -0.615785
v -0.195268 -0.000000 0.479071
v 2.304659 3.296135 -0.014657
v 2.223724 3.317933 0.955129
v 0.055196 0.000000 -0.068357
v 2.566082 3.054001 0.600839
v 0.333692 0.495584 -0.632648
v 1.770007 3.423007 -0.287054
v 0.437388 1.540142 -0.607600
v 0.795730 2.289747 -0.574636
v 1.301957 3.127137 -0.519975
v 1.783962 3.518917 1.039471
v -0.166569 0.653035 0.460729
v 0.940479 3.386051 0.839415
v 0.310773 2.377828 0.557767
v -0.063540 1.698070 0.487257
v 0.083895 0.574071 -0.086699
v 1.823643 2.907931 0.432927
v 0.369468 1.488407 0.039183
v 0.747933 2.212358 0.109886
v 1.318466 2.625556 0.301384
v -0.572995 -0.000000 -0.060373
v 0.523740 0.000000 -0.124000
v -0.777480 2.535243 -1.792116
v 0.030176 2.552008 -2.163299
v -0.020269 0.000000 -0.089854
v -0.405364 2.349004 -2.276468
v -0.581343 0.381181 -0.064572
v -0.706164 2.552995 -1.241869
v -0.564999 1.184610 -0.132410
v -0.645487 1.761173 -0.445869
v -0.661534 2.455989 -0.801252
v 0.344682 2.706597 -1.756497
v 0.519892 0.502286 -0.128163
v 0.462478 2.604402 -1.118617
v 0.469946 1.828921 -0.514471
v 0.538194 1.306081 -0.202551
v -0.025371 0.441550 -0.092822
v -0.205464 2.236654 -1.610567
v -0.003555 1.144817 -0.352160
v -0.068749 1.701649 -0.661127
v -0.086112 1.921278 -0.976306
v 0.574156 -0.000000 0.048069
v -0.520963 0.000000 0.135199
v 0.815728 2.673202 1.775028
v 0.016218 2.690878 2.163445
v 0.022189 0.000000 0.089395
v 0.454085 2.476828 2.267249
v 0.582592 0.401924 0.052088
v 0.732630 2.691919 1.226437
v 0.567707 1.249072 0.120261
v 0.654898 1.857009 0.431921
v 0.678562 2.589634 0.786879
v -0.306939 2.853880 1.763481
v -0.517026 0.529618 0.139279
v -0.438387 2.746124 1.128273
v -0.458808 1.928444 0.524427
v -0.533728 1.377153 0.214042
v 0.027354 0.465578 0.092253
v 0.239951 2.358363 1.605787
v 0.011104 1.207113 0.352000
v 0.082909 1.794247 0.659497
v 0.107026 2.025826 0.974232
v -0.142558 -0.000000 -0.249908
v 0.268439 0.000000 0.169175
v 0.530217 1.148020 -1.005477
v 0.823537 1.213584 -0.788485
v 0.022714 0.000000 -0.065664
v 0.668329 1.085070 -0.919292
v -0.189000 0.199869 -0.277421
v 0.210619 1.091359 -0.785589
v -0.174101 0.580743 -0.296931
v -0.140294 0.856234 -0.441767
v 0.056004 1.035798 -0.648141
v 0.711434 1.263890 -0.458539
v 0.283859 0.227929 0.153555
v 0.579671 1.087312 -0.108526
v 0.474050 0.859333 0.042310
v 0.351545 0.606483 0.146815
v 0.036356 0.213103 -0.066712
v 0.518829 1.080491 -0.670513
v 0.112269 0.547892 -0.117289
v 0.197100 0.778764 -0.268915
v 0.340861 0.957228 -0.371967
v 0.046299 -0.000000 -0.303313
v 0.268237 0.000000 0.137700
v 0.949811 0.753624 -0.619072
v 1.140605 0.693383 -0.274834
v 0.152579 -0.000000 -0.108149
v 1.059911 0.688185 -0.499634
v 0.100784 0.188738 -0.330032
v 0.699084 0.827706 -0.571001
v 0.138505 0.413914 -0.353221
v 0.285412 0.606052 -0.403071
v 0.456184 0.726317 -0.479022
v 0.916357 0.735239 -0.106083
v 0.329856 0.184500 0.123692
v 0.704451 0.660336 0.002254
v 0.548021 0.529018 0.061918
v 0.397169 0.376100 0.114448
v 0.212065 0.177456 -0.124047
v 0.805556 0.684835 -0.357174
v 0.325713 0.356817 -0.152299
v 0.463633 0.494844 -0.210097
v 0.613307 0.591070 -0.272901
v -0.005961 -0.000000 0.326913
v -0.302811 0.000000 -0.107466
v -0.915552 0.912500 0.788338
v -1.165807 0.839560 0.451764
v -0.145846 -0.000000 0.135827
v -1.048750 0.833266 0.677776
v -0.059726 0.228527 0.362848
v -0.657538 1.002200 0.702068
v -0.096284 0.501174 0.392681
v -0.244390 0.733818 0.466132
v -0.414007 0.879436 0.570529
v -0.952846 0.890239 0.241779
v -0.365911 0.223396 -0.083947
v -0.744368 0.799546 0.097352
v -0.587592 0.640544 0.012186
v -0.435699 0.455388 -0.064653
v -0.206424 0.214867 0.161040
v -0.800268 0.829209 0.491296
v -0.322460 0.432039 0.206971
v -0.459950 0.599165 0.287543
v -0.609144 0.715677 0.375069
v 0.137182 -0.000000 0.295363
v -0.267923 0.000000 0.179430
v -0.187497 0.730814 1.044924
v -0.513865 0.672396 0.965446
v -0.046758 -0.000000 0.249118
v -0.326136 0.667356 1.044892
v 0.122419 0.183025 0.345007
v -0.072582 0.802654 0.859804
v 0.115142 0.401386 0.382090
v 0.061416 0.587709 0.503102
v 0.010256 0.704333 0.654190
v -0.489986 0.712985 0.727113
v -0.294789 0.178916 0.226194
v -0.435345 0.640350 0.531479
v -0.382265 0.513006 0.398813
v -0.327937 0.364716 0.273775
v -0.071203 0.172085 0.295637
v -0.268342 0.664107 0.802881
v -0.119236 0.346017 0.383287
v -0.162777 0.479866 0.503260
v -0.209977 0.573180 0.633504
v -0.208589 0.000000 0.096971
v -0.091104 0.000000 -0.076705
v -1.761845 1.396208 -0.468219
v -1.538252 1.483532 -0.976143
v -0.145131 0.000000 0.010354
v -1.673590 1.319648 -0.709577
v -0.255299 0.252530 0.161562
v -1.384658 1.394819 -0.115936
v -0.409908 0.721219 0.296511
v -0.636232 1.036987 0.296683
v -1.021724 1.250700 0.090523
v -0.984229 1.534836 -0.895157
v -0.051159 0.266115 -0.185113
v -0.594352 1.388422 -0.793839
v -0.191480 1.060204 -0.631655
v 0.012258 0.755072 -0.460592
v -0.247939 0.259173 -0.101757
v -1.240702 1.155885 -0.559477
v -0.350737 0.508145 -0.202591
v -0.612532 0.788928 -0.284362
v -0.828638 0.961909 -0.356241
vn -0.8743 -0.0287 0.4846
vn -0.8770 0.0845 0.4729
vn -0.8759 -0.0315 0.4815
vn -0.3005 0.9452 0.1275
vn -0.1925 0.8545 -0.4824
vn 0.0781 0.9819 -0.1727
vn 0.3486 0.9215 0.1715
vn -0.0034 0.8118 0.5839
vn -0.3229 0.4918 0.8086
vn -0.7572 0.4952 0.4259
vn -0.4254 0.2912 0.8569
vn -0.8168 0.2951 0.4958
vn -0.5584 0.1371 0.8181
vn -0.8789 0.1218 0.4613
vn -0.8462 0.0510 0.5304
vn -0.8994 0.4359 -0.0324
vn -0.5458 0.7937 -0.2685
vn -0.9746 0.2238 0.0019
vn -0.9962 0.0700 0.0520
vn -0.9043 0.0586 0.4229
vn -0.8755 -0.0321 0.4822
vn -0.5289 0.0783 0.8450
vn -0.5198 0.1172 0.8462
vn -0.5791 0.0494 0.8137
vn -0.2967 0.9507 0.0903
vn -0.5157 0.8361 -0.1870
vn -0.0775 0.9969 -0.0122
vn 0.1758 0.9695 0.1710
vn -0.0070 0.9564 0.2919
vn -0.4241 0.7911 0.4408
vn -0.0519 0.8731 0.4847
vn -0.3664 0.6535 0.6623
vn -0.3086 0.3708 0.8759
vn -0.4536 0.4061 0.7933
vn -0.5854 0.8104 0.0231
vn -0.6142 0.6840 0.3936
vn -0.6031 0.5858 0.5414
vn -0.6149 0.3825 0.6896
vn -0.5451 0.1521 0.8245
vn -0.5646 -0.0163 0.8252
vn -0.5383 0.0070 0.8427
vn -0.3946 0.4448 -0.8040
vn -0.5365 0.4328 -0.7244
vn -0.5212 0.4960 -0.6945
vn -0.1437 0.9370 -0.3184
vn 0.2349 0.7745 -0.5873
vn -0.1919 0.9353 -0.2972
vn -0.4304 0.8946 0.1203
vn -0.5065 0.8468 0.1623
vn -0.5956 0.7986 0.0862
vn -0.3290 0.8624 -0.3847
vn -0.7371 0.6758 0.0020
vn -0.4398 0.7442 -0.5028
vn -0.8459 0.5165 -0.1326
vn -0.4649 0.5691 -0.6782
vn -0.9060 0.2737 -0.3228
vn 0.1373 0.6640 -0.7350
vn 0.2782 0.6785 -0.6799
vn 0.0216 0.6126 -0.7901
vn 0.0083 0.5233 -0.8521
vn -0.0397 0.3937 -0.9184
vn -0.7204 0.3758 -0.5829
vn 0.3901 0.4448 -0.8062
vn 0.2399 0.4328 -0.8690
vn 0.2257 0.4960 -0.8385
vn 0.1560 0.9435 -0.2923
vn 0.6337 0.7596 -0.1464
vn 0.1158 0.9353 -0.3343
vn -0.3977 0.8858 -0.2394
vn -0.5282 0.8076 -0.2622
vn -0.5172 0.7555 -0.4022
vn 0.0884 0.8661 -0.4919
vn -0.5336 0.5904 -0.6055
vn 0.1294 0.7200 -0.6818
vn -0.4373 0.4586 -0.7736
vn 0.2476 0.5691 -0.7841
vn -0.3040 0.2737 -0.9125
vn 0.7142 0.6305 -0.3039
vn 0.7641 0.6278 -0.1482
vn 0.7035 0.5347 -0.4681
vn 0.7061 0.4621 -0.5365
vn 0.6988 0.3937 -0.5972
vn 0.0151 0.3758 -0.9266
vn -0.8263 0.3274 -0.4583
vn -0.8810 0.3249 -0.3440
vn -0.9410 0.2223 -0.2550
vn -0.1051 0.9777 -0.1819
vn 0.1757 0.5232 -0.8339
vn 0.1699 0.9854 -0.0046
vn -0.0371 0.6950 0.7180
vn -0.2855 0.7218 0.6305
vn -0.4923 0.6834 0.5391
vn -0.5603 0.8098 -0.1740
vn -0.7062 0.5440 0.4531
vn -0.7700 0.5957 -0.2285
vn -0.8468 0.3892 0.3626
vn -0.8400 0.4088 -0.3567
vn -0.9600 0.2382 0.1476
vn -0.2238 0.5069 -0.8325
vn -0.0284 0.4949 -0.8685
vn -0.4372 0.4642 -0.7703
vn -0.4719 0.3834 -0.7939
vn -0.5383 0.2759 -0.7963
vn -0.9154 -0.0013 -0.4025
vn -0.0875 0.3078 0.9474
vn -0.0478 0.4152 0.9085
vn -0.0524 0.3061 0.9506
vn 0.1573 0.9704 0.1835
vn -0.0964 0.9937 -0.0577
vn 0.1876 0.9821 0.0153
vn 0.4621 0.8864 -0.0282
vn 0.5112 0.8381 0.1905
vn 0.4644 0.7497 0.4714
vn 0.0983 0.8599 0.5009
vn 0.4066 0.6577 0.6342
vn 0.1130 0.7740 0.6230
vn 0.0256 0.5538 0.8323
vn 0.0655 0.3167 0.9462
vn -0.2865 0.8430 0.4553
vn -0.1995 0.9746 0.1014
vn -0.2650 0.7492 0.6070
vn -0.2634 0.5348 0.8029
vn -0.1467 0.3631 0.9201
vn -0.0291 0.2943 0.9553
vn 0.7882 0.0316 -0.6146
vn 0.7671 0.1462 -0.6246
vn 0.7876 0.0349 -0.6151
vn 0.2282 0.9661 -0.1212
vn 0.5260 0.7640 0.3736
vn 0.1819 0.9800 -0.0803
vn -0.3714 0.8436 -0.3879
vn -0.2598 0.7599 -0.5958
vn 0.5152 0.7842 -0.3458
vn 0.2878 0.5637 -0.7742
vn 0.6040 0.6811 -0.4139
vn 0.5307 0.3663 -0.7643
vn 0.7444 0.3645 -0.5594
vn 0.7701 0.5886 0.2461
vn 0.5549 0.7216 0.4140
vn 0.8616 0.5027 -0.0699
vn 0.9372 0.2653 -0.2263
vn 0.8311 0.1475 -0.5363
vn 0.7899 0.0688 -0.6093
vn 0.7868 0.0392 -0.6160
vn 0.9950 0.0098 -0.0998
vn 0.9794 0.1599 -0.1231
vn 0.9956 0.0097 -0.0934
vn 0.2068 0.9774 0.0434
vn 0.2231 0.8542 0.4697
vn 0.1493 0.9885 0.0221
vn -0.0499 0.9112 -0.4090
vn 0.0454 0.8347 -0.5488
vn 0.5536 0.8326 -0.0203
vn 0.6989 0.5698 -0.4323
vn 0.6726 0.7397 -0.0214
vn 0.8961 0.4378 -0.0728
vn 0.8593 0.4054 -0.3118
vn 0.4505 0.7186 0.5298
vn 0.2074 0.8209 0.5320
vn 0.7284 0.5915 0.3458
vn 0.8976 0.3284 0.2942
vn 0.9880 0.1545 0.0009
vn 0.9951 0.0531 -0.0836
vn 0.9959 0.0145 -0.0897
vn 0.1057 -0.0287 -0.9940
vn 0.1168 0.0845 -0.9896
vn 0.1091 -0.0315 -0.9935
vn 0.0683 0.9452 -0.3192
vn 0.5055 0.8545 0.1196
vn 0.0965 0.9819 0.1632
vn -0.3407 0.9215 0.1868
vn -0.4760 0.8118 -0.3383
vn -0.4763 0.4918 -0.7289
vn 0.0864 0.4952 -0.8645
vn -0.4570 0.2912 -0.8405
vn 0.0634 0.2951 -0.9534
vn -0.3488 0.1371 -0.9271
vn 0.1273 0.1218 -0.9844
vn 0.0521 0.0510 -0.9973
vn 0.5433 0.4359 -0.7175
vn 0.5334 0.7937 -0.2925
vn 0.5584 0.2238 -0.7988
vn 0.5298 0.0700 -0.8453
vn 0.1733 0.0586 -0.9831
vn 0.1083 -0.0321 -0.9936
vn 0.3140 0.0334 0.9488
vn 0.3315 0.1556 0.9305
vn 0.3148 0.0369 0.9485
vn 0.0322 0.9698 0.2419
vn -0.5096 0.7824 0.3580
vn 0.0129 0.9820 0.1882
vn 0.4703 0.8572 -0.2098
vn 0.6284 0.7769 -0.0402
vn 0.1431 0.8022 0.5797
vn 0.6224 0.5826 0.5226
vn 0.1817 0.7013 0.6893
vn 0.5354 0.3820 0.7533
vn 0.2741 0.3845 0.8815
vn -0.4784 0.6065 0.6351
vn -0.5592 0.7410 0.3718
vn -0.2193 0.5209 0.8250
vn -0.1002 0.2761 0.9559
vn 0.2234 0.1527 0.9627
vn 0.3085 0.0731 0.9484
vn 0.3158 0.0415 0.9479
vn -0.9081 0.0301 -0.4176
vn -0.9078 0.1383 -0.3959
vn -0.9084 0.0332 -0.4169
vn -0.2255 0.9623 -0.1520
vn 0.0940 0.7468 -0.6584
vn -0.1630 0.9780 -0.1299
vn -0.1797 0.8305 0.5272
vn -0.4188 0.7442 0.5204
vn -0.5641 0.7671 -0.3056
vn -0.8311 0.5469 0.1015
vn -0.6603 0.6625 -0.3538
vn -0.9283 0.3525 -0.1181
vn -0.8451 0.3472 -0.4066
vn -0.1324 0.5725 -0.8091
vn 0.1153 0.7036 -0.7012
vn -0.4617 0.4867 -0.7416
vn -0.6326 0.2557 -0.7310
vn -0.8598 0.1429 -0.4902
vn -0.9044 0.0652 -0.4217
vn -0.9087 0.0373 -0.4158
vn 0.0632 0.0082 0.9980
vn 0.0829 0.1324 0.9877
vn 0.0570 0.0083 0.9983
vn -0.0516 0.9683 0.2445
vn -0.5412 0.8087 0.2307
vn -0.0306 0.9841 0.1752
vn 0.4725 0.8804 -0.0409
vn 0.6106 0.7890 0.0683
vn 0.0054 0.7793 0.6266
vn 0.4257 0.5098 0.7476
vn -0.0037 0.6798 0.7334
vn 0.2977 0.3593 0.8845
vn 0.0410 0.3742 0.9264
vn -0.5963 0.6639 0.4512
vn -0.6023 0.7702 0.2099
vn -0.3939 0.5321 0.7495
vn -0.3342 0.2910 0.8964
vn -0.0290 0.1395 0.9898
vn 0.0471 0.0441 0.9979
vn 0.0533 0.0122 0.9985
vn -0.0846 0.0077 -0.9964
vn -0.1027 0.1249 -0.9868
vn -0.0784 0.0079 -0.9969
vn 0.0457 0.9648 -0.2589
vn 0.5554 0.7931 -0.2500
vn 0.0275 0.9824 -0.1848
vn -0.4911 0.8694 0.0534
vn -0.6311 0.7737 -0.0553
vn -0.0210 0.7611 -0.6483
vn -0.4468 0.4922 -0.7471
vn -0.0088 0.6630 -0.7485
vn -0.3215 0.3457 -0.8815
vn -0.0588 0.3525 -0.9339
vn 0.6012 0.6469 -0.4691
vn 0.6163 0.7533 -0.2298
vn 0.3777 0.5220 -0.7648
vn 0.3085 0.2753 -0.9105
vn 0.0053 0.1352 -0.9908
vn -0.0685 0.0417 -0.9968
vn -0.0747 0.0115 -0.9971
vn -0.6744 0.0783 0.7342
vn -0.6656 0.1172 0.7370
vn -0.7180 0.0494 0.6943
vn -0.3083 0.9507 0.0346
vn -0.4729 0.8361 -0.2781
vn -0.0740 0.9969 -0.0261
vn 0.1416 0.9695 0.2003
vn -0.0602 0.9564 0.2857
vn -0.4975 0.7911 0.3560
vn -0.1396 0.8731 0.4671
vn -0.4812 0.6535 0.5843
vn -0.4634 0.3708 0.8048
vn -0.5908 0.4061 0.6972
vn -0.5798 0.8104 -0.0842
vn -0.6757 0.6840 0.2748
vn -0.6918 0.5858 0.4221
vn -0.7305 0.3825 0.5657
vn -0.6865 0.1521 0.7111
vn -0.7058 -0.0163 0.7082
vn -0.6832 0.0070 0.7302
vn -0.8585 0.3197 0.4010
vn -0.8024 0.4295 0.4143
vn -0.8435 0.3180 0.4329
vn -0.0755 0.9725 0.2204
vn 0.0011 0.9942 -0.1078
vn 0.0785 0.9834 0.1633
vn 0.2488 0.8943 0.3719
vn 0.0900 0.8482 0.5219
vn -0.1692 0.7629 0.6240
vn -0.3700 0.8692 0.3280
vn -0.3385 0.6718 0.6588
vn -0.4678 0.7870 0.4022
vn -0.6950 0.5712 0.4367
vn -0.7802 0.3266 0.5334
vn -0.5229 0.8522 -0.0166
vn -0.1813 0.9766 -0.1160
vn -0.6426 0.7624 0.0760
vn -0.8171 0.5488 0.1762
vn -0.8643 0.3751 0.3351
vn -0.8361 0.3058 0.4553
vn 0.8069 0.2848 -0.5176
vn 0.7560 0.3868 -0.5281
vn 0.7878 0.2829 -0.5472
vn 0.0534 0.9656 -0.2544
vn 0.0150 0.9925 0.1212
vn -0.1114 0.9792 -0.1697
vn -0.3281 0.8688 -0.3709
vn -0.1759 0.8160 -0.5506
vn 0.0886 0.7219 -0.6863
vn 0.3584 0.8394 -0.4086
vn 0.2490 0.5989 -0.7611
vn 0.4709 0.7359 -0.4866
vn 0.4862 0.3751 -0.7893
vn 0.6610 0.5367 -0.5243
vn 0.7124 0.2975 -0.6355
vn 0.5652 0.8231 -0.0561
vn 0.2186 0.9703 0.1036
vn 0.6710 0.7214 -0.1715
vn 0.8115 0.5064 -0.2915
vn 0.8224 0.3394 -0.4565
vn 0.7765 0.2721 -0.5684
vn 0.2905 0.2848 -0.9135
vn 0.2446 0.3868 -0.8891
vn 0.2569 0.2829 -0.9241
vn -0.1214 0.9656 -0.2299
vn 0.0889 0.9925 0.0837
vn -0.1940 0.9792 -0.0595
vn -0.4894 0.8688 -0.0760
vn -0.4870 0.8160 -0.3114
vn -0.3700 0.7219 -0.5847
vn 0.0150 0.8394 -0.5433
vn -0.2944 0.5989 -0.7447
vn 0.0517 0.7359 -0.6751
vn -0.1298 0.3751 -0.9179
vn 0.1739 0.5367 -0.8256
vn 0.1425 0.2975 -0.9440
vn 0.3991 0.8231 -0.4040
vn 0.2344 0.9703 -0.0598
vn 0.4069 0.7214 -0.5604
vn 0.4384 0.5064 -0.7425
vn 0.3415 0.3394 -0.8765
vn 0.2346 0.2721 -0.9332
vn 0.6340 0.4448 0.6326
vn 0.7425 0.4328 0.5113
vn 0.7183 0.4960 0.4879
vn 0.2391 0.9370 0.2546
vn -0.0317 0.7745 0.6317
vn 0.2779 0.9353 0.2189
vn 0.3681 0.8946 -0.2534
vn 0.4265 0.8468 -0.3177
vn 0.5355 0.7986 -0.2747
vn 0.4360 0.8624 0.2572
vn 0.6966 0.6758 -0.2409
vn 0.5790 0.7442 0.3330
vn 0.8432 0.5165 -0.1489
vn 0.6598 0.5691 0.4908
vn 0.9617 0.2737 0.0116
vn 0.1085 0.6640 0.7398
vn -0.0427 0.6785 0.7333
vn 0.2358 0.6126 0.7544
vn 0.2685 0.5233 0.8087
vn 0.3354 0.3937 0.8559
vn 0.8705 0.3758 0.3178
vn -0.0802 0.6637 0.7437
vn 0.2820 0.3776 0.8820
vn 0.0025 0.6033 -0.7975
vn 0.3467 0.6743 -0.6521
vn 0.7354 0.6226 0.2677
vn -0.7197 0.5860 0.3723
vn 0.6910 0.6244 0.3641
vn -0.7140 0.6089 -0.3457
vn -0.2147 0.6637 0.7165
vn -0.6165 0.3885 0.6848
vt 0.800945 0.000000
vt 0.500001 0.127269
vt 0.500001 0.000000
vt 0.500001 0.872731
vt 0.800945 1.000000
vt 0.436688 1.000000
vt 0.500001 0.872731
vt 0.199056 1.000000
vt 0.199056 0.872731
vt 0.199056 0.686366
vt 0.500001 0.686366
vt 0.199056 0.500000
vt 0.500001 0.500000
vt 0.199056 0.313634
vt 0.500001 0.313634
vt 0.199056 0.127269
vt 0.800945 0.686366
vt 0.800945 0.872731
vt 0.800945 0.500000
vt 0.800945 0.313634
vt 0.800945 0.127269
vt 0.199056 0.000000
vt 0.500001 1.000000
vt 0.557469 0.000000
vt 0.375792 0.127269
vt 0.800945 0.741575
vt 0.615850 0.127269
vt 0.417296 0.000000
vt 0.779851 0.000000
vt 0.500001 0.167460
vt 0.515185 0.000000
vt 0.500001 0.715392
vt 0.800945 0.185706
vt 0.261652 0.000000
vt 0.444709 1.000000
vt 0.500001 0.744386
vt 0.199056 0.651345
s 1
f 2/1/1 17/2/2 5/3/3
f 18/4/4 4/5/5 6/6/6
f 18/7/4 3/8/7 8/9/8
f 18/7/4 11/10/9 21/11/10
f 21/11/10 10/12/11 20/13/12
f 20/13/12 9/14/13 19/15/14
f 19/15/14 7/16/15 17/2/2
f 18/4/4 14/17/16 12/18/17
f 21/11/10 15/19/18 14/17/16
f 20/13/12 16/20/19 15/19/18
f 19/15/14 13/21/20 16/20/19
f 1/22/21 17/2/2 7/16/15
f 23/1/22 38/2/23 26/3/24
f 39/4/25 25/5/26 27/23/27
f 39/7/25 24/8/28 29/9/29
f 29/9/29 42/11/30 39/7/25
f 32/10/31 41/13/32 42/11/30
f 41/13/32 30/14/33 40/15/34
f 30/14/33 38/2/23 40/15/34
f 33/18/35 42/11/30 35/17/36
f 42/11/30 36/19/37 35/17/36
f 41/13/32 37/20/38 36/19/37
f 40/15/34 34/21/39 37/20/38
f 22/22/40 38/2/23 28/16/41
f 44/24/42 59/2/43 47/3/44
f 60/4/45 46/5/46 48/23/47
f 60/7/45 45/8/48 50/9/49
f 60/7/45 53/10/50 63/11/51
f 63/11/51 52/12/52 62/13/53
f 62/13/53 51/14/54 61/15/55
f 61/15/55 49/25/56 59/2/43
f 60/4/45 56/26/57 54/18/58
f 63/11/51 57/19/59 56/26/57
f 62/13/53 58/20/60 57/19/59
f 61/15/55 55/27/61 58/20/60
f 43/28/62 59/2/43 49/25/56
f 65/24/63 80/2/64 68/3/65
f 81/4/66 67/5/67 69/23/68
f 81/7/66 66/8/69 71/9/70
f 81/7/66 74/10/71 84/11/72
f 84/11/72 73/12/73 83/13/74
f 83/13/74 72/14/75 82/15/76
f 82/15/76 70/25/77 80/2/64
f 81/4/66 77/26/78 75/18/79
f 84/11/72 78/19/80 77/26/78
f 83/13/74 79/20/81 78/19/80
f 82/15/76 76/27/82 79/20/81
f 64/28/83 80/2/64 70/25/77
f 86/24/84 101/2/85 89/3/86
f 102/4/87 88/5/88 90/23/89
f 102/7/87 87/8/90 92/9/91
f 102/7/87 95/10/92 105/11/93
f 105/11/93 94/12/94 104/13/95
f 104/13/95 93/14/96 103/15/97
f 103/15/97 91/25/98 101/2/85
f 102/4/87 98/26/99 96/18/100
f 105/11/93 99/19/101 98/26/99
f 104/13/95 100/20/102 99/19/101
f 103/15/97 97/27/103 100/20/102
f 89/3/86 91/25/98 85/28/104
f 107/29/105 122/30/106 110/31/107
f 123/4/108 109/5/109 111/23/110
f 123/7/108 108/8/111 113/9/112
f 123/7/108 116/10/113 126/32/114
f 126/32/114 115/12/115 125/13/116
f 115/12/115 124/15/117 125/13/116
f 124/15/117 112/16/118 122/30/106
f 123/4/108 119/17/119 117/18/120
f 126/32/114 120/19/121 119/17/119
f 125/13/116 121/20/122 120/19/121
f 124/15/117 118/33/123 121/20/122
f 110/31/107 112/16/118 106/34/124
f 128/1/125 143/2/126 131/3/127
f 144/4/128 130/5/129 132/35/130
f 144/7/128 129/8/131 134/9/132
f 134/9/132 147/36/133 144/7/128
f 147/36/133 136/12/134 146/13/135
f 146/13/135 135/14/136 145/15/137
f 135/14/136 143/2/126 145/15/137
f 144/4/128 140/17/138 138/18/139
f 147/36/133 141/19/140 140/17/138
f 141/19/140 145/15/137 142/20/141
f 145/15/137 139/21/142 142/20/141
f 131/3/127 133/16/143 127/22/144
f 149/1/145 164/2/146 152/3/147
f 165/4/148 151/5/149 153/35/150
f 165/7/148 150/8/151 155/9/152
f 155/9/152 168/11/153 165/7/148
f 168/11/153 157/12/154 167/13/155
f 157/12/154 166/15/156 167/13/155
f 156/14/157 164/2/146 166/15/156
f 165/4/148 161/17/158 159/18/159
f 168/11/153 162/19/160 161/17/158
f 162/19/160 166/15/156 163/20/161
f 166/15/156 160/21/162 163/20/161
f 152/3/147 154/16/163 148/22/164
f 170/1/165 185/2/166 173/3/167
f 186/4/168 172/5/169 174/6/170
f 186/7/168 171/8/171 176/9/172
f 186/7/168 179/10/173 189/11/174
f 189/11/174 178/12/175 188/13/176
f 188/13/176 177/14/177 187/15/178
f 187/15/178 175/16/179 185/2/166
f 186/4/168 182/17/180 180/18/181
f 189/11/174 183/19/182 182/17/180
f 188/13/176 184/20/183 183/19/182
f 187/15/178 181/21/184 184/20/183
f 169/22/185 185/2/166 175/16/179
f 191/1/186 206/2/187 194/3/188
f 207/4/189 193/5/190 195/35/191
f 207/7/189 192/8/192 197/9/193
f 197/9/193 210/36/194 207/7/189
f 210/36/194 199/12/195 209/13/196
f 209/13/196 198/14/197 208/15/198
f 198/14/197 206/2/187 208/15/198
f 207/4/189 203/17/199 201/18/200
f 210/36/194 204/19/201 203/17/199
f 204/19/201 208/15/198 205/20/202
f 208/15/198 202/21/203 205/20/202
f 194/3/188 196/16/204 190/22/205
f 212/1/206 227/2/207 215/3/208
f 228/4/209 214/5/210 216/35/211
f 228/7/209 213/8/212 218/9/213
f 218/9/213 231/36/214 228/7/209
f 231/36/214 220/12/215 230/13/216
f 230/13/216 219/14/217 229/15/218
f 219/14/217 227/2/207 229/15/218
f 228/4/209 224/17/219 222/18/220
f 231/36/214 225/19/221 224/17/219
f 225/19/221 229/15/218 226/20/222
f 229/15/218 223/21/223 226/20/222
f 215/3/208 217/16/224 211/22/225
f 233/1/226 248/2/227 236/3/228
f 249/4/229 235/5/230 237/35/231
f 249/7/229 234/8/232 239/9/233
f 239/9/233 252/11/234 249/7/229
f 252/11/234 241/12/235 251/13/236
f 251/13/236 240/14/237 250/15/238
f 240/14/237 248/2/227 250/15/238
f 249/4/229 245/17/239 243/18/240
f 252/11/234 246/19/241 245/17/239
f 246/19/241 250/15/238 247/20/242
f 250/15/238 244/21/243 247/20/242
f 236/3/228 238/16/244 232/22/245
f 254/1/246 269/2/247 257/3/248
f 270/4/249 256/5/250 258/35/251
f 270/7/249 255/8/252 260/9/253
f 260/9/253 273/11/254 270/7/249
f 273/11/254 262/12/255 272/13/256
f 272/13/256 261/14/257 271/15/258
f 261/14/257 269/2/247 271/15/258
f 270/4/249 266/17/259 264/18/260
f 273/11/254 267/19/261 266/17/259
f 272/13/256 268/20/262 267/19/261
f 271/15/258 265/21/263 268/20/262
f 257/3/248 259/16/264 253/22/265
f 275/1/266 290/2/267 278/3/268
f 291/4/269 277/5/270 279/23/271
f 291/7/269 276/8/272 281/9/273
f 281/9/273 294/11/274 291/7/269
f 284/10/275 293/13/276 294/11/274
f 293/13/276 282/14/277 292/15/278
f 282/14/277 290/2/267 292/15/278
f 285/18/279 294/11/274 287/17/280
f 294/11/274 288/19/281 287/17/280
f 293/13/276 289/20/282 288/19/281
f 292/15/278 286/21/283 289/20/282
f 274/22/284 290/2/267 280/16/285
f 296/29/286 311/30/287 299/31/288
f 312/4/289 298/5/290 300/23/291
f 312/7/289 297/8/292 302/9/293
f 312/7/289 305/10/294 315/32/295
f 315/32/295 304/12/296 314/13/297
f 304/12/296 313/15/298 314/13/297
f 313/15/298 301/16/299 311/30/287
f 312/4/289 308/17/300 306/18/301
f 315/32/295 309/19/302 308/17/300
f 314/13/297 310/20/303 309/19/302
f 313/15/298 307/33/304 310/20/303
f 299/31/288 301/16/299 295/34/305
f 317/29/306 332/30/307 320/31/308
f 333/4/309 319/5/310 321/23/311
f 333/7/309 318/8/312 323/9/313
f 333/7/309 326/10/314 336/32/315
f 336/32/315 325/12/316 335/13/317
f 335/13/317 324/14/318 334/15/319
f 334/15/319 322/16/320 332/30/307
f 333/4/309 329/17/321 327/18/322
f 336/32/315 330/19/323 329/17/321
f 335/13/317 331/20/324 330/19/323
f 334/15/319 328/33/325 331/20/324
f 320/31/308 322/16/320 316/34/326
f 338/29/327 353/30/328 341/31/329
f 354/4/330 340/5/331 342/23/332
f 354/7/330 339/8/333 344/9/334
f 354/7/330 347/10/335 357/32/336
f 357/32/336 346/12/337 356/13/338
f 356/13/338 345/14/339 355/15/340
f 355/15/340 343/16/341 353/30/328
f 354/4/330 350/17/342 348/18/343
f 357/32/336 351/19/344 350/17/342
f 356/13/338 352/20/345 351/19/344
f 355/15/340 349/33/346 352/20/345
f 341/31/329 343/16/341 337/34/347
f 359/24/348 374/2/349 362/3/350
f 375/4/351 361/5/352 363/23/353
f 375/7/351 360/8/354 365/9/355
f 375/7/351 368/10/356 378/11/357
f 378/11/357 367/12/358 377/13/359
f 377/13/359 366/14/360 376/15/361
f 376/15/361 364/25/362 374/2/349
f 375/4/351 371/26/363 369/18/364
f 378/11/357 372/19/365 371/26/363
f 377/13/359 373/20/366 372/19/365
f 376/15/361 370/27/367 373/20/366
f 358/28/368 374/2/349 364/25/362
f 2/1/1 13/21/20 17/2/2
f 18/4/4 12/18/17 4/5/5
f 18/7/4 6/6/6 3/8/7
f 18/7/4 8/9/8 11/10/9
f 21/11/10 11/10/9 10/12/11
f 20/13/12 10/12/11 9/14/13
f 19/15/14 9/14/13 7/16/15
f 18/4/4 21/11/10 14/17/16
f 21/11/10 20/13/12 15/19/18
f 20/13/12 19/15/14 16/20/19
f 19/15/14 17/2/2 13/21/20
f 1/22/21 5/3/3 17/2/2
f 23/1/22 34/21/39 38/2/23
f 39/4/25 33/18/35 25/5/26
f 39/7/25 27/23/27 24/8/28
f 29/9/29 32/10/31 42/11/30
f 32/10/31 31/12/369 41/13/32
f 41/13/32 31/12/369 30/14/33
f 30/14/33 28/16/41 38/2/23
f 33/18/35 39/4/25 42/11/30
f 42/11/30 41/13/32 36/19/37
f 41/13/32 40/15/34 37/20/38
f 40/15/34 38/2/23 34/21/39
f 22/22/40 26/3/24 38/2/23
f 44/24/42 55/27/61 59/2/43
f 60/4/45 54/18/58 46/5/46
f 60/7/45 48/23/47 45/8/48
f 60/7/45 50/9/49 53/10/50
f 63/11/51 53/10/50 52/12/52
f 62/13/53 52/12/52 51/14/54
f 61/15/55 51/14/54 49/25/56
f 60/4/45 63/11/51 56/26/57
f 63/11/51 62/13/53 57/19/59
f 62/13/53 61/15/55 58/20/60
f 61/15/55 59/2/43 55/27/61
f 43/28/62 47/3/44 59/2/43
f 65/24/63 76/27/82 80/2/64
f 81/4/66 75/18/79 67/5/67
f 81/7/66 69/23/68 66/8/69
f 81/7/66 71/9/70 74/10/71
f 84/11/72 74/10/71 73/12/73
f 83/13/74 73/12/73 72/14/75
f 82/15/76 72/14/75 70/25/77
f 81/4/66 84/11/72 77/26/78
f 84/11/72 83/13/74 78/19/80
f 83/13/74 82/15/76 79/20/81
f 82/15/76 80/2/64 76/27/82
f 64/28/83 68/3/65 80/2/64
f 86/24/84 97/27/103 101/2/85
f 102/4/87 96/18/100 88/5/88
f 102/7/87 90/23/89 87/8/90
f 102/7/87 92/9/91 95/10/92
f 105/11/93 95/10/92 94/12/94
f 104/13/95 94/12/94 93/14/96
f 103/15/97 93/14/96 91/25/98
f 102/4/87 105/11/93 98/26/99
f 105/11/93 104/13/95 99/19/101
f 104/13/95 103/15/97 100/20/102
f 103/15/97 101/2/85 97/27/103
f 89/3/86 101/2/85 91/25/98
f 107/29/105 118/33/123 122/30/106
f 123/4/108 117/18/120 109/5/109
f 123/7/108 111/23/110 108/8/111
f 123/7/108 113/9/112 116/10/113
f 126/32/114 116/10/113 115/12/115
f 115/12/115 114/14/370 124/15/117
f 124/15/117 114/14/370 112/16/118
f 123/4/108 126/32/114 119/17/119
f 126/32/114 125/13/116 120/19/121
f 125/13/116 124/15/117 121/20/122
f 124/15/117 122/30/106 118/33/123
f 110/31/107 122/30/106 112/16/118
f 128/1/125 139/21/142 143/2/126
f 144/4/128 138/18/139 130/5/129
f 144/7/128 132/35/130 129/8/131
f 134/9/132 137/37/371 147/36/133
f 147/36/133 137/37/371 136/12/134
f 146/13/135 136/12/134 135/14/136
f 135/14/136 133/16/143 143/2/126
f 144/4/128 147/36/133 140/17/138
f 147/36/133 146/13/135 141/19/140
f 141/19/140 146/13/135 145/15/137
f 145/15/137 143/2/126 139/21/142
f 131/3/127 143/2/126 133/16/143
f 149/1/145 160/21/162 164/2/146
f 165/4/148 159/18/159 151/5/149
f 165/7/148 153/35/150 150/8/151
f 155/9/152 158/10/372 168/11/153
f 168/11/153 158/10/372 157/12/154
f 157/12/154 156/14/157 166/15/156
f 156/14/157 154/16/163 164/2/146
f 165/4/148 168/11/153 161/17/158
f 168/11/153 167/13/155 162/19/160
f 162/19/160 167/13/155 166/15/156
f 166/15/156 164/2/146 160/21/162
f 152/3/147 164/2/146 154/16/163
f 170/1/165 181/21/184 185/2/166
f 186/4/168 180/18/181 172/5/169
f 186/7/168 174/6/170 171/8/171
f 186/7/168 176/9/172 179/10/173
f 189/11/174 179/10/173 178/12/175
f 188/13/176 178/12/175 177/14/177
f 187/15/178 177/14/177 175/16/179
f 186/4/168 189/11/174 182/17/180
f 189/11/174 188/13/176 183/19/182
f 188/13/176 187/15/178 184/20/183
f 187/15/178 185/2/166 181/21/184
f 169/22/185 173/3/167 185/2/166
f 191/1/186 202/21/203 206/2/187
f 207/4/189 201/18/200 193/5/190
f 207/7/189 195/35/191 192/8/192
f 197/9/193 200/37/373 210/36/194
f 210/36/194 200/37/373 199/12/195
f 209/13/196 199/12/195 198/14/197
f 198/14/197 196/16/204 206/2/187
f 207/4/189 210/36/194 203/17/199
f 210/36/194 209/13/196 204/19/201
f 204/19/201 209/13/196 208/15/198
f 208/15/198 206/2/187 202/21/203
f 194/3/188 206/2/187 196/16/204
f 212/1/206 223/21/223 227/2/207
f 228/4/209 222/18/220 214/5/210
f 228/7/209 216/35/211 213/8/212
f 218/9/213 221/37/374 231/36/214
f 231/36/214 221/37/374 220/12/215
f 230/13/216 220/12/215 219/14/217
f 219/14/217 217/16/224 227/2/207
f 228/4/209 231/36/214 224/17/219
f 231/36/214 230/13/216 225/19/221
f 225/19/221 230/13/216 229/15/218
f 229/15/218 227/2/207 223/21/223
f 215/3/208 227/2/207 217/16/224
f 233/1/226 244/21/243 248/2/227
f 249/4/229 243/18/240 235/5/230
f 249/7/229 237/35/231 234/8/232
f 239/9/233 242/10/375 252/11/234
f 252/11/234 242/10/375 241/12/235
f 251/13/236 241/12/235 240/14/237
f 240/14/237 238/16/244 248/2/227
f 249/4/229 252/11/234 245/17/239
f 252/11/234 251/13/236 246/19/241
f 246/19/241 251/13/236 250/15/238
f 250/15/238 248/2/227 244/21/243
f 236/3/228 248/2/227 238/16/244
f 254/1/246 265/21/263 269/2/247
f 270/4/249 264/18/260 256/5/250
f 270/7/249 258/35/251 255/8/252
f 260/9/253 263/10/376 273/11/254
f 273/11/254 263/10/376 262/12/255
f 272/13/256 262/12/255 261/14/257
f 261/14/257 259/16/264 269/2/247
f 270/4/249 273/11/254 266/17/259
f 273/11/254 272/13/256 267/19/261
f 272/13/256 271/15/258 268/20/262
f 271/15/258 269/2/247 265/21/263
f 257/3/248 269/2/247 259/16/264
f 275/1/266 286/21/283 290/2/267
f 291/4/269 285/18/279 277/5/270
f 291/7/269 279/23/271 276/8/272
f 281/9/273 284/10/275 294/11/274
f 284/10/275 283/12/377 293/13/276
f 293/13/276 283/12/377 282/14/277
f 282/14/277 280/16/285 290/2/267
f 285/18/279 291/4/269 294/11/274
f 294/11/274 293/13/276 288/19/281
f 293/13/276 292/15/278 289/20/282
f 292/15/278 290/2/267 286/21/283
f 274/22/284 278/3/268 290/2/267
f 296/29/286 307/33/304 311/30/287
f 312/4/289 306/18/301 298/5/290
f 312/7/289 300/23/291 297/8/292
f 312/7/289 302/9/293 305/10/294
f 315/32/295 305/10/294 304/12/296
f 304/12/296 303/14/378 313/15/298
f 313/15/298 303/14/378 301/16/299
f 312/4/289 315/32/295 308/17/300
f 315/32/295 314/13/297 309/19/302
f 314/13/297 313/15/298 310/20/303
f 313/15/298 311/30/287 307/33/304
f 299/31/288 311/30/287 301/16/299
f 317/29/306 328/33/325 332/30/307
f 333/4/309 327/18/322 319/5/310
f 333/7/309 321/23/311 318/8/312
f 333/7/309 323/9/313 326/10/314
f 336/32/315 326/10/314 325/12/316
f 335/13/317 325/12/316 324/14/318
f 334/15/319 324/14/318 322/16/320
f 333/4/309 336/32/315 329/17/321
f 336/32/315 335/13/317 330/19/323
f 335/13/317 334/15/319 331/20/324
f 334/15/319 332/30/307 328/33/325
f 320/31/308 332/30/307 322/16/320
f 338/29/327 349/33/346 353/30/328
f 354/4/330 348/18/343 340/5/331
f 354/7/330 342/23/332 339/8/333
f 354/7/330 344/9/334 347/10/335
f 357/32/336 347/10/335 346/12/337
f 356/13/338 346/12/337 345/14/339
f 355/15/340 345/14/339 343/16/341
f 354/4/330 357/32/336 350/17/342
f 357/32/336 356/13/338 351/19/344
f 356/13/338 355/15/340 352/20/345
f 355/15/340 353/30/328 349/33/346
f 341/31/329 353/30/328 343/16/341
f 359/24/348 370/27/367 374/2/349
f 375/4/351 369/18/364 361/5/352
f 375/7/351 363/23/353 360/8/354
f 375/7/351 365/9/355 368/10/356
f 378/11/357 368/10/356 367/12/358
f 377/13/359 367/12/358 366/14/360
f 376/15/361 366/14/360 364/25/362
f 375/4/351 378/11/357 371/26/363
f 378/11/357 377/13/359 372/19/365
f 377/13/359 376/15/361 373/20/366
f 376/15/361 374/2/349 370/27/367
f 358/28/368 362/3/350 374/2/349
