# Blender 4.3.2
# www.blender.org
o SignboardMedium
v -1.350000 3.300000 0.750000
v -1.350000 0.300000 0.750000
v -1.350000 3.300000 -0.750000
v -1.350000 0.300000 -0.750000
v -1.300000 3.300000 0.750000
v -1.300000 0.300000 0.750000
v -1.300000 3.300000 -0.750000
v -1.300000 0.300000 -0.750000
vn 1.0000 -0.0000 -0.0000
vn -0.0000 1.0000 -0.0000
vn -0.0000 -0.0000 -1.0000
vn -0.0000 -0.0000 1.0000
vt 0.000000 0.000000
vt 1.000000 1.000000
vt 0.000000 1.000000
vt 0.000000 0.000000
vt 1.000000 0.000000
s 0
f 6/1/1 7/2/1 5/3/1
f 1/4/2 7/4/2 3/4/2
f 3/4/3 8/4/3 4/4/3
f 2/4/4 5/4/4 1/4/4
f 6/1/1 8/5/1 7/2/1
f 1/4/2 5/4/2 7/4/2
f 3/4/3 7/4/3 8/4/3
f 2/4/4 6/4/4 5/4/4
