# Blender 4.3.2
# www.blender.org
o PedestalShort
v -0.400000 0.000000 0.400000
v 0.400000 0.000000 0.400000
v -0.400000 0.000000 -0.400000
v 0.400000 0.000000 -0.400000
v -0.400000 0.150000 0.400000
v 0.400000 0.150000 0.400000
v -0.400000 0.150000 -0.400000
v 0.400000 0.150000 -0.400000
v -0.000000 0.150000 -0.328044
v -0.000000 0.750000 -0.290834
v 0.164022 0.150000 -0.284095
v 0.145417 0.750000 -0.251869
v 0.284094 0.150000 -0.164022
v 0.251869 0.750000 -0.145417
v 0.328044 0.150000 -0.000000
v 0.290834 0.750000 -0.000000
v 0.284094 0.150000 0.164022
v 0.251869 0.750000 0.145417
v 0.164022 0.150000 0.284094
v 0.145417 0.750000 0.251869
v -0.000000 0.150000 0.328043
v -0.000000 0.750000 0.290834
v -0.164022 0.150000 0.284094
v -0.145417 0.750000 0.251869
v -0.284094 0.150000 0.164022
v -0.251869 0.750000 0.145417
v -0.328044 0.150000 -0.000000
v -0.290834 0.750000 -0.000000
v -0.284094 0.150000 -0.164022
v -0.251869 0.750000 -0.145417
v -0.164022 0.150000 -0.284095
v -0.145417 0.750000 -0.251869
v -0.000000 0.235000 -0.290834
v 0.145417 0.235000 -0.251869
v 0.251869 0.235000 -0.145417
v 0.290834 0.235000 -0.000000
v 0.251869 0.235000 0.145417
v 0.145417 0.235000 0.251869
v -0.000000 0.235000 0.290834
v -0.145417 0.235000 0.251869
v -0.251869 0.235000 0.145417
v -0.290834 0.235000 -0.000000
v -0.251869 0.235000 -0.145417
v -0.145417 0.235000 -0.251869
v 0.164499 0.215446 -0.284920
v 0.284920 0.215446 -0.164499
v 0.328997 0.215446 -0.000000
v 0.284920 0.215446 0.164498
v 0.164499 0.215446 0.284920
v -0.000000 0.215446 0.328997
v -0.164499 0.215446 0.284920
v -0.284920 0.215446 0.164498
v -0.328997 0.215446 -0.000000
v -0.284920 0.215446 -0.164499
v -0.164499 0.215446 -0.284920
v -0.000000 0.215446 -0.328998
v 0.171415 0.176842 -0.296899
v 0.296899 0.176842 -0.171415
v 0.342829 0.176842 -0.000000
v 0.296899 0.176842 0.171414
v 0.171415 0.176842 0.296899
v -0.000000 0.176842 0.342829
v -0.171415 0.176842 0.296899
v -0.296899 0.176842 0.171414
v -0.342829 0.176842 -0.000000
v -0.296899 0.176842 -0.171415
v -0.171415 0.176842 -0.296899
v -0.000000 0.176842 -0.342829
v 0.159464 0.765025 -0.276199
v -0.000000 0.765025 -0.318928
v 0.276199 0.765025 -0.159464
v 0.318928 0.765025 -0.000000
v 0.276199 0.765025 0.159464
v 0.159464 0.765025 0.276199
v -0.000000 0.765025 0.318927
v -0.159464 0.765025 0.276199
v -0.276199 0.765025 0.159464
v -0.318928 0.765025 -0.000000
v -0.276199 0.765025 -0.159464
v -0.159464 0.765025 -0.276199
v 0.149166 0.810108 -0.258364
v -0.000000 0.810108 -0.298333
v 0.258364 0.810108 -0.149167
v 0.298333 0.810108 -0.000000
v 0.258364 0.810108 0.149166
v 0.149166 0.810108 0.258364
v -0.000000 0.810108 0.298333
v -0.149166 0.810108 0.258364
v -0.258364 0.810108 0.149166
v -0.298333 0.810108 -0.000000
v -0.258364 0.810108 -0.149167
v -0.149166 0.810108 -0.258364
v -0.329165 0.787566 -0.000000
v -0.285065 0.787566 -0.164583
v -0.000000 0.787566 0.329165
v -0.164582 0.787566 0.285065
v 0.329165 0.787566 -0.000000
v 0.285065 0.787566 0.164582
v -0.164582 0.787566 -0.285065
v -0.000000 0.787566 -0.329165
v 0.164582 0.787566 -0.285065
v -0.285065 0.787566 0.164582
v 0.164582 0.787566 0.285065
v 0.285065 0.787566 -0.164583
v 0.159464 0.810108 -0.276199
v -0.000000 0.810108 -0.318928
v 0.276199 0.810108 -0.159464
v 0.318928 0.810108 -0.000000
v 0.276199 0.810108 0.159464
v 0.159464 0.810108 0.276199
v -0.000000 0.810108 0.318927
v -0.159464 0.810108 0.276199
v -0.276199 0.810108 0.159464
v -0.318928 0.810108 -0.000000
v -0.276199 0.810108 -0.159464
v -0.159464 0.810108 -0.276199
v 0.149166 0.840000 -0.258364
v -0.000000 0.840000 -0.298333
v 0.258364 0.840000 -0.149167
v 0.298333 0.840000 -0.000000
v 0.258364 0.840000 0.149166
v 0.149166 0.840000 0.258364
v -0.000000 0.840000 0.298333
v -0.149166 0.840000 0.258364
v -0.258364 0.840000 0.149166
v -0.298333 0.840000 -0.000000
v -0.258364 0.840000 -0.149167
v -0.149166 0.840000 -0.258364
v -0.352000 0.840000 0.352000
v 0.352000 0.840000 0.352000
v -0.352000 0.840000 -0.352000
v 0.352000 0.840000 -0.352000
v -0.352000 1.000000 0.352000
v 0.352000 1.000000 0.352000
v -0.352000 1.000000 -0.352000
v 0.352000 1.000000 -0.352000
vn -0.0000 1.0000 -0.0000
vn -0.0000 -0.0000 -1.0000
vn -0.0000 -0.0000 1.0000
vn 1.0000 -0.0000 -0.0000
vn -1.0000 -0.0000 -0.0000
vn 0.5000 -0.0000 -0.8660
vn 0.8660 -0.0000 -0.5000
vn 0.8660 -0.0000 0.5000
vn 0.5000 -0.0000 0.8660
vn -0.5000 -0.0000 0.8660
vn -0.8660 -0.0000 0.5000
vn -0.8660 -0.0000 -0.5000
vn -0.4084 -0.8818 -0.2358
vn -0.3764 -0.6584 -0.6519
vn -0.2358 -0.8818 -0.4084
vn -0.5000 -0.0000 -0.8660
vn -0.3878 0.6312 -0.6717
vn -0.0000 0.8900 -0.4560
vn -0.0000 0.6312 -0.7756
vn -0.6717 0.6312 -0.3878
vn -0.2280 0.8900 -0.3949
vn -0.7756 0.6312 -0.0000
vn -0.3949 0.8900 -0.2280
vn -0.6717 0.6312 0.3878
vn -0.4560 0.8900 -0.0000
vn -0.3878 0.6312 0.6717
vn -0.3949 0.8900 0.2280
vn -0.0000 0.6312 0.7756
vn -0.2280 0.8900 0.3949
vn 0.2280 0.8900 0.3949
vn 0.3878 0.6312 0.6717
vn 0.3949 0.8900 0.2280
vn 0.6717 0.6312 0.3878
vn 0.4560 0.8900 -0.0000
vn 0.7756 0.6312 -0.0000
vn 0.3949 0.8900 -0.2280
vn 0.6717 0.6312 -0.3878
vn 0.2280 0.8900 -0.3949
vn 0.3878 0.6312 -0.6717
vn 0.4986 -0.0747 -0.8636
vn -0.0000 -0.0747 -0.9972
vn 0.8636 -0.0747 -0.4986
vn 0.9972 -0.0747 -0.0000
vn 0.8636 -0.0747 0.4986
vn 0.4986 -0.0747 0.8636
vn -0.0000 -0.0747 0.9972
vn -0.4986 -0.0747 0.8636
vn -0.8636 -0.0747 0.4986
vn -0.9972 -0.0747 -0.0000
vn -0.8636 -0.0747 -0.4986
vn -0.4986 -0.0747 -0.8636
vn -0.4380 -0.4825 -0.7586
vn -0.0000 -0.4825 -0.8759
vn -0.7586 -0.4825 -0.4380
vn -0.8759 -0.4825 -0.0000
vn -0.7586 -0.4825 0.4380
vn -0.4380 -0.4825 0.7586
vn -0.0000 -0.4825 0.8759
vn 0.4380 -0.4825 0.7586
vn 0.7586 -0.4825 0.4380
vn 0.8759 -0.4825 -0.0000
vn 0.7586 -0.4825 -0.4380
vn 0.4380 -0.4825 -0.7586
vn -0.7885 0.4135 -0.4552
vn 0.2358 -0.8818 -0.4084
vn 0.6519 -0.6584 -0.3763
vn 0.4084 -0.8818 -0.2358
vn -0.7527 -0.6584 -0.0000
vn -0.6519 -0.6584 -0.3763
vn -0.4716 -0.8818 -0.0000
vn -0.6519 -0.6584 0.3764
vn -0.2358 -0.8818 0.4084
vn -0.4084 -0.8818 0.2358
vn -0.0000 -0.6584 0.7527
vn -0.3763 -0.6584 0.6519
vn 0.2358 -0.8818 0.4084
vn -0.0000 -0.8818 0.4716
vn 0.6519 -0.6584 0.3764
vn 0.3763 -0.6584 0.6519
vn 0.4716 -0.8818 -0.0000
vn 0.4084 -0.8818 0.2358
vn -0.0000 -0.6584 -0.7527
vn -0.0000 -0.8818 -0.4716
vn 0.3764 -0.6584 -0.6519
vn 0.7527 -0.6584 -0.0000
vn -0.4552 0.4135 0.7885
vn 0.9105 0.4135 -0.0000
vn 0.7885 0.4135 0.4553
vn -0.4553 0.4135 -0.7885
vn -0.0000 0.4135 -0.9105
vn 0.4553 0.4135 -0.7885
vn -0.7885 0.4135 0.4553
vn 0.4552 0.4135 0.7885
vn 0.7885 0.4135 -0.4552
vn -0.9105 0.4135 -0.0000
vn -0.0000 0.4135 0.9105
vn -0.0000 -1.0000 -0.0000
vn -0.0000 0.8900 0.4560
vt 1.000000 0.000000
vt 0.000000 1.000000
vt 0.000000 0.000000
vt 1.000000 1.000000
vt 0.916667 0.542500
vt 1.000000 0.542500
vt 0.916667 1.000000
vt 0.833333 0.542500
vt 0.833333 1.000000
vt 0.750000 0.542500
vt 0.750000 1.000000
vt 0.666667 0.542500
vt 0.666667 1.000000
vt 0.583333 0.542500
vt 0.583333 1.000000
vt 0.500000 0.542500
vt 0.500000 1.000000
vt 0.416667 0.542500
vt 0.416667 1.000000
vt 0.333333 0.542500
vt 0.333333 1.000000
vt 0.250000 0.542500
vt 0.250000 1.000000
vt 0.166667 0.542500
vt 0.166667 1.000000
vt 0.083333 1.000000
vt 0.083333 0.542500
vt 0.000000 0.542500
vt 0.083333 0.523489
vt 0.000000 0.523489
vt 0.166667 0.523489
vt 0.250000 0.523489
vt 0.333333 0.523489
vt 0.416667 0.523489
vt 0.500000 0.523489
vt 0.583333 0.523489
vt 0.666667 0.523489
vt 0.750000 0.523489
vt 0.833333 0.523489
vt 0.916667 0.523489
vt 1.000000 0.523489
vt 0.916667 0.508305
vt 1.000000 0.508305
vt 0.833333 0.508305
vt 0.750000 0.508305
vt 0.666667 0.508305
vt 0.583333 0.508305
vt 0.500000 0.508305
vt 0.416667 0.508305
vt 0.333333 0.508305
vt 0.250000 0.508305
vt 0.166667 0.508305
vt 0.083333 0.508305
vt 0.000000 0.508305
vt 0.083333 0.500000
vt 0.000000 0.500000
vt 0.166667 0.500000
vt 0.250000 0.500000
vt 0.333333 0.500000
vt 0.416667 0.500000
vt 0.500000 0.500000
vt 0.583333 0.500000
vt 0.666667 0.500000
vt 0.750000 0.500000
vt 0.833333 0.500000
vt 0.916667 0.500000
vt 1.000000 0.500000
vt 0.000000 1.000000
vt 0.362251 0.055575
vt 0.250000 0.025498
vt 0.250000 0.474502
vt 0.370000 0.457846
vt 0.250000 0.490000
vt 0.444424 0.362251
vt 0.362251 0.444425
vt 0.474502 0.250000
vt 0.457846 0.370000
vt 0.444425 0.137749
vt 0.490000 0.250000
vt 0.457846 0.130000
vt 0.250000 0.010000
vt 0.370000 0.042154
vt 0.137749 0.055576
vt 0.042154 0.130000
vt 0.130000 0.042154
vt 0.025498 0.250000
vt 0.055575 0.137749
vt 0.055575 0.362251
vt 0.010000 0.250000
vt 0.137749 0.444425
vt 0.042154 0.370000
vt 0.130000 0.457846
s 1
f 6/1/1 7/2/1 5/3/1
f 3/2/2 8/4/2 4/4/2
f 2/1/3 5/3/3 1/3/3
f 4/4/4 6/1/4 2/1/4
f 1/3/5 7/2/5 3/2/5
f 10/4/2 34/5/6 33/6/2
f 12/7/6 35/8/7 34/5/6
f 14/9/7 36/10/4 35/8/7
f 16/11/4 37/12/8 36/10/4
f 18/13/8 38/14/9 37/12/8
f 20/15/9 39/16/3 38/14/9
f 22/17/3 40/18/10 39/16/3
f 24/19/10 41/20/11 40/18/10
f 26/21/11 42/22/5 41/20/11
f 28/23/5 43/24/12 42/22/5
f 30/25/13 80/26/14 32/26/15
f 30/25/12 44/27/16 43/24/12
f 32/26/16 33/28/2 44/27/16
f 55/29/17 33/28/18 56/30/19
f 54/31/20 44/27/21 55/29/17
f 53/32/22 43/24/23 54/31/20
f 52/33/24 42/22/25 53/32/22
f 51/34/26 41/20/27 52/33/24
f 50/35/28 40/18/29 51/34/26
f 38/14/30 50/35/28 49/36/31
f 37/12/32 49/36/31 48/37/33
f 36/10/34 48/37/33 47/38/35
f 35/8/36 47/38/35 46/39/37
f 34/5/38 46/39/37 45/40/39
f 33/6/18 45/40/39 56/41/19
f 56/41/19 57/42/40 68/43/41
f 45/40/39 58/44/42 57/42/40
f 46/39/37 59/45/43 58/44/42
f 47/38/35 60/46/44 59/45/43
f 48/37/33 61/47/45 60/46/44
f 49/36/31 62/48/46 61/47/45
f 50/35/28 63/49/47 62/48/46
f 51/34/26 64/50/48 63/49/47
f 64/50/48 53/32/22 65/51/49
f 65/51/49 54/31/20 66/52/50
f 66/52/50 55/29/17 67/53/51
f 67/53/51 56/30/19 68/54/41
f 31/55/52 68/54/41 9/56/53
f 29/57/54 67/53/51 31/55/52
f 27/58/55 66/52/50 29/57/54
f 25/59/56 65/51/49 27/58/55
f 23/60/57 64/50/48 25/59/56
f 21/61/58 63/49/47 23/60/57
f 61/47/45 21/61/58 19/62/59
f 60/46/44 19/62/59 17/63/60
f 59/45/43 17/63/60 15/64/61
f 58/44/42 15/64/61 13/65/62
f 57/42/40 13/65/62 11/66/63
f 68/43/41 11/66/63 9/67/53
f 93/23/5 115/25/64 94/25/12
f 12/7/65 71/9/66 14/9/67
f 30/25/13 78/23/68 79/25/69
f 28/23/70 77/21/71 78/23/68
f 24/19/72 77/21/71 26/21/73
f 24/19/72 75/17/74 76/19/75
f 20/15/76 75/17/74 22/17/77
f 20/15/76 73/13/78 74/15/79
f 16/11/80 73/13/78 18/13/81
f 32/26/15 70/68/82 10/68/83
f 10/4/83 69/7/84 12/7/65
f 14/9/67 72/11/85 16/11/80
f 86/69/9 123/70/3 87/70/3
f 95/17/3 112/19/86 96/19/10
f 98/13/8 108/11/87 109/13/88
f 94/25/12 116/26/89 99/26/16
f 101/7/6 106/4/90 105/7/91
f 96/19/10 113/21/92 102/21/11
f 103/15/9 109/13/88 110/15/93
f 99/26/16 106/68/90 100/68/2
f 104/9/7 105/7/91 107/9/94
f 102/21/11 114/23/95 93/23/5
f 95/17/3 110/15/93 111/17/96
f 97/11/4 107/9/94 108/11/87
f 71/9/66 97/11/4 72/11/85
f 74/15/79 95/17/3 75/17/74
f 78/23/68 102/21/11 93/23/5
f 69/7/84 104/9/7 71/9/66
f 70/68/82 99/26/16 100/68/2
f 73/13/78 103/15/9 74/15/79
f 77/21/71 96/19/10 102/21/11
f 70/4/82 101/7/6 69/7/84
f 80/26/14 94/25/12 99/26/16
f 72/11/85 98/13/8 73/13/78
f 76/19/75 95/17/3 96/19/10
f 79/25/69 93/23/5 94/25/12
f 82/71/1 105/72/1 106/73/1
f 83/74/1 105/72/1 81/75/1
f 84/76/1 107/77/1 83/74/1
f 85/78/1 108/79/1 84/76/1
f 86/69/1 109/80/1 85/78/1
f 86/69/1 111/81/1 110/82/1
f 88/83/1 111/81/1 87/70/1
f 88/83/1 113/84/1 112/85/1
f 90/86/1 113/84/1 89/87/1
f 91/88/1 114/89/1 90/86/1
f 92/90/1 115/91/1 91/88/1
f 82/71/1 116/92/1 92/90/1
f 83/74/7 120/76/4 84/76/4
f 90/86/5 127/88/12 91/88/12
f 87/70/3 124/83/10 88/83/10
f 84/76/4 121/78/8 85/78/8
f 91/88/12 128/90/16 92/90/16
f 82/71/2 117/75/6 81/75/6
f 88/83/10 125/87/11 89/87/11
f 85/78/8 122/69/9 86/69/9
f 82/71/2 128/90/16 118/71/2
f 81/75/6 119/74/7 83/74/7
f 89/87/11 126/86/5 90/86/5
f 134/1/1 135/2/1 133/3/1
f 131/2/2 136/4/2 132/4/2
f 130/1/3 133/3/3 129/3/3
f 132/4/4 134/1/4 130/1/4
f 129/3/5 135/2/5 131/2/5
f 131/2/97 130/1/97 129/3/97
f 6/1/1 8/4/1 7/2/1
f 3/2/2 7/2/2 8/4/2
f 2/1/3 6/1/3 5/3/3
f 4/4/4 8/4/4 6/1/4
f 1/3/5 5/3/5 7/2/5
f 10/4/2 12/7/6 34/5/6
f 12/7/6 14/9/7 35/8/7
f 14/9/7 16/11/4 36/10/4
f 16/11/4 18/13/8 37/12/8
f 18/13/8 20/15/9 38/14/9
f 20/15/9 22/17/3 39/16/3
f 22/17/3 24/19/10 40/18/10
f 24/19/10 26/21/11 41/20/11
f 26/21/11 28/23/5 42/22/5
f 28/23/5 30/25/12 43/24/12
f 30/25/13 79/25/69 80/26/14
f 30/25/12 32/26/16 44/27/16
f 32/26/16 10/68/2 33/28/2
f 55/29/17 44/27/21 33/28/18
f 54/31/20 43/24/23 44/27/21
f 53/32/22 42/22/25 43/24/23
f 52/33/24 41/20/27 42/22/25
f 51/34/26 40/18/29 41/20/27
f 50/35/28 39/16/98 40/18/29
f 38/14/30 39/16/98 50/35/28
f 37/12/32 38/14/30 49/36/31
f 36/10/34 37/12/32 48/37/33
f 35/8/36 36/10/34 47/38/35
f 34/5/38 35/8/36 46/39/37
f 33/6/18 34/5/38 45/40/39
f 56/41/19 45/40/39 57/42/40
f 45/40/39 46/39/37 58/44/42
f 46/39/37 47/38/35 59/45/43
f 47/38/35 48/37/33 60/46/44
f 48/37/33 49/36/31 61/47/45
f 49/36/31 50/35/28 62/48/46
f 50/35/28 51/34/26 63/49/47
f 51/34/26 52/33/24 64/50/48
f 64/50/48 52/33/24 53/32/22
f 65/51/49 53/32/22 54/31/20
f 66/52/50 54/31/20 55/29/17
f 67/53/51 55/29/17 56/30/19
f 31/55/52 67/53/51 68/54/41
f 29/57/54 66/52/50 67/53/51
f 27/58/55 65/51/49 66/52/50
f 25/59/56 64/50/48 65/51/49
f 23/60/57 63/49/47 64/50/48
f 21/61/58 62/48/46 63/49/47
f 61/47/45 62/48/46 21/61/58
f 60/46/44 61/47/45 19/62/59
f 59/45/43 60/46/44 17/63/60
f 58/44/42 59/45/43 15/64/61
f 57/42/40 58/44/42 13/65/62
f 68/43/41 57/42/40 11/66/63
f 93/23/5 114/23/95 115/25/64
f 12/7/65 69/7/84 71/9/66
f 30/25/13 28/23/70 78/23/68
f 28/23/70 26/21/73 77/21/71
f 24/19/72 76/19/75 77/21/71
f 24/19/72 22/17/77 75/17/74
f 20/15/76 74/15/79 75/17/74
f 20/15/76 18/13/81 73/13/78
f 16/11/80 72/11/85 73/13/78
f 32/26/15 80/26/14 70/68/82
f 10/4/83 70/4/82 69/7/84
f 14/9/67 71/9/66 72/11/85
f 86/69/9 122/69/9 123/70/3
f 95/17/3 111/17/96 112/19/86
f 98/13/8 97/11/4 108/11/87
f 94/25/12 115/25/64 116/26/89
f 101/7/6 100/4/2 106/4/90
f 96/19/10 112/19/86 113/21/92
f 103/15/9 98/13/8 109/13/88
f 99/26/16 116/26/89 106/68/90
f 104/9/7 101/7/6 105/7/91
f 102/21/11 113/21/92 114/23/95
f 95/17/3 103/15/9 110/15/93
f 97/11/4 104/9/7 107/9/94
f 71/9/66 104/9/7 97/11/4
f 74/15/79 103/15/9 95/17/3
f 78/23/68 77/21/71 102/21/11
f 69/7/84 101/7/6 104/9/7
f 70/68/82 80/26/14 99/26/16
f 73/13/78 98/13/8 103/15/9
f 77/21/71 76/19/75 96/19/10
f 70/4/82 100/4/2 101/7/6
f 80/26/14 79/25/69 94/25/12
f 72/11/85 97/11/4 98/13/8
f 76/19/75 75/17/74 95/17/3
f 79/25/69 78/23/68 93/23/5
f 82/71/1 81/75/1 105/72/1
f 83/74/1 107/77/1 105/72/1
f 84/76/1 108/79/1 107/77/1
f 85/78/1 109/80/1 108/79/1
f 86/69/1 110/82/1 109/80/1
f 86/69/1 87/70/1 111/81/1
f 88/83/1 112/85/1 111/81/1
f 88/83/1 89/87/1 113/84/1
f 90/86/1 114/89/1 113/84/1
f 91/88/1 115/91/1 114/89/1
f 92/90/1 116/92/1 115/91/1
f 82/71/1 106/73/1 116/92/1
f 83/74/7 119/74/7 120/76/4
f 90/86/5 126/86/5 127/88/12
f 87/70/3 123/70/3 124/83/10
f 84/76/4 120/76/4 121/78/8
f 91/88/12 127/88/12 128/90/16
f 82/71/2 118/71/2 117/75/6
f 88/83/10 124/83/10 125/87/11
f 85/78/8 121/78/8 122/69/9
f 82/71/2 92/90/16 128/90/16
f 81/75/6 117/75/6 119/74/7
f 89/87/11 125/87/11 126/86/5
f 134/1/1 136/4/1 135/2/1
f 131/2/2 135/2/2 136/4/2
f 130/1/3 134/1/3 133/3/3
f 132/4/4 136/4/4 134/1/4
f 129/3/5 133/3/5 135/2/5
f 131/2/97 132/4/97 130/1/97
