# Blender 4.3.2
# www.blender.org
o PedestalTall
v -0.400000 0.000000 0.400000
v 0.400000 0.000000 0.400000
v -0.400000 0.000000 -0.400000
v 0.400000 0.000000 -0.400000
v -0.400000 0.150000 0.400000
v 0.400000 0.150000 0.400000
v -0.400000 0.150000 -0.400000
v 0.400000 0.150000 -0.400000
v -0.000000 0.150000 -0.328044
v -0.000000 3.350000 -0.290834
v 0.164022 0.150000 -0.284095
v 0.145417 3.350000 -0.251869
v 0.284094 0.150000 -0.164022
v 0.251869 3.350000 -0.145417
v 0.328044 0.150000 -0.000000
v 0.290834 3.350000 -0.000000
v 0.284094 0.150000 0.164022
v 0.251869 3.350000 0.145417
v 0.164022 0.150000 0.284094
v 0.145417 3.350000 0.251869
v -0.000000 0.150000 0.328043
v -0.000000 3.350000 0.290834
v -0.164022 0.150000 0.284094
v -0.145417 3.350000 0.251869
v -0.284094 0.150000 0.164022
v -0.251869 3.350000 0.145417
v -0.328044 0.150000 -0.000000
v -0.290834 3.350000 -0.000000
v -0.284094 0.150000 -0.164022
v -0.251869 3.350000 -0.145417
v -0.164022 0.150000 -0.284095
v -0.145417 3.350000 -0.251869
v -0.000000 0.235000 -0.290834
v 0.145417 0.235000 -0.251869
v 0.251869 0.235000 -0.145417
v 0.290834 0.235000 -0.000000
v 0.251869 0.235000 0.145417
v 0.145417 0.235000 0.251869
v -0.000000 0.235000 0.290834
v -0.145417 0.235000 0.251869
v -0.251869 0.235000 0.145417
v -0.290834 0.235000 -0.000000
v -0.251869 0.235000 -0.145417
v -0.145417 0.235000 -0.251869
v 0.164499 0.215446 -0.284920
v 0.284920 0.215446 -0.164499
v 0.328997 0.215446 -0.000000
v 0.284920 0.215446 0.164498
v 0.164499 0.215446 0.284920
v -0.000000 0.215446 0.328997
v -0.164499 0.215446 0.284920
v -0.284920 0.215446 0.164498
v -0.328997 0.215446 -0.000000
v -0.284920 0.215446 -0.164499
v -0.164499 0.215446 -0.284920
v -0.000000 0.215446 -0.328998
v 0.171415 0.176842 -0.296899
v 0.296899 0.176842 -0.171415
v 0.342829 0.176842 -0.000000
v 0.296899 0.176842 0.171414
v 0.171415 0.176842 0.296899
v -0.000000 0.176842 0.342829
v -0.171415 0.176842 0.296899
v -0.296899 0.176842 0.171414
v -0.342829 0.176842 -0.000000
v -0.296899 0.176842 -0.171415
v -0.171415 0.176842 -0.296899
v -0.000000 0.176842 -0.342829
v 0.159464 3.365025 -0.276199
v -0.000000 3.365025 -0.318928
v 0.276199 3.365025 -0.159464
v 0.318928 3.365025 -0.000000
v 0.276199 3.365025 0.159464
v 0.159464 3.365025 0.276199
v -0.000000 3.365025 0.318927
v -0.159464 3.365025 0.276199
v -0.276199 3.365025 0.159464
v -0.318928 3.365025 -0.000000
v -0.276199 3.365025 -0.159464
v -0.159464 3.365025 -0.276199
v 0.149166 3.410108 -0.258364
v -0.000000 3.410108 -0.298333
v 0.258364 3.410108 -0.149167
v 0.298333 3.410108 -0.000000
v 0.258364 3.410108 0.149166
v 0.149166 3.410108 0.258364
v -0.000000 3.410108 0.298333
v -0.149166 3.410108 0.258364
v -0.258364 3.410108 0.149166
v -0.298333 3.410108 -0.000000
v -0.258364 3.410108 -0.149167
v -0.149166 3.410108 -0.258364
v -0.329165 3.387566 -0.000000
v -0.285065 3.387566 -0.164583
v -0.000000 3.387566 0.329165
v -0.164582 3.387566 0.285065
v 0.329165 3.387566 -0.000000
v 0.285065 3.387566 0.164582
v -0.164582 3.387566 -0.285065
v -0.000000 3.387566 -0.329165
v 0.164582 3.387566 -0.285065
v -0.285065 3.387566 0.164582
v 0.164582 3.387566 0.285065
v 0.285065 3.387566 -0.164583
v 0.159464 3.410108 -0.276199
v -0.000000 3.410108 -0.318928
v 0.276199 3.410108 -0.159464
v 0.318928 3.410108 -0.000000
v 0.276199 3.410108 0.159464
v 0.159464 3.410108 0.276199
v -0.000000 3.410108 0.318927
v -0.159464 3.410108 0.276199
v -0.276199 3.410108 0.159464
v -0.318928 3.410108 -0.000000
v -0.276199 3.410108 -0.159464
v -0.159464 3.410108 -0.276199
v 0.149166 3.440000 -0.258364
v -0.000000 3.440000 -0.298333
v 0.258364 3.440000 -0.149167
v 0.298333 3.440000 -0.000000
v 0.258364 3.440000 0.149166
v 0.149166 3.440000 0.258364
v -0.000000 3.440000 0.298333
v -0.149166 3.440000 0.258364
v -0.258364 3.440000 0.149166
v -0.298333 3.440000 -0.000000
v -0.258364 3.440000 -0.149167
v -0.149166 3.440000 -0.258364
v -0.352000 3.440000 0.352000
v 0.352000 3.440000 0.352000
v -0.352000 3.440000 -0.352000
v 0.352000 3.440000 -0.352000
v -0.352000 3.600000 0.352000
v 0.352000 3.600000 0.352000
v -0.352000 3.600000 -0.352000
v 0.352000 3.600000 -0.352000
vn -0.0000 1.0000 -0.0000
vn -0.0000 -0.0000 -1.0000
vn -0.0000 -0.0000 1.0000
vn 1.0000 -0.0000 -0.0000
vn -1.0000 -0.0000 -0.0000
vn 0.5000 -0.0000 -0.8660
vn 0.8660 -0.0000 -0.5000
vn 0.8660 -0.0000 0.5000
vn 0.5000 -0.0000 0.8660
vn -0.5000 -0.0000 0.8660
vn -0.8660 -0.0000 0.5000
vn -0.8660 -0.0000 -0.5000
vn -0.4084 -0.8818 -0.2358
vn -0.3763 -0.6584 -0.6519
vn -0.2358 -0.8818 -0.4084
vn -0.5000 -0.0000 -0.8660
vn -0.3878 0.6312 -0.6717
vn -0.0000 0.8900 -0.4560
vn -0.0000 0.6312 -0.7756
vn -0.6717 0.6312 -0.3878
vn -0.2280 0.8900 -0.3949
vn -0.7756 0.6312 -0.0000
vn -0.3949 0.8900 -0.2280
vn -0.6717 0.6312 0.3878
vn -0.4560 0.8900 -0.0000
vn -0.3878 0.6312 0.6717
vn -0.3949 0.8900 0.2280
vn -0.0000 0.6312 0.7756
vn -0.2280 0.8900 0.3949
vn 0.2280 0.8900 0.3949
vn 0.3878 0.6312 0.6717
vn 0.3949 0.8900 0.2280
vn 0.6717 0.6312 0.3878
vn 0.4560 0.8900 -0.0000
vn 0.7756 0.6312 -0.0000
vn 0.3949 0.8900 -0.2280
vn 0.6717 0.6312 -0.3878
vn 0.2280 0.8900 -0.3949
vn 0.3878 0.6312 -0.6717
vn 0.4986 -0.0747 -0.8636
vn -0.0000 -0.0747 -0.9972
vn 0.8636 -0.0747 -0.4986
vn 0.9972 -0.0747 -0.0000
vn 0.8636 -0.0747 0.4986
vn 0.4986 -0.0747 0.8636
vn -0.0000 -0.0747 0.9972
vn -0.4986 -0.0747 0.8636
vn -0.8636 -0.0747 0.4986
vn -0.9972 -0.0747 -0.0000
vn -0.8636 -0.0747 -0.4986
vn -0.4986 -0.0747 -0.8636
vn -0.4380 -0.4825 -0.7586
vn -0.0000 -0.4825 -0.8759
vn -0.7586 -0.4825 -0.4380
vn -0.8759 -0.4825 -0.0000
vn -0.7586 -0.4825 0.4380
vn -0.4380 -0.4825 0.7586
vn -0.0000 -0.4825 0.8759
vn 0.4380 -0.4825 0.7586
vn 0.7586 -0.4825 0.4380
vn 0.8759 -0.4825 -0.0000
vn 0.7586 -0.4825 -0.4380
vn 0.4380 -0.4825 -0.7586
vn -0.7885 0.4135 -0.4552
vn 0.2358 -0.8818 -0.4084
vn 0.6519 -0.6584 -0.3763
vn 0.4084 -0.8818 -0.2358
vn -0.4716 -0.8818 -0.0000
vn -0.6519 -0.6584 -0.3764
vn -0.4084 -0.8818 0.2358
vn -0.7527 -0.6584 -0.0000
vn -0.2358 -0.8818 0.4084
vn -0.6519 -0.6584 0.3764
vn -0.0000 -0.8818 0.4716
vn -0.3763 -0.6584 0.6519
vn 0.3764 -0.6584 0.6519
vn -0.0000 -0.6584 0.7527
vn 0.4084 -0.8818 0.2358
vn 0.2358 -0.8818 0.4084
vn 0.4716 -0.8818 -0.0000
vn 0.6519 -0.6584 0.3764
vn -0.0000 -0.6584 -0.7527
vn -0.0000 -0.8818 -0.4716
vn 0.3764 -0.6584 -0.6519
vn 0.7527 -0.6584 -0.0000
vn -0.4553 0.4135 0.7885
vn 0.9105 0.4135 -0.0000
vn 0.7885 0.4135 0.4553
vn -0.4553 0.4135 -0.7885
vn 0.4553 0.4135 -0.7885
vn -0.7885 0.4135 0.4553
vn 0.4553 0.4135 0.7885
vn -0.0000 0.4135 -0.9105
vn 0.7885 0.4135 -0.4552
vn -0.9105 0.4135 -0.0000
vn -0.0000 0.4135 0.9105
vn -0.0000 -1.0000 -0.0000
vn -0.0000 0.8900 0.4560
vt 0.900000 0.100000
vt 0.100000 0.900000
vt 0.100000 0.100000
vt 0.100000 -0.299183
vt 0.900000 -0.149183
vt 0.900000 -0.299183
vt 0.100000 -0.149183
vt 0.100000 -0.149183
vt 0.100000 -0.299183
vt 0.900000 -0.299183
vt 0.500000 0.850817
vt 0.645417 -0.064183
vt 0.500000 -0.064183
vt 0.645417 0.850817
vt 0.751869 -0.064183
vt 0.645417 0.850817
vt 0.500000 -0.064183
vt 0.645417 -0.064183
vt 0.500000 0.850817
vt 0.354583 -0.064183
vt 0.751869 0.850817
vt 0.354583 0.850817
vt 0.248131 -0.064183
vt 0.248131 0.645417
vt 0.340536 0.776199
vt 0.354583 0.751869
vt 0.248131 0.850817
vt 0.335501 0.784920
vt 0.500000 0.790834
vt 0.500000 0.828997
vt 0.215080 0.664499
vt 0.171003 0.500000
vt 0.215080 0.335501
vt 0.209166 0.500000
vt 0.335501 0.215080
vt 0.248131 0.354583
vt 0.500000 0.171003
vt 0.354583 0.248131
vt 0.645417 0.248131
vt 0.664499 0.215080
vt 0.751869 0.354583
vt 0.784920 0.335501
vt 0.790834 0.500000
vt 0.828997 0.500000
vt 0.751869 0.645417
vt 0.784920 0.664499
vt 0.645417 0.751869
vt 0.664499 0.784920
vt 0.500000 -0.083737
vt 0.671415 -0.122340
vt 0.500000 -0.122340
vt 0.664499 -0.083737
vt 0.796899 -0.122340
vt 0.664499 -0.083737
vt 0.500000 -0.122340
vt 0.671415 -0.122340
vt 0.500000 -0.083737
vt 0.328586 -0.122340
vt 0.784920 -0.083737
vt 0.328585 -0.122340
vt 0.215080 -0.083737
vt 0.203101 -0.122340
vt 0.203101 -0.122340
vt 0.335501 -0.083737
vt 0.335978 -0.149183
vt 0.500000 -0.149183
vt 0.664022 -0.149183
vt 0.796899 -0.122340
vt 0.784094 -0.149183
vt 0.500000 -0.149183
vt 0.335978 -0.149183
vt 0.215906 -0.149183
vt 0.664022 -0.149183
vt 0.784094 -0.149183
vt 0.500000 0.888384
vt 0.659464 0.910925
vt 0.664582 0.888384
vt 0.776199 0.659464
vt 0.223801 0.659464
vt 0.181072 0.500000
vt 0.223801 0.340536
vt 0.500000 0.209166
vt 0.340536 0.223801
vt 0.659464 0.223801
vt 0.500000 0.181072
vt 0.776199 0.340536
vt 0.500000 0.818928
vt 0.659464 0.776199
vt 0.818928 0.500000
vt 0.649166 0.910925
vt 0.500000 0.940817
vt 0.500000 0.910925
vt 0.500000 0.888384
vt 0.340536 0.910925
vt 0.335418 0.888384
vt 0.335418 0.888384
vt 0.500000 0.910925
vt 0.776199 0.910925
vt 0.785065 0.888384
vt 0.664582 0.888384
vt 0.214935 0.888384
vt 0.785065 0.888384
vt 0.659464 0.865842
vt 0.500000 0.865842
vt 0.500000 0.865842
vt 0.776199 0.865842
vt 0.340536 0.865842
vt 0.500000 0.798333
vt 0.758364 0.649166
vt 0.649166 0.758364
vt 0.798333 0.500000
vt 0.758364 0.350834
vt 0.649166 0.241636
vt 0.350834 0.241636
vt 0.500000 0.201667
vt 0.201667 0.500000
vt 0.241636 0.350834
vt 0.241636 0.649166
vt 0.350834 0.758364
vt 0.649166 0.910925
vt 0.500000 0.940817
vt 0.649166 0.940817
vt 0.350834 0.940817
vt 0.350834 0.910925
vt 0.241636 0.910925
vt 0.649166 0.940817
vt 0.241636 0.940817
vt 0.758364 0.910925
vt 0.758364 0.940817
vt 0.852000 0.148000
vt 0.148000 0.852000
vt 0.148000 0.148000
vt 0.148000 0.940817
vt 0.852000 1.100817
vt 0.852000 0.940817
vt 0.148000 1.100817
vt 0.148000 0.940817
vt 0.852000 0.940817
vt 0.900000 0.900000
vt 0.900000 -0.149183
vt 0.335501 -0.083737
vt 0.215080 -0.083737
vt 0.223801 0.910925
vt 0.223801 0.865842
vt 0.852000 0.852000
vt 0.148000 1.100817
vt 0.852000 1.100817
s 1
f 6/1/1 7/2/1 5/3/1
f 3/4/2 8/5/2 4/6/2
f 2/6/3 5/7/3 1/4/3
f 4/6/4 6/8/4 2/9/4
f 1/9/5 7/5/5 3/10/5
f 10/11/2 34/12/6 33/13/2
f 12/14/6 35/15/7 34/12/6
f 14/16/7 36/17/4 35/18/7
f 16/19/4 37/20/8 36/17/4
f 18/21/8 38/12/9 37/15/8
f 20/14/9 39/13/3 38/12/9
f 22/11/3 40/20/10 39/13/3
f 24/22/10 41/23/11 40/20/10
f 26/22/11 42/17/5 41/20/11
f 28/19/5 43/18/12 42/17/5
f 30/24/13 80/25/14 32/26/15
f 30/27/12 44/20/16 43/23/12
f 32/22/16 33/13/2 44/20/16
f 55/28/17 33/29/18 56/30/19
f 54/31/20 44/26/21 55/28/17
f 53/32/22 43/24/23 54/31/20
f 52/33/24 42/34/25 53/32/22
f 51/35/26 41/36/27 52/33/24
f 50/37/28 40/38/29 51/35/26
f 38/39/30 50/37/28 49/40/31
f 37/41/32 49/40/31 48/42/33
f 36/43/34 48/42/33 47/44/35
f 35/45/36 47/44/35 46/46/37
f 34/47/38 46/46/37 45/48/39
f 33/29/18 45/48/39 56/30/19
f 56/49/19 57/50/40 68/51/41
f 45/52/39 58/53/42 57/50/40
f 46/54/37 59/55/43 58/56/42
f 47/57/35 60/58/44 59/55/43
f 48/59/33 61/50/45 60/53/44
f 49/52/31 62/51/46 61/50/45
f 50/49/28 63/60/47 62/51/46
f 51/61/26 64/58/48 63/62/47
f 64/58/48 53/57/22 65/55/49
f 65/55/49 54/54/20 66/56/50
f 66/63/50 55/64/17 67/60/51
f 67/60/51 56/49/19 68/51/41
f 31/65/52 68/51/41 9/66/53
f 29/67/54 67/68/51 31/69/52
f 27/70/55 66/56/50 29/67/54
f 25/71/56 65/55/49 27/70/55
f 23/72/57 64/58/48 25/71/56
f 21/66/58 63/60/47 23/65/57
f 61/50/45 21/66/58 19/73/59
f 60/53/44 19/73/59 17/74/60
f 59/55/43 17/71/60 15/70/61
f 58/56/42 15/70/61 13/67/62
f 57/50/40 13/74/62 11/73/63
f 68/51/41 11/73/63 9/66/53
f 93/75/5 115/76/64 94/77/12
f 12/47/65 71/78/66 14/45/67
f 28/34/68 79/79/69 30/24/13
f 26/36/70 78/80/71 28/34/68
f 24/38/72 77/81/73 26/36/70
f 22/82/74 76/83/75 24/38/72
f 22/82/74 74/84/76 75/85/77
f 18/41/78 74/84/76 20/39/79
f 16/43/80 73/86/81 18/41/78
f 32/26/15 70/87/82 10/29/83
f 10/29/83 69/88/84 12/47/65
f 14/45/67 72/89/85 16/43/80
f 86/90/9 123/91/3 87/92/3
f 95/93/3 112/94/86 96/95/10
f 98/96/8 108/97/87 109/94/88
f 94/77/12 116/98/89 99/99/16
f 100/93/2 105/76/90 101/100/6
f 96/101/10 113/94/91 102/96/11
f 103/100/9 109/98/88 110/76/92
f 99/95/16 106/92/93 100/93/2
f 104/102/7 105/76/90 107/98/94
f 102/96/11 114/97/95 93/75/5
f 95/93/3 110/76/92 111/92/96
f 97/75/4 107/76/94 108/97/87
f 71/103/66 97/75/4 72/104/85
f 74/103/76 95/93/3 75/105/77
f 78/104/71 102/96/11 93/75/5
f 69/103/84 104/102/7 71/106/66
f 70/105/82 99/95/16 100/93/2
f 73/106/81 103/100/9 74/103/76
f 77/107/73 96/101/10 102/96/11
f 70/105/82 101/100/6 69/103/84
f 80/106/14 94/77/12 99/99/16
f 72/104/85 98/96/8 73/107/81
f 76/107/75 95/93/3 96/95/10
f 79/103/69 93/75/5 94/77/12
f 82/108/1 105/88/1 106/87/1
f 83/109/1 105/88/1 81/110/1
f 84/111/1 107/78/1 83/109/1
f 85/112/1 108/89/1 84/111/1
f 86/113/1 109/86/1 85/112/1
f 86/113/1 111/85/1 110/84/1
f 88/114/1 111/85/1 87/115/1
f 88/114/1 113/81/1 112/83/1
f 90/116/1 113/81/1 89/117/1
f 91/118/1 114/80/1 90/116/1
f 92/119/1 115/79/1 91/118/1
f 82/108/1 116/25/1 92/119/1
f 83/120/7 120/121/4 84/97/4
f 90/97/5 127/122/12 91/120/12
f 87/92/3 124/123/10 88/124/10
f 84/97/4 121/123/8 85/124/8
f 91/125/12 128/123/16 92/124/16
f 82/92/2 117/126/6 81/90/6
f 88/124/10 125/127/11 89/125/11
f 85/128/8 122/126/9 86/90/9
f 92/124/16 118/91/2 82/92/2
f 81/90/6 119/129/7 83/128/7
f 89/124/11 126/121/5 90/97/5
f 134/130/1 135/131/1 133/132/1
f 131/133/2 136/134/2 132/135/2
f 130/135/3 133/136/3 129/133/3
f 132/135/4 134/136/4 130/137/4
f 129/133/5 135/134/5 131/138/5
f 131/131/97 130/130/97 129/132/97
f 6/1/1 8/139/1 7/2/1
f 3/4/2 7/7/2 8/5/2
f 2/6/3 6/140/3 5/7/3
f 4/6/4 8/5/4 6/8/4
f 1/9/5 5/8/5 7/5/5
f 10/11/2 12/14/6 34/12/6
f 12/14/6 14/21/7 35/15/7
f 14/16/7 16/19/4 36/17/4
f 16/19/4 18/22/8 37/20/8
f 18/21/8 20/14/9 38/12/9
f 20/14/9 22/11/3 39/13/3
f 22/11/3 24/22/10 40/20/10
f 24/22/10 26/27/11 41/23/11
f 26/22/11 28/19/5 42/17/5
f 28/19/5 30/16/12 43/18/12
f 30/24/13 79/79/69 80/25/14
f 30/27/12 32/22/16 44/20/16
f 32/22/16 10/11/2 33/13/2
f 55/28/17 44/26/21 33/29/18
f 54/31/20 43/24/23 44/26/21
f 53/32/22 42/34/25 43/24/23
f 52/33/24 41/36/27 42/34/25
f 51/35/26 40/38/29 41/36/27
f 50/37/28 39/82/98 40/38/29
f 38/39/30 39/82/98 50/37/28
f 37/41/32 38/39/30 49/40/31
f 36/43/34 37/41/32 48/42/33
f 35/45/36 36/43/34 47/44/35
f 34/47/38 35/45/36 46/46/37
f 33/29/18 34/47/38 45/48/39
f 56/49/19 45/52/39 57/50/40
f 45/52/39 46/59/37 58/53/42
f 46/54/37 47/57/35 59/55/43
f 47/57/35 48/141/33 60/58/44
f 48/59/33 49/52/31 61/50/45
f 49/52/31 50/49/28 62/51/46
f 50/49/28 51/64/26 63/60/47
f 51/61/26 52/141/24 64/58/48
f 64/58/48 52/141/24 53/57/22
f 65/55/49 53/57/22 54/54/20
f 66/63/50 54/142/20 55/64/17
f 67/60/51 55/64/17 56/49/19
f 31/65/52 67/60/51 68/51/41
f 29/67/54 66/56/50 67/68/51
f 27/70/55 65/55/49 66/56/50
f 25/71/56 64/58/48 65/55/49
f 23/72/57 63/62/47 64/58/48
f 21/66/58 62/51/46 63/60/47
f 61/50/45 62/51/46 21/66/58
f 60/53/44 61/50/45 19/73/59
f 59/55/43 60/58/44 17/71/60
f 58/56/42 59/55/43 15/70/61
f 57/50/40 58/53/42 13/74/62
f 68/51/41 57/50/40 11/73/63
f 93/75/5 114/97/95 115/76/64
f 12/47/65 69/88/84 71/78/66
f 28/34/68 78/80/71 79/79/69
f 26/36/70 77/81/73 78/80/71
f 24/38/72 76/83/75 77/81/73
f 22/82/74 75/85/77 76/83/75
f 22/82/74 20/39/79 74/84/76
f 18/41/78 73/86/81 74/84/76
f 16/43/80 72/89/85 73/86/81
f 32/26/15 80/25/14 70/87/82
f 10/29/83 70/87/82 69/88/84
f 14/45/67 71/78/66 72/89/85
f 86/90/9 122/126/9 123/91/3
f 95/93/3 111/92/96 112/94/86
f 98/96/8 97/75/4 108/97/87
f 94/77/12 115/76/64 116/98/89
f 100/93/2 106/92/93 105/76/90
f 96/101/10 112/143/86 113/94/91
f 103/100/9 98/102/8 109/98/88
f 99/95/16 116/94/89 106/92/93
f 104/102/7 101/100/6 105/76/90
f 102/96/11 113/94/91 114/97/95
f 95/93/3 103/100/9 110/76/92
f 97/75/4 104/77/7 107/76/94
f 71/103/66 104/77/7 97/75/4
f 74/103/76 103/100/9 95/93/3
f 78/104/71 77/107/73 102/96/11
f 69/103/84 101/100/6 104/102/7
f 70/105/82 80/107/14 99/95/16
f 73/106/81 98/102/8 103/100/9
f 77/107/73 76/144/75 96/101/10
f 70/105/82 100/93/2 101/100/6
f 80/106/14 79/103/69 94/77/12
f 72/104/85 97/75/4 98/96/8
f 76/107/75 75/105/77 95/93/3
f 79/103/69 78/104/71 93/75/5
f 82/108/1 81/110/1 105/88/1
f 83/109/1 107/78/1 105/88/1
f 84/111/1 108/89/1 107/78/1
f 85/112/1 109/86/1 108/89/1
f 86/113/1 110/84/1 109/86/1
f 86/113/1 87/115/1 111/85/1
f 88/114/1 112/83/1 111/85/1
f 88/114/1 89/117/1 113/81/1
f 90/116/1 114/80/1 113/81/1
f 91/118/1 115/79/1 114/80/1
f 92/119/1 116/25/1 115/79/1
f 82/108/1 106/87/1 116/25/1
f 83/120/7 119/122/7 120/121/4
f 90/97/5 126/121/5 127/122/12
f 87/92/3 123/91/3 124/123/10
f 84/97/4 120/121/4 121/123/8
f 91/125/12 127/127/12 128/123/16
f 82/92/2 118/91/2 117/126/6
f 88/124/10 124/123/10 125/127/11
f 85/128/8 121/129/8 122/126/9
f 92/124/16 128/123/16 118/91/2
f 81/90/6 117/126/6 119/129/7
f 89/124/11 125/123/11 126/121/5
f 134/130/1 136/145/1 135/131/1
f 131/133/2 135/146/2 136/134/2
f 130/135/3 134/147/3 133/136/3
f 132/135/4 136/134/4 134/136/4
f 129/133/5 133/136/5 135/134/5
f 131/131/97 132/145/97 130/130/97
