# Blender 4.5.0 Release Candidate
# www.blender.org
o ShinyPipeL
v -0.000000 0.000000 -0.225000
v -0.159099 0.000000 -0.159099
v -0.225000 0.000000 0.000000
v -0.159099 0.000000 0.159099
v -0.000000 0.000000 0.225000
v 0.159099 0.000000 0.159099
v 0.225000 0.000000 0.000000
v 0.159099 0.000000 -0.159099
v -0.000000 0.050000 -0.225000
v -0.159099 0.050000 -0.159099
v -0.225000 0.050000 0.000000
v -0.159099 0.050000 0.159099
v -0.000000 0.050000 0.225000
v 0.159099 0.050000 0.159099
v 0.225000 0.050000 0.000000
v 0.159099 0.050000 -0.159099
v -0.000000 0.387500 -0.134567
v -0.159099 0.354550 -0.077495
v -0.225000 0.275000 0.060289
v -0.159099 0.195451 0.198072
v -0.000000 0.162500 0.255144
v 0.159099 0.195451 0.198072
v 0.225000 0.275000 0.060289
v 0.159099 0.354550 -0.077495
v -0.000000 0.634567 0.112500
v -0.159099 0.577495 0.145451
v -0.225000 0.439711 0.225000
v -0.159099 0.301928 0.304550
v -0.000000 0.244856 0.337500
v 0.159099 0.301928 0.304550
v 0.225000 0.439711 0.225000
v 0.159099 0.577495 0.145451
v -0.000000 0.725000 0.450000
v -0.159099 0.659099 0.450000
v -0.225000 0.500000 0.450000
v -0.159099 0.340901 0.450000
v -0.000000 0.275000 0.450000
v 0.159099 0.340901 0.450000
v 0.225000 0.500000 0.450000
v 0.159099 0.659099 0.450000
v -0.000000 0.725000 0.500000
v -0.159099 0.659099 0.500000
v -0.225000 0.500000 0.500000
v -0.159099 0.340901 0.500000
v -0.000000 0.275000 0.500000
v 0.159099 0.340901 0.500000
v 0.225000 0.500000 0.500000
v 0.159099 0.659099 0.500000
vn -0.0000 -0.0000 -1.0000
vn -0.7071 -0.0000 -0.7071
vn -1.0000 -0.0000 -0.0000
vn -0.7071 -0.0000 0.7071
vn -0.0000 -0.0000 1.0000
vn 0.7071 -0.0000 0.7071
vn 1.0000 -0.0000 -0.0000
vn 0.7071 -0.0000 -0.7071
vn -0.0000 0.1266 -0.9920
vn -0.6895 0.0950 -0.7181
vn -0.9995 0.0085 -0.0317
vn -0.7211 -0.0911 0.6868
vn -0.0000 -0.1348 0.9909
vn 0.7211 -0.0911 0.6868
vn 0.9995 0.0085 -0.0317
vn 0.6895 0.0951 -0.7181
vn -0.0000 0.5000 -0.8660
vn -0.6768 0.3681 -0.6375
vn -0.9980 0.0318 -0.0550
vn -0.7402 -0.3362 0.5823
vn -0.0000 -0.5000 0.8660
vn 0.7402 -0.3362 0.5823
vn 0.9980 0.0318 -0.0550
vn 0.6768 0.3681 -0.6375
vn -0.0000 0.8660 -0.5000
vn -0.6768 0.6375 -0.3681
vn -0.9980 0.0550 -0.0318
vn -0.7402 -0.5823 0.3362
vn -0.0000 -0.8660 0.5000
vn 0.7402 -0.5823 0.3362
vn 0.9980 0.0550 -0.0318
vn 0.6768 0.6375 -0.3681
vn -0.0000 0.9920 -0.1266
vn -0.6895 0.7181 -0.0951
vn -0.9995 0.0317 -0.0085
vn -0.7211 -0.6868 0.0911
vn -0.0000 -0.9909 0.1348
vn 0.7211 -0.6868 0.0911
vn 0.9995 0.0317 -0.0085
vn 0.6895 0.7181 -0.0950
vn -0.0000 1.0000 -0.0000
vn -0.7071 0.7071 -0.0000
vn -0.7071 -0.7071 -0.0000
vn -0.0000 -1.0000 -0.0000
vn 0.7071 -0.7071 -0.0000
vn 0.7071 0.7071 -0.0000
vt 0.448852 0.102944
vt 0.463655 0.051960
vt 0.463655 0.102944
vt 0.448852 0.408846
vt 0.463655 0.357862
vt 0.463655 0.408846
vt 0.448852 0.306878
vt 0.463655 0.255895
vt 0.463655 0.306878
vt 0.448852 0.153927
vt 0.463655 0.153927
vt 0.448852 0.051960
vt 0.463655 0.000977
vt 0.448852 0.357862
vt 0.448852 0.255895
vt 0.463655 0.204911
vt 0.448852 0.204911
vt 0.957461 0.414850
vt 0.871803 0.373626
vt 0.940427 0.366796
vt 0.913343 0.268759
vt 0.879031 0.323158
vt 0.879031 0.272174
vt 0.880948 0.055522
vt 0.942345 0.099160
vt 0.873721 0.105991
vt 0.866493 0.156460
vt 0.969429 0.197197
vt 0.866493 0.207443
vt 0.967511 0.464833
vt 0.864575 0.424095
vt 0.923392 0.318742
vt 0.880948 0.004539
vt 0.925310 0.051107
vt 0.959379 0.147214
vt 0.804276 0.742545
vt 0.742880 0.786183
vt 0.759915 0.738130
vt 0.292735 0.910543
vt 0.347133 0.944855
vt 0.297150 0.954905
vt 0.242266 0.903315
vt 0.201043 0.988974
vt 0.191797 0.896087
vt 0.811504 0.793014
vt 0.725846 0.834237
vt 0.769965 0.688146
vt 0.804276 0.691562
vt 0.249096 0.971940
vt 0.151059 0.999023
vt 0.140814 0.896087
vt 0.818732 0.894466
vt 0.818732 0.843483
vt 0.513811 0.955763
vt 0.554549 0.852827
vt 0.564794 0.955763
vt 0.570802 0.981122
vt 0.611540 0.878185
vt 0.620786 0.971072
vt 0.668839 0.954037
vt 0.712478 0.892641
vt 0.716893 0.937003
vt 0.412873 0.941307
vt 0.358474 0.906995
vt 0.408458 0.896945
vt 0.463342 0.948535
vt 0.504565 0.862876
vt 0.662009 0.885413
vt 0.763461 0.892641
vt 0.766876 0.926953
vt 0.456512 0.879911
vt 0.430582 0.255895
vt 0.445385 0.306879
vt 0.430582 0.306879
vt 0.430582 0.357863
vt 0.445385 0.408846
vt 0.430582 0.408846
vt 0.430582 0.051960
vt 0.445385 0.102944
vt 0.430582 0.102944
vt 0.430582 0.153928
vt 0.445385 0.204912
vt 0.430582 0.204912
vt 0.445385 0.255895
vt 0.445385 0.357863
vt 0.445385 0.000977
vt 0.445385 0.051960
vt 0.445385 0.153928
vt 0.448852 0.000977
vt 0.864575 0.475079
vt 0.915260 0.001123
vt 0.343718 0.910543
vt 0.715796 0.884220
vt 0.560557 0.878185
vt 0.361890 0.941307
vt 0.430582 0.000977
s 1
f 15/1/15 6/2/6 7/3/7
f 13/4/13 4/5/4 5/6/5
f 11/7/11 2/8/2 3/9/3
f 16/10/16 7/3/7 8/11/8
f 14/12/14 5/13/5 6/2/6
f 12/14/12 3/9/3 4/5/4
f 10/15/10 1/16/1 2/8/2
f 9/17/9 8/11/8 1/16/1
f 16/18/16 23/19/23 15/20/15
f 13/21/13 22/22/22 21/23/21
f 12/24/12 19/25/19 11/26/11
f 10/27/10 17/28/17 9/29/9
f 9/30/9 24/31/24 16/18/16
f 15/20/15 22/22/22 14/32/14
f 13/33/13 20/34/20 12/24/12
f 10/27/10 19/25/19 18/35/18
f 22/36/22 31/37/31 30/38/30
f 20/39/20 29/40/29 28/41/28
f 19/42/19 26/43/26 18/44/18
f 23/45/23 32/46/32 31/37/31
f 22/36/22 29/47/29 21/48/21
f 20/39/20 27/49/27 19/42/19
f 18/44/18 25/50/25 17/51/17
f 17/52/17 32/46/32 24/53/24
f 26/54/26 33/55/33 25/56/25
f 25/57/25 40/58/40 32/59/32
f 31/60/31 38/61/38 30/62/30
f 28/63/28 37/64/37 36/65/36
f 27/66/27 34/67/34 26/54/26
f 31/60/31 40/58/40 39/68/39
f 30/62/30 37/69/37 29/70/29
f 27/66/27 36/65/36 35/71/35
f 40/72/40 47/73/7 39/74/39
f 38/75/38 45/76/44 37/77/37
f 36/78/36 43/79/3 35/80/35
f 34/81/34 41/82/41 33/83/33
f 33/83/33 48/84/46 40/72/40
f 39/74/39 46/85/45 38/75/38
f 36/78/36 45/86/44 44/87/43
f 35/80/35 42/88/42 34/81/34
f 15/1/15 14/12/14 6/2/6
f 13/4/13 12/14/12 4/5/4
f 11/7/11 10/15/10 2/8/2
f 16/10/16 15/1/15 7/3/7
f 14/12/14 13/89/13 5/13/5
f 12/14/12 11/7/11 3/9/3
f 10/15/10 9/17/9 1/16/1
f 9/17/9 16/10/16 8/11/8
f 16/18/16 24/31/24 23/19/23
f 13/21/13 14/32/14 22/22/22
f 12/24/12 20/34/20 19/25/19
f 10/27/10 18/35/18 17/28/17
f 9/30/9 17/90/17 24/31/24
f 15/20/15 23/19/23 22/22/22
f 13/33/13 21/91/21 20/34/20
f 10/27/10 11/26/11 19/25/19
f 22/36/22 23/45/23 31/37/31
f 20/39/20 21/92/21 29/40/29
f 19/42/19 27/49/27 26/43/26
f 23/45/23 24/53/24 32/46/32
f 22/36/22 30/38/30 29/47/29
f 20/39/20 28/41/28 27/49/27
f 18/44/18 26/43/26 25/50/25
f 17/52/17 25/93/25 32/46/32
f 26/54/26 34/67/34 33/55/33
f 25/57/25 33/94/33 40/58/40
f 31/60/31 39/68/39 38/61/38
f 28/63/28 29/95/29 37/64/37
f 27/66/27 35/71/35 34/67/34
f 31/60/31 32/59/32 40/58/40
f 30/62/30 38/61/38 37/69/37
f 27/66/27 28/63/28 36/65/36
f 40/72/40 48/84/46 47/73/7
f 38/75/38 46/85/45 45/76/44
f 36/78/36 44/87/43 43/79/3
f 34/81/34 42/88/42 41/82/41
f 33/83/33 41/82/41 48/84/46
f 39/74/39 47/73/7 46/85/45
f 36/78/36 37/96/37 45/86/44
f 35/80/35 43/79/3 42/88/42
