# Blender 4.5.0 Release Candidate
# www.blender.org
o ShinyPipe10
v -0.000000 0.000000 -0.225000
v -0.159099 0.000000 -0.159099
v -0.225000 0.000000 0.000000
v -0.159099 0.000000 0.159099
v -0.000000 0.000000 0.225000
v 0.159099 0.000000 0.159099
v 0.225000 0.000000 0.000000
v 0.159099 0.000000 -0.159099
v -0.000000 0.500000 -0.225000
v -0.159099 0.500000 -0.159099
v -0.225000 0.500000 0.000000
v -0.159099 0.500000 0.159099
v -0.000000 0.500000 0.225000
v 0.159099 0.500000 0.159099
v 0.225000 0.500000 0.000000
v 0.159099 0.500000 -0.159099
vn -0.0000 -0.0000 -1.0000
vn -0.7071 -0.0000 -0.7071
vn -1.0000 -0.0000 -0.0000
vn -0.7071 -0.0000 0.7071
vn -0.0000 -0.0000 1.0000
vn 0.7071 -0.0000 0.7071
vn 1.0000 -0.0000 -0.0000
vn 0.7071 -0.0000 -0.7071
vt 0.714996 0.102944
vt 0.863026 0.051960
vt 0.863026 0.102944
vt 0.714996 0.408845
vt 0.863026 0.357862
vt 0.863026 0.408845
vt 0.714996 0.306878
vt 0.863026 0.255895
vt 0.863026 0.306878
vt 0.714996 0.153927
vt 0.863026 0.153927
vt 0.714996 0.051960
vt 0.863026 0.000977
vt 0.714996 0.357862
vt 0.714996 0.255895
vt 0.863026 0.204911
vt 0.714996 0.204911
vt 0.714996 0.000977
s 1
f 15/1/7 6/2/6 7/3/7
f 13/4/5 4/5/4 5/6/5
f 11/7/3 2/8/2 3/9/3
f 16/10/8 7/3/7 8/11/8
f 14/12/6 5/13/5 6/2/6
f 12/14/4 3/9/3 4/5/4
f 10/15/2 1/16/1 2/8/2
f 9/17/1 8/11/8 1/16/1
f 15/1/7 14/12/6 6/2/6
f 13/4/5 12/14/4 4/5/4
f 11/7/3 10/15/2 2/8/2
f 16/10/8 15/1/7 7/3/7
f 14/12/6 13/18/5 5/13/5
f 12/14/4 11/7/3 3/9/3
f 10/15/2 9/17/1 1/16/1
f 9/17/1 16/10/8 8/11/8
