# Blender 4.5.0 Release Candidate
# www.blender.org
o ShinyPipeT
v -0.000000 0.000000 -0.225000
v -0.159099 0.000000 -0.159099
v -0.225000 0.000000 0.000000
v -0.159099 0.000000 0.159099
v -0.000000 0.000000 0.225000
v 0.159099 0.000000 0.159099
v 0.225000 0.000000 0.000000
v 0.159099 0.000000 -0.159099
v -0.000000 0.275000 -0.225000
v -0.159099 0.340901 -0.159099
v -0.225000 0.500000 0.000000
v -0.159099 0.340901 0.159099
v -0.000000 0.275000 0.225000
v 0.159099 0.340901 0.159099
v 0.225000 0.500000 0.000000
v 0.159099 0.340901 -0.159099
v -0.000000 0.725000 -0.500000
v -0.159099 0.659099 -0.500000
v -0.225000 0.500000 -0.500000
v -0.159099 0.340901 -0.500000
v -0.000000 0.275000 -0.500000
v 0.159099 0.340901 -0.500000
v 0.225000 0.500000 -0.500000
v 0.159099 0.659099 -0.500000
v -0.000000 0.725000 0.500000
v -0.159099 0.659099 0.500000
v -0.225000 0.500000 0.500000
v -0.159099 0.340901 0.500000
v -0.000000 0.275000 0.500000
v 0.159099 0.340901 0.500000
v 0.225000 0.500000 0.500000
v 0.159099 0.659099 0.500000
vn -0.0000 -0.0000 -1.0000
vn -0.7071 -0.0000 -0.7071
vn -1.0000 -0.0000 -0.0000
vn -0.7071 -0.0000 0.7071
vn -0.0000 -0.0000 1.0000
vn 0.7071 -0.0000 0.7071
vn 1.0000 -0.0000 -0.0000
vn 0.7071 -0.0000 -0.7071
vn -0.7928 -0.0000 -0.6095
vn -0.7928 -0.0000 0.6095
vn 0.7928 -0.0000 0.6095
vn 0.7928 -0.0000 -0.6095
vn -0.0000 1.0000 -0.0000
vn -0.7071 0.7071 -0.0000
vn -0.7071 -0.7071 -0.0000
vn -0.0000 -1.0000 -0.0000
vn 0.7071 -0.7071 -0.0000
vn 0.7071 0.7071 -0.0000
vt 0.562873 0.306878
vt 0.663800 0.357862
vt 0.562873 0.357862
vt 0.644290 0.000977
vt 0.562873 0.051960
vt 0.562873 0.000977
vt 0.562873 0.102944
vt 0.663800 0.153927
vt 0.562873 0.153927
vt 0.663800 0.255895
vt 0.562873 0.255895
vt 0.644290 0.408845
vt 0.562873 0.408845
vt 0.663800 0.051960
vt 0.644290 0.204911
vt 0.562873 0.204911
vt 0.430582 0.769198
vt 0.726641 0.718215
vt 0.726641 0.769198
vt 0.430582 0.718215
vt 0.726641 0.667231
vt 0.430582 0.667231
vt 0.726641 0.616248
vt 0.430582 0.616248
vt 0.726641 0.565264
vt 0.430582 0.565264
vt 0.726641 0.514281
vt 0.430582 0.514281
vt 0.726641 0.463297
vt 0.430582 0.463297
vt 0.726641 0.412313
vt 0.430582 0.820182
vt 0.726641 0.820182
vt 0.710903 0.306878
vt 0.710903 0.102944
vt 0.430582 0.412313
s 1
f 7/1/7 14/2/11 6/3/6
f 13/4/5 4/5/4 5/6/5
f 3/7/3 10/8/9 2/9/2
f 16/10/12 7/1/7 8/11/8
f 6/3/6 13/12/5 5/13/5
f 12/14/10 3/7/3 4/5/4
f 2/9/2 9/15/1 1/16/1
f 9/15/1 8/11/8 1/16/1
f 32/17/18 23/18/7 24/19/18
f 31/20/7 22/21/17 23/18/7
f 30/22/17 21/23/16 22/21/17
f 29/24/16 20/25/15 21/23/16
f 28/26/15 19/27/3 20/25/15
f 27/28/3 18/29/14 19/27/3
f 26/30/14 17/31/13 18/29/14
f 25/32/13 24/19/18 17/33/13
f 7/1/7 15/34/7 14/2/11
f 13/4/5 12/14/10 4/5/4
f 3/7/3 11/35/3 10/8/9
f 16/10/12 15/34/7 7/1/7
f 6/3/6 14/2/11 13/12/5
f 12/14/10 11/35/3 3/7/3
f 2/9/2 10/8/9 9/15/1
f 9/15/1 16/10/12 8/11/8
f 32/17/18 31/20/7 23/18/7
f 31/20/7 30/22/17 22/21/17
f 30/22/17 29/24/16 21/23/16
f 29/24/16 28/26/15 20/25/15
f 28/26/15 27/28/3 19/27/3
f 27/28/3 26/30/14 18/29/14
f 26/30/14 25/36/13 17/31/13
f 25/32/13 32/17/18 24/19/18
