# Blender 4.5.0 Release Candidate
# www.blender.org
o ShinyPipeConverter
v -0.000000 0.000000 -0.225000
v -0.159099 0.000000 -0.159099
v -0.225000 0.000000 0.000000
v -0.159099 0.000000 0.159099
v -0.000000 0.000000 0.225000
v 0.159099 0.000000 0.159099
v 0.225000 0.000000 0.000000
v 0.159099 0.000000 -0.159099
v -0.000000 0.050000 -0.225000
v -0.159099 0.050000 -0.159099
v -0.225000 0.050000 0.000000
v -0.159099 0.050000 0.159099
v -0.000000 0.050000 0.225000
v 0.159099 0.050000 0.159099
v 0.225000 0.050000 0.000000
v 0.159099 0.050000 -0.159099
v -0.250000 0.450000 0.250000
v 0.250000 0.450000 0.250000
v -0.250000 0.450000 -0.250000
v 0.250000 0.450000 -0.250000
v -0.250000 0.500000 0.250000
v 0.250000 0.500000 0.250000
v -0.250000 0.500000 -0.250000
v 0.250000 0.500000 -0.250000
vn -0.0000 -0.0000 -1.0000
vn -0.7071 -0.0000 -0.7071
vn -1.0000 -0.0000 -0.0000
vn -0.7071 -0.0000 0.7071
vn -0.0000 -0.0000 1.0000
vn 0.7071 -0.0000 0.7071
vn 1.0000 -0.0000 -0.0000
vn 0.7071 -0.0000 -0.7071
vn -0.0000 -0.1149 -0.9934
vn -0.6979 -0.1610 -0.6979
vn -0.9934 -0.1149 -0.0000
vn -0.6979 -0.1610 0.6979
vn -0.0000 -0.1149 0.9934
vn 0.6979 -0.1610 0.6979
vn 0.9934 -0.1149 -0.0000
vn 0.6979 -0.1610 -0.6979
vn -0.7050 -0.0781 0.7049
vn 0.7049 -0.0781 0.7050
vn -0.7049 -0.0781 -0.7050
vn 0.7050 -0.0781 -0.7049
vt 0.481925 0.357862
vt 0.467122 0.408846
vt 0.467122 0.357862
vt 0.481925 0.051960
vt 0.467122 0.102944
vt 0.467122 0.051960
vt 0.481925 0.153927
vt 0.467122 0.204911
vt 0.467122 0.153927
vt 0.481925 0.306878
vt 0.467122 0.306878
vt 0.481925 0.000977
vt 0.467122 0.000977
vt 0.481925 0.102944
vt 0.481925 0.204911
vt 0.467122 0.255895
vt 0.481925 0.255895
vt 0.846211 0.703842
vt 0.730443 0.658340
vt 0.743409 0.609033
vt 0.873767 0.558400
vt 0.749378 0.558400
vt 0.743409 0.507767
vt 0.830229 0.769285
vt 0.817263 0.719977
vt 0.933031 0.674475
vt 0.960587 0.819918
vt 0.836198 0.819917
vt 0.830229 0.870550
vt 0.933031 0.965360
vt 0.817263 0.919858
vt 0.730443 0.458459
vt 0.846211 0.412958
vt 0.412312 0.445065
vt 0.427115 0.593095
vt 0.412312 0.593095
vt 0.412312 0.149006
vt 0.427115 0.297036
vt 0.412312 0.297036
vt 0.427115 0.445065
vt 0.412312 0.000977
vt 0.427115 0.149006
vt 0.481925 0.408846
vt 0.427115 0.000977
s 1
f 15/1/15 6/2/6 7/3/7
f 13/4/13 4/5/4 5/6/5
f 11/7/11 2/8/2 3/9/3
f 16/10/16 7/3/7 8/11/8
f 14/12/14 5/6/5 6/13/6
f 12/14/12 3/9/3 4/5/4
f 10/15/10 1/16/1 2/8/2
f 9/17/9 8/11/8 1/16/1
f 18/18/18 14/19/14 15/20/15
f 20/21/20 18/18/18 15/20/15
f 15/20/15 16/22/16 20/21/20
f 16/22/16 9/23/9 20/21/20
f 13/24/13 14/25/14 18/26/18
f 18/26/18 17/27/17 13/24/13
f 13/24/13 17/27/17 12/28/12
f 11/29/11 12/28/12 17/27/17
f 17/27/17 19/30/19 11/29/11
f 11/29/11 19/30/19 10/31/10
f 9/23/9 10/32/10 19/33/19
f 20/21/20 9/23/9 19/33/19
f 20/34/20 22/35/6 18/36/18
f 17/37/17 23/38/2 19/39/19
f 19/39/19 24/40/8 20/34/20
f 18/41/18 21/42/4 17/37/17
f 15/1/15 14/43/14 6/2/6
f 13/4/13 12/14/12 4/5/4
f 11/7/11 10/15/10 2/8/2
f 16/10/16 15/1/15 7/3/7
f 14/12/14 13/4/13 5/6/5
f 12/14/12 11/7/11 3/9/3
f 10/15/10 9/17/9 1/16/1
f 9/17/9 16/10/16 8/11/8
f 20/34/20 24/40/8 22/35/6
f 17/37/17 21/42/4 23/38/2
f 19/39/19 23/38/2 24/40/8
f 18/41/18 22/44/6 21/42/4
