# Blender 4.5.0 Release Candidate
# www.blender.org
o PlanterSmallSquare.002
v -0.360000 0.960000 -0.360000
v -0.360000 0.960000 0.360000
v 0.360000 0.960000 0.360000
v 0.360000 0.960000 -0.360000
v -0.360000 0.960000 0.000000
v 0.000000 0.960000 0.360000
v 0.360000 0.960000 0.000000
v 0.000000 0.960000 -0.360000
v 0.000000 0.960000 0.000000
vn -0.0000 1.0000 -0.0000
vt 0.860000 0.500000
vt 0.500000 0.860000
vt 0.500000 0.500000
vt 0.140000 0.860000
vt 0.140000 0.500000
vt 0.500000 0.140000
vt 0.140000 0.140000
vt 0.860000 0.140000
vt 0.860000 0.860000
s 0
f 7/1/1 8/2/1 9/3/1
f 9/3/1 1/4/1 5/5/1
f 6/6/1 5/5/1 2/7/1
f 3/8/1 9/3/1 6/6/1
f 7/1/1 4/9/1 8/2/1
f 9/3/1 8/2/1 1/4/1
f 6/6/1 9/3/1 5/5/1
f 3/8/1 7/1/1 9/3/1
