# Blender 4.5.0 Release Candidate
# www.blender.org
o PlanterSmallSquare.001
v -0.400000 0.000000 0.400000
v 0.400000 0.000000 0.400000
v -0.400000 0.000000 -0.400000
v 0.400000 0.000000 -0.400000
v -0.360000 1.000000 -0.360000
v -0.360000 1.000000 0.360000
v 0.360000 1.000000 0.360000
v 0.360000 1.000000 -0.360000
v -0.400000 1.000000 -0.400000
v -0.400000 1.000000 0.400000
v 0.400000 1.000000 0.400000
v 0.400000 1.000000 -0.400000
v -0.360000 0.960000 -0.360000
v -0.360000 0.960000 0.360000
v 0.360000 0.960000 0.360000
v 0.360000 0.960000 -0.360000
v -0.360000 0.960000 0.000000
v 0.000000 0.960000 0.360000
v 0.360000 0.960000 0.000000
v 0.000000 0.960000 -0.360000
vn -0.0000 -1.0000 -0.0000
vn -1.0000 -0.0000 -0.0000
vn -0.0000 -0.0000 -1.0000
vn -0.0000 -0.0000 1.0000
vn 1.0000 -0.0000 -0.0000
vn -0.0000 1.0000 -0.0000
vt 0.100000 0.900000
vt 0.900000 0.100000
vt 0.100000 0.100000
vt 0.860000 0.722857
vt 0.500000 0.682857
vt 0.140000 0.682857
vt 0.100000 -0.277143
vt 0.900000 0.722857
vt 0.900000 -0.277143
vt 0.100000 0.722857
vt 0.140000 0.140000
vt 0.860000 0.140000
vt 0.860000 0.860000
vt 0.900000 0.900000
vt 0.140000 0.860000
vt 0.140000 0.722857
vt 0.860000 0.682857
s 0
f 3/1/1 2/2/1 1/3/1
f 8/4/2 19/5/2 15/6/2
f 3/7/3 12/8/3 4/9/3
f 2/9/4 10/10/4 1/7/4
f 4/9/5 11/10/5 2/7/5
f 1/7/2 9/8/2 3/9/2
f 6/11/6 9/1/6 10/3/6
f 7/12/6 10/3/6 11/2/6
f 8/13/6 11/2/6 12/14/6
f 5/15/6 12/14/6 9/1/6
f 6/16/5 17/5/5 13/17/5
f 5/16/4 20/5/4 16/17/4
f 7/4/3 18/5/3 14/6/3
f 3/1/1 4/14/1 2/2/1
f 15/6/2 7/16/2 8/4/2
f 8/4/2 16/17/2 19/5/2
f 3/7/3 9/10/3 12/8/3
f 2/9/4 11/8/4 10/10/4
f 4/9/5 12/8/5 11/10/5
f 1/7/2 10/10/2 9/8/2
f 6/11/6 5/15/6 9/1/6
f 7/12/6 6/11/6 10/3/6
f 8/13/6 7/12/6 11/2/6
f 5/15/6 8/13/6 12/14/6
f 13/17/5 5/4/5 6/16/5
f 6/16/5 14/6/5 17/5/5
f 16/17/4 8/4/4 5/16/4
f 5/16/4 13/6/4 20/5/4
f 14/6/3 6/16/3 7/4/3
f 7/4/3 15/17/3 18/5/3
