# Blender 4.3.2
# www.blender.org
o WallsAndFloor.002
v -3.000000 0.000000 -14.000000
v -3.000000 0.000000 -11.000000
v 3.000000 4.800000 2.800000
v -3.000000 4.800000 -14.000000
v 3.000000 0.000000 2.800000
v 3.000000 0.000000 10.000000
v 3.000000 0.000000 -14.000000
v 3.000000 4.800000 10.000000
v 3.000000 4.800000 -14.000000
v 3.000000 4.800000 4.800000
v 3.000000 0.000000 4.800000
v 6.000000 0.000000 2.800000
v 6.000000 3.600000 2.800000
v 6.000000 3.600000 4.800000
v 6.000000 0.000000 4.800000
v 2.200000 0.000000 -14.000000
v 2.200000 4.800000 -14.000000
v -2.200000 0.000000 -14.000000
v -2.200000 4.800000 -14.000000
v -3.000000 0.000000 10.000000
v -3.000000 0.000000 -9.000000
v -3.000000 4.800000 10.000000
v -3.000000 4.800000 -9.000000
v -3.000000 4.800000 -11.000000
v -3.000000 0.000000 -14.000000
v -3.000000 4.800000 -14.000000
v 2.200000 0.000000 -17.000000
v 2.200000 4.800000 -17.000000
v -2.200000 0.000000 -17.000000
v -2.200000 4.800000 -17.000000
v 6.000000 -0.400000 -17.000000
v -6.000000 -0.400000 -17.000000
v 6.000000 -0.400000 -29.000000
v -6.000000 -0.400000 -29.000000
v 6.000000 6.800000 -17.000000
v -6.000000 6.800000 -17.000000
v 6.000000 6.800000 -29.000000
v -6.000000 6.800000 -29.000000
v 2.200000 -0.400000 -17.000000
v 2.200000 6.800000 -17.000000
v -2.200000 -0.400000 -17.000000
v -2.200000 6.800000 -17.000000
v -2.600000 0.000000 -14.000000
v -2.600000 4.800000 -14.000000
v -2.600000 0.000000 -13.600000
v -2.600000 4.800000 -13.600000
v -3.000000 0.000000 -13.600000
v -3.000000 4.800000 -13.600000
v 3.000000 0.000000 -13.600000
v 3.000000 4.800000 -13.600000
v 2.600000 0.000000 -13.600000
v 2.600000 4.800000 -13.600000
v 2.600000 0.000000 -14.000000
v 2.600000 4.800000 -14.000000
v 2.200000 4.800000 -16.200001
v -2.200000 4.800000 -16.200001
v 2.200000 4.800000 -17.000000
v 2.200000 6.800000 -17.000000
v -2.200000 4.800000 -17.000000
v -2.200000 6.800000 -17.000000
v 4.200000 4.800000 -16.200001
v 4.200000 5.600000 -16.200001
v -4.200000 4.800000 -16.200001
v -4.200000 5.600000 -16.200001
v -29.000000 0.000000 -11.000000
v -29.000000 0.000000 -9.000000
v -29.000000 4.800000 -9.000000
v -29.000000 4.800000 -11.000000
v 6.000000 0.000000 2.800000
v 6.000000 3.800000 2.800000
v 6.000000 0.000000 2.000000
v 6.000000 3.800000 2.000000
v 6.000000 3.800000 4.800000
v 6.000000 -0.800000 4.800000
v 6.000000 3.800000 9.000000
v 6.000000 -0.800000 9.000000
v 18.000000 3.800000 9.000000
v 18.000000 -0.800000 9.000000
v 3.000000 3.600000 4.800000
v 3.000000 3.600000 2.800000
v 11.000000 0.000000 2.000000
v 11.000000 3.800000 2.000000
v 13.000000 0.000000 2.000000
v 13.000000 3.800000 2.000000
v 18.000000 0.000000 2.000000
v 18.000000 3.800000 2.000000
v 18.000000 2.800000 6.800000
v 18.000000 -0.800000 6.800000
v 18.000000 3.800000 2.000000
v 18.000000 -0.800000 2.000000
v 18.000000 2.800000 8.800000
v 18.000000 -0.800000 8.800000
v 19.000000 -0.800000 6.800000
v 19.000000 2.800000 6.800000
v 19.000000 -0.800000 8.800000
v 19.000000 2.800000 8.800000
v 6.000000 3.800000 2.800000
v 6.000000 3.800000 4.800000
v 18.000000 3.800000 8.800000
v 18.000000 3.800000 6.800000
v 18.000000 3.800000 6.800000
v 18.000000 3.800000 8.800000
vn -1.0000 -0.0000 -0.0000
vn 1.0000 -0.0000 -0.0000
vn -0.0000 -0.0000 1.0000
vn -0.0000 -0.0000 -1.0000
vn -0.0000 -1.0000 -0.0000
vn -0.0000 1.0000 -0.0000
vt 0.243750 0.436458
vt 0.593750 0.536458
vt 0.593750 0.436458
vt 0.531250 0.536458
vt 0.531250 0.436458
vt 0.093750 0.436458
vt 0.202083 0.536458
vt 0.202083 0.436458
vt 0.666667 0.436458
vt 0.729167 0.511458
vt 0.666667 0.511458
vt 0.729167 0.436458
vt 0.666667 0.536458
vt 0.650000 0.436458
vt 0.541667 0.436458
vt 0.558333 0.536458
vt 0.541667 0.536458
vt 0.489583 0.436458
vt 0.093750 0.536458
vt 0.656250 0.536458
vt 0.656250 0.436458
vt 0.906250 0.428125
vt 0.656250 0.578125
vt 0.656250 0.428125
vt 0.906250 0.578125
vt 0.729167 0.428125
vt 0.479167 0.578125
vt 0.479167 0.428125
vt 0.650000 0.578125
vt 0.729167 0.578125
vt 0.558333 0.428125
vt 0.585417 0.536458
vt 0.550000 0.436458
vt 0.550000 0.536458
vt 0.658333 0.536458
vt 0.666667 0.436458
vt 0.585417 0.436458
vt 0.650000 0.536458
vt 0.558333 0.656250
vt 0.650000 0.639583
vt 0.558333 0.639583
vt 0.691667 0.553125
vt 0.516667 0.536458
vt 0.691667 0.536458
vt 0.000000 0.536458
vt 0.000000 0.436458
vt 0.729167 0.243750
vt 0.260417 0.515625
vt 0.243750 0.515625
vt 0.202083 0.515625
vt 0.114583 0.421875
vt 0.202083 0.421875
vt 0.729167 0.515625
vt 0.979167 0.421875
vt 0.729167 0.421875
vt 0.243750 0.511458
vt 0.243750 0.536458
vt 0.666667 0.243750
vt 0.729167 0.202083
vt 0.666667 0.202083
vt 0.833333 0.515625
vt 0.875000 0.436458
vt 0.979167 0.515625
vt 0.875000 0.515625
vt 0.160417 0.421875
vt 0.160417 0.515625
vt 0.114583 0.515625
vt 0.118750 0.421875
vt 1.000000 0.515625
vt 1.000000 0.421875
vt 0.202083 0.511458
vt 1.000000 1.000000
vt 0.500000 0.000000
vt 0.500000 1.000000
vt 0.000000 0.250000
vt 1.000000 0.750000
vt 1.000000 0.250000
vt 0.558333 0.436458
vt 0.489583 0.536458
vt 0.650000 0.428125
vt 0.558333 0.578125
vt 0.585417 0.436458
vt 0.658333 0.436458
vt 0.593750 0.436458
vt 0.650000 0.656250
vt 0.516667 0.553125
vt 0.260417 0.436458
vt 0.833333 0.436458
vt 0.979167 0.436458
vt 0.260417 0.421875
vt 0.118750 0.515625
vt 1.000000 0.000000
vt 0.000000 0.750000
s 0
f 5/1/1 9/2/1 7/3/1
f 25/3/2 24/4/2 2/5/2
f 6/6/1 10/7/1 11/8/1
f 5/9/3 13/10/3 80/11/3
f 79/11/4 15/12/4 11/9/4
f 9/13/3 16/14/3 7/9/3
f 1/15/3 19/16/3 4/17/3
f 21/18/2 22/19/2 20/6/2
f 20/15/4 8/13/4 6/9/4
f 18/3/2 30/20/2 19/2/2
f 17/2/1 27/21/1 16/3/1
f 34/22/2 36/23/2 32/24/2
f 31/24/1 37/25/1 33/22/1
f 33/26/3 38/27/3 34/28/3
f 31/26/4 40/29/4 35/30/4
f 36/27/4 41/31/4 32/28/4
f 46/32/2 43/3/2 44/2/2
f 48/17/3 45/33/3 46/34/3
f 52/35/3 49/36/3 50/13/3
f 54/2/1 51/37/1 52/32/1
f 59/16/4 58/29/4 57/38/4
f 59/39/5 55/40/5 56/41/5
f 62/42/3 63/43/3 61/44/3
f 21/15/4 67/45/4 23/17/4
f 24/17/3 65/46/3 2/15/3
f 13/47/6 69/47/6 70/47/6
f 69/1/2 72/48/2 70/49/2
f 73/50/2 76/51/2 74/52/2
f 75/53/4 78/54/4 76/55/4
f 80/56/1 10/7/1 3/57/1
f 80/58/5 14/59/5 79/60/5
f 71/12/3 82/61/3 72/53/3
f 83/62/3 86/63/3 84/64/3
f 89/48/1 88/65/1 100/66/1
f 77/67/1 92/68/1 78/51/1
f 88/54/3 94/69/3 87/63/3
f 91/63/4 95/70/4 92/54/4
f 13/56/2 98/50/2 14/71/2
f 94/72/5 91/73/5 87/74/5
f 91/75/1 101/76/1 87/77/1
f 5/1/1 3/57/1 9/2/1
f 25/3/2 26/2/2 24/4/2
f 6/6/1 8/19/1 10/7/1
f 5/9/3 12/12/3 13/10/3
f 79/11/4 14/10/4 15/12/4
f 9/13/3 17/38/3 16/14/3
f 1/15/3 18/78/3 19/16/3
f 21/18/2 23/79/2 22/19/2
f 20/15/4 22/17/4 8/13/4
f 18/3/2 29/21/2 30/20/2
f 17/2/1 28/20/1 27/21/1
f 34/22/2 38/25/2 36/23/2
f 31/24/1 35/23/1 37/25/1
f 33/26/3 37/30/3 38/27/3
f 31/26/4 39/80/4 40/29/4
f 36/27/4 42/81/4 41/31/4
f 46/32/2 45/82/2 43/3/2
f 48/17/3 47/15/3 45/33/3
f 52/35/3 51/83/3 49/36/3
f 54/2/1 53/84/1 51/37/1
f 59/16/4 60/81/4 58/29/4
f 59/39/5 57/85/5 55/40/5
f 62/42/3 64/86/3 63/43/3
f 21/15/4 66/46/4 67/45/4
f 24/17/3 68/45/3 65/46/3
f 13/47/6 12/47/6 69/47/6
f 69/1/2 71/87/2 72/48/2
f 73/50/2 75/67/2 76/51/2
f 75/53/4 77/63/4 78/54/4
f 80/56/1 79/71/1 10/7/1
f 80/58/5 13/47/5 14/59/5
f 71/12/3 81/88/3 82/61/3
f 83/62/3 85/89/3 86/63/3
f 89/48/1 90/90/1 88/65/1
f 77/67/1 99/91/1 92/68/1
f 88/54/3 93/70/3 94/69/3
f 91/63/4 96/69/4 95/70/4
f 13/56/2 97/49/2 98/50/2
f 94/72/5 96/92/5 91/73/5
f 91/75/1 102/93/1 101/76/1
