# Blender 4.5.0 Release Candidate
# www.blender.org
o BlackBricks.001
v 16.000000 4.300001 12.000000
v 16.000000 0.000001 12.000000
v 16.000000 2.800000 6.800000
v 16.000000 0.000001 6.800000
v 16.000000 4.300000 -2.000000
v 16.000000 0.000000 -2.000000
v 16.000000 2.800001 8.800000
v 16.000000 0.000001 8.800000
v 17.000000 0.000001 6.800000
v 17.000000 2.800000 6.800000
v 17.000000 0.000001 8.800000
v 17.000000 2.800001 8.800000
v 16.000000 4.300001 8.800000
v 16.000000 4.300001 6.800000
v 7.900000 0.000001 0.900000
v 7.900000 4.300000 0.100000
v 7.900000 0.000000 0.100000
v 7.900000 4.300001 0.900000
v 7.100000 4.300000 0.100000
v 7.100000 4.300001 0.900000
v 7.100000 0.000001 0.900000
v 7.100000 0.000000 0.100000
vn -1.0000 -0.0000 -0.0000
vn -0.0000 -0.0000 -1.0000
vn -0.0000 -1.0000 -0.0000
vn -0.0000 -0.0000 1.0000
vn 1.0000 -0.0000 -0.0000
vn -0.0000 1.0000 -0.0000
vt 0.641964 0.662500
vt 0.334821 0.033929
vt 0.334821 0.662500
vt 0.534821 0.662500
vt 0.641964 0.805357
vt 0.738095 0.334821
vt 0.809524 0.534821
vt 0.809524 0.334821
vt 0.738095 0.662500
vt 0.809524 0.805357
vt 0.738095 0.805357
vt 0.738095 0.534821
vt 0.534821 0.805357
vt 0.334821 0.805357
vt 0.334821 1.033929
vt 0.334821 0.241071
vt 0.641964 0.183929
vt 0.641964 0.241071
vt 0.334821 0.183929
vt 0.159524 0.641964
vt 0.102381 0.334821
vt 0.159524 0.334821
vt 0.102381 0.641964
vt 0.159524 0.183929
vt 0.102381 0.241071
vt 0.159524 0.241071
vt 0.641964 0.033929
vt 0.809524 0.662500
vt 0.641964 1.033929
vt 0.102381 0.183929
s 0
f 14/1/1 6/2/1 4/3/1
f 3/4/1 13/5/1 14/1/1
f 8/6/2 12/7/2 11/8/2
f 3/9/3 12/10/3 7/11/3
f 3/12/4 9/8/4 10/7/4
f 12/13/1 9/3/1 11/14/1
f 2/15/1 13/5/1 8/14/1
f 15/16/5 16/17/5 18/18/5
f 21/16/1 19/17/1 22/19/1
f 18/20/4 21/21/4 15/22/4
f 17/22/2 19/23/2 16/20/2
f 16/24/6 20/25/6 18/26/6
f 14/1/1 5/27/1 6/2/1
f 3/4/1 7/13/1 13/5/1
f 8/6/2 7/12/2 12/7/2
f 3/9/3 10/28/3 12/10/3
f 3/12/4 4/6/4 9/8/4
f 12/13/1 10/4/1 9/3/1
f 2/15/1 1/29/1 13/5/1
f 15/16/5 17/19/5 16/17/5
f 21/16/1 20/18/1 19/17/1
f 18/20/4 20/23/4 21/21/4
f 17/22/2 22/21/2 19/23/2
f 16/24/6 19/30/6 20/25/6
