# Blender 4.5.0 Release Candidate
# www.blender.org
o Concrete
v -4.500000 5.400001 11.000000
v -2.300000 5.400001 11.000000
v -2.300000 5.700001 11.000000
v -3.900000 5.400001 11.000000
v -3.900000 4.800001 11.000000
v -4.100000 4.800001 11.000000
v -4.000000 5.400001 6.099999
v -2.800000 5.400001 6.099999
v -4.000000 5.400001 5.900000
v -2.800000 5.400001 5.900000
v -2.800000 4.800001 6.099999
v -4.000000 4.800001 6.099999
v -2.800000 4.800001 5.900000
v -4.000000 4.800001 5.900000
v -4.000000 5.400000 2.099999
v -2.800000 5.400000 2.099999
v -4.000000 5.400000 1.900000
v -2.800000 5.400000 1.900000
v -2.800000 4.800000 2.099999
v -4.000000 4.800000 2.099999
v -2.800000 4.800000 1.900000
v -4.000000 4.800000 1.900000
v -4.000000 5.400000 -1.900000
v -2.800000 5.400000 -1.900000
v -4.000000 5.400000 -2.100000
v -2.800000 5.400000 -2.100000
v -2.800000 4.800000 -1.900000
v -4.000000 4.800000 -1.900000
v -2.800000 4.800000 -2.100000
v -4.000000 4.800000 -2.100000
v -4.000000 5.400000 -5.900001
v -2.800000 5.400000 -5.900001
v -4.000000 5.400000 -6.100000
v -2.800000 5.400000 -6.100000
v -2.800000 4.800000 -5.900001
v -4.000000 4.800000 -5.900001
v -2.800000 4.800000 -6.100000
v -4.000000 4.800000 -6.100000
v -4.500000 5.399999 -16.200001
v -2.300000 5.699998 -16.200001
v -4.000000 5.399999 -13.900000
v -4.000000 5.399999 -14.100000
v -4.000000 4.799999 -13.900000
v -4.000000 4.799999 -14.100000
v -3.900000 5.399999 -16.200001
v -3.900000 4.799999 -16.200001
v -4.100000 4.799999 -16.200001
v 2.300000 5.700001 11.000000
v 3.600000 5.400001 11.000000
v 3.400000 5.400001 11.000000
v 3.600000 4.800001 11.000000
v 3.400000 4.800001 11.000000
v 2.800000 5.400001 6.099999
v 4.500000 5.400001 6.099999
v 2.800000 5.400001 5.900000
v 4.500000 5.400001 5.900000
v 4.500000 4.800001 6.099999
v 2.800000 4.800001 6.099999
v 4.500000 4.800001 5.900000
v 2.800000 4.800001 5.900000
v 2.800000 5.400000 2.099999
v 2.800000 5.400000 1.900000
v 2.800000 4.800000 2.099999
v 2.800000 4.800000 1.900000
v 2.800000 5.400000 -1.900000
v 4.500000 5.400000 -1.900000
v 2.800000 5.400000 -2.100000
v 4.500000 5.400000 -2.100000
v 4.500000 4.800000 -1.900000
v 2.800000 4.800000 -1.900000
v 4.500000 4.800000 -2.100000
v 2.800000 4.800000 -2.100000
v 2.800000 5.400000 -5.900001
v 4.500000 5.400000 -5.900001
v 2.800000 5.400000 -6.100000
v 4.500000 5.400000 -6.100000
v 4.500000 4.800000 -5.900001
v 2.800000 4.800000 -5.900001
v 4.500000 4.800000 -6.100000
v 2.800000 4.800000 -6.100000
v 2.800000 5.399999 -9.900000
v 4.500000 5.399999 -9.900000
v 2.800000 5.399999 -10.100000
v 4.500000 5.399999 -10.100000
v 4.500000 4.799999 -9.900000
v 2.800000 4.799999 -9.900000
v 4.500000 4.799999 -10.100000
v 2.800000 4.799999 -10.100000
v 4.500000 5.399999 -16.200001
v 4.500000 5.399999 -13.900000
v 4.500000 5.399999 -14.100000
v 4.500000 4.799999 -13.900000
v 4.500000 4.799999 -14.100000
v 3.600000 5.399999 -16.200001
v 3.400000 5.399999 -16.200001
v 3.600000 4.799999 -16.200001
v 3.400000 4.799999 -16.200001
v 2.300000 5.399999 -12.799999
v 2.300000 5.399999 -16.200001
v 2.300000 5.699999 -12.799999
v 2.300000 5.699998 -16.200001
v 2.100000 5.399999 -13.700001
v 2.100000 5.399999 -16.200001
v 1.900000 5.399999 -13.700001
v 1.900000 5.399999 -16.200001
v 2.100000 4.799999 -16.200001
v 2.100000 4.799999 -13.700001
v 1.900000 4.799999 -16.200001
v 1.900000 4.799999 -13.700001
v -2.300000 5.399999 -12.799999
v -2.300000 5.399999 -16.200001
v -2.300000 5.699999 -12.799999
v 4.000000 4.900001 13.000000
v 4.000000 4.900000 -4.000000
v 18.000000 4.900000 -4.000000
v 4.500000 5.400000 2.099999
v 4.500000 5.400000 1.900000
v 4.500000 4.800000 2.099999
v 4.500000 4.800000 1.900000
v -4.000000 5.400001 9.900000
v -4.000000 4.800001 10.100000
v -4.000000 4.800001 9.900000
v 4.500000 5.400001 10.100000
v 4.500000 5.400001 9.900000
v 4.500000 4.800001 10.100000
v 4.500000 4.800001 9.900000
v 2.300000 5.400001 8.800000
v 2.300000 5.700000 8.800000
v 2.100000 5.400001 11.000000
v 2.100000 5.400001 9.700000
v 1.900000 5.400001 11.000000
v 1.900000 5.400001 9.700000
v 2.100000 4.800001 9.700000
v 2.100000 4.800001 11.000000
v 1.900000 4.800001 9.700000
v 1.900000 4.800001 11.000000
v -2.500000 5.400001 11.000001
v -2.500000 5.400001 8.800000
v -2.500000 5.700000 8.800000
v -1.900000 5.399999 -13.700001
v -1.900000 5.399999 -16.200001
v -2.100000 5.399999 -13.700001
v -2.100000 5.399999 -16.200001
v -1.900000 4.799999 -16.200001
v -1.900000 4.799999 -13.700001
v -2.100000 4.799999 -16.200001
v -2.100000 4.799999 -13.700001
v -1.900000 5.400001 11.000000
v -1.900000 5.400001 9.700000
v -2.100000 5.400001 11.000000
v -2.100000 5.400001 9.700000
v -1.900000 4.800001 9.700000
v -1.900000 4.800001 11.000000
v -2.100000 4.800001 9.700000
v -2.100000 4.800001 11.000000
v 2.300000 5.400001 11.000000
v 4.500000 5.400001 11.000000
v 7.300000 7.400000 -14.800000
v 7.300000 7.399999 -30.200001
v 7.300000 8.699999 -14.800000
v 2.100000 7.400000 -15.400002
v 2.100000 7.399999 -30.200001
v 1.900000 7.400000 -15.400002
v 1.900000 7.399999 -30.200001
v 2.100000 6.799998 -30.200001
v 2.100000 6.799999 -15.400002
v 1.900000 6.799998 -30.200001
v 1.900000 6.799999 -15.400002
v -7.300000 7.400000 -14.800000
v -7.300000 7.399999 -30.200001
v -7.300000 8.699999 -14.800000
v -1.900000 7.400000 -15.400002
v -1.900000 7.399999 -30.200001
v -2.100000 7.400000 -15.400002
v -2.100000 7.399999 -30.200001
v -1.900000 6.799998 -30.200001
v -1.900000 6.799999 -15.400002
v -2.100000 6.799998 -30.200001
v -2.100000 6.799999 -15.400002
v -7.000000 7.400000 -19.900000
v -7.000000 7.400000 -20.100000
v -7.000000 6.799999 -19.900000
v -7.000000 6.799999 -20.100000
v 7.000000 7.400000 -19.900000
v 7.000000 7.400000 -20.100000
v 7.000000 6.799999 -19.900000
v 7.000000 6.799999 -20.100000
v -7.000000 7.400000 -15.900001
v -7.000000 7.400000 -16.100000
v -7.000000 6.799999 -15.900001
v -7.000000 6.799999 -16.100000
v 7.000000 7.400000 -15.900001
v 7.000000 7.400000 -16.100000
v 7.000000 6.799999 -15.900001
v 7.000000 6.799999 -16.100000
v -7.000000 7.399999 -23.900000
v -7.000000 7.399999 -24.099998
v -7.000000 6.799998 -23.900000
v -7.000000 6.799998 -24.099998
v 7.000000 7.399999 -23.900000
v 7.000000 7.399999 -24.099998
v 7.000000 6.799998 -23.900000
v 7.000000 6.799998 -24.099998
v -7.000000 7.399999 -27.900002
v -7.000000 7.399999 -28.099998
v -7.000000 6.799998 -27.900002
v -7.000000 6.799998 -28.099998
v 7.000000 7.399999 -27.900002
v 7.000000 7.399999 -28.099998
v 7.000000 6.799998 -27.900002
v 7.000000 6.799998 -28.099998
v -7.000000 7.399999 -29.900002
v -7.000000 6.799998 -29.900002
v -7.000000 6.799998 -30.099998
v 7.000000 7.399999 -29.900002
v 7.000000 6.799998 -29.900002
v 7.000000 6.799998 -30.099998
v -5.900000 7.400000 -15.400002
v -5.900000 7.399999 -30.200001
v -6.100000 7.400000 -15.400002
v -5.900000 6.799998 -30.200001
v -5.900000 6.799999 -15.400002
v -6.100000 6.799998 -30.200001
v -6.100000 6.799999 -15.400002
v 6.100000 7.400000 -15.400002
v 5.900000 7.400000 -15.400002
v 5.900000 7.399999 -30.200001
v 6.100000 6.799998 -30.200001
v 6.100000 6.799999 -15.400002
v 5.900000 6.799998 -30.200001
v 5.900000 6.799999 -15.400002
v -4.000000 4.800000 -10.100000
v -2.800000 4.800000 -10.100000
v -4.000000 4.800000 -9.900000
v -2.800000 4.800000 -9.900000
v -2.800000 5.400000 -10.100000
v -4.000000 5.400000 -10.100000
v -2.800000 5.400000 -9.900000
v -4.000000 5.400000 -9.900000
v 6.200000 4.900001 3.900000
v 15.799999 4.900001 3.900000
v 15.799999 4.900001 4.100000
v 6.200000 4.900001 4.100000
v 18.000000 4.300001 3.900000
v 18.000000 4.300001 4.100000
v 18.000000 4.900001 3.900000
v 18.000000 4.900001 4.100000
v 4.000000 4.300001 3.900000
v 4.000000 4.300001 4.100000
v 6.200000 4.300001 3.900000
v 4.000000 4.900001 3.900000
v 7.100000 4.900000 -4.000000
v 6.900000 4.900000 -4.000000
v 7.100000 4.300000 -4.000000
v 6.900000 4.300000 -4.000000
v 11.100000 4.900000 -1.700000
v 10.900000 4.900000 -1.700000
v 11.100000 4.300000 -1.700000
v 10.900000 4.300000 -1.700000
v 11.100000 4.900000 -4.000000
v 10.900000 4.900000 -4.000000
v 11.100000 4.300000 -4.000000
v 10.900000 4.300000 -4.000000
v 15.100000 4.900000 -1.700000
v 14.900000 4.900000 -1.700000
v 15.100000 4.300000 -1.700000
v 14.900000 4.300000 -1.700000
v 15.100000 4.900000 -4.000000
v 14.900000 4.900000 -4.000000
v 15.100000 4.300000 -4.000000
v 14.900000 4.300000 -4.000000
v 4.000000 4.900001 8.100000
v 4.000000 4.900001 7.900000
v 4.000000 4.300001 8.100000
v 4.000000 4.300001 7.900000
v 18.000000 4.900001 8.100000
v 18.000000 4.900001 7.900000
v 18.000000 4.300001 8.100000
v 18.000000 4.300001 7.900000
v 4.000000 4.900001 11.900000
v 4.000000 4.300001 12.100000
v 4.000000 4.300001 11.900000
v 18.000000 4.900001 11.900000
v 18.000000 4.300001 12.100000
v 18.000000 4.300001 11.900000
v 6.200000 4.900001 8.100000
v 15.799999 4.900001 8.100000
v 15.799999 4.900001 7.900000
v 6.200000 4.900001 7.900000
v 15.799999 4.300001 8.100000
v 6.200000 4.300001 8.100000
v 15.799999 4.300001 7.900000
v 6.200000 4.300001 7.900000
v 16.900000 4.900001 13.000000
v 17.100000 4.300001 13.000000
v 16.900000 4.300001 13.000000
v 16.900000 4.900000 -4.000000
v 17.100000 4.300000 -4.000000
v 16.900000 4.300000 -4.000000
v 4.000000 4.900000 -3.900000
v 4.000000 4.300000 -3.900000
v 4.000000 4.300000 -4.100000
v 18.000000 4.900000 -3.900000
v 18.000000 4.300000 -3.900000
v 18.000000 4.300000 -4.100000
v 15.799999 4.300001 3.900000
v 6.200000 4.300001 4.100000
v 4.000000 4.900001 4.100000
v 15.799999 4.300001 4.100000
v 11.100000 4.900001 10.800000
v 10.900000 4.900001 10.800000
v 11.100000 4.300001 10.800000
v 10.900000 4.300001 10.800000
v 15.100000 4.900001 10.800000
v 14.900000 4.900001 10.800000
v 15.100000 4.300001 10.800000
v 14.900000 4.300001 10.800000
v 7.100000 4.900001 13.000000
v 6.900000 4.900001 13.000000
v 7.100000 4.300001 13.000000
v 6.900000 4.300001 13.000000
v 11.100000 4.900001 13.000000
v 10.900000 4.900001 13.000000
v 11.100000 4.300001 13.000000
v 10.900000 4.300001 13.000000
v 15.100000 4.900001 13.000000
v 14.900000 4.900001 13.000000
v 15.100000 4.300001 13.000000
v 14.900000 4.300001 13.000000
v 18.000000 4.900001 13.000000
v 8.700000 4.900001 9.300000
v 8.700000 5.200000 9.300000
v 15.299999 5.200000 9.300000
v 15.299999 4.900001 9.300000
v 8.700000 4.900000 -1.200000
v 8.700000 5.200000 -1.200000
v 15.299999 5.200000 -1.200000
v 15.299999 4.900000 -1.200000
v 5.100000 4.900001 13.000000
v 4.900000 4.900001 13.000000
v 5.100000 4.300001 13.000000
v 4.900000 4.300001 13.000000
v 5.100000 4.900000 -4.000000
v 4.900000 4.900000 -4.000000
v 5.100000 4.300000 -4.000000
v 4.900000 4.300000 -4.000000
vn -0.0000 -0.0000 -1.0000
vn -0.0000 -0.0000 1.0000
vn 1.0000 -0.0000 -0.0000
vn -1.0000 -0.0000 -0.0000
vn -0.0000 -1.0000 -0.0000
vt 0.430140 0.539920
vt 0.709581 0.547904
vt 0.709581 0.539920
vt 0.867265 0.488024
vt 0.871258 0.480040
vt 0.871258 0.488024
vt 0.440120 0.488024
vt 0.484032 0.480040
vt 0.484032 0.488024
vt 0.641717 0.500000
vt 0.637725 0.507984
vt 0.637725 0.500000
vt 0.498004 0.480040
vt 0.501996 0.488024
vt 0.501996 0.480040
vt 0.607784 0.500000
vt 0.611776 0.507984
vt 0.611776 0.500000
vt 0.615768 0.484032
vt 0.519960 0.440120
vt 0.519960 0.484032
vt 0.659681 0.500000
vt 0.625749 0.507984
vt 0.625749 0.500000
vt 0.649701 0.440120
vt 0.649701 0.659681
vt 0.703593 0.494012
vt 0.492016 0.440120
vt 0.488024 0.983034
vt 0.492016 0.983034
vt 0.430140 0.547904
vt 0.659681 0.480040
vt 0.659681 0.488024
vt 0.533932 0.480040
vt 0.693613 0.498004
vt 0.649701 0.501996
vt 0.693613 0.501996
vt 0.777445 0.500000
vt 0.781437 0.507984
vt 0.781437 0.500000
vt 0.659681 0.507984
vt 0.460080 0.480040
vt 0.915170 0.511976
vt 0.983034 0.507984
vt 0.983034 0.511976
vt 0.925150 0.480040
vt 0.969062 0.488024
vt 0.969062 0.480040
vt 0.709581 0.977046
vt 0.430140 0.981038
vt 0.709581 0.981038
vt 0.615768 0.983034
vt 0.523952 0.915170
vt 0.523952 0.983034
vt 0.687625 1.262475
vt 0.691617 0.967066
vt 0.687625 0.967066
vt 0.607784 0.983034
vt 0.611776 0.933134
vt 0.607784 0.933134
vt 0.867265 0.480040
vt 0.649701 0.480040
vt 0.693613 0.488024
vt 0.693613 0.480040
vt 0.440120 0.480040
vt 0.440120 0.507984
vt 0.983034 0.500000
vt 0.440120 0.500000
vt 1.262475 0.539920
vt 0.967066 0.547904
vt 0.967066 0.539920
vt 0.527944 1.262475
vt 0.531936 0.967066
vt 0.527944 0.967066
vt 0.490020 0.500000
vt 0.513972 0.507984
vt 0.513972 0.500000
vt 0.480040 0.440120
vt 0.480040 0.983034
vt 0.541916 0.500000
vt 0.537924 0.507984
vt 0.537924 0.500000
vt 0.933134 0.507984
vt 0.933134 0.500000
vt 0.791417 0.659681
vt 0.787425 0.533932
vt 0.787425 0.659681
vt 0.448104 1.262475
vt 0.452096 0.967066
vt 0.448104 0.967066
vt 0.490020 0.507984
vt 0.513972 0.701597
vt 0.490020 0.697605
vt 0.490020 0.701597
vt 0.649701 0.458084
vt 0.969062 0.462076
vt 0.969062 0.458084
vt 0.951098 0.659681
vt 0.947106 0.460080
vt 0.947106 0.659681
vt 0.969062 0.659681
vt 0.915170 0.494012
vt 0.915170 0.523952
vt 0.701597 0.500000
vt 0.697605 0.507984
vt 0.697605 0.500000
vt 0.513972 0.541916
vt 0.490020 0.537924
vt 0.490020 0.541916
vt 0.787425 0.488024
vt 0.791417 0.480040
vt 0.791417 0.488024
vt 0.777445 0.507984
vt 0.466068 0.507984
vt 0.466068 0.500000
vt 0.915170 0.507984
vt 0.695609 0.551896
vt 0.444112 0.547904
vt 0.695609 0.547904
vt 0.513972 0.781437
vt 0.490020 0.777445
vt 0.490020 0.781437
vt 0.513972 0.621756
vt 0.490020 0.617764
vt 0.490020 0.621756
vt 0.611776 0.539920
vt 0.607784 0.547904
vt 0.607784 0.539920
vt 0.857285 0.500000
vt 0.861277 0.507984
vt 0.861277 0.500000
vt 0.659681 0.861277
vt 0.625749 0.857285
vt 0.625749 0.861277
vt 0.607784 1.262475
vt 0.611776 0.967066
vt 0.607784 0.967066
vt 0.659681 0.983034
vt 0.615768 0.440120
vt 0.641717 0.507984
vt 0.709581 1.056886
vt 0.430140 1.060878
vt 0.709581 1.060878
vt 0.440120 0.511976
vt 0.709581 1.216567
vt 0.430140 1.220559
vt 0.709581 1.220559
vt 0.641717 0.440120
vt 0.637725 0.983034
vt 0.641717 0.983034
vt 0.621756 0.500000
vt 0.617764 0.507984
vt 0.617764 0.500000
vt 0.709581 1.136727
vt 0.430140 1.140719
vt 0.709581 1.140719
vt 0.541916 0.507984
vt 0.659681 0.937126
vt 0.490020 0.941118
vt 0.659681 0.941118
vt 0.607784 0.507984
vt 0.452096 0.539920
vt 0.448104 0.547904
vt 0.448104 0.539920
vt 0.625749 0.617764
vt 0.659681 0.621756
vt 0.659681 0.617764
vt 0.709581 1.256487
vt 0.430140 1.260479
vt 0.709581 1.260479
vt 0.969062 0.498004
vt 0.925150 0.501996
vt 0.969062 0.501996
vt 1.262475 0.547904
vt 0.691617 0.539920
vt 0.687625 0.547904
vt 0.687625 0.539920
vt 0.871258 0.659681
vt 0.867265 0.533932
vt 0.867265 0.659681
vt 0.607784 0.466068
vt 0.611776 0.440120
vt 0.607784 0.440120
vt 0.615768 0.511976
vt 0.523952 0.507984
vt 0.615768 0.507984
vt 0.462076 0.500000
vt 0.458084 0.507984
vt 0.458084 0.500000
vt 0.498004 0.488024
vt 0.791417 0.440120
vt 0.787425 0.484032
vt 0.791417 0.484032
vt 0.523952 0.488024
vt 0.494012 0.492016
vt 0.523952 0.492016
vt 0.649701 0.657685
vt 0.969062 0.661677
vt 0.969062 0.657685
vt 0.871258 0.440120
vt 0.867265 0.484032
vt 0.871258 0.484032
vt 0.659681 0.701597
vt 0.625749 0.697605
vt 0.625749 0.701597
vt 0.527944 0.466068
vt 0.531936 0.440120
vt 0.527944 0.440120
vt 0.527944 0.500000
vt 0.531936 0.507984
vt 0.531936 0.500000
vt 0.915170 0.488024
vt 0.703593 0.492016
vt 0.915170 0.492016
vt 0.527944 0.983034
vt 0.531936 0.933134
vt 0.527944 0.933134
vt 0.621756 0.507984
vt 0.659681 0.458084
vt 0.490020 0.462076
vt 0.659681 0.462076
vt 0.659681 0.781437
vt 0.625749 0.777445
vt 0.625749 0.781437
vt 0.703593 0.488024
vt 0.695609 1.262475
vt 0.444112 0.955090
vt 0.444112 1.262475
vt 0.531936 0.539920
vt 0.527944 0.547904
vt 0.527944 0.539920
vt 0.519960 0.511976
vt 0.519960 0.507984
vt 0.711577 0.659681
vt 0.707585 0.440120
vt 0.707585 0.659681
vt 0.659681 0.541916
vt 0.625749 0.537924
vt 0.625749 0.541916
vt 0.494012 0.488024
vt 0.527944 0.507984
vt 0.701597 0.507984
vt 0.787425 0.480040
vt 0.513972 0.777445
vt 0.703593 0.523952
vt 0.969062 0.440120
vt 0.488024 0.440120
vt 0.533932 0.488024
vt 0.649701 0.498004
vt 0.460080 0.488024
vt 0.925150 0.488024
vt 0.430140 0.977046
vt 0.615768 0.915170
vt 0.691617 1.262475
vt 0.611776 0.983034
vt 0.649701 0.488024
vt 0.531936 1.262475
vt 0.523952 0.440120
vt 0.791417 0.533932
vt 0.452096 1.262475
vt 0.513972 0.697605
vt 0.649701 0.462076
vt 0.951098 0.460080
vt 0.513972 0.537924
vt 0.444112 0.551896
vt 0.513972 0.617764
vt 0.611776 0.547904
vt 0.857285 0.507984
vt 0.659681 0.857285
vt 0.611776 1.262475
vt 0.659681 0.440120
vt 0.430140 1.056886
vt 0.430140 1.216567
vt 0.637725 0.440120
vt 0.430140 1.136727
vt 0.490020 0.937126
vt 0.452096 0.547904
vt 0.625749 0.621756
vt 0.430140 1.256487
vt 0.925150 0.498004
vt 0.691617 0.547904
vt 0.871258 0.533932
vt 0.611776 0.466068
vt 0.523952 0.511976
vt 0.462076 0.507984
vt 0.787425 0.440120
vt 0.649701 0.661677
vt 0.867265 0.440120
vt 0.659681 0.697605
vt 0.531936 0.466068
vt 0.531936 0.983034
vt 0.490020 0.458084
vt 0.659681 0.777445
vt 0.695609 0.955090
vt 0.531936 0.547904
vt 0.711577 0.440120
vt 0.659681 0.537924
s 0
f 191/1/1 193/2/1 195/3/1
f 265/4/2 266/5/2 264/6/2
f 322/7/3 312/8/3 310/9/3
f 51/10/2 50/11/2 52/12/2
f 309/13/4 241/14/4 306/15/4
f 135/16/1 130/17/1 133/18/1
f 127/19/5 137/20/5 138/21/5
f 77/22/2 73/23/2 78/24/2
f 113/25/5 114/26/5 331/27/5
f 5/28/5 47/29/5 46/30/5
f 207/1/1 209/2/1 211/3/1
f 194/3/2 188/31/2 190/1/2
f 318/7/3 254/32/3 252/33/3
f 268/33/3 266/34/3 270/32/3
f 307/35/5 248/36/5 250/37/5
f 78/38/4 75/39/4 80/40/4
f 80/24/1 76/41/1 79/22/1
f 343/33/3 341/42/3 345/32/3
f 100/43/3 99/44/3 101/45/3
f 292/46/1 277/47/1 279/48/1
f 116/41/2 63/24/2 118/22/2
f 210/3/2 204/31/2 206/1/2
f 194/49/5 191/50/5 195/51/5
f 99/52/5 110/53/5 111/54/5
f 247/47/2 309/46/2 245/48/2
f 230/55/5 229/56/5 231/57/5
f 108/58/5 107/59/5 109/60/5
f 315/4/1 316/5/1 317/61/1
f 275/62/1 289/63/1 293/64/1
f 329/65/4 315/9/4 317/8/4
f 325/65/4 311/9/4 313/8/4
f 50/66/4 97/67/4 52/68/4
f 186/3/2 180/31/2 182/1/2
f 165/69/3 161/70/3 166/71/3
f 178/72/5 177/73/5 179/74/5
f 38/75/1 34/76/1 37/77/1
f 296/42/4 297/33/4 299/32/4
f 64/24/1 117/41/1 119/22/1
f 22/75/1 18/76/1 21/77/1
f 111/54/5 1/78/5 39/79/5
f 14/75/1 10/76/1 13/77/1
f 199/1/1 201/2/1 203/3/1
f 13/80/3 8/81/3 11/82/3
f 106/67/3 102/83/3 107/84/3
f 221/69/3 218/70/3 222/71/3
f 262/85/5 259/86/5 263/87/5
f 109/84/4 105/44/4 108/67/4
f 44/75/1 91/41/1 93/22/1
f 223/88/5 222/89/5 224/90/5
f 11/77/2 7/91/2 12/75/2
f 29/92/5 28/93/5 30/94/5
f 243/63/2 249/62/2 307/64/2
f 57/22/2 53/23/2 58/24/2
f 88/24/1 84/41/1 87/22/1
f 19/77/2 15/91/2 20/75/2
f 281/95/5 285/96/5 284/97/5
f 290/13/4 288/14/4 292/15/4
f 276/47/2 290/46/2 278/48/2
f 298/98/5 296/99/5 299/100/5
f 115/101/5 334/102/5 338/103/5
f 29/104/3 24/105/3 27/106/3
f 69/22/2 65/23/2 70/24/2
f 13/107/5 12/108/5 14/109/5
f 40/45/3 2/66/3 111/44/3
f 257/110/2 258/111/2 256/112/2
f 37/40/3 32/113/3 35/38/3
f 92/22/2 41/91/2 43/75/2
f 45/44/3 5/68/3 46/67/3
f 72/24/1 68/41/1 71/22/1
f 155/68/4 151/114/4 154/115/4
f 342/42/4 344/33/4 346/32/4
f 40/45/4 110/116/4 112/43/4
f 160/117/2 169/118/2 158/119/2
f 37/120/5 36/121/5 38/122/5
f 21/123/5 20/124/5 22/125/5
f 166/126/2 163/127/2 168/128/2
f 85/22/2 81/23/2 86/24/2
f 345/98/5 342/99/5 346/100/5
f 86/129/4 83/130/4 88/131/4
f 176/69/3 172/70/3 177/71/3
f 87/132/5 86/133/5 88/134/5
f 167/135/5 166/136/5 168/137/5
f 122/75/1 124/41/1 126/22/1
f 89/138/5 156/139/5 99/52/5
f 27/77/2 23/91/2 28/75/2
f 97/12/1 94/140/1 96/10/1
f 186/141/5 183/142/5 187/143/5
f 183/1/1 185/2/1 187/3/1
f 216/3/2 212/31/2 213/1/2
f 101/45/4 156/66/4 48/144/4
f 210/145/5 207/146/5 211/147/5
f 51/148/5 97/149/5 96/150/5
f 260/33/3 258/34/3 262/32/3
f 21/151/3 16/152/3 19/153/3
f 202/154/5 199/155/5 203/156/5
f 202/3/2 196/31/2 198/1/2
f 60/24/1 56/41/1 59/22/1
f 58/82/4 55/157/4 60/80/4
f 92/158/5 44/159/5 93/160/5
f 107/18/2 104/161/2 109/16/2
f 108/16/1 103/17/1 106/18/1
f 222/162/2 220/163/2 224/164/2
f 63/165/5 119/166/5 118/167/5
f 216/168/5 214/169/5 217/170/5
f 286/63/2 274/62/2 291/64/2
f 278/171/5 292/172/5 279/173/5
f 94/44/3 51/68/3 96/67/3
f 306/46/1 246/47/1 244/48/1
f 245/171/5 306/172/5 244/173/5
f 231/71/4 227/174/4 230/69/4
f 229/175/2 226/176/2 231/177/2
f 30/75/1 26/76/1 29/77/1
f 267/34/4 269/33/4 271/32/4
f 270/178/5 267/179/5 271/180/5
f 282/62/1 283/47/1 285/48/1
f 135/181/5 134/182/5 136/183/5
f 100/184/2 110/185/2 98/186/2
f 126/187/3 123/188/3 125/189/3
f 286/190/3 293/15/3 289/14/3
f 291/35/5 275/36/5 293/37/5
f 324/191/5 313/192/5 312/193/5
f 338/194/4 333/195/4 337/196/4
f 301/197/5 305/198/5 304/199/5
f 248/62/1 240/63/1 250/64/1
f 328/200/5 317/201/5 316/202/5
f 71/203/5 70/204/5 72/205/5
f 243/190/3 250/15/3 240/14/3
f 303/47/2 301/62/2 304/48/2
f 326/7/3 316/8/3 314/9/3
f 144/67/3 140/83/3 145/84/3
f 133/115/3 129/66/3 134/68/3
f 154/206/5 153/207/5 155/208/5
f 147/84/4 143/44/4 146/67/4
f 321/65/4 253/33/4 255/32/4
f 146/209/1 141/210/1 144/211/1
f 136/68/4 132/114/4 135/115/4
f 334/212/1 332/213/1 333/214/1
f 146/215/5 145/216/5 147/217/5
f 63/153/4 62/218/4 64/151/4
f 125/219/5 122/220/5 126/221/5
f 79/222/5 78/223/5 80/224/5
f 154/209/1 149/210/1 152/211/1
f 152/115/3 148/66/3 153/68/3
f 335/225/2 337/214/2 336/213/2
f 159/226/5 169/227/5 170/228/5
f 179/71/4 175/174/4 178/69/4
f 177/229/2 174/230/2 179/231/2
f 168/71/4 164/174/4 167/69/4
f 139/232/1 127/186/1 138/233/1
f 254/234/5 321/235/5 255/236/5
f 59/237/5 58/238/5 60/239/5
f 331/240/3 336/196/3 332/195/3
f 259/34/4 261/33/4 263/32/4
f 239/91/2 235/77/2 238/76/2
f 238/113/3 233/40/3 236/39/3
f 145/211/2 142/241/2 147/209/2
f 70/106/4 67/242/4 72/104/4
f 311/110/1 312/111/1 313/243/1
f 236/76/1 232/75/1 237/91/1
f 35/77/2 31/91/2 36/75/2
f 234/121/5 233/120/5 235/244/5
f 191/1/1 189/31/1 193/2/1
f 265/4/2 267/61/2 266/5/2
f 322/7/3 324/65/3 312/8/3
f 51/10/2 49/140/2 50/11/2
f 309/13/4 242/190/4 241/14/4
f 135/16/1 132/161/1 130/17/1
f 127/19/5 156/139/5 137/20/5
f 77/22/2 74/41/2 73/23/2
f 114/26/5 115/101/5 338/103/5
f 114/26/5 338/103/5 335/245/5
f 334/102/5 330/246/5 113/25/5
f 114/26/5 335/245/5 331/27/5
f 331/27/5 334/102/5 113/25/5
f 5/28/5 6/247/5 47/29/5
f 207/1/1 205/31/1 209/2/1
f 194/3/2 192/2/2 188/31/2
f 318/7/3 320/65/3 254/32/3
f 268/33/3 264/248/3 266/34/3
f 307/35/5 249/249/5 248/36/5
f 78/38/4 73/113/4 75/39/4
f 80/24/1 75/23/1 76/41/1
f 343/33/3 339/250/3 341/42/3
f 100/43/3 98/116/3 99/44/3
f 292/46/1 288/251/1 277/47/1
f 116/41/2 61/23/2 63/24/2
f 210/3/2 208/2/2 204/31/2
f 194/49/5 190/252/5 191/50/5
f 99/52/5 98/253/5 110/53/5
f 247/47/2 242/251/2 309/46/2
f 230/55/5 228/254/5 229/56/5
f 108/58/5 106/255/5 107/59/5
f 315/4/1 314/6/1 316/5/1
f 275/62/1 273/256/1 289/63/1
f 329/65/4 327/7/4 315/9/4
f 325/65/4 323/7/4 311/9/4
f 50/66/4 95/44/4 97/67/4
f 186/3/2 184/2/2 180/31/2
f 165/69/3 162/174/3 161/70/3
f 178/72/5 176/257/5 177/73/5
f 38/75/1 33/91/1 34/76/1
f 296/42/4 294/250/4 297/33/4
f 64/24/1 62/23/1 117/41/1
f 22/75/1 17/91/1 18/76/1
f 111/54/5 2/258/5 1/78/5
f 14/75/1 9/91/1 10/76/1
f 199/1/1 197/31/1 201/2/1
f 13/80/3 10/157/3 8/81/3
f 106/67/3 103/44/3 102/83/3
f 221/69/3 219/174/3 218/70/3
f 262/85/5 258/259/5 259/86/5
f 109/84/4 104/83/4 105/44/4
f 44/75/1 42/91/1 91/41/1
f 223/88/5 221/260/5 222/89/5
f 11/77/2 8/76/2 7/91/2
f 29/92/5 27/261/5 28/93/5
f 243/63/2 308/256/2 249/62/2
f 57/22/2 54/41/2 53/23/2
f 88/24/1 83/23/1 84/41/1
f 19/77/2 16/76/2 15/91/2
f 281/95/5 282/262/5 285/96/5
f 290/13/4 287/190/4 288/14/4
f 276/47/2 287/251/2 290/46/2
f 298/98/5 295/263/5 296/99/5
f 115/101/5 330/246/5 334/102/5
f 29/104/3 26/242/3 24/105/3
f 69/22/2 66/41/2 65/23/2
f 13/107/5 11/264/5 12/108/5
f 40/45/3 3/144/3 2/66/3
f 257/110/2 259/243/2 258/111/2
f 37/40/3 34/39/3 32/113/3
f 92/22/2 90/41/2 41/91/2
f 45/44/3 4/66/3 5/68/3
f 72/24/1 67/23/1 68/41/1
f 155/68/4 150/66/4 151/114/4
f 342/42/4 340/250/4 344/33/4
f 40/45/4 111/44/4 110/116/4
f 160/117/2 171/265/2 169/118/2
f 37/120/5 35/244/5 36/121/5
f 21/123/5 19/266/5 20/124/5
f 166/126/2 161/267/2 163/127/2
f 85/22/2 82/41/2 81/23/2
f 345/98/5 341/263/5 342/99/5
f 86/129/4 81/268/4 83/130/4
f 176/69/3 173/174/3 172/70/3
f 87/132/5 85/269/5 86/133/5
f 167/135/5 165/270/5 166/136/5
f 122/75/1 120/91/1 124/41/1
f 89/138/5 157/271/5 156/139/5
f 27/77/2 24/76/2 23/91/2
f 97/12/1 95/11/1 94/140/1
f 186/141/5 182/272/5 183/142/5
f 183/1/1 181/31/1 185/2/1
f 216/3/2 215/2/2 212/31/2
f 101/45/4 99/44/4 156/66/4
f 210/145/5 206/273/5 207/146/5
f 51/148/5 52/274/5 97/149/5
f 260/33/3 256/248/3 258/34/3
f 21/151/3 18/218/3 16/152/3
f 202/154/5 198/275/5 199/155/5
f 202/3/2 200/2/2 196/31/2
f 60/24/1 55/23/1 56/41/1
f 58/82/4 53/81/4 55/157/4
f 92/158/5 43/276/5 44/159/5
f 107/18/2 102/17/2 104/161/2
f 108/16/1 105/161/1 103/17/1
f 222/162/2 218/277/2 220/163/2
f 63/165/5 64/278/5 119/166/5
f 216/168/5 213/279/5 214/169/5
f 286/63/2 272/256/2 274/62/2
f 278/171/5 290/280/5 292/172/5
f 94/44/3 49/66/3 51/68/3
f 306/46/1 241/251/1 246/47/1
f 245/171/5 309/280/5 306/172/5
f 231/71/4 226/70/4 227/174/4
f 229/175/2 225/281/2 226/176/2
f 30/75/1 25/91/1 26/76/1
f 267/34/4 265/248/4 269/33/4
f 270/178/5 266/282/5 267/179/5
f 282/62/1 280/256/1 283/47/1
f 135/181/5 133/283/5 134/182/5
f 100/184/2 112/284/2 110/185/2
f 126/187/3 124/285/3 123/188/3
f 286/190/3 291/13/3 293/15/3
f 291/35/5 274/249/5 275/36/5
f 324/191/5 325/286/5 313/192/5
f 338/194/4 334/240/4 333/195/4
f 301/197/5 302/287/5 305/198/5
f 248/62/1 251/256/1 240/63/1
f 328/200/5 329/288/5 317/201/5
f 71/203/5 69/289/5 70/204/5
f 243/190/3 307/13/3 250/15/3
f 303/47/2 300/256/2 301/62/2
f 326/7/3 328/65/3 316/8/3
f 144/67/3 141/44/3 140/83/3
f 133/115/3 130/114/3 129/66/3
f 154/206/5 152/290/5 153/207/5
f 147/84/4 142/83/4 143/44/4
f 321/65/4 319/7/4 253/33/4
f 146/209/1 143/241/1 141/210/1
f 136/68/4 131/66/4 132/114/4
f 334/212/1 331/225/1 332/213/1
f 146/215/5 144/291/5 145/216/5
f 63/153/4 61/152/4 62/218/4
f 125/219/5 121/292/5 122/220/5
f 79/222/5 77/293/5 78/223/5
f 154/209/1 151/241/1 149/210/1
f 152/115/3 149/114/3 148/66/3
f 335/225/2 338/212/2 337/214/2
f 159/226/5 158/294/5 169/227/5
f 179/71/4 174/70/4 175/174/4
f 177/229/2 172/295/2 174/230/2
f 168/71/4 163/70/4 164/174/4
f 139/232/1 128/184/1 127/186/1
f 254/234/5 320/296/5 321/235/5
f 59/237/5 57/297/5 58/238/5
f 331/240/3 335/194/3 336/196/3
f 259/34/4 257/248/4 261/33/4
f 239/91/2 234/75/2 235/77/2
f 238/113/3 235/38/3 233/40/3
f 145/211/2 140/210/2 142/241/2
f 70/106/4 65/105/4 67/242/4
f 311/110/1 310/112/1 312/111/1
f 236/76/1 233/77/1 232/75/1
f 35/77/2 32/76/2 31/91/2
f 234/121/5 232/122/5 233/120/5
o Concrete.001
v -3.000000 0.000001 10.000000
v 3.000000 0.000001 10.000000
v -3.000000 -0.000001 -14.000000
v 3.000000 -0.000001 -14.000000
v 3.000000 0.000000 2.800000
v 3.000000 0.000000 4.800000
v 6.000000 0.000000 2.800000
v 6.000000 0.000000 4.800000
v 2.200000 -0.000001 -14.000000
v -2.200000 -0.000001 -14.000000
v 2.200000 -0.000001 -17.000000
v -2.200000 -0.000001 -17.000000
v 6.000000 -0.400001 -17.000000
v -6.000000 -0.400001 -17.000000
v 6.000000 -0.400002 -29.000000
v -6.000000 -0.400002 -29.000000
v 2.600000 -0.000001 -17.000000
v -2.600000 -0.000001 -17.000000
v 2.600000 -0.000001 -17.400000
v -2.600000 -0.000001 -17.400000
v -2.600000 -0.100001 -17.000000
v 2.600000 -0.100001 -17.000000
v -2.600000 -0.100001 -17.400000
v 2.600000 -0.100001 -17.400000
v 3.000000 -0.200001 -17.000000
v -3.000000 -0.200001 -17.000000
v 3.000000 -0.200001 -17.799999
v -3.000000 -0.200001 -17.799999
v -3.000000 -0.300001 -17.000000
v 3.000000 -0.300001 -17.000000
v -3.000000 -0.300001 -17.799999
v 3.000000 -0.300001 -17.799999
v 6.000000 0.000000 -2.000000
v 16.000000 0.000000 12.000000
v 16.000000 0.000000 -2.000000
v 6.000000 0.000000 12.000000
v 16.000000 0.000001 6.800000
v 16.000000 0.000001 8.800000
v 17.000000 0.000001 6.800000
v 17.000000 0.000001 8.800000
v -4.000000 0.000001 -9.000000
v -3.000000 0.000001 -9.000000
v -4.000000 -0.000001 -11.000000
v -3.000000 -0.000001 -11.000000
vn -0.0000 -0.0000 -1.0000
vn -0.0000 1.0000 -0.0000
vn -1.0000 -0.0000 -0.0000
vn 1.0000 -0.0000 -0.0000
vt 0.541667 0.430208
vt 0.666667 0.432292
vt 0.666667 0.430208
vt 1.000000 0.118750
vt 0.979167 0.160417
vt 0.979167 0.118750
vt 0.550000 0.434375
vt 0.658333 0.436458
vt 0.658333 0.434375
vt 0.656250 0.430208
vt 0.672917 0.432292
vt 0.672917 0.430208
vt 0.666667 0.593750
vt 0.541667 0.093750
vt 0.666667 0.093750
vt 0.729167 0.202083
vt 0.666667 0.243750
vt 0.666667 0.202083
vt 0.656250 0.434375
vt 0.664583 0.436458
vt 0.664583 0.434375
vt 0.656250 0.436458
vt 0.666667 0.672917
vt 0.541667 0.656250
vt 0.666667 0.656250
vt 0.558333 0.656250
vt 0.650000 0.593750
vt 0.650000 0.656250
vt 0.658333 0.664583
vt 0.550000 0.656250
vt 0.658333 0.656250
vt 0.656250 0.432292
vt 0.729167 0.906250
vt 0.479167 0.656250
vt 0.729167 0.656250
vt 0.979167 0.260417
vt 0.729167 0.189583
vt 0.979167 0.189583
vt 0.541667 0.432292
vt 1.000000 0.160417
vt 0.550000 0.436458
vt 0.541667 0.593750
vt 0.729167 0.243750
vt 0.541667 0.672917
vt 0.558333 0.593750
vt 0.550000 0.664583
vt 0.479167 0.906250
vt 0.729167 0.260417
s 0
f 377/298/6 373/299/6 378/300/6
f 386/301/7 383/302/7 384/303/7
f 369/304/6 365/305/6 370/306/6
f 375/307/8 374/308/8 377/309/8
f 350/310/7 347/311/7 348/312/7
f 354/313/7 351/314/7 352/315/7
f 367/316/8 366/317/8 369/318/8
f 370/318/9 363/319/9 368/316/9
f 373/320/7 372/321/7 371/322/7
f 358/323/7 355/324/7 357/325/7
f 365/326/7 364/327/7 363/328/7
f 378/309/9 371/329/9 376/307/9
f 361/330/7 360/331/7 359/332/7
f 381/333/7 382/334/7 380/335/7
f 390/310/7 387/311/7 388/312/7
f 377/298/6 374/336/6 373/299/6
f 386/301/7 385/337/7 383/302/7
f 369/304/6 366/338/6 365/305/6
f 375/307/8 372/329/8 374/308/8
f 350/310/7 349/339/7 347/311/7
f 354/313/7 353/340/7 351/314/7
f 367/316/8 364/319/8 366/317/8
f 370/318/9 365/317/9 363/319/9
f 373/320/7 374/341/7 372/321/7
f 358/323/7 356/342/7 355/324/7
f 365/326/7 366/343/7 364/327/7
f 378/309/9 373/308/9 371/329/9
f 361/330/7 362/344/7 360/331/7
f 381/333/7 379/345/7 382/334/7
f 390/310/7 389/339/7 387/311/7
