# Blender 4.3.2
# www.blender.org
o Boards
v 2.700000 0.000000 9.900000
v 2.900000 0.000000 9.900000
v 2.700000 0.000000 4.800000
v 2.900000 0.000000 4.800000
v 2.700000 0.000000 2.800001
v 2.900000 0.000000 2.800001
v 2.700000 0.000000 -3.199998
v 2.900000 0.000000 -3.199998
v 2.700000 0.000000 -3.299999
v 2.900000 0.000000 -3.299999
v 2.700000 0.000000 -12.999998
v 2.900000 0.000000 -12.999998
v 2.700000 4.000000 4.800000
v 2.700000 4.000000 9.900000
v 2.900000 4.000000 9.900000
v 2.900000 4.000000 4.800000
v 2.700000 4.000000 2.800001
v 2.900000 4.000000 2.800001
v 2.700000 4.000000 -3.199998
v 2.900000 4.000000 -3.199998
v 2.900000 4.000000 -3.299999
v 2.700000 4.000000 -3.299999
v 2.900000 4.000000 -12.999998
v 2.700000 4.000000 -12.999998
v -2.900000 0.000000 7.900000
v -2.700000 0.000000 7.900000
v -2.900000 0.000000 2.900001
v -2.700000 0.000000 2.900001
v -2.900000 0.000000 2.800001
v -2.700000 0.000000 2.800001
v -2.900000 0.000000 0.800002
v -2.700000 0.000000 0.800002
v -2.900000 0.000000 -3.299999
v -2.700000 0.000000 -3.299999
v -2.900000 0.000000 -7.999999
v -2.700000 0.000000 -7.999999
v -2.900000 4.000000 2.900001
v -2.900000 4.000000 7.900000
v -2.700000 4.000000 7.900000
v -2.700000 4.000000 2.900001
v -2.900000 4.000000 2.800001
v -2.700000 4.000000 2.800001
v -2.900000 4.000000 0.800002
v -2.700000 4.000000 0.800002
v -2.700000 4.000000 -3.299999
v -2.900000 4.000000 -3.299999
v -2.700000 4.000000 -7.999999
v -2.900000 4.000000 -7.999999
v -2.900000 0.000000 0.700000
v -2.700000 0.000000 0.700000
v -2.900000 0.000000 -3.199998
v -2.700000 0.000000 -3.199998
v -2.900000 4.000000 0.700000
v -2.700000 4.000000 0.700000
v -2.900000 4.000000 -3.199998
v -2.700000 4.000000 -3.199998
v -2.900000 0.000000 9.900000
v -2.700000 0.000000 9.900000
v -2.900000 0.000000 8.000000
v -2.700000 0.000000 8.000000
v -2.900000 4.000000 8.000000
v -2.900000 4.000000 9.900000
v -2.700000 4.000000 9.900000
v -2.700000 4.000000 8.000000
v -3.100001 0.000000 -9.099998
v -3.100001 0.000000 -9.299999
v -9.499998 0.000000 -9.099998
v -9.499998 0.000000 -9.299999
v -3.100001 4.000000 -9.299999
v -3.100001 4.000000 -9.099998
v -9.499998 4.000000 -9.299999
v -9.499998 4.000000 -9.099998
v -9.599999 0.000000 -9.099998
v -9.599999 0.000000 -9.299999
v -15.999997 0.000000 -9.099998
v -15.999997 0.000000 -9.299999
v -9.599999 4.000000 -9.299999
v -9.599999 4.000000 -9.099998
v -15.999997 4.000000 -9.299999
v -15.999997 4.000000 -9.099998
v -16.100000 0.000000 -9.099998
v -16.100000 0.000000 -9.299999
v -22.499998 0.000000 -9.099998
v -22.499998 0.000000 -9.299999
v -16.100000 4.000000 -9.299999
v -16.100000 4.000000 -9.099998
v -22.499998 4.000000 -9.299999
v -22.499998 4.000000 -9.099998
v -22.600000 0.000000 -9.099998
v -22.600000 0.000000 -9.299999
v -28.999998 0.000000 -9.099998
v -28.999998 0.000000 -9.299999
v -22.600000 4.000000 -9.299999
v -22.600000 4.000000 -9.099998
v -28.999998 4.000000 -9.299999
v -28.999998 4.000000 -9.099998
v -5.899999 -0.400000 -24.199999
v -5.699999 -0.400000 -24.199999
v -5.899999 -0.400000 -28.900000
v -5.699999 -0.400000 -28.900000
v -5.699999 5.600000 -24.199999
v -5.899999 5.600000 -24.199999
v -5.699999 5.600000 -28.900000
v -5.899999 5.600000 -28.900000
v -5.899999 -0.400000 -19.400000
v -5.699999 -0.400000 -19.400000
v -5.899999 -0.400000 -24.100000
v -5.699999 -0.400000 -24.100000
v -5.699999 5.600000 -19.400000
v -5.899999 5.600000 -19.400000
v -5.699999 5.600000 -24.100000
v -5.899999 5.600000 -24.100000
v -5.899999 -0.400000 -17.100000
v -5.699999 -0.400000 -17.100000
v -5.899999 -0.400000 -19.300001
v -5.699999 -0.400000 -19.300001
v -5.699999 5.600000 -17.100000
v -5.899999 5.600000 -17.100000
v -5.699999 5.600000 -19.300001
v -5.899999 5.600000 -19.300001
v 10.899999 0.000000 2.300000
v 10.899999 0.000000 2.100000
v 6.099999 0.000000 2.300000
v 6.099999 0.000000 2.100000
v 6.099999 3.600000 2.300000
v 10.899999 3.600000 2.300000
v 10.899999 3.600000 2.100000
v 6.099999 3.600000 2.100000
v 17.199997 0.000000 2.300000
v 17.199997 0.000000 2.100000
v 13.099999 0.000000 2.300000
v 13.099999 0.000000 2.100000
v 13.099999 3.600000 2.300000
v 17.199997 3.600000 2.300000
v 17.199997 3.600000 2.100000
v 13.099999 3.600000 2.100000
v 17.699997 0.000000 5.300001
v 17.899996 0.000000 5.300001
v 17.699997 0.000000 2.100002
v 17.899996 0.000000 2.100002
v 17.699997 3.599999 2.100002
v 17.699997 3.599999 5.300001
v 17.899996 3.599999 5.300001
v 17.899996 3.599999 2.100002
v 6.099998 -0.800000 8.700001
v 6.099998 -0.800000 8.900000
v 9.299998 -0.800000 8.700000
v 9.299998 -0.800000 8.900000
v 9.299998 2.900000 8.700000
v 6.099998 2.900000 8.700001
v 6.099998 2.900000 8.900000
v 9.299998 2.900000 8.900000
v 9.399999 -0.800000 8.700001
v 9.399999 -0.800000 8.900000
v 12.599998 -0.800000 8.700000
v 12.599998 -0.800000 8.900000
v 12.599998 2.900000 8.700000
v 9.399999 2.900000 8.700001
v 9.399999 2.900000 8.900000
v 12.599998 2.900000 8.900000
v 12.699999 -0.800000 8.700001
v 12.699999 -0.800000 8.900000
v 15.899999 -0.800000 8.700000
v 15.899999 -0.800000 8.900000
v 15.899999 2.900000 8.700000
v 12.699999 2.900000 8.700001
v 12.699999 2.900000 8.900000
v 15.899999 2.900000 8.900000
v 6.299998 -0.800000 6.799999
v 6.099998 -0.800000 6.799999
v 6.299998 -0.800000 8.600000
v 6.099998 -0.800000 8.600000
v 6.299998 2.899999 8.600000
v 6.299998 2.899999 6.799999
v 6.099998 2.899999 6.799999
v 6.099998 2.899999 8.600000
v -5.400000 -0.400000 -28.900000
v -5.400000 -0.400000 -28.699999
v -1.199999 -0.400000 -28.900000
v -1.199999 -0.400000 -28.699999
v -5.400000 5.599999 -28.699999
v -5.400000 5.599999 -28.900000
v -1.199999 5.599999 -28.699999
v -1.199999 5.599999 -28.900000
v -7.100000 0.000000 -9.099998
v -7.100000 4.000000 -9.099998
vn -0.0000 1.0000 -0.0000
vn -1.0000 -0.0000 -0.0000
vn -0.0000 -0.0000 1.0000
vn -0.0000 -0.0000 -1.0000
vn 1.0000 -0.0000 -0.0000
vt 0.670539 0.094969
vt 0.666276 0.203688
vt 0.666276 0.094969
vt 0.670539 0.374227
vt 0.666276 0.246323
vt 0.670539 0.246323
vt 0.670539 0.376359
vt 0.666276 0.583138
vt 0.666276 0.376359
vt 0.246323 0.542635
vt 0.374227 0.457365
vt 0.246323 0.457365
vt 0.670539 0.542635
vt 0.666276 0.457365
vt 0.670539 0.457365
vt 0.666276 0.542635
vt 0.376359 0.457365
vt 0.583138 0.542635
vt 0.583138 0.457365
vt 0.094969 0.457365
vt 0.203688 0.542635
vt 0.203688 0.457365
vt 0.551162 0.137604
vt 0.546898 0.244191
vt 0.546898 0.137604
vt 0.551162 0.288958
vt 0.546898 0.246323
vt 0.551162 0.246323
vt 0.551162 0.376359
vt 0.546898 0.476551
vt 0.546898 0.376359
vt 0.551162 0.542635
vt 0.546898 0.457365
vt 0.551162 0.457365
vt 0.476551 0.457365
vt 0.376359 0.542635
vt 0.546898 0.542635
vt 0.244191 0.457365
vt 0.137604 0.542635
vt 0.137604 0.457365
vt 0.288958 0.542635
vt 0.288958 0.457365
vt 0.551162 0.374227
vt 0.546898 0.291089
vt 0.551162 0.291089
vt 0.374227 0.542635
vt 0.291089 0.457365
vt 0.094969 0.542635
vt 0.551162 0.094969
vt 0.546898 0.135472
vt 0.546898 0.094969
vt 0.135472 0.457365
vt 0.542635 0.504264
vt 0.406203 0.500000
vt 0.542635 0.500000
vt 0.406203 0.457365
vt 0.542635 0.542635
vt 0.542635 0.457365
vt 0.504264 0.457365
vt 0.500000 0.542635
vt 0.500000 0.457365
vt 0.504264 0.542635
vt 0.404072 0.504264
vt 0.267640 0.500000
vt 0.404072 0.500000
vt 0.267640 0.457365
vt 0.404072 0.542635
vt 0.404072 0.457365
vt 0.265508 0.504264
vt 0.129077 0.500000
vt 0.265508 0.500000
vt 0.129077 0.457365
vt 0.265508 0.542635
vt 0.265508 0.457365
vt 0.126945 0.504264
vt -0.009486 0.500000
vt 0.126945 0.500000
vt -0.009486 0.457365
vt 0.126945 0.542635
vt 0.126945 0.457365
vt 0.487210 0.821893
vt 0.482946 0.922085
vt 0.482946 0.821893
vt 0.922085 0.448838
vt 0.821893 0.576743
vt 0.821893 0.448838
vt 0.487210 0.448838
vt 0.482946 0.576743
vt 0.482946 0.448838
vt 0.487210 0.576743
vt 0.487210 0.719569
vt 0.482946 0.819761
vt 0.482946 0.719569
vt 0.819761 0.448838
vt 0.719569 0.576743
vt 0.719569 0.448838
vt 0.487210 0.670539
vt 0.482946 0.717438
vt 0.482946 0.670539
vt 0.717438 0.448838
vt 0.670539 0.576743
vt 0.670539 0.448838
vt 0.841079 0.261245
vt 0.738755 0.256981
vt 0.841079 0.256981
vt 0.261245 0.457365
vt 0.256981 0.534108
vt 0.256981 0.457365
vt 0.261245 0.534108
vt 0.841079 0.457365
vt 0.738755 0.534108
vt 0.738755 0.457365
vt 0.975378 0.261245
vt 0.887977 0.256981
vt 0.975378 0.256981
vt 0.975378 0.457365
vt 0.887977 0.534108
vt 0.887977 0.457365
vt 0.990301 0.193029
vt 0.986037 0.261245
vt 0.986037 0.193029
vt 0.990301 0.457365
vt 0.986037 0.534108
vt 0.986037 0.457365
vt 0.990301 0.534108
vt 0.193029 0.457365
vt 0.261245 0.534108
vt 0.261245 0.457365
vt 0.738755 0.116286
vt 0.806971 0.120550
vt 0.738755 0.120550
vt 0.116286 0.440311
vt 0.120550 0.519186
vt 0.120550 0.440311
vt 0.116286 0.519186
vt 0.738755 0.440311
vt 0.806971 0.519186
vt 0.806971 0.440311
vt 0.809103 0.116286
vt 0.877318 0.120550
vt 0.809103 0.120550
vt 0.809103 0.440311
vt 0.877318 0.519186
vt 0.877318 0.440311
vt 0.879450 0.116286
vt 0.947666 0.120550
vt 0.879450 0.120550
vt 0.879450 0.440311
vt 0.947666 0.519186
vt 0.947666 0.440311
vt 0.738755 0.161053
vt 0.743019 0.122682
vt 0.743019 0.161053
vt 0.743019 0.519186
vt 0.743019 0.440311
vt 0.743019 0.440311
vt 0.738755 0.519186
vt 0.161053 0.440311
vt 0.122682 0.519186
vt 0.122682 0.440311
vt 0.493605 0.917821
vt 0.583138 0.922085
vt 0.493605 0.922085
vt 0.583138 0.448838
vt 0.493605 0.576743
vt 0.493605 0.448838
vt 0.917821 0.448838
vt 0.922085 0.576743
vt 0.917821 0.576743
vt 0.457365 0.457365
vt 0.670539 0.203688
vt 0.666276 0.374227
vt 0.670539 0.583138
vt 0.551162 0.244191
vt 0.546898 0.288958
vt 0.551162 0.476551
vt 0.476551 0.542635
vt 0.244191 0.542635
vt 0.546898 0.374227
vt 0.291089 0.542635
vt 0.551162 0.135472
vt 0.135472 0.542635
vt 0.406203 0.504264
vt 0.406203 0.542635
vt 0.267640 0.504264
vt 0.267640 0.542635
vt 0.129077 0.504264
vt 0.129077 0.542635
vt -0.009486 0.504264
vt -0.009486 0.542635
vt 0.487210 0.922085
vt 0.487210 0.819761
vt 0.819761 0.576743
vt 0.487210 0.717438
vt 0.717438 0.576743
vt 0.738755 0.261245
vt 0.841079 0.534108
vt 0.887977 0.261245
vt 0.975378 0.534108
vt 0.990301 0.261245
vt 0.193029 0.534108
vt 0.806971 0.116286
vt 0.877318 0.116286
vt 0.809103 0.519186
vt 0.947666 0.116286
vt 0.879450 0.519186
vt 0.738755 0.122682
vt 0.743019 0.519186
vt 0.161053 0.519186
vt 0.583138 0.917821
vt 0.583138 0.576743
vt 0.457365 0.542635
s 0
f 15/1/1 13/2/1 14/3/1
f 20/4/1 17/5/1 18/6/1
f 21/7/1 24/8/1 22/9/1
f 17/10/2 7/11/2 5/12/2
f 18/13/3 5/14/3 6/15/3
f 2/15/3 14/16/3 1/14/3
f 10/15/3 22/16/3 9/14/3
f 19/16/4 8/15/4 7/14/4
f 11/14/4 23/13/4 12/15/4
f 3/14/4 16/13/4 4/15/4
f 9/17/2 24/18/2 11/19/2
f 1/20/2 13/21/2 3/22/2
f 39/23/1 37/24/1 38/25/1
f 44/26/1 41/27/1 42/28/1
f 45/29/1 48/30/1 46/31/1
f 42/32/3 29/33/3 30/34/3
f 36/35/5 45/36/5 34/17/5
f 26/34/3 38/37/3 25/33/3
f 34/34/3 46/37/3 33/33/3
f 43/37/4 32/34/4 31/33/4
f 28/38/5 39/39/5 26/40/5
f 35/33/4 47/32/4 36/34/4
f 44/41/5 30/12/5 32/42/5
f 27/33/4 40/32/4 28/34/4
f 56/43/1 53/44/1 54/45/1
f 54/32/3 49/33/3 50/34/3
f 55/37/4 52/34/4 51/33/4
f 56/46/5 50/47/5 52/11/5
f 18/10/5 8/11/5 20/46/5
f 15/48/5 4/22/5 16/21/5
f 63/49/1 61/50/1 62/51/1
f 58/34/3 62/37/3 57/33/3
f 60/52/5 63/48/5 58/20/5
f 59/33/4 64/32/4 60/34/4
f 69/53/1 72/54/1 70/55/1
f 68/56/4 69/57/4 66/58/4
f 66/59/5 70/60/5 65/61/5
f 67/61/2 71/62/2 68/59/2
f 77/63/1 80/64/1 78/65/1
f 76/66/4 77/67/4 74/68/4
f 74/59/5 78/60/5 73/61/5
f 75/61/2 79/62/2 76/59/2
f 85/69/1 88/70/1 86/71/1
f 84/72/4 85/73/4 82/74/4
f 82/59/5 86/60/5 81/61/5
f 83/61/2 87/62/2 84/59/2
f 93/75/1 96/76/1 94/77/1
f 92/78/4 93/79/4 90/80/4
f 90/59/5 94/60/5 89/61/5
f 91/61/2 95/62/2 92/59/2
f 101/81/1 104/82/1 102/83/1
f 100/84/5 101/85/5 98/86/5
f 98/87/3 102/88/3 97/89/3
f 99/89/4 103/90/4 100/87/4
f 109/91/1 112/92/1 110/93/1
f 108/94/5 109/95/5 106/96/5
f 106/87/3 110/88/3 105/89/3
f 107/89/4 111/90/4 108/87/4
f 117/97/1 120/98/1 118/99/1
f 116/100/5 117/101/5 114/102/5
f 114/87/3 118/88/3 113/89/3
f 115/89/4 119/90/4 116/87/4
f 127/103/1 125/104/1 126/105/1
f 122/106/5 126/107/5 121/108/5
f 123/108/2 128/109/2 124/106/2
f 121/110/3 125/111/3 123/112/3
f 135/113/1 133/114/1 134/115/1
f 130/106/5 134/107/5 129/108/5
f 131/108/2 136/109/2 132/106/2
f 129/116/3 133/117/3 131/118/3
f 143/119/1 141/120/1 142/121/1
f 138/122/3 142/123/3 137/124/3
f 139/124/4 144/125/4 140/122/4
f 137/126/2 141/127/2 139/128/2
f 151/129/1 149/130/1 150/131/1
f 146/132/2 150/133/2 145/134/2
f 147/134/5 152/135/5 148/132/5
f 145/136/4 149/137/4 147/138/4
f 159/139/1 157/140/1 158/141/1
f 154/132/2 158/133/2 153/134/2
f 155/134/5 160/135/5 156/132/5
f 153/142/4 157/143/4 155/144/4
f 167/145/1 165/146/1 166/147/1
f 162/132/2 166/133/2 161/134/2
f 163/134/5 168/135/5 164/132/5
f 161/148/4 165/149/4 163/150/4
f 175/151/1 173/152/1 174/153/1
f 170/136/4 174/154/4 169/155/4
f 171/156/3 176/157/3 172/136/3
f 169/158/5 173/159/5 171/160/5
f 181/161/1 184/162/1 182/163/1
f 180/164/3 181/165/3 178/166/3
f 178/167/2 182/168/2 177/84/2
f 179/84/5 183/169/5 180/167/5
f 70/57/3 185/170/3 65/58/3
f 15/1/1 16/171/1 13/2/1
f 20/4/1 19/172/1 17/5/1
f 21/7/1 23/173/1 24/8/1
f 17/10/2 19/46/2 7/11/2
f 18/13/3 17/16/3 5/14/3
f 2/15/3 15/13/3 14/16/3
f 10/15/3 21/13/3 22/16/3
f 19/16/4 20/13/4 8/15/4
f 11/14/4 24/16/4 23/13/4
f 3/14/4 13/16/4 16/13/4
f 9/17/2 22/36/2 24/18/2
f 1/20/2 14/48/2 13/21/2
f 39/23/1 40/174/1 37/24/1
f 44/26/1 43/175/1 41/27/1
f 45/29/1 47/176/1 48/30/1
f 42/32/3 41/37/3 29/33/3
f 36/35/5 47/177/5 45/36/5
f 26/34/3 39/32/3 38/37/3
f 34/34/3 45/32/3 46/37/3
f 43/37/4 44/32/4 32/34/4
f 28/38/5 40/178/5 39/39/5
f 35/33/4 48/37/4 47/32/4
f 44/41/5 42/10/5 30/12/5
f 27/33/4 37/37/4 40/32/4
f 56/43/1 55/179/1 53/44/1
f 54/32/3 53/37/3 49/33/3
f 55/37/4 56/32/4 52/34/4
f 56/46/5 54/180/5 50/47/5
f 18/10/5 6/12/5 8/11/5
f 15/48/5 2/20/5 4/22/5
f 63/49/1 64/181/1 61/50/1
f 58/34/3 63/32/3 62/37/3
f 60/52/5 64/182/5 63/48/5
f 59/33/4 61/37/4 64/32/4
f 69/53/1 71/183/1 72/54/1
f 68/56/4 71/184/4 69/57/4
f 66/59/5 69/62/5 70/60/5
f 67/61/2 72/60/2 71/62/2
f 77/63/1 79/185/1 80/64/1
f 76/66/4 79/186/4 77/67/4
f 74/59/5 77/62/5 78/60/5
f 75/61/2 80/60/2 79/62/2
f 85/69/1 87/187/1 88/70/1
f 84/72/4 87/188/4 85/73/4
f 82/59/5 85/62/5 86/60/5
f 83/61/2 88/60/2 87/62/2
f 93/75/1 95/189/1 96/76/1
f 92/78/4 95/190/4 93/79/4
f 90/59/5 93/62/5 94/60/5
f 91/61/2 96/60/2 95/62/2
f 101/81/1 103/191/1 104/82/1
f 100/84/5 103/168/5 101/85/5
f 98/87/3 101/90/3 102/88/3
f 99/89/4 104/88/4 103/90/4
f 109/91/1 111/192/1 112/92/1
f 108/94/5 111/193/5 109/95/5
f 106/87/3 109/90/3 110/88/3
f 107/89/4 112/88/4 111/90/4
f 117/97/1 119/194/1 120/98/1
f 116/100/5 119/195/5 117/101/5
f 114/87/3 117/90/3 118/88/3
f 115/89/4 120/88/4 119/90/4
f 127/103/1 128/196/1 125/104/1
f 122/106/5 127/109/5 126/107/5
f 123/108/2 125/107/2 128/109/2
f 121/110/3 126/197/3 125/111/3
f 135/113/1 136/198/1 133/114/1
f 130/106/5 135/109/5 134/107/5
f 131/108/2 133/107/2 136/109/2
f 129/116/3 134/199/3 133/117/3
f 143/119/1 144/200/1 141/120/1
f 138/122/3 143/125/3 142/123/3
f 139/124/4 141/123/4 144/125/4
f 137/126/2 142/201/2 141/127/2
f 151/129/1 152/202/1 149/130/1
f 146/132/2 151/135/2 150/133/2
f 147/134/5 149/133/5 152/135/5
f 145/136/4 150/157/4 149/137/4
f 159/139/1 160/203/1 157/140/1
f 154/132/2 159/135/2 158/133/2
f 155/134/5 157/133/5 160/135/5
f 153/142/4 158/204/4 157/143/4
f 167/145/1 168/205/1 165/146/1
f 162/132/2 167/135/2 166/133/2
f 163/134/5 165/133/5 168/135/5
f 161/148/4 166/206/4 165/149/4
f 175/151/1 176/207/1 173/152/1
f 170/136/4 175/157/4 174/154/4
f 171/156/3 173/208/3 176/157/3
f 169/158/5 174/209/5 173/159/5
f 181/161/1 183/210/1 184/162/1
f 180/164/3 183/211/3 181/165/3
f 178/167/2 181/169/2 182/168/2
f 179/84/5 184/168/5 183/169/5
f 70/57/3 186/212/3 185/170/3
