# Blender 4.5.0 Release Candidate
# www.blender.org
o Torus
v 1.510532 0.000000 0.000000
v 1.365875 0.353357 0.000000
v 1.013480 0.506392 0.000000
v 0.647789 0.367021 -0.000000
v 0.489021 -0.000000 -0.000000
v 0.647789 -0.367021 -0.000000
v 1.013480 -0.506392 0.000000
v 1.365875 -0.353357 0.000000
v 1.395550 0.000000 -0.578056
v 1.261904 0.353357 -0.522697
v 0.936333 0.506392 -0.387842
v 0.598479 0.367021 -0.247898
v 0.451797 0.000000 -0.187140
v 0.598479 -0.367021 -0.247898
v 0.936333 -0.506392 -0.387842
v 1.261904 -0.353357 -0.522697
v 1.068108 0.000000 -1.068108
v 0.965819 0.353357 -0.965819
v 0.716639 0.506392 -0.716639
v 0.458056 0.367021 -0.458056
v 0.345790 0.000000 -0.345790
v 0.458056 -0.367021 -0.458056
v 0.716639 -0.506392 -0.716639
v 0.965819 -0.353357 -0.965819
v 0.578056 0.000000 -1.395550
v 0.522698 0.353357 -1.261903
v 0.387842 0.506392 -0.936333
v 0.247898 0.367021 -0.598479
v 0.187140 0.000000 -0.451797
v 0.247898 -0.367021 -0.598479
v 0.387842 -0.506392 -0.936333
v 0.522698 -0.353357 -1.261903
v 0.000000 0.000000 -1.510532
v 0.000000 0.353357 -1.365875
v 0.000000 0.506392 -1.013480
v 0.000000 0.367021 -0.647789
v 0.000000 0.000000 -0.489021
v 0.000000 -0.367021 -0.647789
v 0.000000 -0.506392 -1.013480
v 0.000000 -0.353357 -1.365875
v -0.578056 0.000000 -1.395550
v -0.522698 0.353357 -1.261903
v -0.387842 0.506392 -0.936333
v -0.247898 0.367021 -0.598479
v -0.187140 0.000000 -0.451797
v -0.247898 -0.367021 -0.598479
v -0.387842 -0.506392 -0.936333
v -0.522698 -0.353357 -1.261903
v -1.068108 0.000000 -1.068107
v -0.965819 0.353357 -0.965819
v -0.716639 0.506392 -0.716638
v -0.458056 0.367021 -0.458056
v -0.345790 -0.000000 -0.345790
v -0.458056 -0.367021 -0.458056
v -0.716639 -0.506392 -0.716638
v -0.965819 -0.353357 -0.965819
v -1.395550 0.000000 -0.578056
v -1.261903 0.353357 -0.522698
v -0.936333 0.506392 -0.387842
v -0.598479 0.367021 -0.247898
v -0.451797 0.000000 -0.187140
v -0.598479 -0.367021 -0.247898
v -0.936333 -0.506392 -0.387842
v -1.261903 -0.353357 -0.522698
v -1.510532 0.000000 -0.000000
v -1.365874 0.353357 -0.000000
v -1.013480 0.506392 -0.000000
v -0.647789 0.367021 -0.000000
v -0.489021 0.000000 -0.000000
v -0.647789 -0.367021 -0.000000
v -1.013480 -0.506392 -0.000000
v -1.365875 -0.353357 -0.000000
v -1.395550 0.000000 0.578055
v -1.261904 0.353357 0.522697
v -0.936334 0.506392 0.387842
v -0.598479 0.367021 0.247898
v -0.451797 0.000000 0.187140
v -0.598479 -0.367021 0.247898
v -0.936334 -0.506392 0.387842
v -1.261904 -0.353357 0.522697
v -1.068108 0.000000 1.068107
v -0.965819 0.353357 0.965819
v -0.716639 0.506392 0.716638
v -0.458056 0.367021 0.458056
v -0.345790 -0.000000 0.345790
v -0.458056 -0.367021 0.458056
v -0.716639 -0.506392 0.716638
v -0.965819 -0.353357 0.965819
v -0.578056 0.000000 1.395550
v -0.522698 0.353357 1.261903
v -0.387842 0.506392 0.936333
v -0.247898 0.367021 0.598479
v -0.187140 -0.000000 0.451797
v -0.247898 -0.367021 0.598479
v -0.387842 -0.506392 0.936333
v -0.522698 -0.353357 1.261903
v 0.000000 0.000000 1.510532
v 0.000000 0.353357 1.365875
v 0.000000 0.506392 1.013480
v 0.000000 0.367021 0.647789
v 0.000000 -0.000000 0.489021
v 0.000000 -0.367021 0.647789
v 0.000000 -0.506392 1.013480
v 0.000000 -0.353357 1.365875
v 0.578056 0.000000 1.395550
v 0.522698 0.353357 1.261903
v 0.387842 0.506392 0.936333
v 0.247898 0.367021 0.598479
v 0.187141 -0.000000 0.451797
v 0.247898 -0.367021 0.598479
v 0.387842 -0.506392 0.936333
v 0.522698 -0.353357 1.261903
v 1.068107 0.000000 1.068108
v 0.965819 0.353357 0.965820
v 0.716638 0.506392 0.716639
v 0.458055 0.367021 0.458056
v 0.345790 -0.000000 0.345791
v 0.458055 -0.367021 0.458056
v 0.716638 -0.506392 0.716639
v 0.965819 -0.353357 0.965820
v 1.395550 -0.000000 0.578056
v 1.261903 0.353357 0.522698
v 0.936333 0.506392 0.387842
v 0.598479 0.367021 0.247898
v 0.451797 -0.000000 0.187141
v 0.598479 -0.367021 0.247898
v 0.936333 -0.506392 0.387842
v 1.261903 -0.353357 0.522698
vn 1.0000 -0.0000 -0.0000
vn 0.7361 0.6769 -0.0000
vn 0.0697 0.9976 -0.0000
vn -0.6643 0.7475 -0.0000
vn -1.0000 -0.0000 -0.0000
vn -0.6643 -0.7475 -0.0000
vn 0.0697 -0.9976 -0.0000
vn 0.7361 -0.6769 -0.0000
vn 0.9239 -0.0000 -0.3827
vn 0.6800 0.6769 -0.2817
vn 0.0644 0.9976 -0.0267
vn -0.6137 0.7475 0.2542
vn -0.9239 -0.0000 0.3827
vn -0.6137 -0.7475 0.2542
vn 0.0644 -0.9976 -0.0267
vn 0.6800 -0.6769 -0.2817
vn 0.7071 -0.0000 -0.7071
vn 0.5205 0.6769 -0.5205
vn 0.0493 0.9976 -0.0493
vn -0.4697 0.7475 0.4697
vn -0.7071 -0.0000 0.7071
vn -0.4697 -0.7475 0.4697
vn 0.0493 -0.9976 -0.0493
vn 0.5205 -0.6769 -0.5205
vn 0.3827 -0.0000 -0.9239
vn 0.2817 0.6769 -0.6800
vn 0.0267 0.9976 -0.0644
vn -0.2542 0.7475 0.6137
vn -0.3827 -0.0000 0.9239
vn -0.2542 -0.7475 0.6137
vn 0.0267 -0.9976 -0.0644
vn 0.2817 -0.6769 -0.6800
vn -0.0000 -0.0000 -1.0000
vn -0.0000 0.6769 -0.7361
vn -0.0000 0.9976 -0.0697
vn -0.0000 0.7475 0.6643
vn -0.0000 -0.0000 1.0000
vn -0.0000 -0.7475 0.6643
vn -0.0000 -0.9976 -0.0697
vn -0.0000 -0.6769 -0.7361
vn -0.3827 -0.0000 -0.9239
vn -0.2817 0.6769 -0.6800
vn -0.0267 0.9976 -0.0644
vn 0.2542 0.7475 0.6137
vn 0.3827 -0.0000 0.9239
vn 0.2542 -0.7475 0.6137
vn -0.0267 -0.9976 -0.0644
vn -0.2817 -0.6769 -0.6800
vn -0.7071 -0.0000 -0.7071
vn -0.5205 0.6769 -0.5205
vn -0.0493 0.9976 -0.0493
vn 0.4697 0.7475 0.4697
vn 0.7071 -0.0000 0.7071
vn 0.4697 -0.7475 0.4697
vn -0.0493 -0.9976 -0.0493
vn -0.5205 -0.6769 -0.5205
vn -0.9239 -0.0000 -0.3827
vn -0.6800 0.6769 -0.2817
vn -0.0644 0.9976 -0.0267
vn 0.6137 0.7475 0.2542
vn 0.9239 -0.0000 0.3827
vn 0.6137 -0.7475 0.2542
vn -0.0644 -0.9976 -0.0267
vn -0.6800 -0.6769 -0.2817
vn -0.7361 0.6769 -0.0000
vn -0.0697 0.9976 -0.0000
vn 0.6643 0.7475 -0.0000
vn 0.6643 -0.7475 -0.0000
vn -0.0697 -0.9976 -0.0000
vn -0.7361 -0.6769 -0.0000
vn -0.6800 0.6769 0.2817
vn -0.0644 0.9976 0.0267
vn 0.6137 0.7475 -0.2542
vn 0.6137 -0.7475 -0.2542
vn -0.0644 -0.9976 0.0267
vn -0.6800 -0.6769 0.2817
vn -0.5205 0.6769 0.5205
vn -0.0493 0.9976 0.0493
vn 0.4697 0.7475 -0.4697
vn 0.4697 -0.7475 -0.4697
vn -0.0493 -0.9976 0.0493
vn -0.5205 -0.6769 0.5205
vn -0.2817 0.6769 0.6800
vn -0.0267 0.9976 0.0644
vn 0.2542 0.7475 -0.6137
vn 0.2542 -0.7475 -0.6137
vn -0.0267 -0.9976 0.0644
vn -0.2817 -0.6769 0.6800
vn -0.0000 0.6769 0.7361
vn -0.0000 0.9976 0.0697
vn -0.0000 0.7475 -0.6643
vn -0.0000 -0.7475 -0.6643
vn -0.0000 -0.9976 0.0697
vn -0.0000 -0.6769 0.7361
vn 0.2817 0.6769 0.6800
vn 0.0267 0.9976 0.0644
vn -0.2542 0.7475 -0.6137
vn -0.2542 -0.7475 -0.6137
vn 0.0267 -0.9976 0.0644
vn 0.2817 -0.6769 0.6800
vn 0.5205 0.6769 0.5205
vn 0.0493 0.9976 0.0493
vn -0.4697 0.7475 -0.4697
vn -0.4697 -0.7475 -0.4697
vn 0.0493 -0.9976 0.0493
vn 0.5205 -0.6769 0.5205
vn 0.6800 0.6769 0.2817
vn 0.0644 0.9976 0.0267
vn -0.6137 0.7475 -0.2542
vn -0.6137 -0.7475 -0.2542
vn 0.0644 -0.9976 0.0267
vn 0.6800 -0.6769 0.2817
vt 0.562500 0.500000
vt 0.500000 0.625000
vt 0.500000 0.500000
vt 0.562500 0.625000
vt 0.500000 0.750000
vt 0.562500 0.750000
vt 0.500000 0.875000
vt 0.562500 0.875000
vt 0.500000 1.000000
vt 0.500000 0.000000
vt 0.562500 0.125000
vt 0.500000 0.125000
vt 0.500000 0.250000
vt 0.562500 0.250000
vt 0.500000 0.375000
vt 0.562500 0.375000
vt 0.625000 0.625000
vt 0.625000 0.875000
vt 0.625000 1.000000
vt 0.562500 1.000000
vt 0.625000 0.000000
vt 0.562500 0.000000
vt 0.625000 0.125000
vt 0.625000 0.250000
vt 0.625000 0.375000
vt 0.687500 0.500000
vt 0.625000 0.500000
vt 0.687500 0.750000
vt 0.625000 0.750000
vt 0.687500 0.875000
vt 0.687500 0.000000
vt 0.687500 0.250000
vt 0.687500 0.375000
vt 0.750000 0.500000
vt 0.687500 0.625000
vt 0.750000 0.625000
vt 0.750000 0.750000
vt 0.750000 1.000000
vt 0.687500 1.000000
vt 0.750000 0.000000
vt 0.687500 0.125000
vt 0.750000 0.125000
vt 0.750000 0.250000
vt 0.750000 0.375000
vt 0.812500 0.500000
vt 0.812500 0.625000
vt 0.812500 0.750000
vt 0.750000 0.875000
vt 0.812500 0.875000
vt 0.812500 0.000000
vt 0.812500 0.125000
vt 0.812500 0.375000
vt 0.875000 0.500000
vt 0.875000 0.625000
vt 0.875000 0.750000
vt 0.875000 0.875000
vt 0.812500 1.000000
vt 0.875000 0.125000
vt 0.875000 0.250000
vt 0.812500 0.250000
vt 0.875000 0.375000
vt 0.937500 0.500000
vt 0.937500 0.625000
vt 0.937500 0.875000
vt 0.875000 1.000000
vt 0.937500 0.000000
vt 0.875000 0.000000
vt 0.937500 0.250000
vt 0.937500 0.375000
vt 1.000000 0.500000
vt 1.000000 0.750000
vt 0.937500 0.750000
vt 1.000000 0.875000
vt 0.937500 1.000000
vt 1.000000 0.000000
vt 0.937500 0.125000
vt 1.000000 0.125000
vt 1.000000 0.250000
vt 1.000000 0.375000
vt 0.062500 0.500000
vt 0.000000 0.625000
vt 0.000000 0.500000
vt 0.062500 0.625000
vt 0.000000 0.750000
vt 0.062500 0.750000
vt 0.000000 0.875000
vt 0.062500 0.875000
vt 0.000000 1.000000
vt 0.000000 0.000000
vt 0.062500 0.125000
vt 0.000000 0.125000
vt 0.062500 0.250000
vt 0.000000 0.250000
vt 0.000000 0.375000
vt 0.062500 0.375000
vt 0.125000 0.500000
vt 0.125000 0.750000
vt 0.125000 0.875000
vt 0.062500 1.000000
vt 0.125000 0.000000
vt 0.062500 0.000000
vt 0.125000 0.125000
vt 0.125000 0.250000
vt 0.187500 0.500000
vt 0.125000 0.625000
vt 0.187500 0.625000
vt 0.187500 0.750000
vt 0.187500 1.000000
vt 0.125000 1.000000
vt 0.187500 0.000000
vt 0.187500 0.125000
vt 0.187500 0.250000
vt 0.125000 0.375000
vt 0.187500 0.375000
vt 0.250000 0.625000
vt 0.250000 0.750000
vt 0.250000 0.875000
vt 0.187500 0.875000
vt 0.250000 1.000000
vt 0.250000 0.000000
vt 0.250000 0.125000
vt 0.250000 0.250000
vt 0.250000 0.375000
vt 0.312500 0.500000
vt 0.250000 0.500000
vt 0.312500 0.625000
vt 0.312500 0.750000
vt 0.312500 0.875000
vt 0.312500 0.000000
vt 0.312500 0.125000
vt 0.312500 0.375000
vt 0.375000 0.500000
vt 0.375000 0.625000
vt 0.375000 0.875000
vt 0.312500 1.000000
vt 0.375000 0.000000
vt 0.375000 0.250000
vt 0.312500 0.250000
vt 0.375000 0.375000
vt 0.437500 0.625000
vt 0.437500 0.750000
vt 0.375000 0.750000
vt 0.437500 0.875000
vt 0.375000 1.000000
vt 0.437500 0.125000
vt 0.375000 0.125000
vt 0.437500 0.375000
vt 0.437500 0.500000
vt 0.437500 1.000000
vt 0.437500 0.000000
vt 0.437500 0.250000
vt 1.000000 0.625000
vt 1.000000 1.000000
s 1
f 9/1/9 2/2/2 1/3/1
f 10/4/10 3/5/3 2/2/2
f 11/6/11 4/7/4 3/5/3
f 12/8/12 5/9/5 4/7/4
f 5/10/5 14/11/14 6/12/6
f 14/11/14 7/13/7 6/12/6
f 15/14/15 8/15/8 7/13/7
f 16/16/16 1/3/1 8/15/8
f 9/1/9 18/17/18 10/4/10
f 18/17/18 11/6/11 10/4/10
f 11/6/11 20/18/20 12/8/12
f 12/8/12 21/19/21 13/20/13
f 21/21/21 14/11/14 13/22/13
f 22/23/22 15/14/15 14/11/14
f 23/24/23 16/16/16 15/14/15
f 24/25/24 9/1/9 16/16/16
f 25/26/25 18/17/18 17/27/17
f 18/17/18 27/28/27 19/29/19
f 27/28/27 20/18/20 19/29/19
f 28/30/28 21/19/21 20/18/20
f 29/31/29 22/23/22 21/21/21
f 22/23/22 31/32/31 23/24/23
f 31/32/31 24/25/24 23/24/23
f 32/33/32 17/27/17 24/25/24
f 33/34/33 26/35/26 25/26/25
f 34/36/34 27/28/27 26/35/26
f 35/37/35 28/30/28 27/28/27
f 28/30/28 37/38/37 29/39/29
f 37/40/37 30/41/30 29/31/29
f 38/42/38 31/32/31 30/41/30
f 39/43/39 32/33/32 31/32/31
f 40/44/40 25/26/25 32/33/32
f 41/45/41 34/36/34 33/34/33
f 42/46/42 35/37/35 34/36/34
f 43/47/43 36/48/36 35/37/35
f 44/49/44 37/38/37 36/48/36
f 45/50/45 38/42/38 37/40/37
f 46/51/46 39/43/39 38/42/38
f 39/43/39 48/52/48 40/44/40
f 40/44/40 41/45/41 33/34/33
f 49/53/49 42/46/42 41/45/41
f 50/54/50 43/47/43 42/46/42
f 51/55/51 44/49/44 43/47/43
f 52/56/52 45/57/45 44/49/44
f 45/50/45 54/58/54 46/51/46
f 46/51/46 55/59/55 47/60/47
f 55/59/55 48/52/48 47/60/47
f 56/61/56 41/45/41 48/52/48
f 57/62/57 50/54/50 49/53/49
f 58/63/58 51/55/51 50/54/50
f 51/55/51 60/64/60 52/56/52
f 60/64/60 53/65/53 52/56/52
f 61/66/61 54/58/54 53/67/53
f 54/58/54 63/68/63 55/59/55
f 63/68/63 56/61/56 55/59/55
f 64/69/64 49/53/49 56/61/56
f 65/70/5 58/63/58 57/62/57
f 58/63/58 67/71/66 59/72/59
f 67/71/66 60/64/60 59/72/59
f 68/73/67 61/74/61 60/64/60
f 69/75/1 62/76/62 61/66/61
f 70/77/68 63/68/63 62/76/62
f 71/78/69 64/69/64 63/68/63
f 72/79/70 57/62/57 64/69/64
f 73/80/13 66/81/65 65/82/5
f 74/83/71 67/84/66 66/81/65
f 75/85/72 68/86/67 67/84/66
f 76/87/73 69/88/1 68/86/67
f 69/89/1 78/90/74 70/91/68
f 70/91/68 79/92/75 71/93/69
f 79/92/75 72/94/70 71/93/69
f 80/95/76 65/82/5 72/94/70
f 81/96/21 74/83/71 73/80/13
f 74/83/71 83/97/78 75/85/72
f 83/97/78 76/87/73 75/85/72
f 84/98/79 77/99/9 76/87/73
f 85/100/17 78/90/74 77/101/9
f 86/102/80 79/92/75 78/90/74
f 87/103/81 80/95/76 79/92/75
f 80/95/76 81/96/21 73/80/13
f 89/104/29 82/105/77 81/96/21
f 90/106/83 83/97/78 82/105/77
f 91/107/84 84/98/79 83/97/78
f 84/98/79 93/108/25 85/109/17
f 93/110/25 86/102/80 85/100/17
f 94/111/86 87/103/81 86/102/80
f 95/112/87 88/113/82 87/103/81
f 96/114/88 81/96/21 88/113/82
f 89/104/29 98/115/89 90/106/83
f 90/106/83 99/116/90 91/107/84
f 91/107/84 100/117/91 92/118/85
f 92/118/85 101/119/33 93/108/25
f 101/120/33 94/111/86 93/110/25
f 102/121/92 95/112/87 94/111/86
f 103/122/93 96/114/88 95/112/87
f 104/123/94 89/104/29 96/114/88
f 105/124/45 98/115/89 97/125/37
f 106/126/95 99/116/90 98/115/89
f 107/127/96 100/117/91 99/116/90
f 108/128/97 101/119/33 100/117/91
f 109/129/41 102/121/92 101/120/33
f 110/130/98 103/122/93 102/121/92
f 103/122/93 112/131/100 104/123/94
f 112/131/100 97/125/37 104/123/94
f 113/132/53 106/126/95 105/124/45
f 114/133/101 107/127/96 106/126/95
f 107/127/96 116/134/103 108/128/97
f 116/134/103 109/135/41 108/128/97
f 117/136/49 110/130/98 109/129/41
f 110/130/98 119/137/105 111/138/99
f 119/137/105 112/131/100 111/138/99
f 120/139/106 105/124/45 112/131/100
f 113/132/53 122/140/107 114/133/101
f 114/133/101 123/141/108 115/142/102
f 123/141/108 116/134/103 115/142/102
f 124/143/109 117/144/49 116/134/103
f 117/136/49 126/145/110 118/146/104
f 126/145/110 119/137/105 118/146/104
f 119/137/105 128/147/112 120/139/106
f 128/147/112 113/132/53 120/139/106
f 1/3/1 122/140/107 121/148/61
f 2/2/2 123/141/108 122/140/107
f 123/141/108 4/7/4 124/143/109
f 4/7/4 125/149/57 124/143/109
f 5/10/5 126/145/110 125/150/57
f 6/12/6 127/151/111 126/145/110
f 7/13/7 128/147/112 127/151/111
f 8/15/8 121/148/61 128/147/112
f 9/1/9 10/4/10 2/2/2
f 10/4/10 11/6/11 3/5/3
f 11/6/11 12/8/12 4/7/4
f 12/8/12 13/20/13 5/9/5
f 5/10/5 13/22/13 14/11/14
f 14/11/14 15/14/15 7/13/7
f 15/14/15 16/16/16 8/15/8
f 16/16/16 9/1/9 1/3/1
f 9/1/9 17/27/17 18/17/18
f 18/17/18 19/29/19 11/6/11
f 11/6/11 19/29/19 20/18/20
f 12/8/12 20/18/20 21/19/21
f 21/21/21 22/23/22 14/11/14
f 22/23/22 23/24/23 15/14/15
f 23/24/23 24/25/24 16/16/16
f 24/25/24 17/27/17 9/1/9
f 25/26/25 26/35/26 18/17/18
f 18/17/18 26/35/26 27/28/27
f 27/28/27 28/30/28 20/18/20
f 28/30/28 29/39/29 21/19/21
f 29/31/29 30/41/30 22/23/22
f 22/23/22 30/41/30 31/32/31
f 31/32/31 32/33/32 24/25/24
f 32/33/32 25/26/25 17/27/17
f 33/34/33 34/36/34 26/35/26
f 34/36/34 35/37/35 27/28/27
f 35/37/35 36/48/36 28/30/28
f 28/30/28 36/48/36 37/38/37
f 37/40/37 38/42/38 30/41/30
f 38/42/38 39/43/39 31/32/31
f 39/43/39 40/44/40 32/33/32
f 40/44/40 33/34/33 25/26/25
f 41/45/41 42/46/42 34/36/34
f 42/46/42 43/47/43 35/37/35
f 43/47/43 44/49/44 36/48/36
f 44/49/44 45/57/45 37/38/37
f 45/50/45 46/51/46 38/42/38
f 46/51/46 47/60/47 39/43/39
f 39/43/39 47/60/47 48/52/48
f 40/44/40 48/52/48 41/45/41
f 49/53/49 50/54/50 42/46/42
f 50/54/50 51/55/51 43/47/43
f 51/55/51 52/56/52 44/49/44
f 52/56/52 53/65/53 45/57/45
f 45/50/45 53/67/53 54/58/54
f 46/51/46 54/58/54 55/59/55
f 55/59/55 56/61/56 48/52/48
f 56/61/56 49/53/49 41/45/41
f 57/62/57 58/63/58 50/54/50
f 58/63/58 59/72/59 51/55/51
f 51/55/51 59/72/59 60/64/60
f 60/64/60 61/74/61 53/65/53
f 61/66/61 62/76/62 54/58/54
f 54/58/54 62/76/62 63/68/63
f 63/68/63 64/69/64 56/61/56
f 64/69/64 57/62/57 49/53/49
f 65/70/5 66/152/65 58/63/58
f 58/63/58 66/152/65 67/71/66
f 67/71/66 68/73/67 60/64/60
f 68/73/67 69/153/1 61/74/61
f 69/75/1 70/77/68 62/76/62
f 70/77/68 71/78/69 63/68/63
f 71/78/69 72/79/70 64/69/64
f 72/79/70 65/70/5 57/62/57
f 73/80/13 74/83/71 66/81/65
f 74/83/71 75/85/72 67/84/66
f 75/85/72 76/87/73 68/86/67
f 76/87/73 77/99/9 69/88/1
f 69/89/1 77/101/9 78/90/74
f 70/91/68 78/90/74 79/92/75
f 79/92/75 80/95/76 72/94/70
f 80/95/76 73/80/13 65/82/5
f 81/96/21 82/105/77 74/83/71
f 74/83/71 82/105/77 83/97/78
f 83/97/78 84/98/79 76/87/73
f 84/98/79 85/109/17 77/99/9
f 85/100/17 86/102/80 78/90/74
f 86/102/80 87/103/81 79/92/75
f 87/103/81 88/113/82 80/95/76
f 80/95/76 88/113/82 81/96/21
f 89/104/29 90/106/83 82/105/77
f 90/106/83 91/107/84 83/97/78
f 91/107/84 92/118/85 84/98/79
f 84/98/79 92/118/85 93/108/25
f 93/110/25 94/111/86 86/102/80
f 94/111/86 95/112/87 87/103/81
f 95/112/87 96/114/88 88/113/82
f 96/114/88 89/104/29 81/96/21
f 89/104/29 97/125/37 98/115/89
f 90/106/83 98/115/89 99/116/90
f 91/107/84 99/116/90 100/117/91
f 92/118/85 100/117/91 101/119/33
f 101/120/33 102/121/92 94/111/86
f 102/121/92 103/122/93 95/112/87
f 103/122/93 104/123/94 96/114/88
f 104/123/94 97/125/37 89/104/29
f 105/124/45 106/126/95 98/115/89
f 106/126/95 107/127/96 99/116/90
f 107/127/96 108/128/97 100/117/91
f 108/128/97 109/135/41 101/119/33
f 109/129/41 110/130/98 102/121/92
f 110/130/98 111/138/99 103/122/93
f 103/122/93 111/138/99 112/131/100
f 112/131/100 105/124/45 97/125/37
f 113/132/53 114/133/101 106/126/95
f 114/133/101 115/142/102 107/127/96
f 107/127/96 115/142/102 116/134/103
f 116/134/103 117/144/49 109/135/41
f 117/136/49 118/146/104 110/130/98
f 110/130/98 118/146/104 119/137/105
f 119/137/105 120/139/106 112/131/100
f 120/139/106 113/132/53 105/124/45
f 113/132/53 121/148/61 122/140/107
f 114/133/101 122/140/107 123/141/108
f 123/141/108 124/143/109 116/134/103
f 124/143/109 125/149/57 117/144/49
f 117/136/49 125/150/57 126/145/110
f 126/145/110 127/151/111 119/137/105
f 119/137/105 127/151/111 128/147/112
f 128/147/112 121/148/61 113/132/53
f 1/3/1 2/2/2 122/140/107
f 2/2/2 3/5/3 123/141/108
f 123/141/108 3/5/3 4/7/4
f 4/7/4 5/9/5 125/149/57
f 5/10/5 6/12/6 126/145/110
f 6/12/6 7/13/7 127/151/111
f 7/13/7 8/15/8 128/147/112
f 8/15/8 1/3/1 121/148/61
