# Blender 4.5.0 Release Candidate
# www.blender.org
o Torus
v 1.250000 0.000000 0.000000
v 1.176777 0.176777 0.000000
v 1.000000 0.250000 0.000000
v 0.823223 0.176777 0.000000
v 0.750000 0.000000 0.000000
v 0.823223 -0.176777 0.000000
v 1.000000 -0.250000 0.000000
v 1.176777 -0.176777 0.000000
v 1.154849 0.000000 -0.478354
v 1.087200 0.176777 -0.450333
v 0.923880 0.250000 -0.382683
v 0.760559 0.176777 -0.315034
v 0.692910 0.000000 -0.287013
v 0.760559 -0.176777 -0.315034
v 0.923880 -0.250000 -0.382683
v 1.087200 -0.176777 -0.450333
v 0.883883 0.000000 -0.883884
v 0.832107 0.176777 -0.832107
v 0.707107 0.250000 -0.707107
v 0.582107 0.176777 -0.582107
v 0.530330 0.000000 -0.530330
v 0.582107 -0.176777 -0.582107
v 0.707107 -0.250000 -0.707107
v 0.832107 -0.176777 -0.832107
v 0.478355 0.000000 -1.154849
v 0.450333 0.176777 -1.087200
v 0.382684 0.250000 -0.923879
v 0.315034 0.176777 -0.760559
v 0.287013 0.000000 -0.692910
v 0.315034 -0.176777 -0.760559
v 0.382684 -0.250000 -0.923879
v 0.450333 -0.176777 -1.087200
v 0.000000 0.000000 -1.250000
v 0.000000 0.176777 -1.176777
v 0.000000 0.250000 -1.000000
v 0.000000 0.176777 -0.823223
v 0.000000 0.000000 -0.750000
v 0.000000 -0.176777 -0.823223
v 0.000000 -0.250000 -1.000000
v 0.000000 -0.176777 -1.176777
v -0.478354 0.000000 -1.154849
v -0.450333 0.176777 -1.087200
v -0.382684 0.250000 -0.923880
v -0.315034 0.176777 -0.760559
v -0.287013 0.000000 -0.692910
v -0.315034 -0.176777 -0.760559
v -0.382684 -0.250000 -0.923880
v -0.450333 -0.176777 -1.087200
v -0.883884 0.000000 -0.883883
v -0.832107 0.176777 -0.832107
v -0.707107 0.250000 -0.707107
v -0.582107 0.176777 -0.582107
v -0.530330 0.000000 -0.530330
v -0.582107 -0.176777 -0.582107
v -0.707107 -0.250000 -0.707107
v -0.832107 -0.176777 -0.832107
v -1.154849 0.000000 -0.478354
v -1.087200 0.176777 -0.450333
v -0.923880 0.250000 -0.382683
v -0.760559 0.176777 -0.315034
v -0.692910 0.000000 -0.287013
v -0.760559 -0.176777 -0.315034
v -0.923880 -0.250000 -0.382683
v -1.087200 -0.176777 -0.450333
v -1.250000 0.000000 -0.000000
v -1.176777 0.176777 -0.000000
v -1.000000 0.250000 -0.000000
v -0.823223 0.176777 -0.000000
v -0.750000 0.000000 -0.000000
v -0.823223 -0.176777 -0.000000
v -1.000000 -0.250000 -0.000000
v -1.176777 -0.176777 -0.000000
v -1.154850 0.000000 0.478354
v -1.087200 0.176777 0.450332
v -0.923880 0.250000 0.382683
v -0.760559 0.176777 0.315034
v -0.692910 0.000000 0.287012
v -0.760559 -0.176777 0.315034
v -0.923880 -0.250000 0.382683
v -1.087200 -0.176777 0.450332
v -0.883884 0.000000 0.883883
v -0.832107 0.176777 0.832107
v -0.707107 0.250000 0.707107
v -0.582107 0.176777 0.582107
v -0.530330 0.000000 0.530330
v -0.582107 -0.176777 0.582107
v -0.707107 -0.250000 0.707107
v -0.832107 -0.176777 0.832107
v -0.478354 0.000000 1.154849
v -0.450333 0.176777 1.087200
v -0.382684 0.250000 0.923880
v -0.315034 0.176777 0.760559
v -0.287013 0.000000 0.692910
v -0.315034 -0.176777 0.760559
v -0.382684 -0.250000 0.923880
v -0.450333 -0.176777 1.087200
v 0.000000 0.000000 1.250000
v 0.000000 0.176777 1.176777
v 0.000000 0.250000 1.000000
v 0.000000 0.176777 0.823223
v 0.000000 0.000000 0.750000
v 0.000000 -0.176777 0.823223
v 0.000000 -0.250000 1.000000
v 0.000000 -0.176777 1.176777
v 0.478355 0.000000 1.154849
v 0.450333 0.176777 1.087200
v 0.382684 0.250000 0.923879
v 0.315034 0.176777 0.760559
v 0.287013 0.000000 0.692910
v 0.315034 -0.176777 0.760559
v 0.382684 -0.250000 0.923879
v 0.450333 -0.176777 1.087200
v 0.883883 0.000000 0.883884
v 0.832106 0.176777 0.832107
v 0.707106 0.250000 0.707107
v 0.582106 0.176777 0.582107
v 0.530330 0.000000 0.530330
v 0.582106 -0.176777 0.582107
v 0.707106 -0.250000 0.707107
v 0.832106 -0.176777 0.832107
v 1.154849 0.000000 0.478355
v 1.087200 0.176777 0.450333
v 0.923879 0.250000 0.382684
v 0.760559 0.176777 0.315034
v 0.692910 0.000000 0.287013
v 0.760559 -0.176777 0.315034
v 0.923879 -0.250000 0.382684
v 1.087200 -0.176777 0.450333
vn 1.0000 -0.0000 -0.0000
vn 0.7294 0.6841 -0.0000
vn 0.0477 0.9989 -0.0000
vn -0.6816 0.7317 -0.0000
vn -1.0000 -0.0000 -0.0000
vn -0.6816 -0.7317 -0.0000
vn 0.0477 -0.9989 -0.0000
vn 0.7294 -0.6841 -0.0000
vn 0.9239 -0.0000 -0.3827
vn 0.6739 0.6841 -0.2791
vn 0.0441 0.9989 -0.0183
vn -0.6297 0.7317 0.2608
vn -0.9239 -0.0000 0.3827
vn -0.6297 -0.7317 0.2608
vn 0.0441 -0.9989 -0.0183
vn 0.6739 -0.6841 -0.2791
vn 0.7071 -0.0000 -0.7071
vn 0.5158 0.6841 -0.5158
vn 0.0338 0.9989 -0.0338
vn -0.4820 0.7317 0.4820
vn -0.7071 -0.0000 0.7071
vn -0.4820 -0.7317 0.4820
vn 0.0338 -0.9989 -0.0338
vn 0.5158 -0.6841 -0.5158
vn 0.3827 -0.0000 -0.9239
vn 0.2791 0.6841 -0.6739
vn 0.0183 0.9989 -0.0441
vn -0.2608 0.7317 0.6297
vn -0.3827 -0.0000 0.9239
vn -0.2608 -0.7317 0.6297
vn 0.0183 -0.9989 -0.0441
vn 0.2791 -0.6841 -0.6739
vn -0.0000 -0.0000 -1.0000
vn -0.0000 0.6841 -0.7294
vn -0.0000 0.9989 -0.0477
vn -0.0000 0.7317 0.6816
vn -0.0000 -0.0000 1.0000
vn -0.0000 -0.7317 0.6816
vn -0.0000 -0.9989 -0.0477
vn -0.0000 -0.6841 -0.7294
vn -0.3827 -0.0000 -0.9239
vn -0.2791 0.6841 -0.6739
vn -0.0183 0.9989 -0.0441
vn 0.2608 0.7317 0.6297
vn 0.3827 -0.0000 0.9239
vn 0.2608 -0.7317 0.6297
vn -0.0183 -0.9989 -0.0441
vn -0.2791 -0.6841 -0.6739
vn -0.7071 -0.0000 -0.7071
vn -0.5158 0.6841 -0.5158
vn -0.0337 0.9989 -0.0338
vn 0.4820 0.7317 0.4820
vn 0.7071 -0.0000 0.7071
vn 0.4820 -0.7317 0.4820
vn -0.0338 -0.9989 -0.0338
vn -0.5158 -0.6841 -0.5158
vn -0.9239 -0.0000 -0.3827
vn -0.6739 0.6841 -0.2791
vn -0.0441 0.9989 -0.0183
vn 0.6297 0.7317 0.2608
vn 0.9239 -0.0000 0.3827
vn 0.6297 -0.7317 0.2608
vn -0.0441 -0.9989 -0.0183
vn -0.6739 -0.6841 -0.2791
vn -0.7294 0.6841 -0.0000
vn -0.0477 0.9989 -0.0000
vn 0.6816 0.7317 -0.0000
vn 0.6816 -0.7317 -0.0000
vn -0.0477 -0.9989 -0.0000
vn -0.7294 -0.6841 -0.0000
vn -0.6739 0.6841 0.2791
vn -0.0441 0.9989 0.0183
vn 0.6297 0.7317 -0.2608
vn 0.6297 -0.7317 -0.2608
vn -0.0441 -0.9989 0.0183
vn -0.6739 -0.6841 0.2791
vn -0.5158 0.6841 0.5158
vn -0.0337 0.9989 0.0338
vn 0.4820 0.7317 -0.4820
vn 0.4820 -0.7317 -0.4820
vn -0.0338 -0.9989 0.0338
vn -0.5158 -0.6841 0.5158
vn -0.2791 0.6841 0.6739
vn -0.0183 0.9989 0.0441
vn 0.2608 0.7317 -0.6297
vn 0.2608 -0.7317 -0.6297
vn -0.0183 -0.9989 0.0441
vn -0.2791 -0.6841 0.6739
vn -0.0000 0.6841 0.7294
vn -0.0000 0.9989 0.0477
vn -0.0000 0.7317 -0.6816
vn -0.0000 -0.7317 -0.6816
vn -0.0000 -0.9989 0.0477
vn -0.0000 -0.6841 0.7294
vn 0.2791 0.6841 0.6739
vn 0.0183 0.9989 0.0441
vn -0.2608 0.7317 -0.6297
vn -0.2608 -0.7317 -0.6297
vn 0.0183 -0.9989 0.0441
vn 0.2791 -0.6841 0.6739
vn 0.5158 0.6841 0.5158
vn 0.0338 0.9989 0.0338
vn -0.4820 0.7317 -0.4820
vn -0.4820 -0.7317 -0.4820
vn 0.0338 -0.9989 0.0338
vn 0.5158 -0.6841 0.5158
vn 0.6739 0.6841 0.2791
vn 0.0441 0.9989 0.0183
vn -0.6297 0.7317 -0.2608
vn -0.6297 -0.7317 -0.2608
vn 0.0441 -0.9989 0.0183
vn 0.6739 -0.6841 0.2791
vt 0.562500 0.500000
vt 0.500000 0.625000
vt 0.500000 0.500000
vt 0.562500 0.625000
vt 0.500000 0.750000
vt 0.562500 0.750000
vt 0.500000 0.875000
vt 0.562500 0.875000
vt 0.500000 1.000000
vt 0.562500 0.000000
vt 0.500000 0.125000
vt 0.500000 0.000000
vt 0.562500 0.125000
vt 0.500000 0.250000
vt 0.562500 0.250000
vt 0.500000 0.375000
vt 0.562500 0.375000
vt 0.625000 0.625000
vt 0.625000 0.750000
vt 0.625000 0.875000
vt 0.562500 1.000000
vt 0.625000 0.000000
vt 0.625000 0.125000
vt 0.625000 0.375000
vt 0.687500 0.500000
vt 0.625000 0.500000
vt 0.687500 0.750000
vt 0.687500 0.875000
vt 0.687500 1.000000
vt 0.625000 1.000000
vt 0.687500 0.000000
vt 0.687500 0.125000
vt 0.625000 0.250000
vt 0.687500 0.250000
vt 0.750000 0.500000
vt 0.687500 0.625000
vt 0.750000 0.625000
vt 0.750000 0.750000
vt 0.750000 0.875000
vt 0.750000 0.000000
vt 0.750000 0.125000
vt 0.750000 0.250000
vt 0.687500 0.375000
vt 0.750000 0.375000
vt 0.812500 0.500000
vt 0.812500 0.625000
vt 0.812500 0.750000
vt 0.812500 0.875000
vt 0.750000 1.000000
vt 0.812500 0.000000
vt 0.812500 0.125000
vt 0.812500 0.250000
vt 0.812500 0.375000
vt 0.875000 0.500000
vt 0.875000 0.625000
vt 0.875000 0.750000
vt 0.875000 0.875000
vt 0.812500 1.000000
vt 0.875000 0.125000
vt 0.875000 0.375000
vt 0.937500 0.500000
vt 0.937500 0.625000
vt 0.937500 0.875000
vt 0.875000 1.000000
vt 0.937500 0.000000
vt 0.875000 0.000000
vt 0.937500 0.125000
vt 0.875000 0.250000
vt 0.937500 0.375000
vt 1.000000 0.500000
vt 1.000000 0.625000
vt 0.937500 0.750000
vt 1.000000 0.750000
vt 1.000000 0.875000
vt 0.937500 1.000000
vt 1.000000 0.125000
vt 0.937500 0.250000
vt 1.000000 0.250000
vt 1.000000 0.375000
vt 0.062500 0.500000
vt 0.000000 0.625000
vt 0.000000 0.500000
vt 0.062500 0.625000
vt 0.000000 0.750000
vt 0.062500 0.875000
vt 0.000000 0.875000
vt 0.000000 1.000000
vt 0.062500 0.000000
vt 0.000000 0.125000
vt 0.000000 0.000000
vt 0.062500 0.125000
vt 0.000000 0.250000
vt 0.062500 0.250000
vt 0.000000 0.375000
vt 0.062500 0.375000
vt 0.125000 0.500000
vt 0.125000 0.750000
vt 0.062500 0.750000
vt 0.125000 0.875000
vt 0.062500 1.000000
vt 0.125000 0.000000
vt 0.125000 0.125000
vt 0.125000 0.250000
vt 0.187500 0.500000
vt 0.125000 0.625000
vt 0.187500 0.750000
vt 0.187500 0.875000
vt 0.125000 1.000000
vt 0.187500 0.000000
vt 0.187500 0.125000
vt 0.187500 0.250000
vt 0.125000 0.375000
vt 0.187500 0.375000
vt 0.250000 0.500000
vt 0.187500 0.625000
vt 0.250000 0.625000
vt 0.250000 0.750000
vt 0.250000 0.875000
vt 0.187500 1.000000
vt 0.250000 0.000000
vt 0.250000 0.125000
vt 0.250000 0.250000
vt 0.250000 0.375000
vt 0.312500 0.500000
vt 0.312500 0.625000
vt 0.312500 0.750000
vt 0.312500 0.875000
vt 0.250000 1.000000
vt 0.312500 0.000000
vt 0.312500 0.125000
vt 0.312500 0.250000
vt 0.312500 0.375000
vt 0.375000 0.625000
vt 0.375000 0.750000
vt 0.375000 0.875000
vt 0.312500 1.000000
vt 0.375000 0.000000
vt 0.375000 0.125000
vt 0.375000 0.250000
vt 0.375000 0.375000
vt 0.375000 0.500000
vt 0.437500 0.625000
vt 0.437500 0.750000
vt 0.437500 1.000000
vt 0.375000 1.000000
vt 0.437500 0.000000
vt 0.437500 0.125000
vt 0.437500 0.250000
vt 0.437500 0.375000
vt 0.437500 0.500000
vt 0.437500 0.875000
vt 1.000000 1.000000
vt 1.000000 0.000000
s 1
f 9/1/9 2/2/2 1/3/1
f 10/4/10 3/5/3 2/2/2
f 11/6/11 4/7/4 3/5/3
f 12/8/12 5/9/5 4/7/4
f 13/10/13 6/11/6 5/12/5
f 14/13/14 7/14/7 6/11/6
f 15/15/15 8/16/8 7/14/7
f 16/17/16 1/3/1 8/16/8
f 9/1/9 18/18/18 10/4/10
f 18/18/18 11/6/11 10/4/10
f 19/19/19 12/8/12 11/6/11
f 20/20/20 13/21/13 12/8/12
f 21/22/21 14/13/14 13/10/13
f 22/23/22 15/15/15 14/13/14
f 15/15/15 24/24/24 16/17/16
f 24/24/24 9/1/9 16/17/16
f 25/25/25 18/18/18 17/26/17
f 18/18/18 27/27/27 19/19/19
f 19/19/19 28/28/28 20/20/20
f 20/20/20 29/29/29 21/30/21
f 29/31/29 22/23/22 21/22/21
f 30/32/30 23/33/23 22/23/22
f 31/34/31 24/24/24 23/33/23
f 24/24/24 25/25/25 17/26/17
f 33/35/33 26/36/26 25/25/25
f 34/37/34 27/27/27 26/36/26
f 35/38/35 28/28/28 27/27/27
f 36/39/36 29/29/29 28/28/28
f 37/40/37 30/32/30 29/31/29
f 38/41/38 31/34/31 30/32/30
f 39/42/39 32/43/32 31/34/31
f 40/44/40 25/25/25 32/43/32
f 41/45/41 34/37/34 33/35/33
f 42/46/42 35/38/35 34/37/34
f 43/47/43 36/39/36 35/38/35
f 44/48/44 37/49/37 36/39/36
f 45/50/45 38/41/38 37/40/37
f 46/51/46 39/42/39 38/41/38
f 47/52/47 40/44/40 39/42/39
f 48/53/48 33/35/33 40/44/40
f 49/54/49 42/46/42 41/45/41
f 50/55/50 43/47/43 42/46/42
f 51/56/51 44/48/44 43/47/43
f 52/57/52 45/58/45 44/48/44
f 45/50/45 54/59/54 46/51/46
f 54/59/54 47/52/47 46/51/46
f 47/52/47 56/60/56 48/53/48
f 56/60/56 41/45/41 48/53/48
f 57/61/57 50/55/50 49/54/49
f 58/62/58 51/56/51 50/55/50
f 51/56/51 60/63/60 52/57/52
f 60/63/60 53/64/53 52/57/52
f 61/65/61 54/59/54 53/66/53
f 62/67/62 55/68/55 54/59/54
f 55/68/55 64/69/64 56/60/56
f 64/69/64 49/54/49 56/60/56
f 65/70/5 58/62/58 57/61/57
f 66/71/65 59/72/59 58/62/58
f 67/73/66 60/63/60 59/72/59
f 68/74/67 61/75/61 60/63/60
f 61/65/61 70/76/68 62/67/62
f 70/76/68 63/77/63 62/67/62
f 71/78/69 64/69/64 63/77/63
f 72/79/70 57/61/57 64/69/64
f 73/80/13 66/81/65 65/82/5
f 74/83/71 67/84/66 66/81/65
f 67/84/66 76/85/73 68/86/67
f 76/85/73 69/87/1 68/86/67
f 77/88/9 70/89/68 69/90/1
f 78/91/74 71/92/69 70/89/68
f 79/93/75 72/94/70 71/92/69
f 80/95/76 65/82/5 72/94/70
f 81/96/21 74/83/71 73/80/13
f 74/83/71 83/97/78 75/98/72
f 83/97/78 76/85/73 75/98/72
f 84/99/79 77/100/9 76/85/73
f 85/101/17 78/91/74 77/88/9
f 86/102/80 79/93/75 78/91/74
f 87/103/81 80/95/76 79/93/75
f 80/95/76 81/96/21 73/80/13
f 89/104/29 82/105/77 81/96/21
f 82/105/77 91/106/84 83/97/78
f 83/97/78 92/107/85 84/99/79
f 92/107/85 85/108/17 84/99/79
f 93/109/25 86/102/80 85/101/17
f 94/110/86 87/103/81 86/102/80
f 95/111/87 88/112/82 87/103/81
f 96/113/88 81/96/21 88/112/82
f 97/114/37 90/115/83 89/104/29
f 98/116/89 91/106/84 90/115/83
f 99/117/90 92/107/85 91/106/84
f 100/118/91 93/119/25 92/107/85
f 101/120/33 94/110/86 93/109/25
f 102/121/92 95/111/87 94/110/86
f 103/122/93 96/113/88 95/111/87
f 104/123/94 89/104/29 96/113/88
f 105/124/45 98/116/89 97/114/37
f 106/125/95 99/117/90 98/116/89
f 107/126/96 100/118/91 99/117/90
f 108/127/97 101/128/33 100/118/91
f 109/129/41 102/121/92 101/120/33
f 110/130/98 103/122/93 102/121/92
f 111/131/99 104/123/94 103/122/93
f 112/132/100 97/114/37 104/123/94
f 105/124/45 114/133/101 106/125/95
f 114/133/101 107/126/96 106/125/95
f 115/134/102 108/127/97 107/126/96
f 116/135/103 109/136/41 108/127/97
f 117/137/49 110/130/98 109/129/41
f 118/138/104 111/131/99 110/130/98
f 119/139/105 112/132/100 111/131/99
f 120/140/106 105/124/45 112/132/100
f 113/141/53 122/142/107 114/133/101
f 122/142/107 115/134/102 114/133/101
f 123/143/108 116/135/103 115/134/102
f 116/135/103 125/144/57 117/145/49
f 125/146/57 118/138/104 117/137/49
f 126/147/110 119/139/105 118/138/104
f 127/148/111 120/140/106 119/139/105
f 128/149/112 113/141/53 120/140/106
f 1/3/1 122/142/107 121/150/61
f 2/2/2 123/143/108 122/142/107
f 3/5/3 124/151/109 123/143/108
f 124/151/109 5/9/5 125/144/57
f 125/146/57 6/11/6 126/147/110
f 6/11/6 127/148/111 126/147/110
f 127/148/111 8/16/8 128/149/112
f 8/16/8 121/150/61 128/149/112
f 9/1/9 10/4/10 2/2/2
f 10/4/10 11/6/11 3/5/3
f 11/6/11 12/8/12 4/7/4
f 12/8/12 13/21/13 5/9/5
f 13/10/13 14/13/14 6/11/6
f 14/13/14 15/15/15 7/14/7
f 15/15/15 16/17/16 8/16/8
f 16/17/16 9/1/9 1/3/1
f 9/1/9 17/26/17 18/18/18
f 18/18/18 19/19/19 11/6/11
f 19/19/19 20/20/20 12/8/12
f 20/20/20 21/30/21 13/21/13
f 21/22/21 22/23/22 14/13/14
f 22/23/22 23/33/23 15/15/15
f 15/15/15 23/33/23 24/24/24
f 24/24/24 17/26/17 9/1/9
f 25/25/25 26/36/26 18/18/18
f 18/18/18 26/36/26 27/27/27
f 19/19/19 27/27/27 28/28/28
f 20/20/20 28/28/28 29/29/29
f 29/31/29 30/32/30 22/23/22
f 30/32/30 31/34/31 23/33/23
f 31/34/31 32/43/32 24/24/24
f 24/24/24 32/43/32 25/25/25
f 33/35/33 34/37/34 26/36/26
f 34/37/34 35/38/35 27/27/27
f 35/38/35 36/39/36 28/28/28
f 36/39/36 37/49/37 29/29/29
f 37/40/37 38/41/38 30/32/30
f 38/41/38 39/42/39 31/34/31
f 39/42/39 40/44/40 32/43/32
f 40/44/40 33/35/33 25/25/25
f 41/45/41 42/46/42 34/37/34
f 42/46/42 43/47/43 35/38/35
f 43/47/43 44/48/44 36/39/36
f 44/48/44 45/58/45 37/49/37
f 45/50/45 46/51/46 38/41/38
f 46/51/46 47/52/47 39/42/39
f 47/52/47 48/53/48 40/44/40
f 48/53/48 41/45/41 33/35/33
f 49/54/49 50/55/50 42/46/42
f 50/55/50 51/56/51 43/47/43
f 51/56/51 52/57/52 44/48/44
f 52/57/52 53/64/53 45/58/45
f 45/50/45 53/66/53 54/59/54
f 54/59/54 55/68/55 47/52/47
f 47/52/47 55/68/55 56/60/56
f 56/60/56 49/54/49 41/45/41
f 57/61/57 58/62/58 50/55/50
f 58/62/58 59/72/59 51/56/51
f 51/56/51 59/72/59 60/63/60
f 60/63/60 61/75/61 53/64/53
f 61/65/61 62/67/62 54/59/54
f 62/67/62 63/77/63 55/68/55
f 55/68/55 63/77/63 64/69/64
f 64/69/64 57/61/57 49/54/49
f 65/70/5 66/71/65 58/62/58
f 66/71/65 67/73/66 59/72/59
f 67/73/66 68/74/67 60/63/60
f 68/74/67 69/152/1 61/75/61
f 61/65/61 69/153/1 70/76/68
f 70/76/68 71/78/69 63/77/63
f 71/78/69 72/79/70 64/69/64
f 72/79/70 65/70/5 57/61/57
f 73/80/13 74/83/71 66/81/65
f 74/83/71 75/98/72 67/84/66
f 67/84/66 75/98/72 76/85/73
f 76/85/73 77/100/9 69/87/1
f 77/88/9 78/91/74 70/89/68
f 78/91/74 79/93/75 71/92/69
f 79/93/75 80/95/76 72/94/70
f 80/95/76 73/80/13 65/82/5
f 81/96/21 82/105/77 74/83/71
f 74/83/71 82/105/77 83/97/78
f 83/97/78 84/99/79 76/85/73
f 84/99/79 85/108/17 77/100/9
f 85/101/17 86/102/80 78/91/74
f 86/102/80 87/103/81 79/93/75
f 87/103/81 88/112/82 80/95/76
f 80/95/76 88/112/82 81/96/21
f 89/104/29 90/115/83 82/105/77
f 82/105/77 90/115/83 91/106/84
f 83/97/78 91/106/84 92/107/85
f 92/107/85 93/119/25 85/108/17
f 93/109/25 94/110/86 86/102/80
f 94/110/86 95/111/87 87/103/81
f 95/111/87 96/113/88 88/112/82
f 96/113/88 89/104/29 81/96/21
f 97/114/37 98/116/89 90/115/83
f 98/116/89 99/117/90 91/106/84
f 99/117/90 100/118/91 92/107/85
f 100/118/91 101/128/33 93/119/25
f 101/120/33 102/121/92 94/110/86
f 102/121/92 103/122/93 95/111/87
f 103/122/93 104/123/94 96/113/88
f 104/123/94 97/114/37 89/104/29
f 105/124/45 106/125/95 98/116/89
f 106/125/95 107/126/96 99/117/90
f 107/126/96 108/127/97 100/118/91
f 108/127/97 109/136/41 101/128/33
f 109/129/41 110/130/98 102/121/92
f 110/130/98 111/131/99 103/122/93
f 111/131/99 112/132/100 104/123/94
f 112/132/100 105/124/45 97/114/37
f 105/124/45 113/141/53 114/133/101
f 114/133/101 115/134/102 107/126/96
f 115/134/102 116/135/103 108/127/97
f 116/135/103 117/145/49 109/136/41
f 117/137/49 118/138/104 110/130/98
f 118/138/104 119/139/105 111/131/99
f 119/139/105 120/140/106 112/132/100
f 120/140/106 113/141/53 105/124/45
f 113/141/53 121/150/61 122/142/107
f 122/142/107 123/143/108 115/134/102
f 123/143/108 124/151/109 116/135/103
f 116/135/103 124/151/109 125/144/57
f 125/146/57 126/147/110 118/138/104
f 126/147/110 127/148/111 119/139/105
f 127/148/111 128/149/112 120/140/106
f 128/149/112 121/150/61 113/141/53
f 1/3/1 2/2/2 122/142/107
f 2/2/2 3/5/3 123/143/108
f 3/5/3 4/7/4 124/151/109
f 124/151/109 4/7/4 5/9/5
f 125/146/57 5/12/5 6/11/6
f 6/11/6 7/14/7 127/148/111
f 127/148/111 7/14/7 8/16/8
f 8/16/8 1/3/1 121/150/61
