# Blender 4.5.0 Release Candidate
# www.blender.org
o Sphere
v 0.000000 0.382683 -0.923880
v 0.000000 0.000000 -1.000000
v 0.000000 -0.382683 -0.923880
v 0.000000 -0.923880 -0.382683
v 0.146447 0.923880 -0.353553
v 0.270598 0.707107 -0.653281
v 0.353553 0.382683 -0.853553
v 0.382683 0.000000 -0.923880
v 0.353553 -0.382683 -0.853553
v 0.270598 -0.707107 -0.653281
v 0.146447 -0.923880 -0.353553
v 0.270598 0.923880 -0.270598
v 0.500000 0.707107 -0.500000
v 0.653282 0.382683 -0.653281
v 0.707107 0.000000 -0.707107
v 0.653282 -0.382683 -0.653281
v 0.500000 -0.707107 -0.500000
v 0.270598 -0.923880 -0.270598
v 0.353553 0.923880 -0.146447
v 0.653281 0.707107 -0.270598
v 0.853553 0.382683 -0.353553
v 0.923880 0.000000 -0.382683
v 0.853553 -0.382683 -0.353553
v 0.653281 -0.707107 -0.270598
v 0.353553 -0.923880 -0.146447
v 0.382683 0.923880 0.000000
v 0.707107 0.707107 0.000000
v 0.923880 0.382683 0.000000
v 1.000000 0.000000 0.000000
v 0.923880 -0.382683 0.000000
v 0.707107 -0.707107 0.000000
v 0.382683 -0.923880 0.000000
v 0.353553 0.923880 0.146447
v 0.653281 0.707107 0.270598
v 0.853553 0.382683 0.353554
v 0.923879 0.000000 0.382684
v 0.853553 -0.382683 0.353554
v 0.653281 -0.707107 0.270598
v 0.353553 -0.923880 0.146447
v 0.270598 0.923880 0.270598
v 0.500000 0.707107 0.500000
v 0.653281 0.382683 0.653282
v 0.707107 0.000000 0.707107
v 0.653281 -0.382683 0.653282
v 0.500000 -0.707107 0.500000
v 0.270598 -0.923880 0.270598
v 0.146447 0.923880 0.353553
v 0.270598 0.707107 0.653281
v 0.353553 0.382683 0.853553
v 0.382683 0.000000 0.923880
v 0.353553 -0.382683 0.853553
v 0.270598 -0.707107 0.653281
v 0.146447 -0.923880 0.353553
v -0.000000 0.923880 0.382683
v -0.000000 0.707107 0.707107
v -0.000000 0.382683 0.923879
v -0.000000 0.000000 1.000000
v -0.000000 -0.382683 0.923879
v -0.000000 -0.707107 0.707107
v -0.000000 -0.923880 0.382683
v 0.000000 -1.000000 0.000000
v 0.000000 1.000000 0.000000
v -0.146447 0.923880 0.353553
v -0.270598 0.707107 0.653281
v -0.353554 0.382683 0.853553
v -0.382684 0.000000 0.923879
v -0.353554 -0.382683 0.853553
v -0.270598 -0.707107 0.653281
v -0.146447 -0.923880 0.353553
v -0.270598 0.923880 0.270598
v -0.500000 0.707107 0.500000
v -0.653282 0.382683 0.653281
v -0.707107 0.000000 0.707106
v -0.653282 -0.382683 0.653281
v -0.500000 -0.707107 0.500000
v -0.270598 -0.923880 0.270598
v -0.353553 0.923880 0.146446
v -0.653281 0.707107 0.270598
v -0.853553 0.382683 0.353553
v -0.923880 0.000000 0.382683
v -0.853553 -0.382683 0.353553
v -0.653281 -0.707107 0.270598
v -0.353553 -0.923880 0.146446
v -0.382683 0.923880 -0.000000
v -0.707107 0.707107 -0.000000
v -0.923879 0.382683 -0.000000
v -1.000000 0.000000 -0.000001
v -0.923879 -0.382683 -0.000000
v -0.707107 -0.707107 -0.000000
v -0.382683 -0.923880 -0.000000
v -0.353553 0.923880 -0.146447
v -0.653281 0.707107 -0.270598
v -0.853553 0.382683 -0.353554
v -0.923879 0.000000 -0.382684
v -0.853553 -0.382683 -0.353554
v -0.653281 -0.707107 -0.270598
v -0.353553 -0.923880 -0.146447
v -0.270598 0.923880 -0.270598
v -0.500000 0.707107 -0.500000
v -0.653281 0.382683 -0.653282
v -0.707106 0.000000 -0.707107
v -0.653281 -0.382683 -0.653282
v -0.500000 -0.707107 -0.500000
v -0.270598 -0.923880 -0.270598
v -0.146446 0.923880 -0.353554
v -0.270598 0.707107 -0.653281
v -0.353553 0.382683 -0.853553
v -0.382683 0.000000 -0.923880
v -0.353553 -0.382683 -0.853553
v -0.270598 -0.707107 -0.653281
v -0.146446 -0.923880 -0.353554
v 0.000000 0.923880 -0.382683
v 0.000000 0.707107 -0.707107
v 0.000000 -0.707107 -0.707107
vn -0.0000 0.3744 -0.9273
vn -0.0000 -0.0000 -1.0000
vn -0.0000 -0.3744 -0.9273
vn -0.0000 -0.9152 -0.4031
vn 0.1543 0.9152 -0.3724
vn 0.2751 0.6952 -0.6641
vn 0.3549 0.3744 -0.8567
vn 0.3827 -0.0000 -0.9239
vn 0.3549 -0.3744 -0.8567
vn 0.2751 -0.6952 -0.6641
vn 0.1543 -0.9152 -0.3724
vn 0.2850 0.9152 -0.2850
vn 0.5083 0.6952 -0.5083
vn 0.6557 0.3744 -0.6557
vn 0.7071 -0.0000 -0.7071
vn 0.6557 -0.3744 -0.6557
vn 0.5083 -0.6952 -0.5083
vn 0.2850 -0.9152 -0.2850
vn 0.3724 0.9152 -0.1543
vn 0.6641 0.6952 -0.2751
vn 0.8567 0.3744 -0.3549
vn 0.9239 -0.0000 -0.3827
vn 0.8567 -0.3744 -0.3549
vn 0.6641 -0.6952 -0.2751
vn 0.3724 -0.9152 -0.1543
vn 0.4031 0.9152 -0.0000
vn 0.7189 0.6952 -0.0000
vn 0.9273 0.3744 -0.0000
vn 1.0000 -0.0000 -0.0000
vn 0.9273 -0.3744 -0.0000
vn 0.7189 -0.6952 -0.0000
vn 0.4031 -0.9152 -0.0000
vn 0.3724 0.9152 0.1543
vn 0.6641 0.6952 0.2751
vn 0.8567 0.3744 0.3549
vn 0.9239 -0.0000 0.3827
vn 0.8567 -0.3744 0.3549
vn 0.6641 -0.6952 0.2751
vn 0.3724 -0.9152 0.1543
vn 0.2850 0.9152 0.2850
vn 0.5083 0.6952 0.5083
vn 0.6557 0.3744 0.6557
vn 0.7071 -0.0000 0.7071
vn 0.6557 -0.3744 0.6557
vn 0.5083 -0.6952 0.5083
vn 0.2850 -0.9152 0.2850
vn 0.1543 0.9152 0.3724
vn 0.2751 0.6952 0.6641
vn 0.3549 0.3744 0.8567
vn 0.3827 -0.0000 0.9239
vn 0.3549 -0.3744 0.8567
vn 0.2751 -0.6952 0.6641
vn 0.1543 -0.9152 0.3724
vn -0.0000 0.9152 0.4031
vn -0.0000 0.6952 0.7189
vn -0.0000 0.3744 0.9273
vn -0.0000 -0.0000 1.0000
vn -0.0000 -0.3744 0.9273
vn -0.0000 -0.6952 0.7189
vn -0.0000 -0.9152 0.4031
vn -0.0000 -1.0000 -0.0000
vn -0.0000 1.0000 -0.0000
vn -0.1543 0.9152 0.3724
vn -0.2751 0.6952 0.6641
vn -0.3549 0.3744 0.8567
vn -0.3827 -0.0000 0.9239
vn -0.3549 -0.3744 0.8567
vn -0.2751 -0.6952 0.6641
vn -0.1543 -0.9152 0.3724
vn -0.2850 0.9152 0.2850
vn -0.5083 0.6952 0.5083
vn -0.6557 0.3744 0.6557
vn -0.7071 -0.0000 0.7071
vn -0.6557 -0.3744 0.6557
vn -0.5083 -0.6952 0.5083
vn -0.2850 -0.9152 0.2850
vn -0.3724 0.9152 0.1543
vn -0.6641 0.6952 0.2751
vn -0.8567 0.3744 0.3549
vn -0.9239 -0.0000 0.3827
vn -0.8567 -0.3744 0.3549
vn -0.6641 -0.6952 0.2751
vn -0.3724 -0.9152 0.1543
vn -0.4031 0.9152 -0.0000
vn -0.7189 0.6952 -0.0000
vn -0.9273 0.3744 -0.0000
vn -1.0000 -0.0000 -0.0000
vn -0.9273 -0.3744 -0.0000
vn -0.7189 -0.6952 -0.0000
vn -0.4031 -0.9152 -0.0000
vn -0.3724 0.9152 -0.1543
vn -0.6641 0.6952 -0.2751
vn -0.8567 0.3744 -0.3549
vn -0.9239 -0.0000 -0.3827
vn -0.8567 -0.3744 -0.3549
vn -0.6641 -0.6952 -0.2751
vn -0.3724 -0.9152 -0.1543
vn -0.2850 0.9152 -0.2850
vn -0.5083 0.6952 -0.5083
vn -0.6557 0.3744 -0.6557
vn -0.7071 -0.0000 -0.7071
vn -0.6557 -0.3744 -0.6557
vn -0.5083 -0.6952 -0.5083
vn -0.2850 -0.9152 -0.2850
vn -0.1543 0.9152 -0.3724
vn -0.2751 0.6952 -0.6641
vn -0.3549 0.3744 -0.8567
vn -0.3827 -0.0000 -0.9239
vn -0.3549 -0.3744 -0.8567
vn -0.2751 -0.6952 -0.6641
vn -0.1543 -0.9152 -0.3724
vn -0.0000 0.9152 -0.4031
vn -0.0000 0.6952 -0.7189
vn -0.0000 -0.6952 -0.7189
vt 0.750000 0.750000
vt 0.687500 0.875000
vt 0.687500 0.750000
vt 0.750000 0.250000
vt 0.687500 0.125000
vt 0.750000 0.125000
vt 0.750000 0.500000
vt 0.687500 0.375000
vt 0.750000 0.375000
vt 0.687500 0.625000
vt 0.750000 0.625000
vt 0.750000 0.875000
vt 0.718750 1.000000
vt 0.718750 0.000000
vt 0.687500 0.250000
vt 0.687500 0.500000
vt 0.625000 0.500000
vt 0.625000 0.375000
vt 0.625000 0.625000
vt 0.656250 1.000000
vt 0.625000 0.875000
vt 0.656250 0.000000
vt 0.625000 0.125000
vt 0.625000 0.250000
vt 0.625000 0.750000
vt 0.593750 0.000000
vt 0.562500 0.125000
vt 0.562500 0.375000
vt 0.562500 0.250000
vt 0.562500 0.625000
vt 0.562500 0.500000
vt 0.562500 0.750000
vt 0.593750 1.000000
vt 0.562500 0.875000
vt 0.500000 0.500000
vt 0.500000 0.750000
vt 0.500000 0.125000
vt 0.500000 0.375000
vt 0.500000 0.625000
vt 0.531250 1.000000
vt 0.500000 0.875000
vt 0.531250 0.000000
vt 0.500000 0.250000
vt 0.437500 0.250000
vt 0.437500 0.125000
vt 0.437500 0.375000
vt 0.437500 0.625000
vt 0.468750 1.000000
vt 0.437500 0.875000
vt 0.468750 0.000000
vt 0.437500 0.500000
vt 0.437500 0.750000
vt 0.375000 0.625000
vt 0.406250 1.000000
vt 0.375000 0.875000
vt 0.406250 0.000000
vt 0.375000 0.125000
vt 0.375000 0.250000
vt 0.375000 0.500000
vt 0.375000 0.750000
vt 0.375000 0.375000
vt 0.343750 0.000000
vt 0.312500 0.125000
vt 0.312500 0.375000
vt 0.312500 0.250000
vt 0.312500 0.500000
vt 0.312500 0.750000
vt 0.312500 0.625000
vt 0.343750 1.000000
vt 0.312500 0.875000
vt 0.250000 0.750000
vt 0.250000 0.250000
vt 0.250000 0.125000
vt 0.250000 0.375000
vt 0.250000 0.625000
vt 0.281250 1.000000
vt 0.250000 0.875000
vt 0.281250 0.000000
vt 0.250000 0.500000
vt 0.187500 0.125000
vt 0.187500 0.375000
vt 0.187500 0.625000
vt 0.218750 1.000000
vt 0.187500 0.875000
vt 0.218750 0.000000
vt 0.187500 0.250000
vt 0.187500 0.500000
vt 0.187500 0.750000
vt 0.156250 1.000000
vt 0.125000 0.875000
vt 0.156250 0.000000
vt 0.125000 0.125000
vt 0.125000 0.375000
vt 0.125000 0.250000
vt 0.125000 0.625000
vt 0.125000 0.500000
vt 0.125000 0.750000
vt 0.062500 0.375000
vt 0.062500 0.250000
vt 0.062500 0.625000
vt 0.062500 0.500000
vt 0.062500 0.750000
vt 0.062500 0.125000
vt 0.093750 1.000000
vt 0.062500 0.875000
vt 0.093750 0.000000
vt 0.000000 0.125000
vt 0.000000 0.375000
vt 0.000000 0.625000
vt 0.031250 1.000000
vt 0.000000 0.875000
vt 0.031250 0.000000
vt 0.000000 0.250000
vt 0.000000 0.500000
vt 0.000000 0.750000
vt 1.000000 0.500000
vt 0.937500 0.375000
vt 1.000000 0.375000
vt 1.000000 0.750000
vt 0.937500 0.625000
vt 1.000000 0.625000
vt 1.000000 0.875000
vt 0.968750 1.000000
vt 0.937500 0.875000
vt 0.968750 0.000000
vt 1.000000 0.125000
vt 0.937500 0.125000
vt 0.937500 0.250000
vt 1.000000 0.250000
vt 0.937500 0.500000
vt 0.937500 0.750000
vt 0.906250 0.000000
vt 0.875000 0.125000
vt 0.875000 0.375000
vt 0.875000 0.250000
vt 0.875000 0.625000
vt 0.875000 0.500000
vt 0.875000 0.750000
vt 0.906250 1.000000
vt 0.875000 0.875000
vt 0.812500 0.625000
vt 0.812500 0.500000
vt 0.812500 0.750000
vt 0.812500 0.125000
vt 0.812500 0.375000
vt 0.843750 1.000000
vt 0.812500 0.875000
vt 0.843750 0.000000
vt 0.812500 0.250000
vt 0.781250 1.000000
vt 0.781250 0.000000
s 1
f 113/1/113 5/2/5 6/3/6
f 114/4/114 11/5/11 4/6/4
f 2/7/2 9/8/9 3/9/3
f 113/1/113 7/10/7 1/11/1
f 112/12/112 62/13/62 5/2/5
f 61/14/61 4/6/4 11/5/11
f 114/4/114 9/8/9 10/15/10
f 1/11/1 8/16/8 2/7/2
f 9/8/9 15/17/15 16/18/16
f 6/3/6 14/19/14 7/10/7
f 5/2/5 62/20/62 12/21/12
f 61/22/61 11/5/11 18/23/18
f 9/8/9 17/24/17 10/15/10
f 7/10/7 15/17/15 8/16/8
f 5/2/5 13/25/13 6/3/6
f 10/15/10 18/23/18 11/5/11
f 61/26/61 18/23/18 25/27/25
f 17/24/17 23/28/23 24/29/24
f 15/17/15 21/30/21 22/31/22
f 12/21/12 20/32/20 13/25/13
f 17/24/17 25/27/25 18/23/18
f 15/17/15 23/28/23 16/18/16
f 13/25/13 21/30/21 14/19/14
f 12/21/12 62/33/62 19/34/19
f 21/30/21 29/35/29 22/31/22
f 19/34/19 27/36/27 20/32/20
f 24/29/24 32/37/32 25/27/25
f 23/28/23 29/35/29 30/38/30
f 21/30/21 27/36/27 28/39/28
f 19/34/19 62/40/62 26/41/26
f 61/42/61 25/27/25 32/37/32
f 23/28/23 31/43/31 24/29/24
f 32/37/32 38/44/38 39/45/39
f 29/35/29 37/46/37 30/38/30
f 27/36/27 35/47/35 28/39/28
f 26/41/26 62/48/62 33/49/33
f 61/50/61 32/37/32 39/45/39
f 30/38/30 38/44/38 31/43/31
f 28/39/28 36/51/36 29/35/29
f 27/36/27 33/49/33 34/52/34
f 34/52/34 42/53/42 35/47/35
f 33/49/33 62/54/62 40/55/40
f 61/56/61 39/45/39 46/57/46
f 37/46/37 45/58/45 38/44/38
f 36/51/36 42/53/42 43/59/43
f 34/52/34 40/55/40 41/60/41
f 39/45/39 45/58/45 46/57/46
f 36/51/36 44/61/44 37/46/37
f 61/62/61 46/57/46 53/63/53
f 45/58/45 51/64/51 52/65/52
f 42/53/42 50/66/50 43/59/43
f 40/55/40 48/67/48 41/60/41
f 45/58/45 53/63/53 46/57/46
f 44/61/44 50/66/50 51/64/51
f 41/60/41 49/68/49 42/53/42
f 40/55/40 62/69/62 47/70/47
f 47/70/47 55/71/55 48/67/48
f 53/63/53 59/72/59 60/73/60
f 50/66/50 58/74/58 51/64/51
f 48/67/48 56/75/56 49/68/49
f 47/70/47 62/76/62 54/77/54
f 61/78/61 53/63/53 60/73/60
f 51/64/51 59/72/59 52/65/52
f 50/66/50 56/75/56 57/79/57
f 59/72/59 69/80/69 60/73/60
f 57/79/57 67/81/67 58/74/58
f 55/71/55 65/82/65 56/75/56
f 54/77/54 62/83/62 63/84/63
f 61/85/61 60/73/60 69/80/69
f 59/72/59 67/81/67 68/86/68
f 56/75/56 66/87/66 57/79/57
f 54/77/54 64/88/64 55/71/55
f 63/84/63 62/89/62 70/90/70
f 61/91/61 69/80/69 76/92/76
f 68/86/68 74/93/74 75/94/75
f 66/87/66 72/95/72 73/96/73
f 63/84/63 71/97/71 64/88/64
f 69/80/69 75/94/75 76/92/76
f 66/87/66 74/93/74 67/81/67
f 64/88/64 72/95/72 65/82/65
f 75/94/75 81/98/81 82/99/82
f 73/96/73 79/100/79 80/101/80
f 70/90/70 78/102/78 71/97/71
f 75/94/75 83/103/83 76/92/76
f 73/96/73 81/98/81 74/93/74
f 71/97/71 79/100/79 72/95/72
f 70/90/70 62/104/62 77/105/77
f 61/106/61 76/92/76 83/103/83
f 82/99/82 90/107/90 83/103/83
f 80/101/80 88/108/88 81/98/81
f 78/102/78 86/109/86 79/100/79
f 77/105/77 62/110/62 84/111/84
f 61/112/61 83/103/83 90/107/90
f 82/99/82 88/108/88 89/113/89
f 80/101/80 86/109/86 87/114/87
f 78/102/78 84/111/84 85/115/85
f 87/116/87 95/117/95 88/118/88
f 85/119/85 93/120/93 86/121/86
f 84/122/84 62/123/62 91/124/91
f 61/125/61 90/126/90 97/127/97
f 88/118/88 96/128/96 89/129/89
f 87/116/87 93/120/93 94/130/94
f 84/122/84 92/131/92 85/119/85
f 89/129/89 97/127/97 90/126/90
f 61/132/61 97/127/97 104/133/104
f 96/128/96 102/134/102 103/135/103
f 94/130/94 100/136/100 101/137/101
f 91/124/91 99/138/99 92/131/92
f 96/128/96 104/133/104 97/127/97
f 94/130/94 102/134/102 95/117/95
f 92/131/92 100/136/100 93/120/93
f 91/124/91 62/139/62 98/140/98
f 101/137/101 107/141/107 108/142/108
f 98/140/98 106/143/106 99/138/99
f 103/135/103 111/144/111 104/133/104
f 101/137/101 109/145/109 102/134/102
f 99/138/99 107/141/107 100/136/100
f 98/140/98 62/146/62 105/147/105
f 61/148/61 104/133/104 111/144/111
f 103/135/103 109/145/109 110/149/110
f 110/149/110 4/6/4 111/144/111
f 108/142/108 3/9/3 109/145/109
f 106/143/106 1/11/1 107/141/107
f 105/147/105 62/150/62 112/12/112
f 61/151/61 111/144/111 4/6/4
f 110/149/110 3/9/3 114/4/114
f 107/141/107 2/7/2 108/142/108
f 106/143/106 112/12/112 113/1/113
f 113/1/113 112/12/112 5/2/5
f 114/4/114 10/15/10 11/5/11
f 2/7/2 8/16/8 9/8/9
f 113/1/113 6/3/6 7/10/7
f 114/4/114 3/9/3 9/8/9
f 1/11/1 7/10/7 8/16/8
f 9/8/9 8/16/8 15/17/15
f 6/3/6 13/25/13 14/19/14
f 9/8/9 16/18/16 17/24/17
f 7/10/7 14/19/14 15/17/15
f 5/2/5 12/21/12 13/25/13
f 10/15/10 17/24/17 18/23/18
f 17/24/17 16/18/16 23/28/23
f 15/17/15 14/19/14 21/30/21
f 12/21/12 19/34/19 20/32/20
f 17/24/17 24/29/24 25/27/25
f 15/17/15 22/31/22 23/28/23
f 13/25/13 20/32/20 21/30/21
f 21/30/21 28/39/28 29/35/29
f 19/34/19 26/41/26 27/36/27
f 24/29/24 31/43/31 32/37/32
f 23/28/23 22/31/22 29/35/29
f 21/30/21 20/32/20 27/36/27
f 23/28/23 30/38/30 31/43/31
f 32/37/32 31/43/31 38/44/38
f 29/35/29 36/51/36 37/46/37
f 27/36/27 34/52/34 35/47/35
f 30/38/30 37/46/37 38/44/38
f 28/39/28 35/47/35 36/51/36
f 27/36/27 26/41/26 33/49/33
f 34/52/34 41/60/41 42/53/42
f 37/46/37 44/61/44 45/58/45
f 36/51/36 35/47/35 42/53/42
f 34/52/34 33/49/33 40/55/40
f 39/45/39 38/44/38 45/58/45
f 36/51/36 43/59/43 44/61/44
f 45/58/45 44/61/44 51/64/51
f 42/53/42 49/68/49 50/66/50
f 40/55/40 47/70/47 48/67/48
f 45/58/45 52/65/52 53/63/53
f 44/61/44 43/59/43 50/66/50
f 41/60/41 48/67/48 49/68/49
f 47/70/47 54/77/54 55/71/55
f 53/63/53 52/65/52 59/72/59
f 50/66/50 57/79/57 58/74/58
f 48/67/48 55/71/55 56/75/56
f 51/64/51 58/74/58 59/72/59
f 50/66/50 49/68/49 56/75/56
f 59/72/59 68/86/68 69/80/69
f 57/79/57 66/87/66 67/81/67
f 55/71/55 64/88/64 65/82/65
f 59/72/59 58/74/58 67/81/67
f 56/75/56 65/82/65 66/87/66
f 54/77/54 63/84/63 64/88/64
f 68/86/68 67/81/67 74/93/74
f 66/87/66 65/82/65 72/95/72
f 63/84/63 70/90/70 71/97/71
f 69/80/69 68/86/68 75/94/75
f 66/87/66 73/96/73 74/93/74
f 64/88/64 71/97/71 72/95/72
f 75/94/75 74/93/74 81/98/81
f 73/96/73 72/95/72 79/100/79
f 70/90/70 77/105/77 78/102/78
f 75/94/75 82/99/82 83/103/83
f 73/96/73 80/101/80 81/98/81
f 71/97/71 78/102/78 79/100/79
f 82/99/82 89/113/89 90/107/90
f 80/101/80 87/114/87 88/108/88
f 78/102/78 85/115/85 86/109/86
f 82/99/82 81/98/81 88/108/88
f 80/101/80 79/100/79 86/109/86
f 78/102/78 77/105/77 84/111/84
f 87/116/87 94/130/94 95/117/95
f 85/119/85 92/131/92 93/120/93
f 88/118/88 95/117/95 96/128/96
f 87/116/87 86/121/86 93/120/93
f 84/122/84 91/124/91 92/131/92
f 89/129/89 96/128/96 97/127/97
f 96/128/96 95/117/95 102/134/102
f 94/130/94 93/120/93 100/136/100
f 91/124/91 98/140/98 99/138/99
f 96/128/96 103/135/103 104/133/104
f 94/130/94 101/137/101 102/134/102
f 92/131/92 99/138/99 100/136/100
f 101/137/101 100/136/100 107/141/107
f 98/140/98 105/147/105 106/143/106
f 103/135/103 110/149/110 111/144/111
f 101/137/101 108/142/108 109/145/109
f 99/138/99 106/143/106 107/141/107
f 103/135/103 102/134/102 109/145/109
f 110/149/110 114/4/114 4/6/4
f 108/142/108 2/7/2 3/9/3
f 106/143/106 113/1/113 1/11/1
f 110/149/110 109/145/109 3/9/3
f 107/141/107 1/11/1 2/7/2
f 106/143/106 105/147/105 112/12/112
